<?xml version="1.0" encoding="UTF-8" standalone="no"?>
<svg
   xmlns:dc="http://purl.org/dc/elements/1.1/"
   xmlns:cc="http://creativecommons.org/ns#"
   xmlns:rdf="http://www.w3.org/1999/02/22-rdf-syntax-ns#"
   xmlns:svg="http://www.w3.org/2000/svg"
   xmlns="http://www.w3.org/2000/svg"
   xmlns:sodipodi="http://sodipodi.sourceforge.net/DTD/sodipodi-0.dtd"
   xmlns:inkscape="http://www.inkscape.org/namespaces/inkscape"
   enable-background="new 0 0 128 128"
   version="1.1"
   viewBox="0 0 500 125"
   xml:space="preserve"
   id="svg88"
   sodipodi:docname="logo-500x125.svg"
   width="500"
   height="125"
   inkscape:version="1.0.2-2 (e86c870879, 2021-01-15)"
   inkscape:export-filename="logo-500x125.png"
   inkscape:export-xdpi="96"
   inkscape:export-ydpi="96"><metadata
   id="metadata54"><rdf:RDF><cc:Work
       rdf:about=""><dc:format>image/svg+xml</dc:format><dc:type
         rdf:resource="http://purl.org/dc/dcmitype/StillImage" /></cc:Work></rdf:RDF></metadata><defs
   id="defs92" /><sodipodi:namedview
   id="namedview90"
   pagecolor="#ffffff"
   bordercolor="#000000"
   borderopacity="0.25"
   inkscape:showpageshadow="2"
   inkscape:pageopacity="0.0"
   inkscape:pagecheckerboard="0"
   inkscape:deskcolor="#d1d1d1"
   showgrid="false"
   inkscape:zoom="2.4445464"
   inkscape:cx="258.7392"
   inkscape:cy="63.815519"
   inkscape:window-width="1920"
   inkscape:window-height="991"
   inkscape:window-x="-9"
   inkscape:window-y="-9"
   inkscape:window-maximized="1"
   inkscape:current-layer="svg88"
   inkscape:document-rotation="0" />

<g
   id="g921"
   transform="matrix(1.0253487,0,0,0.95004117,-5.3214903,2.5875805)"><g
     transform="matrix(0.85711,0,0,0.88869,-6.1569,0.44322)"
     id="g38">
	<path
   d="M 100.83,20.462 H 76.183 v -5.783 c 0,-4.51 -3.669,-8.179 -8.179,-8.179 -4.51,0 -8.179,3.669 -8.179,8.179 v 5.783 H 35.178 c -2.757,0 -5,2.243 -5,5 V 120.5 c 0,2.757 2.243,5 5,5 h 65.652 c 2.757,0 5,-2.243 5,-5 V 25.462 c 0,-2.757 -2.243,-5 -5,-5 z"
   fill="#e6e7e8"
   id="path2" />
	<g
   id="g36">
		<path
   d="M 96.826,120.5 H 31.174 c -2.209,0 -4,-1.791 -4,-4 V 21.462 c 0,-2.209 1.791,-4 4,-4 h 65.652 c 2.209,0 4,1.791 4,4 V 116.5 c 0,2.209 -1.791,4 -4,4 z"
   fill="#ffd7e5"
   id="path4" />
		<path
   d="m 64,3.5 c -3.965,0 -7.179,3.214 -7.179,7.179 V 28.363 H 71.178 V 10.679 C 71.179,6.714 67.965,3.5 64,3.5 Z"
   fill="#0089ef"
   id="path6" />
		<circle
   cx="64"
   cy="11.455"
   r="2.6099999"
   fill="#ffffff"
   id="circle8" />
		<circle
   cx="64"
   cy="65.981003"
   r="23"
   fill="#6dc9f7"
   id="circle10" />
		<path
   d="m 64,45.981 c 12.198,0 22.173,9.497 22.946,21.5 0.032,-0.496 0.054,-0.995 0.054,-1.5 0,-12.703 -10.297,-23 -23,-23 -12.703,0 -23,10.297 -23,23 0,0.505 0.022,1.004 0.054,1.5 0.773,-12.003 10.748,-21.5 22.946,-21.5 z"
   fill="#ffffff"
   id="path12" />
		<g
   id="g18">
			<path
   d="M 73.017,70.663 H 70.245 C 68.487,71.927 66.334,72.68 64,72.68 c -2.334,0 -4.487,-0.753 -6.245,-2.017 h -2.773 c -4.418,0 -8,3.582 -8,8 v 2.791 C 51.19,86.078 57.256,88.98 64,88.98 c 6.744,0 12.81,-2.903 17.017,-7.527 v -2.791 c 0,-4.417 -3.581,-7.999 -8,-7.999 z"
   fill="#fa759e"
   id="path14" />
			<ellipse
   cx="64"
   cy="62.034"
   rx="10.691"
   ry="10.646"
   fill="#ffffff"
   id="ellipse16" />
		</g>
		<path
   d="m 51.75,28.375 h 24.5 c 1.335,0 2.417,1.082 2.417,2.417 0,1.335 -1.082,2.417 -2.417,2.417 h -24.5 c -1.335,0 -2.417,-1.082 -2.417,-2.417 0,-1.335 1.082,-2.417 2.417,-2.417 z"
   fill="#ffffff"
   id="path20" />
		<g
   fill="#3a2c60"
   id="g34">
			<path
   d="M 96.826,16.462 H 72.179 V 10.679 C 72.179,6.169 68.51,2.5 64,2.5 c -4.51,0 -8.179,3.669 -8.179,8.179 v 5.783 H 31.174 c -2.757,0 -5,2.243 -5,5 V 44 c 0,0.553 0.448,1 1,1 0.552,0 1,-0.447 1,-1 V 21.462 c 0,-1.654 1.346,-3 3,-3 h 24.647 v 8.913 H 51.75 c -1.884,0 -3.417,1.533 -3.417,3.417 0,1.884 1.533,3.416 3.417,3.416 h 24.5 c 1.884,0 3.417,-1.532 3.417,-3.416 0,-1.884 -1.533,-3.417 -3.417,-3.417 h -4.071 v -8.913 h 24.647 c 1.654,0 3,1.346 3,3 V 116.5 c 0,1.654 -1.346,3 -3,3 H 31.174 c -1.654,0 -3,-1.346 -3,-3 V 61 c 0,-0.553 -0.448,-1 -1,-1 -0.552,0 -1,0.447 -1,1 v 55.5 c 0,2.757 2.243,5 5,5 h 65.652 c 2.757,0 5,-2.243 5,-5 V 21.462 c 0,-2.757 -2.243,-5 -5,-5 z m -19.159,14.33 c 0,0.781 -0.636,1.416 -1.417,1.416 h -24.5 c -0.781,0 -1.417,-0.635 -1.417,-1.416 0,-0.781 0.635,-1.417 1.417,-1.417 h 24.5 c 0.781,0 1.417,0.636 1.417,1.417 z M 57.821,10.679 C 57.821,7.271 60.593,4.5 64,4.5 c 3.407,0 6.179,2.771 6.179,6.179 V 27.363 H 57.821 Z"
   id="path22" />
			<path
   d="m 27.174,57.5 c 0.552,0 1,-0.447 1,-1 v -8.333 c 0,-0.553 -0.448,-1 -1,-1 -0.552,0 -1,0.447 -1,1 V 56.5 c 0,0.553 0.448,1 1,1 z"
   id="path24" />
			<path
   d="m 64,7.845 c -1.991,0 -3.61,1.619 -3.61,3.61 0,1.991 1.62,3.61 3.61,3.61 1.991,0 3.61,-1.619 3.61,-3.61 0,-1.991 -1.619,-3.61 -3.61,-3.61 z m 0,5.22 c -0.888,0 -1.61,-0.723 -1.61,-1.61 0,-0.887 0.722,-1.61 1.61,-1.61 0.888,0 1.61,0.723 1.61,1.61 0,0.887 -0.722,1.61 -1.61,1.61 z"
   id="path26" />
			<path
   d="m 86.5,96.667 h -45 c -0.552,0 -1,0.447 -1,1 0,0.553 0.448,1 1,1 h 45 c 0.553,0 1,-0.447 1,-1 0,-0.553 -0.447,-1 -1,-1 z"
   id="path28" />
			<path
   d="m 86.5,106.67 h -45 c -0.552,0 -1,0.447 -1,1 0,0.553 0.448,1 1,1 h 45 c 0.553,0 1,-0.447 1,-1 0,-0.553 -0.447,-1 -1,-1 z"
   id="path30" />
			<path
   d="m 64,41.98 c -13.233,0 -24,10.767 -24,24 0,13.233 10.767,24 24,24 13.233,0 24,-10.767 24,-24 0,-13.233 -10.767,-24 -24,-24 z m 0,2 c 12.131,0 22,9.869 22,22 0,4.687 -1.478,9.033 -3.986,12.606 -0.042,-4.927 -4.059,-8.924 -8.996,-8.924 h -0.205 c 1.788,-2.046 2.879,-4.71 2.879,-7.629 0,-6.421 -5.245,-11.646 -11.691,-11.646 -6.447,0 -11.691,5.225 -11.691,11.646 0,2.919 1.091,5.583 2.879,7.629 h -0.205 c -4.937,0 -8.955,3.997 -8.996,8.925 C 43.478,75.014 42,70.668 42,65.98 c 0,-12.13 9.869,-22 22,-22 z m -9.691,18.054 c 0,-5.318 4.348,-9.646 9.691,-9.646 5.343,0 9.691,4.327 9.691,9.646 0,5.319 -4.347,9.646 -9.691,9.646 -5.344,0 -9.691,-4.327 -9.691,-9.646 z M 64,87.98 c -6.309,0 -12.002,-2.673 -16.017,-6.942 v -2.376 c 0,-3.859 3.14,-7 7,-7 h 2.451 c 1.873,1.271 4.133,2.017 6.566,2.017 2.432,0 4.692,-0.745 6.565,-2.017 h 2.452 c 3.859,0 7,3.141 7,7 v 2.375 C 76.002,85.307 70.309,87.98 64,87.98 Z"
   id="path32" />
		</g>
	</g>
</g><g
     transform="matrix(0.45312,0,0,0.4547,58.753,68.879)"
     id="g86">
	<path
   class="st1"
   d="M 113.69,28.693 70.508,8.507 c -2.867,-1.341 -6.153,-1.341 -9.019,0 L 18.307,28.693 c -4.02,1.878 -6.525,6.21 -6.235,10.78 0.803,12.563 3.757,36.317 14.518,54.253 13.626,22.712 30.422,28.887 37.012,30.488 0.784,0.189 1.591,0.284 2.398,0.284 0.807,0 1.614,-0.095 2.399,-0.285 6.588,-1.601 23.384,-7.775 37.01,-30.488 10.76,-17.934 13.713,-41.689 14.517,-54.254 0.289,-4.567 -2.217,-8.899 -6.236,-10.778 z"
   fill="#e6e7e8"
   id="path40" />
	<g
   id="g84">
		<path
   class="st6"
   d="M 57.915,5.412 14.731,25.599 c -3.671,1.716 -5.926,5.628 -5.66,9.81 0.751,11.75 3.597,35.836 14.376,53.802 13.596,22.664 30.479,28.595 36.388,30.031 1.426,0.344 2.902,0.344 4.327,0 5.909,-1.435 22.792,-7.367 36.388,-30.031 10.78,-17.967 13.625,-42.054 14.376,-53.802 0.266,-4.183 -1.99,-8.095 -5.66,-9.81 L 66.086,5.412 c -2.599,-1.215 -5.574,-1.215 -8.171,0 z"
   fill="#6dc9f7"
   id="path42" />
		<path
   class="st7"
   d="M 58.721,16.58 24.06,32.783 c -2.947,1.377 -4.756,4.517 -4.543,7.874 0.603,9.431 2.887,28.763 11.539,43.185 10.913,18.191 24.464,22.952 29.207,24.104 1.145,0.276 2.33,0.276 3.473,0 4.743,-1.152 18.294,-5.913 29.207,-24.104 8.652,-14.421 10.936,-33.755 11.539,-43.185 0.213,-3.357 -1.597,-6.497 -4.543,-7.874 L 65.279,16.58 c -2.085,-0.976 -4.473,-0.976 -6.558,0 z"
   fill="#d4fbff"
   id="path44" />
		<path
   class="st4"
   d="M 24.06,35.783 58.721,19.58 c 2.085,-0.976 4.473,-0.976 6.558,0 L 99.94,35.783 c 2.432,1.137 4.07,3.482 4.454,6.153 0.033,-0.442 0.063,-0.873 0.089,-1.279 0.213,-3.357 -1.597,-6.497 -4.543,-7.874 L 65.279,16.58 c -2.086,-0.976 -4.474,-0.976 -6.558,0 L 24.06,32.783 c -2.947,1.377 -4.756,4.517 -4.543,7.874 0.026,0.406 0.056,0.837 0.089,1.278 0.384,-2.671 2.021,-5.015 4.454,-6.152 z"
   fill="#ffffff"
   id="path46" />
		<g
   fill="#3a2c60"
   id="g82">
			<path
   class="st0"
   d="m 28.214,20.297 c 0.142,0 0.285,-0.03 0.423,-0.094 l 9.354,-4.373 c 0.5,-0.234 0.716,-0.829 0.482,-1.329 -0.234,-0.5 -0.825,-0.716 -1.33,-0.482 l -9.354,4.373 c -0.5,0.234 -0.716,0.829 -0.482,1.329 0.17,0.362 0.53,0.576 0.907,0.576 z"
   id="path48" />
			<path
   class="st0"
   d="M 109.69,24.693 66.508,4.507 c -2.867,-1.341 -6.153,-1.341 -9.019,0 l -15.924,7.444 c -0.5,0.234 -0.716,0.829 -0.482,1.329 0.233,0.5 0.826,0.717 1.33,0.482 L 58.337,6.318 c 2.326,-1.089 4.995,-1.089 7.323,0 l 43.183,20.187 c 3.28,1.533 5.324,5.086 5.086,8.84 -0.791,12.383 -3.693,35.781 -14.235,53.352 -13.238,22.065 -29.423,28.032 -35.766,29.573 -1.28,0.309 -2.578,0.31 -3.856,0 C 53.727,116.728 37.543,110.762 24.304,88.696 13.761,71.124 10.858,47.727 10.067,35.346 9.829,31.591 11.872,28.038 15.153,26.505 l 9.069,-4.24 c 0.5,-0.234 0.716,-0.829 0.482,-1.329 -0.234,-0.5 -0.825,-0.716 -1.33,-0.482 l -9.068,4.239 c -4.02,1.878 -6.525,6.21 -6.235,10.78 0.803,12.563 3.757,36.317 14.518,54.253 13.626,22.712 30.422,28.887 37.012,30.488 0.784,0.189 1.591,0.284 2.398,0.284 0.807,0 1.614,-0.095 2.399,-0.285 6.588,-1.601 23.384,-7.775 37.01,-30.488 10.76,-17.934 13.713,-41.689 14.517,-54.254 0.29,-4.567 -2.216,-8.899 -6.235,-10.778 z"
   id="path50" />
			<path
   class="st0"
   d="m 18.519,40.721 c 0.646,10.103 3.023,29.207 11.681,43.635 10.975,18.294 24.516,23.271 29.83,24.562 0.645,0.156 1.308,0.233 1.971,0.233 0.664,0 1.328,-0.078 1.974,-0.234 5.313,-1.291 18.854,-6.269 29.828,-24.562 8.655,-14.426 11.033,-33.531 11.68,-43.636 0.237,-3.748 -1.819,-7.302 -5.117,-8.844 L 65.703,15.674 c -2.354,-1.101 -5.053,-1.1 -7.406,0 L 23.636,31.877 c -3.298,1.541 -5.355,5.096 -5.117,8.844 z M 59.145,17.486 c 0.907,-0.424 1.881,-0.637 2.855,-0.637 0.974,0 1.948,0.212 2.855,0.637 l 34.661,16.203 c 2.56,1.197 4.155,3.972 3.969,6.905 -0.635,9.923 -2.96,28.67 -11.398,42.734 -10.586,17.646 -23.518,22.416 -28.584,23.647 -0.997,0.241 -2.008,0.241 -3.003,0 -5.068,-1.231 -17.999,-6 -28.586,-23.647 C 23.475,69.263 21.149,50.516 20.515,40.595 20.328,37.661 21.923,34.886 24.484,33.69 Z"
   id="path52" />
			<path
   class="st0"
   d="m 62,96.848 c 12.591,0 22.834,-10.243 22.834,-22.834 v -8.419 c 0,-0.552 -0.447,-1 -1,-1 -0.553,0 -1,0.448 -1,1 v 8.419 c 0,11.488 -9.346,20.834 -20.834,20.834 -11.488,0 -20.834,-9.346 -20.834,-20.834 V 49.988 C 41.166,38.5 50.512,29.154 62,29.154 c 11.488,0 20.834,9.346 20.834,20.834 v 10.811 c 0,0.552 0.447,1 1,1 0.553,0 1,-0.448 1,-1 V 49.988 C 84.834,37.397 74.591,27.154 62,27.154 c -12.591,0 -22.834,10.243 -22.834,22.834 v 24.026 c 0,12.591 10.243,22.834 22.834,22.834 z"
   id="path54" />
			<path
   class="st0"
   d="m 44.681,57.541 c -0.553,0 -1,0.448 -1,1 v 15.473 c 0,2.22 0.395,4.39 1.172,6.451 0.151,0.4 0.531,0.647 0.936,0.647 0.117,0 0.236,-0.021 0.353,-0.065 0.518,-0.195 0.778,-0.772 0.583,-1.289 -0.692,-1.834 -1.043,-3.768 -1.043,-5.745 V 58.541 c -0.001,-0.552 -0.449,-1 -1.001,-1 z"
   id="path56" />
			<path
   class="st0"
   d="m 62.001,92.334 c 10.101,0 18.318,-8.218 18.318,-18.32 V 49.988 c 0,-1.854 -0.277,-3.685 -0.825,-5.442 -0.165,-0.527 -0.722,-0.821 -1.253,-0.657 -0.527,0.164 -0.821,0.725 -0.657,1.252 0.488,1.565 0.735,3.196 0.735,4.848 v 24.025 c 0,8.999 -7.32,16.32 -16.318,16.32 -5.157,0 -9.905,-2.369 -13.027,-6.5 -0.333,-0.441 -0.963,-0.528 -1.4,-0.195 -0.441,0.333 -0.528,0.96 -0.195,1.401 3.503,4.635 8.832,7.294 14.622,7.294 z"
   id="path58" />
			<path
   class="st0"
   d="m 62.001,33.668 c 5.65,0 10.823,2.87 13.836,7.677 0.294,0.467 0.91,0.609 1.379,0.316 0.468,-0.293 0.609,-0.91 0.316,-1.378 -3.382,-5.394 -9.188,-8.614 -15.531,-8.614 -10.102,0 -18.32,8.218 -18.32,18.32 v 3.662 c 0,0.552 0.447,1 1,1 0.553,0 1,-0.448 1,-1 v -3.662 c 0,-9 7.321,-16.321 16.32,-16.321 z"
   id="path60" />
			<path
   class="st0"
   d="m 53.127,39.419 c -3.134,2.635 -4.932,6.487 -4.932,10.569 v 24.025 c 0,7.613 6.193,13.806 13.806,13.806 7.611,0 13.804,-6.193 13.804,-13.806 v -0.988 c 0,-0.552 -0.447,-1 -1,-1 -0.553,0 -1,0.448 -1,1 v 0.988 c 0,6.51 -5.295,11.806 -11.804,11.806 -6.51,0 -11.806,-5.296 -11.806,-11.806 V 49.988 c 0,-3.49 1.538,-6.784 4.219,-9.038 0.423,-0.355 0.478,-0.986 0.122,-1.409 -0.356,-0.422 -0.986,-0.477 -1.409,-0.122 z"
   id="path62" />
			<path
   class="st0"
   d="m 75.805,60.046 c 0,-0.552 -0.447,-1 -1,-1 -0.553,0 -1,0.448 -1,1 v 8.183 c 0,0.552 0.447,1 1,1 0.553,0 1,-0.448 1,-1 z"
   id="path64" />
			<path
   class="st0"
   d="m 75.805,49.988 c 0,-7.612 -6.192,-13.806 -13.804,-13.806 -1.388,0 -2.758,0.206 -4.072,0.612 -0.528,0.163 -0.823,0.723 -0.66,1.251 0.163,0.527 0.726,0.823 1.25,0.66 1.124,-0.347 2.295,-0.523 3.482,-0.523 6.509,0 11.804,5.296 11.804,11.806 v 5.543 c 0,0.552 0.447,1 1,1 0.553,0 1,-0.448 1,-1 z"
   id="path66" />
			<path
   class="st0"
   d="m 52.709,74.014 c 0,3.249 1.657,6.209 4.434,7.918 h 10e-4 c 0.479,0.294 0.985,0.546 1.506,0.748 0.118,0.046 0.241,0.068 0.361,0.068 0.4,0 0.778,-0.243 0.933,-0.639 0.199,-0.515 -0.057,-1.094 -0.571,-1.293 C 58.966,80.658 58.569,80.46 58.192,80.229 56.011,78.887 54.71,76.563 54.71,74.014 V 54.682 54.681 54.68 53.18 c 0,-0.552 -0.447,-1 -1,-1 -0.553,0 -1,0.448 -1,1 v 1.5 10e-4 0.001 19.332 z"
   id="path68" />
			<path
   class="st0"
   d="m 64.688,82.858 c 0.107,0 0.218,-0.018 0.325,-0.055 0.532,-0.183 1.049,-0.416 1.535,-0.69 l 0.001,-0.001 C 69.474,80.464 71.29,77.36 71.29,74.013 V 65.01 c 0,-0.552 -0.447,-1 -1,-1 -0.553,0 -1,0.448 -1,1 v 9.003 c 0,2.628 -1.428,5.064 -3.726,6.358 h -10e-4 c -0.38,0.215 -0.783,0.396 -1.201,0.54 -0.522,0.18 -0.8,0.749 -0.62,1.271 0.142,0.416 0.53,0.676 0.946,0.676 z"
   id="path70" />
			<path
   class="st0"
   d="m 71.29,49.988 c 0,-5.124 -4.167,-9.292 -9.289,-9.292 -4.069,0 -7.63,2.608 -8.86,6.49 v 10e-4 c -0.17,0.536 -0.291,1.089 -0.359,1.644 -0.068,0.548 0.321,1.047 0.869,1.115 0.042,0.005 0.083,0.008 0.124,0.008 0.498,0 0.929,-0.371 0.991,-0.877 0.054,-0.434 0.148,-0.867 0.281,-1.286 0.966,-3.047 3.761,-5.094 6.954,-5.094 4.02,0 7.289,3.271 7.289,7.292 v 9.307 0.002 0.002 1.5 c 0,0.552 0.447,1 1,1 0.553,0 1,-0.448 1,-1 v -1.5 -0.002 -0.002 z"
   id="path72" />
			<path
   class="st0"
   d="M 66.776,74.014 V 60.045 c 0,-0.552 -0.447,-1 -1,-1 -0.553,0 -1,0.448 -1,1 v 13.968 c 0,1.531 -1.245,2.777 -2.775,2.777 -1.531,0 -2.777,-1.246 -2.777,-2.777 v -1.646 c 0,-0.552 -0.447,-1 -1,-1 -0.553,0 -1,0.448 -1,1 v 1.646 c 0,2.634 2.144,4.777 4.777,4.777 2.633,0 4.775,-2.143 4.775,-4.776 z"
   id="path74" />
			<path
   class="st0"
   d="m 65.776,55.685 c 0.553,0 1,-0.448 1,-1 v -4.697 c 0,-2.634 -2.143,-4.777 -4.775,-4.777 -2.634,0 -4.777,2.143 -4.777,4.777 v 15.607 c 0,0.552 0.447,1 1,1 0.553,0 1,-0.448 1,-1 V 49.988 c 0,-1.531 1.246,-2.777 2.777,-2.777 1.53,0 2.775,1.246 2.775,2.777 v 4.697 c 0,0.553 0.448,1 1,1 z"
   id="path76" />
			<path
   class="st0"
   d="m 62,62.502 c -0.553,0 -1,0.448 -1,1 v 8.154 c 0,0.552 0.447,1 1,1 0.553,0 1,-0.448 1,-1 v -8.154 c 0,-0.552 -0.447,-1 -1,-1 z"
   id="path78" />
			<path
   class="st0"
   d="m 63,51.247 c 0,-0.552 -0.447,-1 -1,-1 -0.553,0 -1,0.448 -1,1 v 5.725 c 0,0.552 0.447,1 1,1 0.553,0 1,-0.448 1,-1 z"
   id="path80" />
		</g>
	</g>
</g></g><text
   xml:space="preserve"
   style="font-style:normal;font-variant:normal;font-weight:normal;font-stretch:normal;font-size:50.6667px;font-family:'Times New Roman';-inkscape-font-specification:'Times New Roman, ';fill:#0089ef;fill-opacity:1"
   x="115.35883"
   y="77.72403"
   id="text1043"><tspan
     sodipodi:role="line"
     id="tspan1041"
     x="115.35883"
     y="77.72403"
     style="font-style:normal;font-variant:normal;font-weight:normal;font-stretch:normal;font-size:50.6667px;font-family:Tahoma;-inkscape-font-specification:Tahoma;fill:#0089ef;fill-opacity:1">Passwordless</tspan></text><text
   xml:space="preserve"
   style="font-style:normal;font-variant:normal;font-weight:normal;font-stretch:normal;font-size:58.6667px;font-family:'MV Boli';-inkscape-font-specification:'MV Boli';fill:#fa759e;fill-opacity:1"
   x="408.72699"
   y="81.89505"
   id="text1043-4"><tspan
     sodipodi:role="line"
     id="tspan1041-8"
     x="408.72699"
     y="81.89505">.ID</tspan></text></svg>
