<?xml version="1.0" encoding="utf-8"?>
<!-- Generator: Adobe Illustrator 22.0.1, SVG Export Plug-In . SVG Version: 6.00 Build 0)  -->
<svg version="1.1" id="Layer_1" xmlns="http://www.w3.org/2000/svg" xmlns:xlink="http://www.w3.org/1999/xlink" x="0px" y="0px"
	 viewBox="0 0 128 128" style="enable-background:new 0 0 128 128;" xml:space="preserve">
<style type="text/css">
	.st0{fill:#3A2C60;}
	.st1{fill:#E6E7E8;}
	.st2{fill:#FFD7E5;}
	.st3{fill:#FA759E;}
	.st4{fill:#FFFFFF;}
	.st5{fill:#6DC9F7;}
	.st6{fill:#D4FBFF;}
	.st7{fill:#0089EF;}
</style>
<g>
	<path class="st1" d="M105.002,25.051l-4.304-3.802c-4.573-3.643-9.659-6.536-15.166-8.617l-5.42-1.737
		c-0.017-0.005-0.033-0.01-0.05-0.015C60.359,5.663,39.294,11.44,25.087,25.963c-21.8,22.285-21.406,58.151,0.879,79.952
		c10.626,10.396,24.637,16.097,39.517,16.097c0.213,0,0.428-0.001,0.641-0.004c15.118-0.166,29.25-6.192,39.794-16.971
		C127.718,82.752,127.324,46.886,105.002,25.051z M74.07,81.195c-1.157,1.282-2.758,2.217-4.771,2.785v-7.717l4.892,4.785
		C74.15,81.098,74.114,81.147,74.07,81.195z M56.566,46.505c0-2.025,0.529-3.472,1.619-4.423c0.95-0.828,2.229-1.54,3.813-2.124
		v13.135c-1.705-0.726-3.02-1.508-3.917-2.334C57.062,49.82,56.566,48.429,56.566,46.505z M46.719,57.121
		c1.647,2.472,3.827,4.404,6.477,5.744c1.267,0.64,2.706,1.252,4.284,1.835l4.519,4.421v14.323c-1.133-0.44-2.079-0.995-2.824-1.657
		c-1.018-0.905-1.785-1.911-2.281-2.99c-0.538-1.172-1.185-2.899-1.918-5.122c-0.402-1.274-1.138-2.28-2.187-2.989
		c-1.026-0.696-2.283-1.05-3.734-1.05c-1.83,0-3.385,0.643-4.619,1.909c-1.228,1.26-1.85,2.709-1.85,4.31
		c0,1.933,0.419,3.922,1.245,5.914c0.821,1.979,2.102,3.907,3.805,5.729c1.705,1.821,3.855,3.362,6.393,4.58
		c2.301,1.104,4.979,1.869,7.971,2.278v6.389c0,1.494,0.252,2.603,0.77,3.39c0.412,0.624,1.257,1.367,2.943,1.367
		c1.892,0,2.69-0.943,3.028-1.735c0.377-0.885,0.561-2.188,0.561-3.982v-5.488c3.738-0.424,7.041-1.493,9.829-3.183
		c1.112-0.673,2.128-1.425,3.049-2.249l12.809,12.531c-18.109,14.898-45.119,13.804-61.973-2.683
		c-16.853-16.487-18.54-43.467-4.042-61.898l15.725,15.384C45.108,54.056,45.777,55.709,46.719,57.121z M86.938,67.165
		c-0.987-2.253-2.413-4.217-4.229-5.826c-1.699-1.553-3.653-2.757-5.808-3.578c-1.922-0.731-4.477-1.544-7.602-2.415v-15.14
		c2.424,1.138,3.958,3.021,4.673,5.728c1.167,4.266,4.052,5.161,6.267,5.161c1.716,0,3.196-0.611,4.401-1.816
		c1.206-1.204,1.817-2.657,1.817-4.318c0-1.391-0.374-2.92-1.112-4.546c-0.72-1.586-1.75-3.145-3.051-4.619
		c-1.679-1.973-3.677-3.468-5.939-4.444c-1.993-0.86-4.363-1.468-7.056-1.811v-3.617c0-3.849-2.301-4.423-3.672-4.423
		c-1.355,0-3.63,0.586-3.63,4.507v3.52c-5.539,0.628-9.883,2.49-12.923,5.544c-1.279,1.285-2.297,2.726-3.073,4.304l-9.984-9.767
		c18.109-14.901,45.121-13.806,61.974,2.682c16.854,16.487,18.542,43.468,4.042,61.899L87.633,80.1
		c0.517-1.782,0.787-3.633,0.787-5.541C88.42,71.898,87.921,69.411,86.938,67.165z"/>
	<g>
		<path class="st5" d="M82.479,66.366c-0.958-2.187-2.342-4.092-4.108-5.658c-1.652-1.511-3.553-2.682-5.648-3.479
			c-1.981-0.755-4.646-1.597-7.923-2.503V38.448c2.979,1.153,4.832,3.237,5.655,6.354c0.87,3.181,2.815,4.793,5.784,4.793
			c1.578,0,2.939-0.562,4.048-1.67c1.108-1.107,1.671-2.441,1.671-3.965c0-1.319-0.359-2.779-1.068-4.339
			c-0.698-1.542-1.702-3.059-2.976-4.502c-1.628-1.914-3.564-3.364-5.756-4.31c-2.058-0.888-4.531-1.501-7.358-1.826v-4.061
			c0-3.242-1.725-3.923-3.172-3.923c-1.428,0-3.13,0.695-3.13,4.007v3.97c-5.636,0.563-10.03,2.395-13.068,5.446
			c-3.13,3.145-4.717,7.225-4.717,12.126c0,3.757,0.814,6.885,2.422,9.295c1.6,2.398,3.714,4.274,6.286,5.575
			c2.441,1.233,5.493,2.369,9.077,3.378v18.356c-1.493-0.493-2.721-1.162-3.656-1.994c-1.069-0.951-1.878-2.012-2.403-3.154
			c-0.547-1.188-1.2-2.935-1.94-5.181c-0.367-1.164-1.037-2.081-1.991-2.727c-0.941-0.639-2.104-0.963-3.453-0.963
			c-1.69,0-3.124,0.592-4.262,1.759c-1.133,1.162-1.707,2.495-1.707,3.96c0,1.866,0.406,3.792,1.207,5.723
			C41.09,82.5,42.338,84.377,44,86.154c1.662,1.776,3.763,3.28,6.243,4.472c2.364,1.134,5.14,1.904,8.255,2.289v4.828
			c0,1.394,0.225,2.412,0.688,3.114c0.5,0.758,1.35,1.143,2.525,1.143c1.618,0,2.29-0.778,2.568-1.431
			c0.351-0.822,0.521-2.062,0.521-3.787v-3.938c3.85-0.38,7.235-1.442,10.07-3.16c2.958-1.791,5.23-4.138,6.757-6.975
			c1.521-2.829,2.293-5.907,2.293-9.149C83.92,70.968,83.436,68.548,82.479,66.366z M64.8,66.652
			c2.496,0.852,4.427,1.875,5.743,3.044c1.39,1.233,2.065,2.947,2.065,5.24c0,2.116-0.729,3.998-2.167,5.594
			c-1.342,1.487-3.237,2.527-5.642,3.097V66.652z M52.066,45.505c0-2.147,0.603-3.763,1.79-4.8c1.129-0.983,2.688-1.807,4.642-2.451
			v14.584c-2.099-0.826-3.697-1.737-4.756-2.712C52.63,49.103,52.066,47.548,52.066,45.505z"/>
		<path class="st0" d="M61.711,103c-1.909,0-2.881-0.865-3.36-1.592c-0.573-0.871-0.853-2.069-0.853-3.665v-3.955
			c-2.867-0.429-5.449-1.188-7.688-2.261c-2.594-1.246-4.795-2.823-6.541-4.689c-1.745-1.866-3.058-3.845-3.901-5.879
			c-0.852-2.053-1.283-4.107-1.283-6.105c0-1.735,0.67-3.303,1.991-4.658c1.333-1.367,3.008-2.061,4.978-2.061
			c1.554,0,2.904,0.382,4.015,1.136c1.145,0.774,1.947,1.869,2.384,3.253c0.727,2.205,1.365,3.913,1.895,5.063
			c0.467,1.016,1.193,1.966,2.16,2.825c0.545,0.485,1.212,0.912,1.991,1.274V65.551c-3.332-0.974-6.198-2.063-8.528-3.239
			c-2.727-1.379-4.97-3.368-6.667-5.913c-1.719-2.576-2.59-5.891-2.59-9.85c0-5.176,1.685-9.493,5.008-12.831
			c3.039-3.053,7.334-4.946,12.777-5.635v-3.076c0-4.519,2.888-5.007,4.13-5.007c1.254,0,4.172,0.479,4.172,4.923v3.18
			c2.561,0.357,4.829,0.958,6.755,1.789c2.333,1.006,4.393,2.547,6.121,4.58c1.331,1.508,2.387,3.106,3.125,4.737
			c0.768,1.688,1.157,3.287,1.157,4.751c0,1.798-0.661,3.37-1.964,4.672c-1.303,1.303-2.902,1.963-4.755,1.963
			c-3.426,0-5.759-1.912-6.749-5.529c-0.604-2.285-1.816-3.943-3.69-5.035v13.937c2.972,0.836,5.418,1.618,7.279,2.327
			c2.213,0.843,4.221,2.079,5.967,3.676c1.865,1.654,3.333,3.675,4.35,5.995l0,0c1.012,2.309,1.524,4.863,1.524,7.595
			c0,3.409-0.812,6.646-2.412,9.623c-1.613,2.997-4.008,5.473-7.12,7.356c-2.737,1.659-5.959,2.733-9.588,3.197v3.046
			c0,1.891-0.19,3.218-0.601,4.18C64.874,101.723,63.989,103,61.711,103z M45.054,70.135c-1.431,0-2.59,0.477-3.546,1.457
			c-0.944,0.969-1.423,2.066-1.423,3.262c0,1.734,0.381,3.53,1.131,5.34c0.751,1.812,1.934,3.588,3.515,5.278
			c1.576,1.684,3.576,3.115,5.945,4.253c2.268,1.087,4.941,1.827,7.945,2.198c0.501,0.062,0.877,0.487,0.877,0.992v4.828
			c0,1.176,0.176,2.038,0.522,2.563c0.113,0.172,0.457,0.693,1.69,0.693c1.298,0,1.562-0.619,1.648-0.823
			c0.292-0.685,0.44-1.827,0.44-3.395v-3.938c0-0.515,0.39-0.944,0.901-0.995c3.698-0.365,6.945-1.381,9.65-3.021
			c2.803-1.696,4.954-3.915,6.395-6.593c1.442-2.682,2.174-5.601,2.174-8.676c0-2.453-0.456-4.738-1.356-6.792l0,0
			c-0.899-2.054-2.197-3.841-3.855-5.312c-1.571-1.436-3.364-2.54-5.341-3.293c-1.954-0.744-4.59-1.576-7.834-2.474
			c-0.434-0.12-0.733-0.515-0.733-0.964V38.448c0-0.33,0.163-0.639,0.435-0.825c0.272-0.186,0.618-0.226,0.927-0.107
			c3.255,1.26,5.361,3.625,6.261,7.03c0.744,2.722,2.321,4.049,4.817,4.049c1.321,0,2.414-0.45,3.341-1.377
			c0.928-0.927,1.378-1.992,1.378-3.258c0-1.176-0.329-2.496-0.979-3.925c-0.657-1.45-1.604-2.881-2.815-4.255
			c-1.54-1.81-3.354-3.169-5.402-4.053c-1.965-0.848-4.346-1.437-7.076-1.751c-0.505-0.058-0.886-0.485-0.886-0.993v-4.061
			c0-2.591-1.161-2.923-2.172-2.923c-0.582,0-2.13,0-2.13,3.007v3.97c0,0.514-0.39,0.944-0.9,0.995
			c-5.398,0.54-9.59,2.274-12.459,5.156c-2.937,2.951-4.426,6.793-4.426,11.421c0,3.557,0.758,6.498,2.254,8.74
			c1.503,2.254,3.49,4.017,5.905,5.237c2.383,1.204,5.377,2.317,8.896,3.308c0.432,0.122,0.729,0.515,0.729,0.963v18.356
			c0,0.321-0.154,0.622-0.414,0.811c-0.261,0.188-0.594,0.24-0.899,0.139c-1.623-0.536-2.972-1.274-4.008-2.196
			c-1.173-1.044-2.063-2.216-2.646-3.483c-0.561-1.219-1.228-2.997-1.982-5.285c-0.301-0.956-0.839-1.695-1.602-2.212
			C47.172,70.4,46.199,70.135,45.054,70.135z M64.8,84.627c-0.223,0-0.442-0.074-0.62-0.216c-0.24-0.189-0.38-0.479-0.38-0.784
			V66.652c0-0.322,0.155-0.626,0.418-0.813c0.262-0.188,0.6-0.237,0.905-0.133c2.621,0.895,4.668,1.985,6.084,3.242
			c1.616,1.435,2.401,3.394,2.401,5.988c0,2.37-0.815,4.478-2.424,6.263c-1.479,1.641-3.55,2.784-6.154,3.4
			C64.954,84.618,64.877,84.627,64.8,84.627z M65.8,68.089v14.214c1.623-0.551,2.931-1.369,3.899-2.442
			c1.267-1.406,1.909-3.063,1.909-4.924c0-2.018-0.55-3.445-1.729-4.492C68.9,69.575,67.531,68.785,65.8,68.089z M58.498,53.838
			c-0.124,0-0.248-0.022-0.366-0.069c-2.214-0.872-3.919-1.85-5.067-2.907c-1.325-1.22-1.998-3.022-1.998-5.356
			c0-2.449,0.718-4.317,2.132-5.553c1.23-1.071,2.907-1.962,4.986-2.647c0.306-0.102,0.639-0.049,0.899,0.139
			c0.26,0.188,0.414,0.489,0.414,0.811v14.584c0,0.331-0.164,0.641-0.438,0.826C58.893,53.779,58.696,53.838,58.498,53.838z
			 M57.498,39.69c-1.217,0.508-2.218,1.101-2.984,1.769c-0.96,0.838-1.447,2.2-1.447,4.046c0,1.752,0.455,3.06,1.353,3.885
			c0.73,0.673,1.763,1.32,3.079,1.934V39.69z"/>
	</g>
	<g>
		<path class="st4" d="M102.317,23.83c-0.02-0.02-0.04-0.04-0.06-0.05c-0.62-0.67-1.26-1.33-1.92-1.98
			c-10.4-10.18-23.81-15.43-37.33-15.78c-14.92-0.41-29.96,5.15-41.2,16.64c-21.42,21.89-21.03,57.13,0.86,78.54
			c0.34,0.33,0.68,0.65,1.02,0.97c0.03,0.02,0.04,0.04,0.06,0.05c10.99,10.2,25.1,15.11,39.1,14.77h0.06
			c13.96-0.35,27.79-5.91,38.3-16.65C121.957,79.13,122.227,45.38,102.317,23.83z M29.457,96.51c-0.38-0.35-0.76-0.71-1.14-1.08
			c-17.77-17.38-18.97-45.28-3.43-64.1l1.69,1.66l65.9,64.46c-0.01,0.01-0.03,0.02-0.04,0.03c-8.46,7.29-18.9,11.11-29.43,11.45
			C51.027,109.31,38.917,105.18,29.457,96.51z M98.117,91.67l-64.54-63.15l-3.04-2.97c9.27-8.01,20.93-11.84,32.48-11.48
			c11.47,0.36,22.83,4.85,31.67,13.5c0.64,0.63,1.26,1.26,1.86,1.92c15.5,16.93,16.51,42.44,2.88,60.52
			C99.007,90.57,98.567,91.12,98.117,91.67z"/>
		<path class="st3" d="M102.317,23.83c-0.02-0.02-0.04-0.04-0.06-0.05c-0.62-0.67-1.26-1.33-1.92-1.98
			c-10.4-10.18-23.81-15.43-37.33-15.78c-13.93,0.36-27.72,5.93-38.2,16.64c-21.42,21.89-21.03,57.13,0.86,78.54
			c0.34,0.33,0.68,0.65,1.02,0.97c0.03,0.02,0.04,0.04,0.06,0.05c10.2,9.47,23.1,14.38,36.1,14.77h0.06
			c13.96-0.35,27.79-5.91,38.3-16.65C121.957,79.13,122.227,45.38,102.317,23.83z M92.437,97.48c-8.46,7.29-18.9,11.11-29.43,11.45
			c-11.98,0.38-24.09-3.75-33.55-12.42c-0.38-0.35-0.76-0.71-1.14-1.08c-17.77-17.38-18.97-45.28-3.43-64.1l1.69,1.66l65.9,64.46
			C92.467,97.46,92.447,97.47,92.437,97.48z M99.427,90.01c-0.42,0.56-0.86,1.11-1.31,1.66l-64.54-63.15l-3.04-2.97
			c9.27-8.01,20.93-11.84,32.48-11.48c11.47,0.36,22.83,4.85,31.67,13.5c0.64,0.63,1.26,1.26,1.86,1.92
			C112.047,46.42,113.057,71.93,99.427,90.01z"/>
		<path class="st0" d="M61.497,118.012c-14.271,0-28.55-5.354-39.531-16.097C-0.319,80.114-0.713,44.248,21.087,21.963
			C35.293,7.442,56.356,1.663,76.063,6.88l5.47,1.752c5.507,2.081,10.593,4.975,15.166,8.617l4.304,3.802
			c3.686,3.604,6.825,7.631,9.368,12.004c0.278,0.478,0.116,1.09-0.361,1.367c-0.479,0.275-1.09,0.116-1.367-0.361
			c-2.453-4.218-5.481-8.103-9.001-11.546l-4.228-3.734c-4.371-3.479-9.276-6.271-14.54-8.261l-5.372-1.721
			c-18.957-5.018-39.28,0.556-52.984,14.563C1.487,44.858,1.868,79.456,23.364,100.485c21.496,21.03,56.093,20.65,77.124-0.847
			c13.104-13.396,18.369-32.33,14.083-50.648c-0.126-0.537,0.208-1.075,0.746-1.201c0.537-0.124,1.076,0.208,1.201,0.746
			c4.442,18.987-1.016,38.614-14.601,52.502C90.86,112.34,76.184,118.011,61.497,118.012z M61.539,109.859
			c-12.313,0-24.605-4.604-33.924-13.72l0,0C9.766,78.678,8.227,49.929,24.112,30.69c0.179-0.216,0.439-0.347,0.719-0.362
			c0.281-0.019,0.552,0.088,0.752,0.284l67.589,66.12c0.2,0.195,0.309,0.466,0.301,0.746c-0.009,0.279-0.135,0.543-0.347,0.726
			C84.101,105.997,72.812,109.859,61.539,109.859z M29.014,94.71c16.853,16.486,43.863,17.58,61.973,2.683L24.972,32.812
			C10.474,51.243,12.161,78.223,29.014,94.71L29.014,94.71z M98.122,92.673c-0.261,0-0.512-0.102-0.699-0.285l-67.59-66.12
			c-0.2-0.195-0.309-0.466-0.3-0.746c0.008-0.279,0.134-0.543,0.346-0.726C48.765,8.49,77.541,9.396,95.391,26.859
			c17.852,17.463,19.39,46.212,3.503,65.45c-0.179,0.216-0.439,0.347-0.719,0.362C98.157,92.673,98.14,92.673,98.122,92.673z
			 M32.019,25.607l66.016,64.581c14.5-18.432,12.812-45.412-4.042-61.899C77.14,11.802,50.128,10.706,32.019,25.607z
			 M114.034,44.494c-0.416,0-0.805-0.262-0.946-0.678c-0.642-1.882-1.395-3.747-2.237-5.543c-0.234-0.5-0.02-1.096,0.48-1.33
			c0.504-0.235,1.097-0.019,1.33,0.48c0.874,1.862,1.654,3.796,2.319,5.748c0.179,0.522-0.101,1.091-0.624,1.269
			C114.25,44.478,114.141,44.494,114.034,44.494z"/>
	</g>
</g>
</svg>
