<svg xmlns="http://www.w3.org/2000/svg" viewBox="0 0 128 128"><title>icon</title><path d="M121.934,35.238a7,7,0,0,0-13.473,3.8h0c.059.209.148.4.224.6l-8.7,3.753a33.542,33.542,0,0,0-2.193-4.151l3.429-3.429a3.341,3.341,0,0,0,0-4.719l-5.935-5.935a3.418,3.418,0,0,0-4.72,0l-3.429,3.429A33.328,33.328,0,0,0,76.8,24.29V19.449a3.341,3.341,0,0,0-3.338-3.337H65.065a3.341,3.341,0,0,0-3.338,3.337V24.29a33.328,33.328,0,0,0-10.341,4.292l-3.43-3.429a3.416,3.416,0,0,0-4.719,0l-2.478,2.478-8.078-8.195a8.493,8.493,0,1,0-7.748,3.481,8.321,8.321,0,0,0,.874.045,8.476,8.476,0,0,0,5.518-2.054l8.02,8.137L37.3,31.088a3.341,3.341,0,0,0,0,4.719l3.429,3.429a33.28,33.28,0,0,0-4.292,10.342H31.6a3.341,3.341,0,0,0-3.337,3.337v8.393A3.341,3.341,0,0,0,31.6,64.646h4.841A33.134,33.134,0,0,0,37.779,69l-12,3.635a8.781,8.781,0,1,0,.73,1.869l12.034-3.646a33.637,33.637,0,0,0,2.186,4.135L37.3,78.417a3.342,3.342,0,0,0,0,4.719l5.935,5.934a3.416,3.416,0,0,0,4.719,0l3.429-3.429a33.581,33.581,0,0,0,4.127,2.182l-9.018,19.61a9.484,9.484,0,1,0,1.85.764l9.017-19.611a33.2,33.2,0,0,0,4.366,1.347v4.841a3.341,3.341,0,0,0,3.338,3.337h8.392A3.341,3.341,0,0,0,76.8,94.775V89.934a33.234,33.234,0,0,0,5.769-1.9l6.229,11.577a7.022,7.022,0,1,0,1.725-1.016L84.381,87.186c.937-.473,1.859-.98,2.756-1.544l3.428,3.428a3.417,3.417,0,0,0,4.72,0l5.935-5.935a3.344,3.344,0,0,0,0-4.72l-3.429-3.428a33.324,33.324,0,0,0,4.292-10.342h4.841a3.341,3.341,0,0,0,3.337-3.338V52.915a3.341,3.341,0,0,0-3.337-3.337h-4.841a33.315,33.315,0,0,0-1.337-4.341l8.918-3.847a6.988,6.988,0,0,0,12.27-6.152Z" fill="#e6e7e8"/><circle cx="21.801" cy="10.462" r="7.5" fill="#6dc9f7"/><circle cx="14.301" cy="72.663" r="7.5" fill="#6dc9f7"/><circle cx="39.803" cy="112.54" r="8.5" fill="#6dc9f7"/><circle cx="89.172" cy="101.059" r="5.998" fill="#6dc9f7"/><circle cx="111.197" cy="33.137" r="5.998" fill="#6dc9f7"/><circle cx="65.261" cy="53.112" r="22.609" fill="#ffd7e5"/><path d="M65.261,33.5A22.606,22.606,0,0,1,87.815,54.612c.032-.5.055-1,.055-1.5a22.609,22.609,0,0,0-45.218,0c0,.5.023,1,.055,1.5A22.606,22.606,0,0,1,65.261,33.5Z" fill="#fff"/><path d="M105.261,57.309V48.915a2.338,2.338,0,0,0-2.338-2.337H97.275A32.465,32.465,0,0,0,92.513,35.1l4-4a2.338,2.338,0,0,0,0-3.306L90.578,21.86a2.339,2.339,0,0,0-3.306,0l-4,4A32.465,32.465,0,0,0,71.8,21.1V15.449a2.338,2.338,0,0,0-2.338-2.337H61.064a2.337,2.337,0,0,0-2.337,2.337V21.1A32.45,32.45,0,0,0,47.249,25.86l-4-4a2.338,2.338,0,0,0-3.3,0L34.009,27.8a2.338,2.338,0,0,0,0,3.306l4,4a32.486,32.486,0,0,0-4.763,11.478H27.6a2.337,2.337,0,0,0-2.337,2.337v8.394A2.337,2.337,0,0,0,27.6,59.646h5.648a32.5,32.5,0,0,0,4.762,11.478l-4,4a2.338,2.338,0,0,0,0,3.306l5.935,5.935a2.338,2.338,0,0,0,3.305,0l4-4a32.47,32.47,0,0,0,11.478,4.763v5.648a2.337,2.337,0,0,0,2.337,2.337h8.393A2.337,2.337,0,0,0,71.8,90.775V85.127a32.486,32.486,0,0,0,11.478-4.763l4,4a2.339,2.339,0,0,0,3.306,0l5.934-5.935a2.338,2.338,0,0,0,0-3.306l-4-4a32.465,32.465,0,0,0,4.762-11.478h5.648A2.338,2.338,0,0,0,105.261,57.309Zm-40,18.412A22.609,22.609,0,1,1,87.869,53.112,22.609,22.609,0,0,1,65.261,75.721Z" fill="#fa759e"/><path d="M117.934,31.238a7,7,0,1,0-13.473,3.8c.059.208.148.4.224.6l-8.7,3.753a33.613,33.613,0,0,0-2.193-4.151l3.429-3.429a3.342,3.342,0,0,0,0-4.719l-5.935-5.935a3.418,3.418,0,0,0-4.719,0l-3.429,3.429A33.3,33.3,0,0,0,72.8,20.291V15.449a3.341,3.341,0,0,0-3.338-3.337H61.065a3.341,3.341,0,0,0-3.338,3.337v4.842a33.3,33.3,0,0,0-10.342,4.291l-3.429-3.428a3.416,3.416,0,0,0-4.719,0l-2.478,2.478-8.078-8.195a8.49,8.49,0,1,0-7.748,3.481,8.6,8.6,0,0,0,.874.045,8.481,8.481,0,0,0,5.518-2.054l8.02,8.137L33.3,27.088a3.344,3.344,0,0,0,0,4.72l3.429,3.428a33.3,33.3,0,0,0-4.292,10.342H27.6a3.341,3.341,0,0,0-3.337,3.338v8.393A3.341,3.341,0,0,0,27.6,60.646h4.841A33.134,33.134,0,0,0,33.779,65l-12,3.635a8.772,8.772,0,1,0,.73,1.868l12.034-3.645a33.365,33.365,0,0,0,2.186,4.135L33.3,74.417a3.341,3.341,0,0,0,0,4.719l5.935,5.935a3.416,3.416,0,0,0,4.719,0l3.43-3.429a33.5,33.5,0,0,0,4.126,2.182l-9.018,19.61a9.484,9.484,0,1,0,1.85.764l9.018-19.611a33.188,33.188,0,0,0,4.365,1.347v4.84a3.341,3.341,0,0,0,3.338,3.338h8.392A3.341,3.341,0,0,0,72.8,90.774v-4.84a33.234,33.234,0,0,0,5.769-1.9l6.229,11.576a7.027,7.027,0,1,0,1.725-1.015L80.381,83.186c.936-.473,1.858-.98,2.755-1.544l3.43,3.429a3.415,3.415,0,0,0,4.718,0l5.936-5.935a3.341,3.341,0,0,0,0-4.719l-3.429-3.429a33.3,33.3,0,0,0,4.292-10.342h4.841a3.341,3.341,0,0,0,3.337-3.337V48.916a3.341,3.341,0,0,0-3.337-3.338H98.083a33.166,33.166,0,0,0-1.338-4.341l8.918-3.847a6.987,6.987,0,0,0,12.271-6.152Zm-96.8-14.31a6.5,6.5,0,1,1,7.13-5.8A6.453,6.453,0,0,1,21.137,16.928ZM14.3,79.163a6.5,6.5,0,1,1,6.5-6.5A6.508,6.508,0,0,1,14.3,79.163Zm33,33.377a7.5,7.5,0,1,1-7.5-7.5A7.508,7.508,0,0,1,47.3,112.54ZM89.17,96.058A5,5,0,1,1,84.5,99.3h0a5.007,5.007,0,0,1,4.675-3.238Zm13.754-48.48a1.339,1.339,0,0,1,1.337,1.338v8.393a1.339,1.339,0,0,1-1.337,1.337H97.275a1,1,0,0,0-.98.8,31.339,31.339,0,0,1-4.616,11.125,1,1,0,0,0,.127,1.259l4,4a1.341,1.341,0,0,1,0,1.891L89.87,83.657a1.368,1.368,0,0,1-1.89,0l-4-4a1,1,0,0,0-1.259-.127A31.389,31.389,0,0,1,71.6,84.147a1,1,0,0,0-.8.98v5.647a1.34,1.34,0,0,1-1.338,1.338H61.065a1.339,1.339,0,0,1-1.338-1.338V85.127a1,1,0,0,0-.8-.98A31.382,31.382,0,0,1,47.8,79.53a1,1,0,0,0-1.259.127l-4,4a1.37,1.37,0,0,1-1.891,0l-5.935-5.935a1.339,1.339,0,0,1,0-1.891l4-4a1,1,0,0,0,.127-1.259,31.32,31.32,0,0,1-4.616-11.125,1,1,0,0,0-.981-.8H27.6a1.338,1.338,0,0,1-1.337-1.337V48.916A1.338,1.338,0,0,1,27.6,47.578h5.648a1,1,0,0,0,.981-.8,31.336,31.336,0,0,1,4.616-11.125,1,1,0,0,0-.127-1.259l-4-4a1.341,1.341,0,0,1,0-1.892l5.935-5.935a1.37,1.37,0,0,1,1.891,0l4,4a1,1,0,0,0,1.259.126,31.362,31.362,0,0,1,11.125-4.615,1,1,0,0,0,.8-.98V15.449a1.339,1.339,0,0,1,1.338-1.337h8.392A1.34,1.34,0,0,1,70.8,15.449V21.1a1,1,0,0,0,.8.98,31.37,31.37,0,0,1,11.125,4.615,1,1,0,0,0,1.259-.126l4-4a1.371,1.371,0,0,1,1.891,0L95.806,28.5a1.342,1.342,0,0,1,0,1.892l-4,4a1,1,0,0,0-.127,1.259A31.354,31.354,0,0,1,96.3,46.777a1,1,0,0,0,.98.8Zm9.63-9.63a5,5,0,1,1,3.454-6.167A5,5,0,0,1,112.554,37.948Z" fill="#3a2c60"/><path d="M75.709,72.031a21.41,21.41,0,0,1-6.83,2.388,1,1,0,0,0,.165,1.986,1.053,1.053,0,0,0,.167-.013,23.432,23.432,0,0,0,7.467-2.611,1,1,0,0,0-.969-1.75Z" fill="#3a2c60"/><path d="M65.261,29.5a23.609,23.609,0,1,0,0,47.218,1,1,0,0,0,0-2,21.607,21.607,0,1,1,13.391-4.649,1,1,0,0,0,1.241,1.569A23.61,23.61,0,0,0,65.261,29.5Z" fill="#3a2c60"/><path d="M57.494,46.535a1.764,1.764,0,0,0-.914-.248,1.79,1.79,0,0,0-.895.238,1.5,1.5,0,0,0-.628.7l-5.14,10.794a1.538,1.538,0,0,0-.152.609,1.142,1.142,0,0,0,.438.905,1.493,1.493,0,0,0,.99.371,1.243,1.243,0,0,0,1.18-.8l1.009-2.246h6.453L60.844,59.1a1.27,1.27,0,0,0,.495.6,1.289,1.289,0,0,0,.686.2,1.456,1.456,0,0,0,.98-.371,1.153,1.153,0,0,0,.428-.905,1.521,1.521,0,0,0-.152-.609L58.141,47.22A1.682,1.682,0,0,0,57.494,46.535Zm-3.1,8.071,2.227-4.949,2.209,4.949Z" fill="#3a2c60"/><path d="M74.646,53.674a4.513,4.513,0,0,0,0-6.168,4.893,4.893,0,0,0-3.408-1.1H66.46a1.26,1.26,0,0,0-1.39,1.389V58.452a1.487,1.487,0,1,0,2.97,0V54.778h3.2A4.893,4.893,0,0,0,74.646,53.674ZM68.04,52.531V48.667h2.817q2.227,0,2.228,1.942,0,1.923-2.228,1.922Z" fill="#3a2c60"/><path d="M80.357,59.537a1.469,1.469,0,0,0,.4-1.085V47.772a1.444,1.444,0,0,0-.4-1.066,1.672,1.672,0,0,0-2.17,0,1.44,1.44,0,0,0-.4,1.066v10.68a1.536,1.536,0,0,0,2.57,1.085Z" fill="#3a2c60"/></svg>