<?xml version="1.0" encoding="utf-8"?>
<!-- Generator: Adobe Illustrator 22.0.0, SVG Export Plug-In . SVG Version: 6.00 Build 0)  -->
<svg version="1.1" id="Layer_1" xmlns="http://www.w3.org/2000/svg" xmlns:xlink="http://www.w3.org/1999/xlink" x="0px" y="0px"
	 viewBox="0 0 128 128" style="enable-background:new 0 0 128 128;" xml:space="preserve">
<style type="text/css">
	.st0{fill:#3A2C60;}
	.st1{fill:#E6E7E8;}
	.st2{fill:#D4FBFF;}
	.st3{fill:#FFFFFF;}
	.st4{fill:#FA759E;}
	.st5{fill:#0089EF;}
	.st6{fill:#6DC9F7;}
	.st7{fill:#FFD7E5;}
</style>
<g>
	<g>
		<path class="st1" d="M60.135,74.041c0,0.387,0.224,0.739,0.574,0.904c0.136,0.064,0.281,0.096,0.426,0.096
			c0.228,0,0.454-0.078,0.636-0.229l15.033-12.4l15.033,12.4c0.299,0.247,0.713,0.298,1.062,0.133
			c0.35-0.165,0.574-0.517,0.574-0.904V46.953c4.219-4.25,6.831-10.098,6.831-16.546c0-12.958-10.542-23.5-23.5-23.5
			s-23.5,10.542-23.5,23.5c0,6.448,2.612,12.296,6.831,16.547V74.041z"/>
		<path class="st1" d="M118.866,69.938c-2.382-2.507-6.226-2.785-8.944-0.644L92.679,82.883c-1.182-1.527-2.994-2.439-4.957-2.439
			H73.556c-3.514,0-7.007-0.501-10.381-1.49l-3.309-0.969c-3.223-0.951-6.406-1.297-9.459-1.027
			c-8.442,0.73-11.952,5.223-13.838,7.637c-0.416,0.532-0.809,1.035-1.054,1.218c-0.289,0.216-3.422,2.26-6.473,4.238
			c-0.751-0.859-1.741-1.467-2.876-1.714c-1.401-0.304-2.833-0.045-4.037,0.73l-8.37,5.386c-2.484,1.598-3.205,4.919-1.608,7.403
			l13.354,20.776c0.774,1.204,1.971,2.035,3.371,2.338c0.382,0.083,0.766,0.124,1.148,0.124c1.017,0,2.013-0.291,2.889-0.854
			l8.37-5.386c2.484-1.598,3.205-4.919,1.608-7.404l-0.795-1.237c4.19-2.573,7.409-4.442,7.96-4.617
			c2.228-0.628,7.064,0.424,12.187,1.541c4.977,1.085,10.123,2.207,14.4,2.207c5.576,0,10.102-2.837,12.917-5.218
			c2.38-2.02,28.842-24.577,28.849-24.584c1.383-1.203,2.192-2.874,2.279-4.704S120.129,71.267,118.866,69.938z"/>
	</g>
	<g>
		<g>
			<path class="st4" d="M72.804,48.907c-6.094,0-11.617-2.426-15.669-6.361v27.495l15.669-12.925l15.669,12.925V42.546
				C84.422,46.48,78.898,48.907,72.804,48.907z"/>
			<g>
				<circle class="st2" cx="72.804" cy="26.407" r="22.5"/>
				<circle class="st6" cx="72.804" cy="26.407" r="14.303"/>
				<path class="st3" d="M72.804,15.682c7.292,0,13.297,5.461,14.179,12.514c0.073-0.587,0.124-1.182,0.124-1.789
					c0-7.899-6.404-14.303-14.303-14.303s-14.303,6.404-14.303,14.303c0,0.607,0.05,1.202,0.124,1.789
					C59.507,21.143,65.512,15.682,72.804,15.682z"/>
			</g>
		</g>
		<g>
			<path class="st7" d="M114.141,66.627c-2.012-2.118-5.306-2.354-7.6-0.547l-18.11,14.271c-0.878-1.719-2.646-2.908-4.709-2.908
				h-1.262H72.227h-2.671c-3.609,0-7.199-0.515-10.662-1.53l-3.31-0.97c-2.95-0.87-6.03-1.26-9.09-0.99
				c-10.17,0.88-12.72,7.42-14.38,8.66c-0.455,0.34-6.189,4.057-7.304,4.78l11.894,18.503c1.225-0.757,8.087-4.981,9.08-5.262
				c4.695-1.33,18.07,3.71,26.86,3.71c5.33,0,9.68-2.79,12.27-4.98c2.38-2.02,28.84-24.576,28.84-24.576
				C116.183,72.674,116.359,68.961,114.141,66.627z"/>
			<path class="st6" d="M36.743,114.013l-8.37,5.386c-2.025,1.303-4.723,0.717-6.025-1.309L8.993,97.315
				c-1.301-2.024-0.716-4.72,1.308-6.022l8.37-5.386c2.025-1.303,4.723-0.717,6.025,1.309l13.354,20.775
				C39.352,110.015,38.766,112.711,36.743,114.013z"/>
			<g>
				<circle class="st2" cx="20.57" cy="93.88" r="2.889"/>
				<g>
					<path class="st0" d="M56.135,70.041c0,0.387,0.224,0.739,0.574,0.904c0.136,0.064,0.281,0.096,0.426,0.096
						c0.228,0,0.454-0.078,0.636-0.229l15.033-12.4l15.033,12.4c0.299,0.247,0.713,0.298,1.062,0.133
						c0.35-0.165,0.574-0.517,0.574-0.904V42.953c4.219-4.25,6.831-10.098,6.831-16.546c0-12.958-10.542-23.5-23.5-23.5
						s-23.5,10.542-23.5,23.5c0,6.448,2.612,12.296,6.831,16.547V70.041z M73.44,56.344c-0.369-0.305-0.903-0.305-1.272,0
						L58.135,67.919V44.747c4.024,3.225,9.123,5.16,14.669,5.16c5.546,0,10.646-1.935,14.669-5.161v23.173L73.44,56.344z
						 M72.804,4.907c11.855,0,21.5,9.645,21.5,21.5s-9.645,21.5-21.5,21.5s-21.5-9.645-21.5-21.5S60.949,4.907,72.804,4.907z"/>
					<path class="st0" d="M68.425,41.074c0.095,0.028,0.191,0.042,0.286,0.042c0.431,0,0.829-0.281,0.958-0.715
						c0.158-0.529-0.144-1.086-0.673-1.244c-5.59-1.667-9.495-6.91-9.495-12.75c0-7.335,5.968-13.303,13.303-13.303
						s13.303,5.968,13.303,13.303c0,3.588-1.407,6.953-3.963,9.473c-0.393,0.388-0.397,1.021-0.01,1.414
						c0.387,0.393,1.021,0.398,1.414,0.01c2.939-2.898,4.559-6.769,4.559-10.896c0-8.438-6.865-15.303-15.303-15.303
						s-15.303,6.865-15.303,15.303C57.501,33.125,61.993,39.155,68.425,41.074z"/>
					<path class="st0" d="M79.278,38.031c-1.967,1.098-4.206,1.678-6.474,1.678c-0.552,0-1,0.448-1,1s0.448,1,1,1
						c2.608,0,5.184-0.668,7.448-1.932c0.482-0.269,0.655-0.878,0.386-1.36C80.368,37.935,79.76,37.761,79.278,38.031z"/>
					<path class="st0" d="M114.866,65.938c-2.382-2.507-6.226-2.785-8.944-0.644L88.679,78.883
						c-1.182-1.527-2.994-2.439-4.957-2.439H69.556c-3.514,0-7.007-0.501-10.381-1.49l-3.309-0.969
						c-3.223-0.951-6.406-1.297-9.459-1.027c-8.442,0.73-11.952,5.223-13.838,7.637c-0.416,0.532-0.809,1.035-1.054,1.218
						c-0.289,0.216-3.422,2.26-6.473,4.238c-0.751-0.859-1.741-1.467-2.876-1.714c-1.401-0.304-2.833-0.045-4.037,0.73l-8.37,5.386
						c-2.484,1.598-3.205,4.919-1.608,7.403l13.354,20.776c0.774,1.204,1.971,2.035,3.371,2.338
						c0.382,0.083,0.766,0.124,1.148,0.124c1.017,0,2.013-0.291,2.889-0.854l8.37-5.386c2.484-1.598,3.205-4.919,1.608-7.404
						l-0.795-1.237c4.19-2.573,7.409-4.442,7.96-4.617c2.228-0.628,7.064,0.424,12.187,1.541c4.977,1.085,10.123,2.207,14.4,2.207
						c5.576,0,10.102-2.837,12.917-5.218c2.38-2.02,28.842-24.577,28.849-24.584c1.383-1.203,2.192-2.874,2.279-4.704
						S116.129,67.267,114.866,65.938z M36.201,113.172l-8.37,5.386c-0.755,0.485-1.654,0.648-2.53,0.458
						c-0.877-0.19-1.627-0.711-2.112-1.466L9.835,96.774c-1.001-1.557-0.549-3.639,1.008-4.641l8.37-5.386
						c0.549-0.353,1.173-0.535,1.811-0.535c0.239,0,0.48,0.026,0.72,0.078c0.877,0.19,1.627,0.711,2.112,1.466l13.354,20.775
						C38.21,110.088,37.758,112.17,36.201,113.172z M113.105,74.026c0,0-26.458,22.555-28.836,24.574
						c-2.56,2.164-6.653,4.744-11.625,4.744c-4.062,0-9.101-1.099-13.975-2.161c-5.606-1.223-10.449-2.279-13.158-1.511
						c-0.929,0.263-5.405,2.958-8.497,4.858l-5.056-7.865L26.19,87.69c2.115-1.372,6.114-3.97,6.523-4.275
						c0.46-0.344,0.889-0.894,1.433-1.589c1.818-2.327,4.86-6.22,12.437-6.876c2.805-0.246,5.737,0.074,8.721,0.954l3.31,0.97
						c3.557,1.042,7.239,1.571,10.943,1.571h14.166c1.5,0,2.864,0.792,3.647,2.076c0.409,0.672,0.635,1.435,0.635,2.231
						c0,2.375-1.933,4.308-4.308,4.308H58.43c-0.552,0-1,0.448-1,1s0.448,1,1,1h25.266c3.478,0,6.308-2.83,6.308-6.308
						c0-0.717-0.132-1.415-0.364-2.079l17.521-13.807c1.9-1.498,4.59-1.304,6.255,0.45c0.883,0.929,1.336,2.146,1.275,3.427
						C114.631,72.023,114.065,73.192,113.105,74.026z"/>
					<path class="st0" d="M22.35,90.422c-0.924-0.476-1.977-0.563-2.966-0.246c-0.989,0.317-1.796,1-2.271,1.923
						c-0.476,0.924-0.563,1.977-0.246,2.966c0.317,0.99,1,1.796,1.923,2.271c0.559,0.288,1.165,0.433,1.776,0.433
						c0.399,0,0.8-0.062,1.19-0.187c0.989-0.317,1.796-1,2.271-1.923c0.476-0.924,0.563-1.977,0.246-2.966
						S23.273,90.898,22.35,90.422z M22.249,94.744c-0.231,0.448-0.623,0.78-1.103,0.934s-0.993,0.111-1.44-0.12
						c-0.448-0.231-0.78-0.623-0.934-1.103s-0.111-0.992,0.12-1.441c0.231-0.448,0.623-0.78,1.103-0.934
						c0.19-0.061,0.384-0.091,0.578-0.091c0.297,0,0.591,0.071,0.862,0.21h0c0.448,0.231,0.78,0.623,0.934,1.103
						C22.522,93.784,22.48,94.295,22.249,94.744z"/>
				</g>
			</g>
		</g>
	</g>
</g>
</svg>
