<?xml version="1.0" encoding="utf-8"?>
<!-- Generator: Adobe Illustrator 22.0.1, SVG Export Plug-In . SVG Version: 6.00 Build 0)  -->
<svg version="1.1" id="Layer_1" xmlns="http://www.w3.org/2000/svg" xmlns:xlink="http://www.w3.org/1999/xlink" x="0px" y="0px"
	 viewBox="0 0 128 128" style="enable-background:new 0 0 128 128;" xml:space="preserve">
<style type="text/css">
	.st0{fill:#3A2C60;}
	.st1{fill:#E6E7E8;}
	.st2{fill:#6DC9F7;}
	.st3{fill:#FA759E;}
	.st4{fill:#FFFFFF;}
	.st5{fill:#FFD7E5;}
	.st6{fill:#0089EF;}
	.st7{fill:#D4FBFF;}
</style>
<g>
	<path class="st1" d="M116.638,12.866H15.362c-1.654,0-3,1.346-3,3v100.269c0,1.654,1.346,3,3,3h101.275c1.654,0,3-1.346,3-3V15.866
		C119.638,14.211,118.292,12.866,116.638,12.866z"/>
	<g>
		<g>
			<path class="st3" d="M112.638,9.866H62v104.269h50.638c1.105,0,2-0.895,2-2V11.866C114.638,10.761,113.742,9.866,112.638,9.866z"
				/>
		</g>
		<g>
			<path class="st6" d="M11.362,9.866c-1.105,0-2,0.895-2,2v100.269c0,1.105,0.895,2,2,2H62V9.866H11.362z"/>
		</g>
		<g>
			<path class="st6" d="M75.483,73.369c-3.576,3.239-8.305,5.23-13.51,5.23c-5.197,0-9.92-1.984-13.494-5.215
				C37.999,77.773,30.635,88.126,30.635,100.2v13.935h62.731V100.2C93.366,88.111,85.984,77.75,75.483,73.369z"/>
			<g>
				<g>
					<path class="st3" d="M76.196,73.684l2.037,5.763l-7.471,0l3.384,7.813l-18.622,8.338v18.536h37.842V100.2
						C93.366,88.388,86.315,78.229,76.196,73.684z"/>
				</g>
			</g>
			<g>
				<path class="st4" d="M61.973,78.599c-1.228,0-2.428-0.116-3.596-0.326l3.596,6.208l3.602-6.209
					C64.406,78.483,63.204,78.599,61.973,78.599z"/>
			</g>
			<g>
				<g>
					<path class="st2" d="M47.941,72.904l-2.174,6.543l9.288,0l-3.485,5.139l6.753,6.186l3.651-6.292l-3.596-6.208
						C54.358,77.548,50.754,75.634,47.941,72.904z"/>
				</g>
				<g>
					<path class="st5" d="M75.942,72.965c-2.802,2.696-6.379,4.587-10.367,5.307L55.523,95.598l18.622-8.338l-3.384-7.813l7.471,0
						L75.942,72.965z"/>
				</g>
			</g>
			<g>
				<g>
					<g>
						<g>
							<path class="st4" d="M83.312,53.902c-0.421,0-0.822,0.125-1.185,0.346v4.198c0,1.147-0.118,2.264-0.302,3.359
								c0.44,0.357,0.944,0.577,1.488,0.577c1.659,0,3.003-1.898,3.003-4.24S84.971,53.902,83.312,53.902z"/>
							<path class="st4" d="M41.82,58.446v-4.198c-0.364-0.221-0.764-0.346-1.185-0.346c-1.659,0-3.003,1.898-3.003,4.24
								s1.345,4.24,3.003,4.24c0.544,0,1.048-0.22,1.488-0.577C41.938,60.71,41.82,59.593,41.82,58.446z"/>
						</g>
						<path class="st4" d="M41.82,47.037v11.409c0,11.13,9.023,20.153,20.153,20.153s20.153-9.023,20.153-20.153V47.037H41.82z"/>
					</g>
				</g>
			</g>
			<g>
				<g>
					<g>
						<path class="st2" d="M43.645,51.866c0-0.593,0.122-1.154,0.317-1.679h-1.655c-0.787,0-1.425,0.638-1.425,1.425v1.354
							c0,0.787,0.638,1.425,1.425,1.425h1.338V51.866z"/>
					</g>
					<g>
						<path class="st2" d="M81.555,50.187h-1.655c0.195,0.525,0.317,1.086,0.317,1.679v2.526h1.338c0.787,0,1.425-0.638,1.425-1.425
							v-1.354C82.98,50.825,82.342,50.187,81.555,50.187z"/>
					</g>
				</g>
				<g>
					<path class="st2" d="M75.387,47.037h-8.901c-1.577,0-2.855,1.278-2.855,2.855v0.229h-3.401v-0.229
						c0-1.577-1.278-2.855-2.855-2.855h-8.901c-2.667,0-4.829,2.162-4.829,4.829v3.295c0,3.096,2.51,5.606,5.606,5.606h5.374
						c3.096,0,5.606-2.51,5.606-5.606v-1.189h3.401v1.189c0,3.096,2.51,5.606,5.606,5.606h5.374c3.096,0,5.606-2.51,5.606-5.606
						v-3.295C80.216,49.199,78.054,47.037,75.387,47.037z"/>
				</g>
				<g>
					<path class="st5" d="M75.387,47.037h-8.901c-1.577,0-2.855,1.278-2.855,2.855v0.229H62v3.852h1.631v1.189
						c0,3.096,2.51,5.606,5.606,5.606h5.374c3.096,0,5.606-2.51,5.606-5.606v-3.295C80.216,49.199,78.054,47.037,75.387,47.037z"/>
				</g>
				<g>
					<path class="st6" d="M46.549,54.64v-2.242c0-1.453,1.178-2.631,2.631-2.631h7.463c0.378,0,0.685,0.307,0.685,0.685v4.187
						c0,1.876-1.521,3.397-3.397,3.397h-3.985C48.07,58.036,46.549,56.516,46.549,54.64z"/>
					<path class="st3" d="M66.534,54.64v-4.188c0-0.378,0.307-0.685,0.685-0.685h7.463c1.453,0,2.631,1.178,2.631,2.631v2.242
						c0,1.876-1.521,3.397-3.397,3.397h-3.985C68.055,58.036,66.534,56.516,66.534,54.64z"/>
				</g>
				<path class="st4" d="M71.885,51.79h-2.349c-0.302,0-0.547,0.245-0.547,0.547s0.245,0.547,0.547,0.547h2.349
					c0.302,0,0.547-0.245,0.547-0.547S72.187,51.79,71.885,51.79z"/>
				<path class="st4" d="M73.595,51.79c-0.302,0-0.547,0.245-0.547,0.547s0.245,0.547,0.547,0.547s0.547-0.245,0.547-0.547
					S73.897,51.79,73.595,51.79z"/>
				<path class="st4" d="M52.616,51.79h-2.349c-0.302,0-0.547,0.245-0.547,0.547s0.245,0.547,0.547,0.547h2.349
					c0.302,0,0.547-0.245,0.547-0.547S52.918,51.79,52.616,51.79z"/>
				<path class="st4" d="M54.326,51.79c-0.302,0-0.547,0.245-0.547,0.547s0.245,0.547,0.547,0.547c0.302,0,0.547-0.245,0.547-0.547
					S54.628,51.79,54.326,51.79z"/>
			</g>
			<g>
				<g>
					<g>
						<g>
							<g>
								<g>
									<path class="st6" d="M79.73,20.344c-1.274-3.098-4.743-4.664-7.909-3.57l-5.758,1.988c-2.632,0.909-5.493,0.909-8.125,0
										l-5.758-1.988c-3.166-1.093-6.635,0.473-7.909,3.57l-6.293,21.709H29.97c-1.376,0-2.492,1.116-2.492,2.492v0
										c0,1.376,1.116,2.492,2.492,2.492h64.061c1.376,0,2.492-1.116,2.492-2.492v0c0-1.376-1.116-2.492-2.492-2.492h-8.007
										L79.73,20.344z"/>
								</g>
								<g>
									<path class="st3" d="M94.03,42.053h-8.007L79.73,20.344c-1.274-3.098-4.743-4.664-7.909-3.57l-5.758,1.988
										c-1.316,0.454-2.689,0.682-4.063,0.682v27.594H94.03c1.376,0,2.492-1.116,2.492-2.492v0
										C96.523,43.168,95.407,42.053,94.03,42.053z"/>
								</g>
								<g>
									<polygon class="st5" points="84.635,37.262 39.365,37.262 37.977,42.053 86.024,42.053 									"/>
								</g>
								<g>
									<g>
										<path class="st4" d="M51.666,19.466l6.059,2.092c2.77,0.956,5.78,0.956,8.549,0l6.059-2.092
											c3.152-1.089,6.588,0.331,8.083,3.249l-0.687-2.371c-1.274-3.098-4.743-4.664-7.909-3.57l-5.758,1.988
											c-2.632,0.909-5.493,0.909-8.125,0l-5.758-1.988c-3.166-1.093-6.635,0.473-7.909,3.57l-0.687,2.371
											C45.079,19.797,48.514,18.377,51.666,19.466z"/>
									</g>
								</g>
								<g>
									<path class="st0" d="M112.638,8.866H11.362c-1.654,0-3,1.346-3,3v100.269c0,1.654,1.346,3,3,3h19.272h82.003
										c1.654,0,3-1.346,3-3V11.866C115.638,10.211,114.292,8.866,112.638,8.866z M40.116,38.263h2.138c0.552,0,1-0.448,1-1
										s-0.448-1-1-1h-1.559l4.519-15.586c1.087-2.573,3.992-3.873,6.638-2.958l5.758,1.988c2.831,0.978,5.949,0.978,8.778,0
										l5.759-1.988c2.644-0.914,5.551,0.385,6.639,2.958l4.518,15.586H55.403c-0.552,0-1,0.448-1,1s0.448,1,1,1h28.48l0.809,2.79
										H39.308L40.116,38.263z M37.977,43.053C37.977,43.053,37.977,43.053,37.977,43.053
										C37.977,43.053,37.977,43.053,37.977,43.053h48.047h8.007c0.823,0,1.492,0.669,1.492,1.492s-0.669,1.492-1.492,1.492
										H82.127h-6.739h-8.901h-9.111h-8.901H41.82H29.97c-0.823,0-1.492-0.669-1.492-1.492s0.669-1.492,1.492-1.492H37.977z
										 M79.216,51.866v3.295c0,2.54-2.066,4.606-4.605,4.606h-5.373c-2.54,0-4.606-2.066-4.606-4.606v-1.189c0-0.552-0.448-1-1-1
										h-3.4c-0.552,0-1,0.448-1,1v1.189c0,2.54-2.066,4.606-4.606,4.606h-5.374c-2.54,0-4.605-2.066-4.605-4.606v-3.295
										c0-2.111,1.717-3.829,3.829-3.829h8.901c1.023,0,1.855,0.832,1.855,1.855v0.229c0,0.552,0.448,1,1,1h3.4
										c0.552,0,1-0.448,1-1v-0.229c0-1.023,0.833-1.855,1.855-1.855h8.901C77.498,48.037,79.216,49.754,79.216,51.866z
										 M42.646,51.866v1.526h-0.338c-0.234,0-0.425-0.191-0.425-0.425v-1.354c0-0.234,0.191-0.425,0.425-0.425h0.381
										C42.662,51.41,42.646,51.636,42.646,51.866z M43.303,49.187H42.82v-1.15h1.27C43.784,48.387,43.519,48.772,43.303,49.187z
										 M60.742,48.037h2.376c-0.186,0.336-0.331,0.696-0.41,1.083h-1.556C61.074,48.734,60.928,48.373,60.742,48.037z
										 M81.127,49.187h-0.568c-0.216-0.416-0.481-0.801-0.787-1.15h1.356V49.187z M81.555,51.187c0.234,0,0.426,0.19,0.426,0.425
										v1.354c0,0.234-0.191,0.425-0.426,0.425h-0.339v-1.526c0-0.23-0.017-0.455-0.043-0.678H81.555z M83.127,58.446v-3.518
										c0.062-0.01,0.122-0.026,0.186-0.026c1.086,0,2.003,1.484,2.003,3.24s-0.917,3.24-2.003,3.24
										c-0.138,0-0.272-0.03-0.402-0.077C83.038,60.368,83.127,59.418,83.127,58.446z M40.635,54.902
										c0.063,0,0.124,0.016,0.186,0.026v3.518c0,0.972,0.089,1.922,0.217,2.86c-0.13,0.047-0.264,0.077-0.402,0.077
										c-1.086,0-2.003-1.484-2.003-3.24S39.549,54.902,40.635,54.902z M42.82,56.647c0.677,2.928,3.3,5.12,6.431,5.12h5.374
										c3.643,0,6.606-2.963,6.606-6.606v-0.189h1.4v0.189c0,3.643,2.964,6.606,6.606,6.606h5.373
										c3.291,0,6.019-2.421,6.517-5.574v2.253c0,10.561-8.592,19.153-19.153,19.153c-10.561,0-19.153-8.592-19.153-19.153V56.647
										z M77.233,113.135h-20.71V96.246l18.03-8.074c0.5-0.224,0.727-0.808,0.51-1.31l-2.779-6.416h5.949
										c0.324,0,0.629-0.158,0.816-0.422c0.188-0.265,0.234-0.605,0.126-0.911l-1.198-3.39c1.984,1.112,3.823,2.451,5.473,3.994
										c-3.863,2.641-6.218,7.036-6.218,11.774V113.135z M48.412,74.659c1.986,1.664,4.285,2.958,6.789,3.808
										c-0.049-0.007-0.096-0.02-0.146-0.02h-7.902L48.412,74.659z M55.938,78.979c-0.081-0.153-0.2-0.275-0.34-0.366
										c0.7,0.222,1.415,0.411,2.144,0.56l3.074,5.307l-2.736,4.716l-5.199-4.763l3-4.424
										C56.091,79.702,56.112,79.306,55.938,78.979z M61.974,82.486l-1.723-2.974c0.57,0.046,1.141,0.087,1.723,0.087
										c0.583,0,1.155-0.041,1.726-0.087L61.974,82.486z M66.209,79.172c3.481-0.71,6.651-2.281,9.285-4.475l1.325,3.751h-6.058
										c-0.337,0-0.651,0.169-0.836,0.451c-0.185,0.281-0.216,0.637-0.082,0.946l2.991,6.907l-14.891,6.668L66.209,79.172z
										 M44.956,80.032c0.188,0.261,0.49,0.415,0.811,0.415h7.402l-2.426,3.578c-0.278,0.411-0.214,0.963,0.152,1.298l6.159,5.643
										l-2.396,4.13c-0.088,0.153-0.135,0.326-0.135,0.502v17.536h-7.756V91.492c0-4.736-2.356-9.133-6.218-11.775
										c1.626-1.52,3.435-2.842,5.386-3.945l-1.117,3.36C44.717,79.437,44.768,79.772,44.956,80.032z M39.096,81.178
										c3.505,2.243,5.671,6.116,5.671,10.314v21.643H31.635V100.2C31.635,92.863,34.469,86.181,39.096,81.178z M79.233,113.135
										V91.492c0-4.2,2.165-8.07,5.67-10.313c4.627,5.003,7.462,11.685,7.462,19.021v12.935H79.233z M113.638,112.135
										c0,0.551-0.448,1-1,1H94.365V100.2c0-11.954-7.026-22.279-17.154-27.119c2.583-2.688,4.456-6.053,5.337-9.802
										c0.247,0.063,0.501,0.103,0.764,0.103c2.245,0,4.003-2.302,4.003-5.24c0-1.552-0.499-2.913-1.292-3.864v-6.241h8.007
										c1.926,0,3.492-1.566,3.492-3.492s-1.566-3.492-3.492-3.492h-7.256l-6.083-20.987c-0.011-0.035-0.022-0.069-0.036-0.102
										c-1.475-3.584-5.5-5.402-9.16-4.136l-5.759,1.988c-2.409,0.832-5.063,0.832-7.473,0l-5.758-1.988
										c-3.661-1.264-7.687,0.552-9.16,4.136c-0.014,0.033-0.025,0.067-0.036,0.102l-6.084,20.987H29.97
										c-1.926,0-3.492,1.566-3.492,3.492s1.566,3.492,3.492,3.492h8.007v6.183c-0.823,0.953-1.345,2.337-1.345,3.922
										c0,2.938,1.758,5.24,4.003,5.24c0.264,0,0.518-0.04,0.764-0.103c0.883,3.757,2.761,7.128,5.353,9.82
										C36.644,77.947,29.635,88.26,29.635,100.2v12.935H11.362c-0.551,0-1-0.449-1-1V11.866c0-0.551,0.449-1,1-1h101.275
										c0.552,0,1,0.449,1,1V112.135z"/>
									<path class="st0" d="M60.268,97.643c-0.957,0-1.732,0.776-1.732,1.732c0,0.957,0.776,1.732,1.732,1.732
										c0.957,0,1.732-0.776,1.732-1.732C62,98.418,61.225,97.643,60.268,97.643z"/>
									<path class="st0" d="M60.268,106.642c-0.957,0-1.732,0.776-1.732,1.732c0,0.957,0.776,1.732,1.732,1.732
										c0.957,0,1.732-0.776,1.732-1.732C62,107.418,61.225,106.642,60.268,106.642z"/>
									<path class="st0" d="M62,67.896c1.815,0,3.292-1.477,3.292-3.292v-1.344c0-0.552-0.448-1-1-1c-0.552,0-1,0.448-1,1v1.344
										c0,0.712-0.58,1.292-1.292,1.292s-1.292-0.58-1.292-1.292v-1.344c0-0.552-0.448-1-1-1s-1,0.448-1,1v1.344
										C58.708,66.42,60.185,67.896,62,67.896z"/>
									<path class="st0" d="M56.642,48.768H49.18c-2.002,0-3.631,1.628-3.631,3.63v2.242c0,2.424,1.972,4.396,4.396,4.396h3.985
										c2.424,0,4.396-1.973,4.396-4.397v-4.187C58.327,49.523,57.571,48.768,56.642,48.768z M56.327,54.64
										c0,1.322-1.075,2.397-2.396,2.397h-3.985c-1.321,0-2.396-1.075-2.396-2.396v-2.242c0-0.899,0.731-1.63,1.631-1.63h7.147
										V54.64z"/>
									<path class="st0" d="M65.534,50.452v4.188c0,2.424,1.973,4.397,4.396,4.397h3.985c2.424,0,4.396-1.973,4.396-4.397v-2.242
										c0-2.002-1.629-3.63-3.631-3.63h-7.463C66.29,48.768,65.534,49.523,65.534,50.452z M67.534,50.768h7.147
										c0.899,0,1.631,0.731,1.631,1.63v2.242c0,1.322-1.075,2.397-2.396,2.397h-3.985c-1.321,0-2.396-1.075-2.396-2.397V50.768z"
										/>
									<path class="st0" d="M51.392,36.263h-5.46c-0.552,0-1,0.448-1,1s0.448,1,1,1h5.46c0.552,0,1-0.448,1-1
										S51.944,36.263,51.392,36.263z"/>
								</g>
							</g>
						</g>
					</g>
				</g>
			</g>
		</g>
	</g>
</g>
</svg>
