<?xml version="1.0" encoding="utf-8"?>
<!-- Generator: Adobe Illustrator 24.0.0, SVG Export Plug-In . SVG Version: 6.00 Build 0)  -->
<svg version="1.1" id="Layer_1" xmlns="http://www.w3.org/2000/svg" xmlns:xlink="http://www.w3.org/1999/xlink" x="0px" y="0px"
	 viewBox="0 0 128 128" enable-background="new 0 0 128 128" xml:space="preserve">
<g>
	<path fill="#E6E7E8" d="M104.686,106.257v-9.26c0-12.403-7.551-23.073-18.296-27.661c1.799-1.403,3.444-2.97,4.88-4.706
		c7.808-9.437,9.417-21.718,4.783-36.5c-0.825-2.633-4.027-11.516-10.584-15.254c-3.322-1.895-6.438-1.893-7.625-1.802
		c-1.266-1.089-5.769-4.364-13.754-4.271C52.303,6.909,42.037,13.06,35.926,23.68c-3.365,5.847-4.721,13.204-3.819,20.716
		c0.652,5.431,2.806,9.807,4.231,12.703c0.747,1.516,1.451,2.948,1.414,3.527c-0.008,0.131-0.044,0.226-0.205,0.326
		c-0.521,0.324-1.846,0.332-3.163-0.215c-1.158-0.481-2.265-1.261-3.154-1.886c-1.13-0.796-1.755-1.236-2.452-1.061
		c-0.328,0.082-0.604,0.302-0.756,0.605c-0.868,1.714,0.073,9.089,6.654,13.709c0.84,0.589,1.78,1.099,2.787,1.55
		c-6.795,5.516-11.149,13.93-11.149,23.344v9.26c-4.493,0.5-8,4.317-8,8.941c0,4.962,4.038,9,9,9h76.373c4.962,0,9-4.038,9-9
		C112.686,110.574,109.179,106.756,104.686,106.257z"/>
	<g>
		<g>
			<path fill="#FFD7E5" d="M31.25,67.284c1.21,0.849,2.634,1.535,4.198,2.097c4.768-3.424,10.61-5.446,16.928-5.446h18.249
				c3.414,0,6.689,0.594,9.732,1.675c2.255-1.564,4.333-3.429,6.144-5.618c9.25-11.181,7.951-24.872,4.6-35.564
				c-1.455-4.641-4.833-11.667-10.125-14.684c-3.885-2.215-7.473-1.628-7.473-1.628S69.213,3.722,60.1,3.803
				c-12.932,0.115-22.134,7.386-27.307,16.375C29.1,26.595,28.345,33.995,29.1,40.276c1.025,8.535,5.793,14.208,5.65,16.414
				c-0.108,1.67-2.649,1.842-4.75,0.969c-2.565-1.066-4.791-3.399-5.087-2.814C24.375,55.909,24.808,62.762,31.25,67.284z"/>
			<path fill="#FA759E" d="M23.314,119.198V92.997c0-16.05,13.011-29.062,29.062-29.062h18.249c16.05,0,29.062,13.011,29.062,29.062
				v26.201H23.314z"/>
			<path fill="#FFFFFF" d="M70.624,63.935H52.375c-16.05,0-29.062,13.011-29.062,29.062v3c0-16.051,13.011-29.062,29.062-29.062
				h18.249c16.05,0,29.062,13.011,29.062,29.062v-3C99.686,76.946,86.675,63.935,70.624,63.935z"/>
			<path fill="#FFFFFF" d="M56.564,73.368h9.871c2.373-1.592,3.936-4.299,3.936-7.372v-3.234c-2.683,1.132-5.632,1.759-8.727,1.759
				h-0.289c-3.095,0-6.044-0.626-8.727-1.759v3.234C52.628,69.069,54.191,71.776,56.564,73.368z"/>
			<g>
				<g>
					<path fill="#FFFFFF" d="M85.438,36.816c-0.473,0-0.922,0.14-1.33,0.388v4.709c0,1.289-0.114,2.552-0.321,3.782
						c0.49,0.392,1.048,0.634,1.651,0.634c1.861,0,3.369-2.13,3.369-4.757C88.807,38.945,87.299,36.816,85.438,36.816z"/>
					<path fill="#FFFFFF" d="M38.892,41.913v-4.709c-0.408-0.248-0.857-0.388-1.33-0.388c-1.861,0-3.369,2.13-3.369,4.757
						c0,2.627,1.508,4.757,3.369,4.757c0.603,0,1.161-0.242,1.651-0.634C39.005,44.465,38.892,43.202,38.892,41.913z"/>
				</g>
				<path fill="#FFFFFF" d="M61.5,64.521L61.5,64.521c-12.486,0-22.608-10.122-22.608-22.608V30.637c0-2.47,1.536-4.707,3.87-5.514
					c1.657-0.573,3.587-1.439,5.238-2.711c3.482-2.683,5.787-6.529,5.787-6.529s4.574,5.47,11.463,7.779
					c3.879,1.3,9.37,1.915,13.426,2.205c3.064,0.219,5.432,2.775,5.432,5.848v10.198C84.108,54.399,73.986,64.521,61.5,64.521z"/>
				<g>
					<ellipse fill="#FFD7E5" cx="77.394" cy="46.288" rx="2.008" ry="1.266"/>
					<ellipse fill="#FFD7E5" cx="45.606" cy="46.288" rx="2.008" ry="1.266"/>
				</g>
				<path fill="#FA759E" d="M61.5,55.72c-3.443,0-5.195-2.373-5.268-2.474c-0.323-0.448-0.222-1.073,0.226-1.396
					c0.446-0.321,1.069-0.223,1.392,0.221c0.063,0.084,1.272,1.649,3.65,1.649c2.373,0,3.647-1.646,3.66-1.663
					c0.332-0.439,0.958-0.528,1.401-0.193c0.44,0.333,0.526,0.96,0.193,1.401C66.678,53.365,64.855,55.72,61.5,55.72z"/>
				<g>
					<path fill="#D4FBFF" d="M59.5,35.39c0,4.173-4.327,8.444-8.5,8.444s-8.5-4.272-8.5-8.444s4.327-5.667,8.5-5.667
						S59.5,31.217,59.5,35.39z"/>
					<path fill="#D4FBFF" d="M80.5,35.39c0,4.173-4.327,8.444-8.5,8.444s-8.5-4.272-8.5-8.444s4.327-5.667,8.5-5.667
						S80.5,31.217,80.5,35.39z"/>
				</g>
			</g>
			<g>
				<path fill="#0089EF" d="M92.355,77.368c0-2.209-1.791-4-4-4h-53.71c-2.209,0-4,1.791-4,4V108c0.428,0.98,0.669,2.06,0.669,3.197
					c0,0.537-0.055,1.062-0.156,1.57h60.685c-0.101-0.508-0.156-1.032-0.156-1.57c0-1.138,0.241-2.218,0.669-3.197V77.368z"/>
				<path fill="#D4FBFF" d="M35,112.767V82.653c0-2.209,1.791-4,4-4h45c2.209,0,4,1.791,4,4v30.115H35z"/>
				<path fill="#0089EF" d="M91.842,112.767H31.158c-0.519,2.607-2.303,4.756-4.687,5.781c0.627,0.407,1.371,0.649,2.174,0.649
					h65.71c0.803,0,1.548-0.242,2.174-0.649C94.146,117.523,92.361,115.374,91.842,112.767z"/>
			</g>
			<g>
				<circle fill="#FFFFFF" cx="23.314" cy="111.198" r="8"/>
				<g>
					<circle fill="#FFFFFF" cx="99.686" cy="111.198" r="8"/>
					<g>
						<path fill="#3A2C60" d="M51.526,36.488c-1.249,0-2.261,1.012-2.261,2.261c0,1.249,1.012,2.261,2.261,2.261
							c1.249,0,2.261-1.012,2.261-2.261C53.786,37.5,52.774,36.488,51.526,36.488z"/>
						<path fill="#3A2C60" d="M71.474,36.488c-1.249,0-2.261,1.012-2.261,2.261c0,1.249,1.012,2.261,2.261,2.261
							c1.249,0,2.261-1.012,2.261-2.261C73.735,37.5,72.723,36.488,71.474,36.488z"/>
						<path fill="#3A2C60" d="M68.94,33.212c-0.095,0.544,0.27,1.062,0.813,1.157l4.427,0.771c0.058,0.01,0.116,0.015,0.173,0.015
							c0.477,0,0.899-0.342,0.984-0.828c0.095-0.544-0.27-1.062-0.813-1.157l-4.427-0.771C69.552,32.309,69.035,32.669,68.94,33.212
							z"/>
						<path fill="#3A2C60" d="M47.662,34.328c0.085,0.486,0.507,0.828,0.984,0.828c0.057,0,0.115-0.005,0.173-0.015l4.427-0.771
							c0.544-0.095,0.908-0.613,0.813-1.157c-0.095-0.543-0.606-0.903-1.157-0.813l-4.427,0.771
							C47.931,33.266,47.567,33.783,47.662,34.328z"/>
						<path fill="#3A2C60" d="M61.5,49.812c1.969,0,3.571-1.602,3.571-3.571v-1.507c0-0.552-0.448-1-1-1s-1,0.448-1,1v1.507
							c0,0.866-0.705,1.571-1.571,1.571s-1.571-0.705-1.571-1.571v-1.507c0-0.552-0.448-1-1-1s-1,0.448-1,1v1.507
							C57.929,48.209,59.531,49.812,61.5,49.812z"/>
						<path fill="#3A2C60" d="M35,102.777c0.552,0,1-0.448,1-1v-6.505c0-0.552-0.448-1-1-1s-1,0.448-1,1v6.505
							C34,102.33,34.448,102.777,35,102.777z"/>
						<path fill="#3A2C60" d="M58.318,102.704c0.135,0.062,0.277,0.091,0.417,0.091c0.378,0,0.741-0.216,0.909-0.583l5.528-12.038
							c0.23-0.502,0.011-1.096-0.491-1.326c-0.501-0.229-1.095-0.011-1.326,0.491l-5.528,12.038
							C57.597,101.88,57.816,102.474,58.318,102.704z"/>
						<path fill="#3A2C60" d="M68.747,102.448c0.198,0.23,0.477,0.348,0.758,0.348c0.231,0,0.463-0.08,0.652-0.242l6.995-6.019
							c0.221-0.19,0.348-0.466,0.348-0.758s-0.127-0.568-0.348-0.758L70.157,89c-0.419-0.36-1.05-0.313-1.41,0.105
							c-0.36,0.419-0.313,1.05,0.105,1.41l6.114,5.261l-6.114,5.261C68.434,101.397,68.387,102.029,68.747,102.448z"/>
						<path fill="#3A2C60" d="M52.843,102.553c0.189,0.163,0.421,0.242,0.652,0.242c0.281,0,0.561-0.118,0.758-0.348
							c0.36-0.419,0.313-1.05-0.105-1.41l-6.114-5.261l6.114-5.261c0.418-0.36,0.466-0.991,0.105-1.41
							c-0.36-0.418-0.991-0.466-1.41-0.105l-6.995,6.019c-0.221,0.19-0.348,0.466-0.348,0.758s0.127,0.568,0.348,0.758
							L52.843,102.553z"/>
						<path fill="#3A2C60" d="M100.687,102.257v-9.26c0-12.405-7.554-23.078-18.303-27.664c1.801-1.403,3.45-2.966,4.887-4.703
							c7.808-9.437,9.417-21.718,4.783-36.5c-0.825-2.633-4.027-11.516-10.584-15.253c-3.32-1.893-6.436-1.89-7.625-1.802
							c-1.267-1.088-5.715-4.306-13.754-4.271C48.303,2.909,38.037,9.06,31.926,19.679c-3.365,5.848-4.721,13.205-3.819,20.716
							c0.652,5.432,2.806,9.808,4.231,12.703c0.747,1.516,1.451,2.948,1.414,3.527c-0.008,0.131-0.044,0.226-0.205,0.326
							c-0.521,0.324-1.846,0.333-3.163-0.215c-1.158-0.481-2.264-1.26-3.153-1.886c-1.132-0.796-1.758-1.236-2.453-1.061
							c-0.328,0.082-0.604,0.302-0.757,0.605c-0.867,1.714,0.075,9.089,6.655,13.708c0.84,0.589,1.775,1.103,2.783,1.553
							c-6.793,5.516-11.145,13.928-11.145,23.341v9.26c-4.493,0.5-8,4.317-8,8.941c0,4.962,4.038,9,9,9h76.373c4.962,0,9-4.038,9-9
							C108.687,106.574,105.18,102.756,100.687,102.257z M98.687,102.257c-2.068,0.23-3.927,1.161-5.332,2.553V77.368
							c0-0.319-0.037-0.628-0.094-0.931c3.407,4.645,5.426,10.37,5.426,16.559V102.257z M85.108,37.858
							c0.108-0.025,0.218-0.042,0.33-0.042c1.284,0,2.369,1.72,2.369,3.756c0,2.037-1.085,3.757-2.369,3.757
							c-0.195,0-0.382-0.054-0.563-0.131c0.15-1.075,0.234-2.17,0.234-3.285V37.858z M83.108,34.677l-1.73-0.494
							c-0.655-3.397-4.117-5.46-9.378-5.46c-4.991,0-8.362,1.858-9.255,4.948h-2.49c-0.893-3.09-4.264-4.948-9.255-4.948
							c-5.261,0-8.723,2.064-9.378,5.46l-1.73,0.494v-4.041c0-2.071,1.285-3.907,3.197-4.568c2.171-0.75,4.029-1.714,5.522-2.865
							c2.463-1.897,4.339-4.316,5.307-5.702c1.692,1.732,5.656,5.313,11.015,7.108c4.007,1.343,9.647,1.967,13.673,2.254
							c2.525,0.181,4.503,2.311,4.503,4.85V34.677z M79.5,35.39c0,3.618-3.855,7.444-7.5,7.444s-7.5-3.827-7.5-7.444
							c0-4.33,5.741-4.667,7.5-4.667S79.5,31.06,79.5,35.39z M58.5,35.39c0,3.618-3.855,7.444-7.5,7.444s-7.5-3.827-7.5-7.444
							c0-4.33,5.741-4.667,7.5-4.667S58.5,31.06,58.5,35.39z M38.125,45.198c-0.182,0.077-0.369,0.131-0.564,0.131
							c-1.284,0-2.369-1.72-2.369-3.757c0-2.036,1.085-3.756,2.369-3.756c0.112,0,0.222,0.017,0.33,0.042v4.055
							C37.892,43.028,37.975,44.124,38.125,45.198z M39.892,36.757l1.666-0.475c0.552,4.373,5.036,8.553,9.442,8.553
							c4.611,0,9.296-4.577,9.482-9.163h2.035c0.186,4.586,4.871,9.163,9.482,9.163c4.406,0,8.89-4.18,9.442-8.553l1.666,0.475
							v5.156c0,11.915-9.693,21.608-21.608,21.608s-21.608-9.693-21.608-21.608V36.757z M56.922,72.368
							c-1.987-1.428-3.294-3.743-3.294-6.372v-1.777c0.013,0.005,0.01-0.018-0.001-0.052c2.464,0.874,5.113,1.355,7.873,1.355
							c2.772,0,5.432-0.484,7.905-1.366c-0.019,0.037-0.033,0.063-0.033,0.063v1.777c0,2.629-1.307,4.944-3.294,6.372H56.922z
							 M71.372,65.996v-1.042c7.169,0.189,13.674,3.077,18.538,7.687c-0.492-0.163-1.009-0.272-1.555-0.272H69.006
							C70.473,70.647,71.372,68.43,71.372,65.996z M53.994,72.368h-19.35c-0.546,0-1.062,0.11-1.554,0.272
							c4.863-4.61,11.368-7.497,18.537-7.686v1.042C51.628,68.43,52.527,70.647,53.994,72.368z M34.645,74.368h53.71
							c1.654,0,3,1.346,3,3v30.439c-0.428,1.048-0.668,2.191-0.668,3.391c0,0.192,0.017,0.38,0.029,0.569H89V82.652
							c0-2.757-2.243-5-5-5H39c-2.757,0-5,2.243-5,5v8.914c0,0.552,0.448,1,1,1s1-0.448,1-1v-8.914c0-1.654,1.346-3,3-3h45
							c1.654,0,3,1.346,3,3v29.115H36v-6.513c0-0.552-0.448-1-1-1s-1,0.448-1,1v6.513h-1.715c0.012-0.189,0.029-0.377,0.029-0.569
							c0-1.2-0.241-2.344-0.669-3.392V77.368C31.645,75.714,32.99,74.368,34.645,74.368z M31.935,113.767h59.13
							c0.527,1.764,1.579,3.301,2.977,4.431H28.958C30.356,117.068,31.408,115.531,31.935,113.767z M31.825,66.466
							c-4.828-3.39-6.016-8.137-6.097-10.227c0.119,0.083,0.239,0.167,0.351,0.246c0.918,0.646,2.176,1.531,3.537,2.097
							c1.854,0.771,3.812,0.797,4.986,0.067c0.687-0.427,1.094-1.1,1.146-1.895c0.072-1.113-0.599-2.477-1.615-4.541
							c-1.447-2.939-3.429-6.965-4.041-12.058c-0.493-4.104-0.685-12.091,3.567-19.479c5.749-9.989,15.389-15.775,26.449-15.874
							c0.079-0.001,0.158-0.001,0.236-0.001c8.364,0,12.404,3.974,12.441,4.012c0.226,0.231,0.555,0.342,0.874,0.289
							c0.033-0.005,3.315-0.488,6.82,1.51c4.706,2.683,8.079,9.05,9.666,14.114c4.418,14.095,2.933,25.745-4.416,34.627
							c-1.604,1.939-3.492,3.646-5.573,5.138c-2.538-0.851-5.223-1.38-8.01-1.519c6.163-3.128,10.774-8.879,12.358-15.777
							c0.3,0.085,0.611,0.132,0.933,0.132c2.45,0,4.369-2.529,4.369-5.757s-1.919-5.756-4.369-5.756c-0.112,0-0.22,0.022-0.33,0.033
							v-4.134c0-3.583-2.794-6.59-6.361-6.845c-3.91-0.279-9.371-0.879-13.18-2.156c-6.525-2.186-10.971-7.419-11.015-7.472
							c-0.208-0.248-0.526-0.386-0.845-0.354c-0.322,0.025-0.613,0.205-0.779,0.481c-0.022,0.037-2.257,3.722-5.54,6.251
							c-1.321,1.018-2.988,1.878-4.955,2.558c-2.718,0.94-4.543,3.535-4.543,6.459v5.212c-0.11-0.011-0.218-0.033-0.33-0.033
							c-2.45,0-4.369,2.528-4.369,5.756s1.919,5.757,4.369,5.757c0.322,0,0.634-0.047,0.934-0.132
							c1.584,6.898,6.195,12.648,12.358,15.777c-5.749,0.288-11.073,2.203-15.532,5.286C34.022,67.763,32.837,67.176,31.825,66.466z
							 M29.739,76.438c-0.057,0.302-0.094,0.611-0.094,0.93v27.442c-1.404-1.392-3.263-2.323-5.331-2.553v-9.26
							C24.313,86.808,26.332,81.083,29.739,76.438z M16.313,111.198c0-3.86,3.14-7,7-7s7,3.14,7,7s-3.14,7-7,7
							S16.313,115.058,16.313,111.198z M99.687,118.198c-3.86,0-7-3.14-7-7s3.14-7,7-7s7,3.14,7,7S103.546,118.198,99.687,118.198z"
							/>
					</g>
				</g>
			</g>
		</g>
	</g>
</g>
</svg>
