<?xml version="1.0" encoding="utf-8"?>
<!-- Generator: Adobe Illustrator 22.0.0, SVG Export Plug-In . SVG Version: 6.00 Build 0)  -->
<svg version="1.1" id="Layer_1" xmlns="http://www.w3.org/2000/svg" xmlns:xlink="http://www.w3.org/1999/xlink" x="0px" y="0px"
	 viewBox="0 0 128 128" style="enable-background:new 0 0 128 128;" xml:space="preserve">
<style type="text/css">
	.st0{fill:#3A2C60;}
	.st1{fill:#E6E7E8;}
	.st2{fill:#0089EF;}
	.st3{fill:#6DC9F7;}
	.st4{fill:#D4FBFF;}
	.st5{fill:#FA759E;}
	.st6{fill:#FFD7E5;}
	.st7{fill:#FFFFFF;}
</style>
<g>
	<path class="st1" d="M105.151,8.758H59.205c-4.214,0-7.642,3.428-7.642,7.642v21.296C32.96,42.63,19.208,59.608,19.208,79.742
		c0,23.986,19.514,43.5,43.5,43.5s43.5-19.514,43.5-43.5c0-10.851-4.003-20.778-10.597-28.406h9.541
		c4.214,0,7.642-3.428,7.642-7.641V16.399C112.793,12.186,109.365,8.758,105.151,8.758z"/>
	<g>
		<path class="st3" d="M84.317,46.336v11.17l-12.643-11.17h-16.47c-3.668,0-6.641-2.973-6.641-6.641V34.47
			c-18.572,4.55-32.356,21.297-32.356,41.272c0,23.472,19.028,42.5,42.5,42.5s42.5-19.028,42.5-42.5
			c0-11.415-4.509-21.771-11.832-29.406H84.317z"/>
		<g>
			<path class="st5" d="M70.218,83.821c-3.128,2.581-7.138,4.131-11.51,4.131s-8.382-1.55-11.51-4.131
				c-7.755,0.281-13.96,6.639-13.96,14.462v11.483c7.098,5.322,15.916,8.476,25.47,8.476s18.372-3.154,25.47-8.476V98.283
				C84.178,90.46,77.973,84.102,70.218,83.821z"/>
			<circle class="st6" cx="58.708" cy="69.854" r="18.098"/>
			<path class="st7" d="M58.708,55.649c9.337,0,17.019,7.072,17.99,16.152c0.069-0.64,0.108-1.288,0.108-1.947
				c0-9.995-8.103-18.098-18.098-18.098s-18.098,8.103-18.098,18.098c0,0.658,0.04,1.307,0.108,1.947
				C41.689,62.721,49.37,55.649,58.708,55.649z"/>
		</g>
		<g>
			<path class="st4" d="M55.205,5.758h45.947c3.668,0,6.641,2.973,6.641,6.641v27.295c0,3.668-2.973,6.641-6.641,6.641H84.317v11.17
				l-12.643-11.17h-16.47c-3.668,0-6.641-2.973-6.641-6.641V12.399C48.563,8.731,51.537,5.758,55.205,5.758z"/>
		</g>
		<g>
			<path class="st5" d="M90.394,16.331L90.394,16.331c-2.994-2.994-7.847-2.994-10.841,0l-1.375,1.375l-1.375-1.375
				c-2.994-2.994-7.847-2.994-10.841,0l0,0c-2.994,2.994-2.994,7.847,0,10.841l1.375,1.375l9.138,9.138
				c0.941,0.941,2.466,0.941,3.406,0l9.138-9.138l1.375-1.375C93.388,24.179,93.388,19.325,90.394,16.331z"/>
			<g>
				<path class="st0" d="M101.152,4.758H84.874c-0.553,0-1,0.448-1,1s0.447,1,1,1h16.277c3.11,0,5.641,2.531,5.641,5.641v27.295
					c0,3.11-2.53,5.641-5.641,5.641H84.318c-0.553,0-1,0.448-1,1v8.952l-10.981-9.701c-0.183-0.162-0.418-0.25-0.662-0.25h-16.47
					c-3.11,0-5.641-2.531-5.641-5.641V12.399c0-3.11,2.53-5.641,5.641-5.641h8.878c0.553,0,1-0.448,1-1s-0.447-1-1-1h-8.878
					c-4.213,0-7.641,3.428-7.641,7.641v21.311c-18.601,4.936-32.356,21.899-32.356,42.031c0,23.986,19.514,43.5,43.5,43.5
					s43.5-19.514,43.5-43.5c0-10.851-4.005-20.778-10.6-28.406h9.544c4.213,0,7.641-3.428,7.641-7.641V12.399
					C108.792,8.186,105.365,4.758,101.152,4.758z M34.238,109.231V98.283c0-7.159,5.611-13.017,12.664-13.447
					c3.253,2.569,7.349,4.116,11.807,4.116c4.457,0,8.553-1.547,11.806-4.116c7.053,0.43,12.664,6.288,12.664,13.447v10.948
					c-6.866,5.031-15.326,8.011-24.471,8.011C49.562,117.242,41.104,114.262,34.238,109.231z M58.708,86.952
					c-9.428,0-17.099-7.67-17.099-17.098c0-9.428,7.671-17.099,17.099-17.099s17.098,7.67,17.098,17.099
					C75.806,79.282,68.136,86.952,58.708,86.952z M100.207,75.742c0,12.83-5.854,24.317-15.029,31.935v-9.394
					c0-7.588-5.488-13.91-12.702-15.228c3.293-3.433,5.33-8.08,5.33-13.201c0-10.531-8.567-19.099-19.098-19.099
					c-10.531,0-19.099,8.567-19.099,19.099c0,5.121,2.037,9.768,5.33,13.201c-7.214,1.317-12.702,7.639-12.702,15.228v9.395
					c-9.176-7.618-15.03-19.106-15.03-31.936c0-19.023,12.87-35.084,30.356-39.966v3.919c0,4.213,3.428,7.641,7.641,7.641h16.091
					l12.36,10.919c0.187,0.165,0.423,0.25,0.662,0.25c0.14,0,0.279-0.029,0.411-0.088c0.358-0.162,0.589-0.519,0.589-0.912V47.336
					h3.601C95.909,54.766,100.207,64.758,100.207,75.742z"/>
				<path class="st0" d="M68.541,6.758h12c0.553,0,1-0.448,1-1s-0.447-1-1-1h-12c-0.553,0-1,0.448-1,1S67.989,6.758,68.541,6.758z"
					/>
				<path class="st0" d="M65.254,27.879l10.514,10.513c0.644,0.644,1.499,0.999,2.41,0.999s1.767-0.354,2.41-0.999l10.513-10.513
					c1.637-1.637,2.539-3.813,2.539-6.127c0-2.315-0.902-4.491-2.539-6.128s-3.812-2.538-6.127-2.538s-4.491,0.901-6.128,2.538
					l-0.668,0.668l-0.668-0.668c-3.378-3.378-8.876-3.379-12.256,0C61.876,19.003,61.876,24.5,65.254,27.879z M66.668,17.038
					c1.3-1.299,3.007-1.949,4.714-1.949s3.414,0.65,4.714,1.949l1.375,1.375c0.375,0.375,1.039,0.375,1.414,0l1.375-1.375
					c1.259-1.259,2.934-1.952,4.714-1.952s3.454,0.693,4.713,1.952c1.259,1.259,1.953,2.933,1.953,4.714
					c0,1.78-0.694,3.454-1.953,4.713L79.174,36.978c-0.533,0.532-1.459,0.532-1.992,0L66.668,26.465
					C64.07,23.866,64.07,19.637,66.668,17.038z"/>
			</g>
		</g>
	</g>
</g>
</svg>
