<?xml version="1.0" encoding="utf-8"?>
<!-- Generator: Adobe Illustrator 22.0.1, SVG Export Plug-In . SVG Version: 6.00 Build 0)  -->
<svg version="1.1" id="Layer_1" xmlns="http://www.w3.org/2000/svg" xmlns:xlink="http://www.w3.org/1999/xlink" x="0px" y="0px"
	 viewBox="0 0 128 128" style="enable-background:new 0 0 128 128;" xml:space="preserve">
<style type="text/css">
	.st0{fill:#3A2C60;}
	.st1{fill:#E6E7E8;}
	.st2{fill:#FFD7E5;}
	.st3{fill:#FA759E;}
	.st4{fill:#FFFFFF;}
	.st5{fill:#6DC9F7;}
	.st6{fill:#D4FBFF;}
	.st7{fill:#0089EF;}
</style>
<g>
	<path class="st1" d="M107.849,14.514c-2.704-3.875-7.117-6.189-11.807-6.189h-60.76c-7.939,0-14.398,6.459-14.398,14.398v85.879
		c0,4.689,2.314,9.103,6.187,11.804c2.42,1.697,5.259,2.594,8.211,2.594h60.76c7.939,0,14.398-6.459,14.398-14.398V22.723
		C110.44,19.771,109.543,16.931,107.849,14.514z"/>
	<g>
		<path class="st4" d="M104.9,18.29v85.88c0,7.31-5.98,13.29-13.29,13.29H30.85c-7.31,0-13.29-5.98-13.29-13.29V18.29
			C17.56,10.98,23.54,5,30.85,5h60.76C98.92,5,104.9,10.98,104.9,18.29z"/>
		<path class="st7" d="M104.9,18.29v85.88c0,7.31-5.98,13.29-13.29,13.29H33.85c-7.31,0-13.29-5.98-13.29-13.29V18.29
			C20.56,10.98,26.54,5,33.85,5h57.76C98.92,5,104.9,10.98,104.9,18.29z"/>
		<g>
			<g>
				<path class="st4" d="M74.575,34.082c0.673-0.836,1.092-1.884,1.092-3.04c0-1.955-1.158-3.629-2.819-4.406
					c0.102-0.49,0.166-0.995,0.166-1.516c0-4.161-3.373-7.534-7.534-7.534c-3.053,0-5.676,1.819-6.859,4.43
					c-0.619-0.658-1.353-1.203-2.173-1.606c-0.222-3.962-3.495-7.109-7.513-7.109c-4.161,0-7.534,3.373-7.534,7.534
					c0,0.48,0.051,0.947,0.139,1.401c-0.429-0.097-0.873-0.152-1.332-0.152c-3.337,0-6.042,2.705-6.042,6.042
					c0,3.005,2.197,5.491,5.07,5.957H74.575z"/>
				<path class="st6" d="M78.368,46.841h-4.01c-0.09,0-0.18,0.008-0.27,0.016V34.082H58.518c0.008,0.128,0.024,0.253,0.024,0.383
					c0,3.286-2.667,5.952-5.952,5.952c-3.286,0-5.952-2.667-5.952-5.952c0-0.13,0.016-0.255,0.024-0.383h-7.767V81.47
					c0,2.823,2.292,5.115,5.107,5.115h24.979c2.815,0,5.107-2.292,5.107-5.115v-7.661c0.09,0,0.18,0.008,0.27,0.008h4.01
					c5.009,0,9.085-4.076,9.085-9.085v-8.807C87.453,50.917,83.377,46.841,78.368,46.841z M82.542,64.732
					c0,2.308-1.866,4.174-4.174,4.174h-4.01V51.752h4.01c2.308,0,4.174,1.874,4.174,4.174V64.732z"/>
				<path class="st5" d="M44.208,83.709c-1.464,0-2.656-1.191-2.656-2.655l0.142-44.446h29.852l-0.142,44.446
					c0,1.464-1.191,2.655-2.655,2.655H44.208z"/>
				<g>
					<g>
						<path class="st6" d="M49.261,75.51c-0.904,0-1.637-0.733-1.637-1.637V51.95c0-0.904,0.733-1.637,1.637-1.637
							c0.904,0,1.637,0.733,1.637,1.637v21.923C50.898,74.777,50.165,75.51,49.261,75.51z"/>
					</g>
					<g>
						<path class="st6" d="M56.491,75.51c-0.904,0-1.637-0.733-1.637-1.637V51.95c0-0.904,0.733-1.637,1.637-1.637
							s1.637,0.733,1.637,1.637v21.923C58.128,74.777,57.395,75.51,56.491,75.51z"/>
					</g>
					<g>
						<path class="st6" d="M63.721,75.51c-0.904,0-1.637-0.733-1.637-1.637V51.95c0-0.904,0.733-1.637,1.637-1.637
							s1.637,0.733,1.637,1.637v21.923C65.358,74.777,64.625,75.51,63.721,75.51z"/>
					</g>
				</g>
				<g>
					<path class="st4" d="M57.828,31.626c0.457,0.838,0.714,1.81,0.714,2.838c0,3.286-2.667,5.952-5.952,5.952
						c-3.286,0-5.952-2.667-5.952-5.952c0-1.029,0.257-2,0.714-2.838H57.828z"/>
					<g>
						<path class="st0" d="M103.33,10.145c-2.684-3.847-7.064-6.143-11.718-6.143h-60.76c-7.88,0-14.291,6.411-14.291,14.291v85.879
							c0,4.654,2.296,9.035,6.142,11.718c2.401,1.683,5.219,2.572,8.149,2.572h60.76c7.88,0,14.291-6.41,14.291-14.29V61.333
							c0-0.553-0.448-1-1-1s-1,0.447-1,1v42.839c0,6.776-5.514,12.29-12.291,12.29h-60.76c-2.517,0-4.938-0.765-7.003-2.212
							c-3.311-2.31-5.288-6.077-5.288-10.078V18.293c0-6.777,5.514-12.291,12.291-12.291h60.76c4,0,7.768,1.977,10.079,5.289
							c1.447,2.064,2.211,4.485,2.211,7.002v29c0,0.553,0.448,1,1,1s1-0.447,1-1v-29C105.902,15.363,105.012,12.545,103.33,10.145z"
							/>
						<path class="st0" d="M104.902,50.752c-0.552,0-1,0.447-1,1v4.98c0,0.553,0.448,1,1,1s1-0.447,1-1v-4.98
							C105.902,51.199,105.455,50.752,104.902,50.752z"/>
						<path class="st0" d="M44.001,87.585H68.98c3.368,0,6.107-2.743,6.107-6.115v-6.652h3.28c5.561,0,10.085-4.524,10.085-10.085
							v-8.807c0-5.561-4.524-10.085-10.085-10.085h-3.28V34.92c0.096-0.059,0.193-0.12,0.266-0.211
							c0.859-1.067,1.313-2.335,1.313-3.667c0-2.003-1.044-3.867-2.716-4.938c0.042-0.336,0.063-0.662,0.063-0.984
							c0-4.706-3.829-8.534-8.534-8.534c-2.887,0-5.559,1.473-7.122,3.843c-0.305-0.236-0.627-0.452-0.963-0.646
							c-0.521-4.239-4.132-7.481-8.46-7.481c-4.706,0-8.534,3.828-8.534,8.534c0,0.083,0.001,0.167,0.004,0.251
							c-3.955-0.132-7.238,3.091-7.238,7.039c0,3.055,1.929,5.682,4.728,6.645V81.47C37.895,84.842,40.634,87.585,44.001,87.585z
							 M78.368,47.841c4.458,0,8.085,3.627,8.085,8.085v8.807c0,4.458-3.627,8.085-8.085,8.085l-4.097-0.003l-0.184-0.006
							c-0.552,0-1,0.447-1,1v7.661c0,2.27-1.843,4.115-4.107,4.115H44.001c-2.265,0-4.107-1.846-4.107-4.115V35.082h5.77
							c0.001,0.016,0.005,0.031,0.006,0.046c0.009,0.096,0.026,0.19,0.039,0.285c0.018,0.13,0.034,0.261,0.06,0.389
							c0.019,0.096,0.044,0.189,0.067,0.283c0.03,0.123,0.059,0.247,0.095,0.368c0.028,0.094,0.062,0.186,0.094,0.278
							c0.041,0.117,0.081,0.234,0.128,0.348c0.037,0.09,0.078,0.178,0.119,0.267c0.051,0.111,0.103,0.222,0.159,0.33
							c0.045,0.087,0.094,0.171,0.143,0.255c0.061,0.105,0.123,0.209,0.189,0.31c0.053,0.082,0.108,0.161,0.165,0.24
							c0.07,0.099,0.142,0.195,0.217,0.29c0.06,0.076,0.122,0.15,0.185,0.223c0.079,0.091,0.16,0.181,0.243,0.268
							c0.067,0.07,0.134,0.138,0.204,0.205c0.087,0.084,0.177,0.165,0.269,0.244c0.073,0.063,0.145,0.125,0.22,0.185
							c0.095,0.076,0.193,0.148,0.292,0.219c0.078,0.056,0.156,0.112,0.236,0.165c0.103,0.067,0.209,0.13,0.315,0.192
							c0.082,0.048,0.163,0.096,0.247,0.141c0.111,0.059,0.225,0.111,0.339,0.164c0.085,0.039,0.17,0.08,0.257,0.116
							c0.118,0.049,0.24,0.09,0.362,0.133c0.088,0.031,0.174,0.064,0.263,0.091c0.129,0.039,0.262,0.07,0.394,0.102
							c0.085,0.021,0.169,0.045,0.256,0.062c0.148,0.03,0.299,0.049,0.451,0.069c0.074,0.01,0.147,0.025,0.222,0.032
							c0.228,0.023,0.458,0.035,0.692,0.035c0.233,0,0.464-0.012,0.691-0.035c0.076-0.007,0.149-0.023,0.224-0.032
							c0.15-0.02,0.301-0.039,0.448-0.069c0.088-0.018,0.173-0.042,0.259-0.063c0.131-0.031,0.262-0.062,0.39-0.101
							c0.091-0.027,0.178-0.061,0.267-0.092c0.12-0.042,0.24-0.083,0.357-0.131c0.089-0.037,0.175-0.079,0.262-0.119
							c0.112-0.052,0.224-0.104,0.333-0.161c0.086-0.045,0.169-0.095,0.252-0.144c0.105-0.061,0.209-0.123,0.31-0.189
							c0.082-0.054,0.161-0.111,0.241-0.168c0.097-0.07,0.193-0.14,0.287-0.215c0.077-0.061,0.151-0.125,0.225-0.189
							c0.09-0.078,0.178-0.157,0.264-0.24c0.071-0.068,0.14-0.138,0.208-0.209c0.082-0.086,0.162-0.173,0.239-0.263
							c0.064-0.075,0.127-0.15,0.188-0.228c0.074-0.093,0.145-0.188,0.214-0.285c0.057-0.081,0.114-0.161,0.168-0.244
							c0.065-0.1,0.126-0.203,0.186-0.306c0.049-0.085,0.098-0.17,0.144-0.258c0.056-0.107,0.107-0.217,0.158-0.328
							c0.041-0.089,0.082-0.178,0.12-0.269c0.046-0.113,0.086-0.229,0.127-0.346c0.032-0.093,0.066-0.186,0.095-0.281
							c0.036-0.12,0.064-0.242,0.094-0.364c0.023-0.095,0.049-0.19,0.068-0.287c0.025-0.127,0.041-0.258,0.059-0.387
							c0.013-0.096,0.03-0.19,0.039-0.286c0.001-0.016,0.005-0.03,0.006-0.046h13.573v11.775c0,0.28,0.131,0.547,0.338,0.736
							c0.207,0.189,0.499,0.277,0.777,0.258c0.052-0.005,0.103-0.011,0.155-0.011H78.368z M35.167,28.125
							c0-3.141,2.874-5.65,6.154-4.914c0.328,0.075,0.674-0.023,0.916-0.258c0.242-0.235,0.35-0.576,0.286-0.908
							c-0.082-0.42-0.121-0.816-0.121-1.21c0-3.603,2.931-6.534,6.534-6.534c3.459,0,6.321,2.708,6.514,6.165
							c0.021,0.361,0.233,0.683,0.558,0.842c0.709,0.349,1.343,0.816,1.885,1.393c0.229,0.244,0.562,0.355,0.892,0.302
							c0.329-0.055,0.609-0.27,0.747-0.573c1.059-2.334,3.394-3.843,5.949-3.843c3.603,0,6.534,2.932,6.534,6.534
							c0,0.414-0.047,0.843-0.145,1.312c-0.094,0.454,0.135,0.913,0.555,1.109c1.362,0.638,2.242,2.012,2.242,3.501
							c0,0.723-0.207,1.419-0.603,2.04H59.392c-0.136-0.678-0.359-1.334-0.686-1.935c-0.265-0.485-0.87-0.663-1.357-0.399
							c-0.485,0.265-0.664,0.872-0.399,1.356c0.387,0.71,0.592,1.525,0.592,2.359c0,2.731-2.222,4.953-4.952,4.953
							c-2.731,0-4.953-2.222-4.953-4.953c0-0.833,0.205-1.648,0.592-2.359c0.265-0.484,0.086-1.092-0.399-1.356
							c-0.486-0.264-1.092-0.086-1.357,0.399c-0.328,0.601-0.551,1.257-0.687,1.935h-6.466
							C36.909,32.654,35.167,30.582,35.167,28.125z"/>
						<path class="st0" d="M73.358,51.752v17.154c0,0.553,0.448,1,1,1h4.01c2.853,0,5.174-2.321,5.174-5.174v-8.807
							c0-2.853-2.321-5.174-5.174-5.174h-4.01C73.806,50.752,73.358,51.199,73.358,51.752z M75.358,52.752h3.01
							c1.75,0,3.174,1.424,3.174,3.174v8.807c0,1.75-1.424,3.174-3.174,3.174h-3.01V52.752z"/>
					</g>
				</g>
			</g>
			<g>
				<path class="st4" d="M41.651,95.327h-6.644v4.258h5.553c0.515,0,0.899,0.116,1.153,0.346c0.253,0.231,0.38,0.54,0.38,0.926
					c0,0.386-0.129,0.693-0.386,0.92c-0.257,0.227-0.64,0.34-1.147,0.34h-5.553v5.486c0,0.697-0.157,1.214-0.471,1.55
					c-0.315,0.337-0.718,0.505-1.21,0.505c-0.5,0-0.907-0.17-1.221-0.511c-0.315-0.341-0.472-0.856-0.472-1.545v-12.81
					c0-0.485,0.072-0.88,0.216-1.187c0.144-0.307,0.369-0.53,0.675-0.671c0.307-0.14,0.699-0.21,1.176-0.21h7.95
					c0.538,0,0.937,0.119,1.198,0.358c0.261,0.238,0.392,0.551,0.392,0.937c0,0.394-0.131,0.71-0.392,0.949
					C42.588,95.207,42.189,95.327,41.651,95.327z"/>
				<path class="st4" d="M50.282,102.254h-1.181v5.35c0,0.704-0.155,1.223-0.466,1.555c-0.31,0.333-0.715,0.5-1.215,0.5
					c-0.538,0-0.954-0.174-1.249-0.521c-0.295-0.348-0.443-0.86-0.443-1.534v-12.81c0-0.727,0.163-1.252,0.488-1.579
					c0.326-0.324,0.852-0.488,1.579-0.488h5.485c0.757,0,1.404,0.032,1.942,0.096c0.538,0.065,1.022,0.196,1.454,0.392
					c0.522,0.221,0.984,0.534,1.386,0.943c0.401,0.409,0.706,0.884,0.914,1.426c0.208,0.541,0.313,1.115,0.313,1.72
					c0,1.243-0.35,2.235-1.05,2.977c-0.701,0.742-1.762,1.268-3.186,1.578c0.598,0.318,1.17,0.787,1.715,1.408
					c0.545,0.621,1.031,1.282,1.459,1.981c0.428,0.701,0.761,1.333,0.999,1.897c0.239,0.564,0.358,0.952,0.358,1.164
					c0,0.22-0.07,0.437-0.21,0.653c-0.141,0.215-0.332,0.386-0.574,0.511c-0.242,0.125-0.522,0.187-0.84,0.187
					c-0.379,0-0.697-0.089-0.954-0.266c-0.257-0.178-0.479-0.403-0.665-0.676s-0.437-0.674-0.755-1.204l-1.351-2.249
					c-0.485-0.825-0.918-1.454-1.301-1.885c-0.382-0.432-0.77-0.727-1.164-0.886C51.376,102.334,50.88,102.254,50.282,102.254z
					 M52.213,95.258h-3.112v4.577h3.021c0.81,0,1.492-0.07,2.044-0.21c0.553-0.141,0.975-0.379,1.266-0.716
					c0.291-0.336,0.438-0.8,0.438-1.391c0-0.462-0.117-0.869-0.352-1.221c-0.235-0.352-0.56-0.614-0.977-0.788
					C54.147,95.342,53.371,95.258,52.213,95.258z"/>
				<path class="st4" d="M73.45,95.327h-7.598v4.088h6.996c0.515,0,0.899,0.115,1.152,0.346c0.254,0.23,0.381,0.535,0.381,0.914
					s-0.125,0.687-0.375,0.926c-0.25,0.238-0.636,0.358-1.158,0.358h-6.996v4.735h7.859c0.53,0,0.929,0.123,1.198,0.369
					c0.269,0.247,0.403,0.574,0.403,0.983c0,0.394-0.135,0.713-0.403,0.959c-0.269,0.246-0.668,0.369-1.198,0.369h-9.165
					c-0.734,0-1.263-0.162-1.585-0.489c-0.322-0.324-0.482-0.851-0.482-1.578V94.793c0-0.485,0.072-0.88,0.216-1.187
					c0.144-0.307,0.369-0.53,0.675-0.671c0.307-0.14,0.699-0.21,1.176-0.21h8.904c0.538,0,0.937,0.119,1.198,0.358
					c0.261,0.238,0.392,0.551,0.392,0.937c0,0.394-0.131,0.71-0.392,0.949C74.386,95.207,73.987,95.327,73.45,95.327z"/>
				<path class="st4" d="M88.963,95.327h-7.598v4.088h6.996c0.515,0,0.899,0.115,1.152,0.346c0.254,0.23,0.381,0.535,0.381,0.914
					s-0.125,0.687-0.375,0.926c-0.25,0.238-0.636,0.358-1.158,0.358h-6.996v4.735h7.859c0.53,0,0.929,0.123,1.198,0.369
					c0.269,0.247,0.403,0.574,0.403,0.983c0,0.394-0.135,0.713-0.403,0.959c-0.269,0.246-0.668,0.369-1.198,0.369h-9.165
					c-0.734,0-1.263-0.162-1.585-0.489c-0.322-0.324-0.482-0.851-0.482-1.578V94.793c0-0.485,0.072-0.88,0.216-1.187
					c0.144-0.307,0.369-0.53,0.675-0.671c0.307-0.14,0.699-0.21,1.176-0.21h8.904c0.538,0,0.937,0.119,1.198,0.358
					c0.261,0.238,0.392,0.551,0.392,0.937c0,0.394-0.131,0.71-0.392,0.949C89.9,95.207,89.5,95.327,88.963,95.327z"/>
			</g>
		</g>
	</g>
</g>
</svg>
