<?xml version="1.0" encoding="UTF-8" standalone="no"?>
<svg
   xmlns:dc="http://purl.org/dc/elements/1.1/"
   xmlns:cc="http://creativecommons.org/ns#"
   xmlns:rdf="http://www.w3.org/1999/02/22-rdf-syntax-ns#"
   xmlns:svg="http://www.w3.org/2000/svg"
   xmlns="http://www.w3.org/2000/svg"
   xmlns:sodipodi="http://sodipodi.sourceforge.net/DTD/sodipodi-0.dtd"
   xmlns:inkscape="http://www.inkscape.org/namespaces/inkscape"
   version="1.1"
   id="Layer_1"
   x="0px"
   y="0px"
   viewBox="0 0 128 128"
   style="enable-background:new 0 0 128 128;"
   xml:space="preserve"
   sodipodi:docname="icon-button.svg"
   inkscape:version="1.0.2-2 (e86c870879, 2021-01-15)"><metadata
   id="metadata47"><rdf:RDF><cc:Work
       rdf:about=""><dc:format>image/svg+xml</dc:format><dc:type
         rdf:resource="http://purl.org/dc/dcmitype/StillImage" /><dc:title></dc:title></cc:Work></rdf:RDF></metadata><defs
   id="defs45">
	
	

		
		
		
		
	
		
		
	
			
			
		
				
				
				
				
				
				
				
				
			</defs><sodipodi:namedview
   pagecolor="#ffffff"
   bordercolor="#666666"
   borderopacity="1"
   objecttolerance="10"
   gridtolerance="10"
   guidetolerance="10"
   inkscape:pageopacity="0"
   inkscape:pageshadow="2"
   inkscape:window-width="1920"
   inkscape:window-height="1009"
   id="namedview43"
   showgrid="false"
   inkscape:zoom="4.9917265"
   inkscape:cx="64"
   inkscape:cy="67.187675"
   inkscape:window-x="-8"
   inkscape:window-y="-8"
   inkscape:window-maximized="1"
   inkscape:current-layer="Layer_1" />
<style
   type="text/css"
   id="style2">
	.st0{fill:#3A2C60;}
	.st1{fill:#E6E7E8;}
	.st2{fill:#0089EF;}
	.st3{fill:#6DC9F7;}
	.st4{fill:#D4FBFF;}
	.st5{fill:#FA759E;}
	.st6{fill:#FFD7E5;}
	.st7{fill:#FFFFFF;}
</style>
<g
   id="g111"
   transform="translate(1.0016574,-19.231823)"><path
     class="st1"
     d="M 101.497,58.601 H 30.405 c -4.803,0 -8.71,3.907 -8.71,8.71 v 29.12 c 0,4.802 3.907,8.71 8.71,8.71 H 67.5 l 3.642,9.656 c 0.368,0.975 1.242,1.624 2.281,1.694 1.047,0.073 1.993,-0.458 2.487,-1.376 l 3.766,-7.001 14.869,14.869 c 0.978,0.978 2.279,1.517 3.662,1.517 1.384,0 2.684,-0.539 3.662,-1.517 0.978,-0.978 1.518,-2.279 1.518,-3.662 0,-1.384 -0.54,-2.685 -1.518,-3.663 L 91.353,105.14 h 10.144 c 4.803,0 8.71,-3.907 8.71,-8.71 V 67.31 c 0,-4.802 -3.907,-8.709 -8.71,-8.709 z"
     id="path4" /><path
     class="st5"
     d="M 97.368,100.302 H 26.792 c -4.418,0 -8,-3.582 -8,-8 V 63.697 c 0,-4.418 3.582,-8 8,-8 h 70.576 c 4.418,0 8,3.582 8,8 v 28.604 c 0,4.419 -3.581,8.001 -8,8.001 z"
     id="path10" /><path
     class="st7"
     d="M 97.368,55.697 H 26.792 c -4.418,0 -8,3.582 -8,8 v 3 c 0,-4.418 3.582,-8 8,-8 h 70.576 c 4.418,0 8,3.582 8,8 v -3 c 0,-4.418 -3.581,-8 -8,-8 z"
     id="path12" /><path
     class="st3"
     d="M 89.473,89.289 58.71,77.686 c -1.334,-0.503 -2.639,0.802 -2.136,2.136 l 11.602,30.762 c 0.502,1.331 2.337,1.453 3.011,0.201 l 4.383,-8.146 15.789,15.789 c 1.645,1.645 4.311,1.645 5.956,0 1.645,-1.645 1.645,-4.311 0,-5.956 L 81.527,96.683 89.673,92.3 c 1.253,-0.675 1.131,-2.509 -0.2,-3.011 z"
     id="path16" /><path
     class="st0"
     d="M 97.368,54.697 H 26.793 c -4.963,0 -9,4.038 -9,9 v 28.604 c 0,4.962 4.037,9 9,9 h 36.814 l 3.634,9.636 c 0.372,0.987 1.258,1.644 2.311,1.714 1.063,0.077 2.018,-0.464 2.517,-1.392 l 3.746,-6.962 14.838,14.838 c 1.017,1.015 2.351,1.523 3.686,1.523 1.335,0 2.67,-0.508 3.686,-1.523 2.031,-2.032 2.031,-5.338 0,-7.371 L 87.56,101.301 h 9.808 c 4.963,0 9,-4.038 9,-9 V 63.697 c 0,-4.962 -4.037,-9 -9,-9 z m -0.759,63.023 c -1.252,1.252 -3.291,1.251 -4.543,0 L 76.278,101.931 c -0.188,-0.189 -0.443,-0.293 -0.707,-0.293 -0.048,0 -0.097,0.003 -0.146,0.011 -0.312,0.046 -0.585,0.237 -0.735,0.515 l -4.384,8.146 c -0.181,0.335 -0.497,0.355 -0.622,0.344 -0.127,-0.008 -0.438,-0.066 -0.572,-0.424 L 57.51,79.469 c -0.136,-0.358 0.06,-0.606 0.149,-0.696 0.091,-0.09 0.337,-0.285 0.698,-0.15 L 89.12,90.224 c 0.357,0.135 0.415,0.445 0.424,0.572 0.009,0.127 -0.008,0.442 -0.344,0.623 l -8.146,4.383 c -0.278,0.15 -0.47,0.423 -0.516,0.735 -0.046,0.313 0.059,0.629 0.282,0.853 l 15.789,15.789 c 1.252,1.252 1.252,3.289 0,4.541 z m 7.759,-25.419 c 0,3.86 -3.141,7 -7,7 H 85.56 l -2.375,-2.375 6.962,-3.747 c 0.929,-0.5 1.462,-1.464 1.393,-2.517 -0.07,-1.053 -0.728,-1.938 -1.715,-2.31 L 59.063,76.751 c -0.99,-0.374 -2.069,-0.142 -2.817,0.608 -0.748,0.748 -0.98,1.827 -0.606,2.816 l 7.213,19.126 h -36.06 c -3.859,0 -7,-3.14 -7,-7 V 63.697 c 0,-3.86 3.141,-7 7,-7 h 70.575 c 3.859,0 7,3.14 7,7 z"
     id="path18" /><path
     class="st0"
     d="m 59.742,63.507 c -0.553,0 -1,0.448 -1,1 v 6.238 c 0,0.552 0.447,1 1,1 0.553,0 1,-0.448 1,-1 v -6.238 c 0,-0.552 -0.447,-1 -1,-1 z"
     id="path24" /><path
     class="st0"
     d="m 50.955,80.533 c 0,-0.552 -0.447,-1 -1,-1 h -6.238 c -0.553,0 -1,0.448 -1,1 0,0.552 0.447,1 1,1 h 6.238 c 0.553,0 1,-0.448 1,-1 z"
     id="path26" /><path
     class="st0"
     d="m 49.118,68.494 c -0.391,-0.391 -1.023,-0.391 -1.414,0 -0.391,0.391 -0.391,1.023 0,1.414 l 4.411,4.411 c 0.195,0.195 0.451,0.293 0.707,0.293 0.256,0 0.512,-0.098 0.707,-0.293 0.391,-0.391 0.391,-1.023 0,-1.414 z"
     id="path28" /><path
     class="st0"
     d="m 70.367,68.494 -4.411,4.411 c -0.391,0.391 -0.391,1.023 0,1.414 0.195,0.195 0.451,0.293 0.707,0.293 0.256,0 0.512,-0.098 0.707,-0.293 l 4.411,-4.411 c 0.391,-0.391 0.391,-1.023 0,-1.414 -0.391,-0.391 -1.023,-0.391 -1.414,0 z"
     id="path30" /><path
     class="st0"
     d="m 52.115,86.747 -4.411,4.411 c -0.391,0.391 -0.391,1.023 0,1.414 0.195,0.195 0.451,0.293 0.707,0.293 0.256,0 0.512,-0.098 0.707,-0.293 l 4.411,-4.411 c 0.391,-0.391 0.391,-1.023 0,-1.414 -0.391,-0.391 -1.023,-0.391 -1.414,0 z"
     id="path32" /></g>
</svg>
