<?xml version="1.0" encoding="utf-8"?>
<!-- Generator: Adobe Illustrator 22.0.0, SVG Export Plug-In . SVG Version: 6.00 Build 0)  -->
<svg version="1.1" id="Layer_1" xmlns="http://www.w3.org/2000/svg" xmlns:xlink="http://www.w3.org/1999/xlink" x="0px" y="0px"
	 viewBox="0 0 128 128" style="enable-background:new 0 0 128 128;" xml:space="preserve">
<style type="text/css">
	.st0{fill:#3A2C60;}
	.st1{fill:#E6E7E8;}
	.st2{fill:#0089EF;}
	.st3{fill:#6DC9F7;}
	.st4{fill:#D4FBFF;}
	.st5{fill:#FA759E;}
	.st6{fill:#FFD7E5;}
	.st7{fill:#FFFFFF;}
</style>
<g>
	<path class="st1" d="M118.263,20.487H36.357c-4.411,0-8,3.589-8,8v7.98c-2.273,0.817-3.907,2.988-3.907,5.539v8.019H10.542
		c-2.649,0-4.805,2.155-4.805,4.805v51.878c0,2.649,2.155,4.805,4.805,4.805h94.081c0.552,0,1-0.448,1-1v-3.052
		c0-2.391-1.945-4.336-4.336-4.336h-8.921l-4.179-10.126h30.076c4.411,0,8-3.589,8-8V28.487
		C126.263,24.076,122.674,20.487,118.263,20.487z"/>
	<g>
		<g>
			<path class="st2" d="M114.263,17.487H32.357c-3.866,0-7,3.134-7,7v8.728c0.318-0.065,0.646-0.099,0.983-0.099h36.557
				c2.7,0,4.89,2.189,4.89,4.89v49.993h46.476c3.866,0,7-3.134,7-7V24.487C121.263,20.621,118.129,17.487,114.263,17.487z"/>
			<path class="st7" d="M114.263,17.487H32.357c-3.866,0-7,3.134-7,7v3c0-3.866,3.134-7,7-7h81.906c3.866,0,7,3.134,7,7v-3
				C121.263,20.621,118.129,17.487,114.263,17.487z"/>
			<polygon class="st3" points="67.787,100.124 87.696,100.124 82.692,87.998 67.787,87.998 			"/>
			<path class="st2" d="M97.287,100.125h-29.5v1.498c0,2.701-2.189,4.89-4.89,4.89h37.725v-3.052
				C100.623,101.618,99.129,100.125,97.287,100.125z"/>
			<path class="st4" d="M110.189,23.561H36.431c-2.761,0-5,2.239-5,5v4.554h31.466c2.7,0,4.89,2.189,4.89,4.89v39.58h42.402
				c2.761,0,5-2.239,5-5V28.561C115.189,25.8,112.951,23.561,110.189,23.561z"/>
			<g>
				<path class="st6" d="M105.858,30.116H40.762c-1.105,0-2,0.895-2,2v1h24.136c2.7,0,4.89,2.189,4.89,4.89v10.391h38.071
					c1.105,0,2-0.895,2-2v-14.28C107.858,31.011,106.963,30.116,105.858,30.116z"/>
				<path class="st5" d="M80.796,51.995H67.787v18.702h13.009c1.105,0,2-0.895,2-2V53.995C82.796,52.89,81.9,51.995,80.796,51.995z"
					/>
				<path class="st5" d="M88.886,68.697V53.995c0-1.105,0.895-2,2-2h14.972c1.105,0,2,0.895,2,2v14.702c0,1.105-0.895,2-2,2H90.886
					C89.782,70.697,88.886,69.802,88.886,68.697z"/>
			</g>
			<circle class="st3" cx="73.31" cy="82.601" r="2.603"/>
		</g>
		<g>
			<path class="st2" d="M62.897,33.116H26.34c-2.7,0-4.89,2.189-4.89,4.89v9.019h10.62c2.101,0,3.805,1.703,3.805,3.805v51.879
				c0,2.101-1.703,3.805-3.805,3.805h30.828c2.7,0,4.89-2.189,4.89-4.89V38.005C67.787,35.305,65.598,33.116,62.897,33.116z"/>
			<path class="st4" d="M21.45,40.075v6.95h10.62c2.101,0,3.805,1.703,3.805,3.805v45.732h31.912V40.075H21.45z"/>
			<g>
				<path class="st5" d="M40.517,72.735h-4.642v17.065h4.642c1.045,0,1.893-0.847,1.893-1.893v-13.28
					C42.41,73.583,41.562,72.735,40.517,72.735z"/>
				<path class="st6" d="M62.323,46.781H26.915c-0.332,0-0.64,0.093-0.912,0.244h6.067c2.101,0,3.805,1.703,3.805,3.805v18.983
					h26.448c1.045,0,1.893-0.847,1.893-1.893V48.673C64.215,47.628,63.368,46.781,62.323,46.781z"/>
				<g>
					<path class="st5" d="M45.919,87.908v-13.28c0-1.045,0.847-1.893,1.893-1.893h13.602c1.045,0,1.893,0.847,1.893,1.893v13.28
						c0,1.045-0.847,1.893-1.893,1.893H47.812C46.767,89.801,45.919,88.953,45.919,87.908z"/>
				</g>
			</g>
			<path class="st3" d="M50.287,37.423H38.95c-0.392,0-0.713-0.321-0.713-0.713v-0.088c0-0.392,0.321-0.713,0.713-0.713h11.337
				c0.392,0,0.713,0.321,0.713,0.713v0.088C51,37.102,50.679,37.423,50.287,37.423z"/>
			<circle class="st3" cx="54.029" cy="36.666" r="0.831"/>
			<path class="st3" d="M48.403,102.952h-7.569c-0.952,0-1.732-0.779-1.732-1.732v-0.214c0-0.952,0.779-1.732,1.732-1.732h7.569
				c0.952,0,1.732,0.779,1.732,1.732v0.214C50.135,102.173,49.356,102.952,48.403,102.952z"/>
		</g>
		<g>
			<path class="st2" d="M32.07,106.513H6.542c-2.101,0-3.805-1.703-3.805-3.805V50.829c0-2.101,1.703-3.805,3.805-3.805H32.07
				c2.101,0,3.805,1.703,3.805,3.805v51.879C35.875,104.809,34.171,106.513,32.07,106.513z"/>
			
				<rect x="-3.585" y="58.987" transform="matrix(-1.836970e-16 1 -1 -1.836970e-16 94.8618 56.25)" class="st4" width="45.783" height="33.138"/>
			<path class="st6" d="M7.737,69.447v-9.783c0-1.105,0.895-2,2-2h19.138c1.105,0,2,0.895,2,2v9.783c0,1.105-0.895,2-2,2H9.737
				C8.633,71.447,7.737,70.552,7.737,69.447z"/>
			<path class="st5" d="M7.737,91.447V75.665c0-1.105,0.895-2,2-2h19.138c1.105,0,2,0.895,2,2v15.783c0,1.105-0.895,2-2,2H9.737
				C8.633,93.447,7.737,92.552,7.737,91.447z"/>
			<path class="st3" d="M23.923,50.515h-9.235c-0.305,0-0.555-0.25-0.555-0.555v-0.118c0-0.305,0.25-0.555,0.555-0.555h9.235
				c0.305,0,0.555,0.25,0.555,0.555v0.118C24.478,50.266,24.228,50.515,23.923,50.515z"/>
			<circle class="st3" cx="26.933" cy="49.902" r="0.673"/>
			<path class="st3" d="M22.429,103.627h-6.247c-0.741,0-1.348-0.606-1.348-1.348v-0.286c0-0.741,0.606-1.348,1.348-1.348h6.247
				c0.741,0,1.348,0.606,1.348,1.348v0.286C23.777,103.021,23.17,103.627,22.429,103.627z"/>
			<g>
				<path class="st0" d="M114.263,16.487H32.357c-4.411,0-8,3.589-8,8v7.979c-2.273,0.817-3.907,2.988-3.907,5.539v8.019H6.542
					c-2.649,0-4.805,2.155-4.805,4.805v51.879c0,2.649,2.156,4.805,4.805,4.805h94.081c0.552,0,1-0.448,1-1v-3.052
					c0-2.391-1.945-4.336-4.336-4.336h-8.922l-4.178-10.126h30.077c4.411,0,8-3.589,8-8V24.487
					C122.263,20.076,118.674,16.487,114.263,16.487z M26.34,34.116h36.558c2.145,0,3.89,1.745,3.89,3.89v1.069H22.45v-1.069
					C22.45,35.861,24.195,34.116,26.34,34.116z M62.898,105.513H35.954c0.573-0.791,0.921-1.755,0.921-2.805v-5.146h29.913v4.062
					C66.787,103.768,65.042,105.513,62.898,105.513z M3.737,53.664h31.138v43.783H3.737V53.664z M22.45,41.075h44.337v54.487H36.875
					V50.829c0-2.649-2.155-4.805-4.805-4.805h-9.62V41.075z M6.542,48.024H32.07c1.546,0,2.805,1.258,2.805,2.805v0.835H3.737
					v-0.835C3.737,49.283,4.995,48.024,6.542,48.024z M3.737,102.708v-3.261h31.138v3.261c0,1.546-1.258,2.805-2.805,2.805H6.542
					C4.995,105.513,3.737,104.254,3.737,102.708z M99.623,103.46v2.052H67.308c0.917-1.039,1.479-2.398,1.479-3.89v-0.499h18.909
					h9.591C98.575,101.124,99.623,102.172,99.623,103.46z M86.201,99.124H68.787V88.998h13.236L86.201,99.124z M120.263,80.998
					c0,3.309-2.691,6-6,6H82.692H68.787v-8.413h41.402c3.309,0,6-2.691,6-6v-14.29c0-0.552-0.448-1-1-1s-1,0.448-1,1v14.29
					c0,2.206-1.794,4-4,4H68.787V38.005c0-3.248-2.642-5.89-5.89-5.89H32.431v-3.555c0-2.206,1.794-4,4-4h73.758
					c2.206,0,4,1.794,4,4v12.514c0,0.552,0.448,1,1,1s1-0.448,1-1V28.561c0-3.309-2.691-6-6-6H36.431c-3.309,0-6,2.691-6,6v3.555
					h-4.074v-7.628c0-3.309,2.691-6,6-6h81.906c3.309,0,6,2.691,6,6V80.998z"/>
				<path class="st0" d="M115.189,43.625c-0.552,0-1,0.448-1,1v9.75c0,0.552,0.448,1,1,1s1-0.448,1-1v-9.75
					C116.189,44.073,115.741,43.625,115.189,43.625z"/>
			</g>
		</g>
	</g>
</g>
</svg>
