<?xml version="1.0" encoding="utf-8"?>
<!-- Generator: Adobe Illustrator 24.0.0, SVG Export Plug-In . SVG Version: 6.00 Build 0)  -->
<svg version="1.1" id="Layer_1" xmlns="http://www.w3.org/2000/svg" xmlns:xlink="http://www.w3.org/1999/xlink" x="0px" y="0px"
	 viewBox="0 0 128 128" enable-background="new 0 0 128 128" xml:space="preserve">
<g>
	<path fill="#E6E7E8" d="M118.837,22.882H60.86c-1.768,0-3.425-0.868-4.432-2.323l-2.579-3.725c-1.38-1.994-3.652-3.184-6.077-3.184
		h-35.61c-2.757,0-5,2.243-5,5v93.698c0,2.757,2.243,5,5,5h106.675c2.757,0,5-2.243,5-5V27.882
		C123.837,25.125,121.594,22.882,118.837,22.882z"/>
	<g>
		<g>
			<g>
				<path fill="#D4FBFF" d="M118.837,32.663H4.163v75.687c0,2.209,1.791,4,4,4h106.675c2.209,0,4-1.791,4-4V32.663z"/>
				<path fill="#FFFFFF" d="M114.837,109.349H8.163c-2.209,0-4-1.791-4-4v3c0,2.209,1.791,4,4,4h106.675c2.209,0,4-1.791,4-4v-3
					C118.837,107.559,117.047,109.349,114.837,109.349z"/>
				<path fill="#6DC9F7" d="M51.606,17.129l-2.579-3.725c-1.194-1.724-3.157-2.753-5.254-2.753H8.163c-2.209,0-4,1.791-4,4v18.012
					h114.675v-8.781c0-2.209-1.791-4-4-4H56.86C54.763,19.882,52.8,18.853,51.606,17.129z"/>
				<circle fill="#FFFFFF" cx="39.781" cy="22.079" r="3.257"/>
				<circle fill="#D4FBFF" cx="27.95" cy="22.079" r="3.257"/>
				<circle fill="#FA759E" cx="16.118" cy="22.079" r="3.257"/>
			</g>
		</g>
		<g>
			<g>
				<path fill="#FA759E" d="M61.5,68.16c11.562,0,19.706,1.305,25.38,2.945L79.756,50.03c-0.855-2.528-2.792-4.544-5.284-5.499
					l-9.766-3.74c-2.064-0.79-4.346-0.79-6.41,0l-9.766,3.74c-2.492,0.955-4.43,2.97-5.284,5.499L36.12,71.105
					C41.795,69.466,49.938,68.16,61.5,68.16z"/>
				<path fill="#FFD7E5" d="M61.5,68.16c11.562,0,19.706,1.305,25.38,2.945l-2.899-8.577c-5.911-1.045-13.266-1.749-22.481-1.749
					c-9.215,0-16.569,0.704-22.481,1.749l-2.899,8.577C41.794,69.466,49.938,68.16,61.5,68.16z"/>
				<path fill="#FA759E" d="M99,77.603H24c0,0,6.395-9.442,37.5-9.442S99,77.603,99,77.603z"/>
			</g>
			<path fill="#0089EF" d="M65.817,93.52c0-1.016,0.141-1.997,0.382-2.939c-1.225-0.327-3.001-0.703-4.698-0.703
				c-1.697,0-3.474,0.376-4.699,0.703c0.24,0.941,0.382,1.922,0.382,2.939c0,0.481-0.037,0.952-0.092,1.418
				c0.989-0.292,2.783-0.743,4.409-0.743c1.617,0,3.416,0.453,4.409,0.744C65.854,94.473,65.817,94.001,65.817,93.52z"/>
			<g>
				<g>
					<circle fill="#0089EF" cx="45.313" cy="93.52" r="11.871"/>
					<circle fill="#6DC9F7" cx="45.313" cy="93.52" r="7.554"/>
				</g>
				<g>
					<circle fill="#0089EF" cx="77.687" cy="93.52" r="11.871"/>
					<g>
						<circle fill="#6DC9F7" cx="77.687" cy="93.52" r="7.554"/>
						<g>
							<path fill="#3A2C60" d="M4.163,95.163c0.552,0,1-0.448,1-1v-10c0-0.552-0.448-1-1-1s-1,0.448-1,1v10
								C3.163,94.715,3.61,95.163,4.163,95.163z"/>
							<path fill="#3A2C60" d="M114.837,18.882H56.86c-1.769,0-3.425-0.868-4.432-2.323l-2.579-3.725
								c-1.38-1.994-3.652-3.184-6.077-3.184H8.163c-2.757,0-5,2.243-5,5v65.262c0,0.552,0.448,1,1,1s1-0.448,1-1v-46.25h112.675
								v74.687c0,1.654-1.346,3-3,3H8.163c-1.654,0-3-1.346-3-3V98.163c0-0.552-0.448-1-1-1s-1,0.448-1,1v10.187
								c0,2.757,2.243,5,5,5h106.675c2.757,0,5-2.243,5-5V23.882C119.837,21.125,117.594,18.882,114.837,18.882z M5.163,14.651
								c0-1.654,1.346-3,3-3h35.61c1.769,0,3.425,0.868,4.432,2.322l2.579,3.725c1.38,1.994,3.652,3.184,6.077,3.184h57.977
								c1.654,0,3,1.346,3,3v7.781H5.163V14.651z"/>
							<path fill="#3A2C60" d="M99.883,78.071c0.173-0.327,0.152-0.723-0.055-1.03c-0.169-0.249-2.823-3.95-12.168-6.75
								l-6.957-20.582c-0.954-2.82-3.095-5.048-5.875-6.113l-9.766-3.74c-2.297-0.879-4.828-0.879-7.125,0l-9.766,3.74
								c-2.78,1.064-4.921,3.292-5.875,6.113L35.34,70.291c-9.345,2.8-11.999,6.501-12.168,6.75
								c-0.208,0.307-0.229,0.703-0.055,1.03c0.173,0.327,0.513,0.531,0.883,0.531h75C99.37,78.603,99.71,78.398,99.883,78.071z
								 M44.191,50.35c0.762-2.254,2.474-4.035,4.695-4.885l9.766-3.74c1.837-0.703,3.859-0.703,5.695,0l9.766,3.74
								c2.221,0.851,3.933,2.631,4.695,4.885l3.693,10.924c-6.233-0.988-13.281-1.495-21.001-1.495s-14.768,0.507-21.001,1.495
								L44.191,50.35z M39.704,63.625L39.704,63.625l0.072-0.213c6.375-1.083,13.68-1.633,21.724-1.633s15.349,0.549,21.724,1.633
								l0.072,0.213l0,0l2.037,6.027C79.679,68.224,71.967,67.16,61.5,67.16s-18.179,1.064-23.833,2.491L39.704,63.625z
								 M26.526,76.603c3.437-2.582,12.848-7.442,34.974-7.442s31.537,4.861,34.974,7.442H26.526z"/>
							<path fill="#3A2C60" d="M45.313,84.966c-4.717,0-8.554,3.837-8.554,8.554c0,4.716,3.837,8.554,8.554,8.554
								c4.716,0,8.554-3.837,8.554-8.554C53.867,88.803,50.029,84.966,45.313,84.966z M45.313,100.074
								c-3.614,0-6.554-2.94-6.554-6.554s2.94-6.554,6.554-6.554s6.554,2.94,6.554,6.554S48.927,100.074,45.313,100.074z"/>
							<path fill="#3A2C60" d="M65.512,89.382c-1.174-0.267-2.604-0.504-4.012-0.504c-1.408,0-2.838,0.237-4.012,0.504
								c-1.729-5.07-6.528-8.732-12.175-8.732c-7.097,0-12.871,5.774-12.871,12.871s5.774,12.871,12.871,12.871
								c6.342,0,11.614-4.615,12.667-10.661c0.961-0.253,2.3-0.536,3.521-0.536c1.209,0,2.554,0.284,3.521,0.538
								c1.054,6.044,6.325,10.658,12.666,10.658c7.097,0,12.871-5.774,12.871-12.871s-5.774-12.871-12.871-12.871
								C72.039,80.649,67.241,84.312,65.512,89.382z M45.313,104.391c-5.994,0-10.871-4.876-10.871-10.871
								s4.876-10.871,10.871-10.871s10.871,4.876,10.871,10.871S51.307,104.391,45.313,104.391z M61.5,93.194
								c-1.144,0-2.336,0.202-3.322,0.427c0-0.034,0.005-0.067,0.005-0.101c0-0.751-0.078-1.483-0.202-2.2
								c1.047-0.236,2.309-0.442,3.519-0.442c1.21,0,2.472,0.207,3.519,0.442c-0.124,0.716-0.202,1.448-0.202,2.2
								c0,0.036,0.005,0.07,0.005,0.105C63.829,93.398,62.63,93.194,61.5,93.194z M88.558,93.52c0,5.994-4.876,10.871-10.871,10.871
								c-5.994,0-10.87-4.876-10.87-10.871s4.876-10.871,10.87-10.871C83.681,82.649,88.558,87.526,88.558,93.52z"/>
							<path fill="#3A2C60" d="M69.133,93.52c0,4.716,3.837,8.554,8.554,8.554c4.717,0,8.554-3.837,8.554-8.554
								c0-4.717-3.837-8.554-8.554-8.554C72.971,84.966,69.133,88.803,69.133,93.52z M84.241,93.52c0,3.614-2.94,6.554-6.554,6.554
								s-6.554-2.94-6.554-6.554s2.94-6.554,6.554-6.554S84.241,89.906,84.241,93.52z"/>
						</g>
					</g>
				</g>
			</g>
		</g>
	</g>
</g>
</svg>
