<svg xmlns="http://www.w3.org/2000/svg" viewBox="0 0 128 128"><title>icon</title><path d="M98.864,47.791H94.741a29.167,29.167,0,0,0-3.684-8.879l2.92-2.92a3.042,3.042,0,0,0,0-4.3L88.8,26.515a3.113,3.113,0,0,0-4.3,0l-2.92,2.92A29.183,29.183,0,0,0,72.7,25.751V21.628a3.043,3.043,0,0,0-3.04-3.04H62.338a3.043,3.043,0,0,0-3.04,3.04v4.123a29.172,29.172,0,0,0-8.878,3.684l-2.92-2.92a3.109,3.109,0,0,0-4.3,0l-5.18,5.178a3.045,3.045,0,0,0,0,4.3l2.92,2.92a29.167,29.167,0,0,0-3.684,8.879H33.136A3.043,3.043,0,0,0,30.1,50.83v3.662c0,.006,0,.011,0,.018s0,.009,0,.014a36.028,36.028,0,0,0,12.624,26.22,32.238,32.238,0,0,1,11.052,24.7v7.944a6.011,6.011,0,0,0,4.794,5.878v1.515a5.226,5.226,0,0,0,5.22,5.22h4.3a5.226,5.226,0,0,0,5.22-5.22v-1.494a6.005,6.005,0,0,0,4.934-5.9v-8.2A33.432,33.432,0,0,1,89.785,80.3,36.027,36.027,0,0,0,101.9,54.523c0-.005,0-.011,0-.016l0-.015V50.83A3.043,3.043,0,0,0,98.864,47.791Zm-48.5,5.7a15.667,15.667,0,0,1,31.272,0Z" fill="#e6e7e8"/><path d="M66,15.251a1,1,0,0,0,1-1V7a1,1,0,0,0-2,0v7.251A1,1,0,0,0,66,15.251Z" fill="#e6e7e8"/><path d="M36.108,26.558a1,1,0,0,0,1.414-1.414L32.4,20.017a1,1,0,1,0-1.415,1.414Z" fill="#e6e7e8"/><path d="M25.215,53.492h-7.25a1,1,0,1,0,0,2h7.25a1,1,0,0,0,0-2Z" fill="#e6e7e8"/><path d="M95.185,26.851a1,1,0,0,0,.707-.293l5.127-5.127A1,1,0,0,0,99.6,20.017l-5.126,5.127a1,1,0,0,0,.707,1.707Z" fill="#e6e7e8"/><path d="M114.035,53.492h-7.25a1,1,0,0,0,0,2h7.25a1,1,0,0,0,0-2Z" fill="#e6e7e8"/><path d="M27.1,50.492A34.872,34.872,0,0,0,39.369,75.983a33.349,33.349,0,0,1,11.405,25.46v.542H73.238v-.8A34.324,34.324,0,0,1,85.123,75.552,34.787,34.787,0,0,0,96.9,50.492Z" fill="#ffd7e5"/><path d="M45.313,50.492a16.687,16.687,0,0,1,33.374,0H96.9V46.83a2.039,2.039,0,0,0-2.04-2.039H89.936A28.33,28.33,0,0,0,85.78,34.775l3.49-3.49a2.039,2.039,0,0,0,0-2.885l-5.179-5.178a2.038,2.038,0,0,0-2.884,0l-3.49,3.49A28.322,28.322,0,0,0,67.7,22.556V17.628a2.039,2.039,0,0,0-2.039-2.04H58.338a2.039,2.039,0,0,0-2.039,2.04v4.928a28.33,28.33,0,0,0-10.016,4.156l-3.49-3.49a2.038,2.038,0,0,0-2.884,0L34.73,28.4a2.039,2.039,0,0,0,0,2.885l3.49,3.49a28.33,28.33,0,0,0-4.156,10.016H29.136A2.039,2.039,0,0,0,27.1,46.83v3.662Z" fill="#fa759e"/><path d="M50.772,101.985H73.239a0,0,0,0,1,0,0v7.4a5,5,0,0,1-5,5H55.772a5,5,0,0,1-5-5v-7.4A0,0,0,0,1,50.772,101.985Z" fill="#6dc9f7"/><path d="M68.239,111.386H55.772a5,5,0,0,1-5-5v3a5,5,0,0,0,5,5H68.239a5,5,0,0,0,5-5v-3A5,5,0,0,1,68.239,111.386Z" fill="#fff"/><path d="M55.567,114.386H68.3a0,0,0,0,1,0,0v2.394a4.22,4.22,0,0,1-4.22,4.22h-4.3a4.22,4.22,0,0,1-4.22-4.22v-2.394A0,0,0,0,1,55.567,114.386Z" fill="#6dc9f7"/><path d="M94.864,43.791H90.741a29.167,29.167,0,0,0-3.684-8.879l2.92-2.92a3.042,3.042,0,0,0,0-4.3L84.8,22.515a3.113,3.113,0,0,0-4.3,0l-2.92,2.92A29.183,29.183,0,0,0,68.7,21.751V17.628a3.043,3.043,0,0,0-3.04-3.04H58.338a3.043,3.043,0,0,0-3.039,3.04v4.123a29.188,29.188,0,0,0-8.879,3.684l-2.92-2.92a3.108,3.108,0,0,0-4.3,0l-5.18,5.178a3.045,3.045,0,0,0,0,4.3l2.92,2.92a29.167,29.167,0,0,0-3.684,8.879H29.136A3.043,3.043,0,0,0,26.1,46.83v3.662c0,.006,0,.011,0,.018s0,.009,0,.014a36.028,36.028,0,0,0,12.624,26.22,32.238,32.238,0,0,1,11.052,24.7v7.944a6.011,6.011,0,0,0,4.794,5.878v1.515a5.226,5.226,0,0,0,5.22,5.22h4.3a5.226,5.226,0,0,0,5.22-5.22v-1.494a6.005,6.005,0,0,0,4.934-5.9v-8.2A33.432,33.432,0,0,1,85.785,76.3,36.027,36.027,0,0,0,97.9,50.523c0-.005,0-.011,0-.016l0-.015V46.83A3.043,3.043,0,0,0,94.864,43.791ZM28.1,46.83a1.04,1.04,0,0,1,1.04-1.039h4.928a1,1,0,0,0,.98-.8,27.251,27.251,0,0,1,4.01-9.664,1,1,0,0,0-.127-1.259l-3.49-3.489a1.042,1.042,0,0,1,0-1.471l5.179-5.178a1.062,1.062,0,0,1,1.47,0l3.49,3.49a1,1,0,0,0,1.259.127A27.207,27.207,0,0,1,56.5,23.537a1,1,0,0,0,.8-.98V17.628a1.041,1.041,0,0,1,1.039-1.04h7.324a1.042,1.042,0,0,1,1.04,1.04v4.929a1,1,0,0,0,.8.98,27.218,27.218,0,0,1,9.662,4.009,1,1,0,0,0,1.259-.127l3.491-3.49a1.063,1.063,0,0,1,1.469,0l5.179,5.178a1.039,1.039,0,0,1,0,1.471l-3.49,3.489a1,1,0,0,0-.127,1.259,27.251,27.251,0,0,1,4.01,9.664,1,1,0,0,0,.98.8h4.928A1.041,1.041,0,0,1,95.9,46.83v2.662H79.659a17.687,17.687,0,0,0-35.318,0H28.1ZM64.085,120h-4.3a3.224,3.224,0,0,1-3.22-3.22v-1.393H67.305v1.393A3.224,3.224,0,0,1,64.085,120Zm8.154-10.613a4.005,4.005,0,0,1-3.991,4H55.762a4,4,0,0,1-3.99-4v-6.4H72.239ZM57.462,74.393H53.068a4.086,4.086,0,0,1,0-8.172h.308a4.091,4.091,0,0,1,4.086,4.086Zm7.076,26.592H59.462V76.393h5.076ZM84.46,74.8a35.455,35.455,0,0,0-12.217,26.182h-5.7V76.393h4.394a6.086,6.086,0,0,0,0-12.172h-.308a6.093,6.093,0,0,0-6.086,6.086v4.086H59.462V70.307a6.093,6.093,0,0,0-6.086-6.086h-.308a6.086,6.086,0,0,0,0,12.172h4.394v24.592h-5.7A34.194,34.194,0,0,0,40.018,75.221,34.029,34.029,0,0,1,28.145,51.492H54.458a1,1,0,0,0,0-2H46.364a15.667,15.667,0,0,1,31.272,0H71.167a1,1,0,0,0,0,2h24.69A33.54,33.54,0,0,1,84.46,74.8Zm-17.922-.41V70.307a4.091,4.091,0,0,1,4.086-4.086h.308a4.086,4.086,0,0,1,0,8.172Z" fill="#3a2c60"/><path d="M66.5,49.492H59a1,1,0,0,0,0,2h7.5a1,1,0,0,0,0-2Z" fill="#3a2c60"/><path d="M62,11.251a1,1,0,0,0,1-1V3a1,1,0,0,0-2,0v7.251A1,1,0,0,0,62,11.251Z" fill="#3a2c60"/><path d="M32.108,22.558a1,1,0,0,0,1.414-1.414L28.4,16.017a1,1,0,1,0-1.415,1.414Z" fill="#3a2c60"/><path d="M21.215,49.492h-7.25a1,1,0,1,0,0,2h7.25a1,1,0,0,0,0-2Z" fill="#3a2c60"/><path d="M91.185,22.851a1,1,0,0,0,.707-.293l5.127-5.127A1,1,0,0,0,95.6,16.017l-5.126,5.127a1,1,0,0,0,.707,1.707Z" fill="#3a2c60"/><path d="M110.035,49.492h-7.25a1,1,0,0,0,0,2h7.25a1,1,0,0,0,0-2Z" fill="#3a2c60"/></svg>