<?xml version="1.0" encoding="utf-8"?>
<!-- Generator: Adobe Illustrator 24.0.0, SVG Export Plug-In . SVG Version: 6.00 Build 0)  -->
<svg version="1.1" id="Layer_1" xmlns="http://www.w3.org/2000/svg" xmlns:xlink="http://www.w3.org/1999/xlink" x="0px" y="0px"
	 viewBox="0 0 128 128" enable-background="new 0 0 128 128" xml:space="preserve">
<g>
	<path fill="#E6E7E8" d="M121.5,82.404c1.62-5.355,2.5-11.028,2.5-16.904s-0.88-11.549-2.5-16.904V37.263
		c0-6.033-1.94-11.617-5.221-16.176c0.543-1.754,0.145-3.74-1.24-5.126c-0.965-0.965-2.247-1.496-3.611-1.496
		c-0.525,0-1.03,0.102-1.518,0.254C105.352,11.439,99.768,9.5,93.736,9.5H82.404C77.049,7.88,71.376,7,65.5,7
		S53.951,7.88,48.596,9.5H37.264c-6.031,0-11.615,1.939-16.174,5.219c-0.487-0.152-0.993-0.254-1.518-0.254
		c-1.364,0-2.646,0.531-3.611,1.496c-1.385,1.386-1.784,3.372-1.24,5.126C11.44,25.646,9.5,31.231,9.5,37.263v11.332
		C7.88,53.951,7,59.624,7,65.5s0.88,11.549,2.5,16.904v11.332c0,6.033,1.94,11.617,5.221,16.176c-0.543,1.754-0.145,3.74,1.24,5.126
		c0.965,0.965,2.247,1.496,3.611,1.496c0.525,0,1.03-0.102,1.518-0.254c4.558,3.279,10.142,5.219,16.174,5.219h11.332
		c5.355,1.62,11.028,2.5,16.904,2.5s11.549-0.88,16.904-2.5h11.332c6.031,0,11.615-1.939,16.174-5.219
		c0.487,0.152,0.993,0.254,1.518,0.254c1.364,0,2.646-0.531,3.611-1.496c1.385-1.386,1.784-3.372,1.24-5.126
		c3.281-4.559,5.221-10.143,5.221-16.176V82.404z M99,65.5C99,83.972,83.972,99,65.5,99S32,83.972,32,65.5S47.028,32,65.5,32
		S99,47.028,99,65.5z M110.294,27.928l1.329-1.329c1.184,1.978,2.068,4.154,2.544,6.483
		C112.97,31.291,111.675,29.573,110.294,27.928z M103.072,20.706c-1.645-1.382-3.364-2.677-5.155-3.874
		c2.33,0.476,4.506,1.361,6.484,2.544L103.072,20.706z M27.928,20.706l-1.329-1.329c1.978-1.184,4.154-2.068,6.484-2.544
		C31.292,18.029,29.573,19.324,27.928,20.706z M20.706,27.928c-1.382,1.644-2.676,3.363-3.873,5.154
		c0.476-2.329,1.36-4.505,2.544-6.483L20.706,27.928z M20.706,103.072l-1.329,1.329c-1.184-1.978-2.068-4.154-2.544-6.483
		C18.03,99.709,19.325,101.427,20.706,103.072z M27.928,110.294c1.645,1.382,3.364,2.677,5.155,3.874
		c-2.329-0.476-4.506-1.361-6.484-2.544L27.928,110.294z M103.072,110.294l1.329,1.329c-1.978,1.184-4.154,2.068-6.484,2.544
		C99.708,112.971,101.427,111.676,103.072,110.294z M110.294,103.072c1.382-1.644,2.676-3.363,3.873-5.154
		c-0.476,2.329-1.36,4.505-2.544,6.483L110.294,103.072z"/>
	<g>
		<path fill="#6DC9F7" d="M89.737,116.5H33.263C18.506,116.5,6.5,104.494,6.5,89.737V33.263C6.5,18.506,18.506,6.5,33.263,6.5
			h56.473c14.757,0,26.763,12.006,26.763,26.763v56.473C116.5,104.494,104.494,116.5,89.737,116.5z M33.263,11.411
			c-12.049,0-21.853,9.803-21.853,21.853v56.473c0,12.049,9.803,21.853,21.853,21.853h56.473c12.049,0,21.853-9.803,21.853-21.853
			V33.263c0-12.049-9.803-21.853-21.853-21.853H33.263z"/>
		<g>
			<g>
				<path fill="#0089EF" d="M18.052,23.86c1.796-2.072,3.737-4.012,5.808-5.808l-5.384-5.384c-1.604-1.604-4.204-1.604-5.808,0
					s-1.604,4.204,0,5.808L18.052,23.86z"/>
				<path fill="#0089EF" d="M104.948,99.14c-1.796,2.072-3.737,4.012-5.808,5.808l5.384,5.384c1.604,1.604,4.204,1.604,5.808,0
					s1.604-4.204,0-5.808L104.948,99.14z"/>
			</g>
			<g>
				<path fill="#0089EF" d="M18.052,99.14l-5.384,5.384c-1.604,1.604-1.604,4.204,0,5.808s4.204,1.604,5.808,0l5.384-5.384
					C21.789,103.152,19.848,101.211,18.052,99.14z"/>
				<path fill="#0089EF" d="M104.948,23.86l5.384-5.384c1.604-1.604,1.604-4.204,0-5.808s-4.204-1.604-5.808,0l-5.384,5.384
					C101.211,19.848,103.152,21.789,104.948,23.86z"/>
			</g>
		</g>
		<path fill="#FFD7E5" d="M61.5,4C29.744,4,4,29.744,4,61.5C4,93.256,29.744,119,61.5,119S119,93.256,119,61.5
			C119,29.744,93.256,4,61.5,4z M61.5,96C42.446,96,27,80.554,27,61.5S42.446,27,61.5,27S96,42.446,96,61.5S80.554,96,61.5,96z"/>
		<path fill="#FA759E" d="M43.669,6.833l4.563,22.815C52.317,27.944,56.798,27,61.5,27s9.183,0.944,13.268,2.648l4.563-22.815
			C73.716,5.002,67.726,4,61.5,4S49.284,5.002,43.669,6.833z"/>
		<path fill="#FFFFFF" d="M61.5,7c6.019,0,11.814,0.944,17.266,2.661l0.566-2.828C73.716,5.002,67.727,4,61.5,4
			S49.284,5.002,43.669,6.833l0.566,2.828C49.686,7.944,55.481,7,61.5,7z"/>
		<path fill="#FA759E" d="M79.331,116.167l-4.563-22.815C70.683,95.056,66.202,96,61.5,96s-9.183-0.944-13.268-2.648l-4.563,22.815
			C49.284,117.998,55.273,119,61.5,119S73.716,117.998,79.331,116.167z"/>
		<path fill="#FA759E" d="M27,61.5c0-4.702,0.944-9.183,2.648-13.268L6.833,43.669C5.002,49.284,4,55.273,4,61.5
			s1.002,12.216,2.833,17.831l22.815-4.563C27.944,70.683,27,66.202,27,61.5z"/>
		<path fill="#FA759E" d="M96,61.5c0,4.702-0.944,9.183-2.648,13.268l22.815,4.563C117.998,73.716,119,67.726,119,61.5
			s-1.002-12.216-2.833-17.831l-22.815,4.563C95.056,52.317,96,56.798,96,61.5z"/>
		<g>
			<path fill="#3A2C60" d="M117.5,78.404c1.62-5.355,2.5-11.028,2.5-16.904s-0.88-11.549-2.5-16.904V33.263
				c0-6.027-1.953-11.593-5.229-16.149c0.556-1.76,0.16-3.76-1.232-5.153c-0.965-0.965-2.247-1.496-3.611-1.496
				c-0.535,0-1.049,0.104-1.544,0.262C101.328,7.452,95.762,5.5,89.736,5.5H78.404C73.049,3.88,67.376,3,61.5,3
				S49.951,3.88,44.596,5.5H33.264c-6.026,0-11.592,1.952-16.147,5.227c-0.495-0.157-1.01-0.262-1.544-0.262
				c-1.364,0-2.646,0.531-3.611,1.496c-1.393,1.393-1.788,3.392-1.232,5.153C7.453,21.67,5.5,27.236,5.5,33.263v11.332
				C3.88,49.951,3,55.624,3,61.5s0.88,11.549,2.5,16.904v11.332c0,6.026,1.953,11.593,5.228,16.148
				c-0.557,1.76-0.161,3.76,1.233,5.153c0.965,0.965,2.247,1.496,3.611,1.496c0.535,0,1.049-0.104,1.544-0.262
				c4.555,3.275,10.121,5.227,16.147,5.227h11.332c5.355,1.62,11.028,2.5,16.904,2.5s11.549-0.88,16.904-2.5h11.332
				c6.026,0,11.592-1.952,16.147-5.227c0.495,0.157,1.01,0.262,1.544,0.262c1.364,0,2.646-0.531,3.611-1.496
				c1.393-1.394,1.789-3.393,1.233-5.154c3.275-4.556,5.228-10.122,5.228-16.148V78.404z M106.294,99.072
				c1.37-1.63,2.655-3.333,3.843-5.108c-0.481,2.306-1.346,4.47-2.521,6.43L106.294,99.072z M99.072,106.294l1.322,1.322
				c-1.96,1.175-4.124,2.041-6.431,2.522C95.738,108.95,97.441,107.664,99.072,106.294z M80.086,114.844l-4.181-20.91
				c8.009-3.571,14.458-10.02,18.029-18.03l20.91,4.182C109.175,96.31,96.31,109.175,80.086,114.844z M8.156,80.087l20.91-4.182
				c3.571,8.009,10.02,14.458,18.029,18.03l-4.181,20.91C26.69,109.175,13.825,96.31,8.156,80.087z M15.384,100.394
				c-1.175-1.96-2.04-4.124-2.521-6.43c1.188,1.774,2.474,3.477,3.843,5.108L15.384,100.394z M29.037,110.138
				c-2.306-0.481-4.471-1.346-6.431-2.522l1.322-1.322C25.559,107.664,27.262,108.95,29.037,110.138z M28,61.5
				C28,43.028,43.028,28,61.5,28S95,43.028,95,61.5S79.972,95,61.5,95S28,79.972,28,61.5z M16.706,23.928
				c-1.37,1.63-2.655,3.333-3.843,5.108c0.481-2.306,1.346-4.47,2.521-6.43L16.706,23.928z M23.928,16.706l-1.322-1.322
				c1.96-1.175,4.124-2.041,6.431-2.522C27.262,14.05,25.559,15.336,23.928,16.706z M42.914,8.156l4.182,20.91
				c-8.01,3.571-14.459,10.02-18.03,18.03l-20.91-4.182C13.825,26.69,26.69,13.825,42.914,8.156z M115.486,78.176l-20.773-4.155
				C96.187,70.125,97,65.906,97,61.5c0-4.406-0.813-8.625-2.287-12.521l4.166-0.833c0.541-0.108,0.893-0.635,0.784-1.177
				c-0.107-0.541-0.631-0.894-1.177-0.784l-4.552,0.91c-3.571-8.01-10.02-14.459-18.03-18.03l4.182-20.91
				c16.223,5.669,29.089,18.534,34.758,34.758l-3.473,0.695c-0.541,0.108-0.893,0.635-0.784,1.177
				c0.095,0.475,0.513,0.804,0.979,0.804c0.064,0,0.131-0.006,0.197-0.02l3.722-0.745C117.118,50.098,118,55.698,118,61.5
				S117.118,72.902,115.486,78.176z M107.616,22.606c1.175,1.96,2.04,4.124,2.521,6.43c-1.188-1.774-2.474-3.477-3.843-5.108
				L107.616,22.606z M93.963,12.862c2.306,0.481,4.47,1.346,6.431,2.522l-1.322,1.322C97.441,15.336,95.738,14.05,93.963,12.862z
				 M115.5,33.263v5.752c-0.86-2.058-1.839-4.052-2.92-5.984c-0.044-4.366-1.326-8.433-3.5-11.889l1.959-1.959
				c0.049-0.049,0.083-0.108,0.13-0.159C113.892,23.109,115.5,27.997,115.5,33.263z M109.625,13.375
				c1.211,1.211,1.211,3.183,0,4.394l-4.644,4.644c-1.387-1.541-2.853-3.007-4.394-4.394l4.644-4.644
				C106.404,12.202,108.451,12.202,109.625,13.375z M89.736,7.5c5.266,0,10.155,1.608,14.239,4.331
				c-0.051,0.047-0.109,0.081-0.159,0.13l-1.959,1.959c-3.456-2.175-7.524-3.457-11.891-3.501c-1.931-1.08-3.925-2.06-5.983-2.92
				H89.736z M78.175,7.514l-4.155,20.773C70.124,26.813,65.906,26,61.5,26s-8.624,0.813-12.521,2.287L44.825,7.514
				C50.098,5.882,55.698,5,61.5,5S72.902,5.882,78.175,7.514z M33.264,7.5h5.752c-2.057,0.86-4.052,1.839-5.983,2.92
				c-4.366,0.044-8.434,1.326-11.891,3.501l-1.959-1.959c-0.049-0.049-0.108-0.084-0.159-0.13C23.109,9.108,27.997,7.5,33.264,7.5z
				 M13.375,13.375c0.587-0.587,1.367-0.91,2.197-0.91s1.61,0.323,2.197,0.91l4.644,4.644c-1.541,1.387-3.008,2.853-4.394,4.394
				l-4.644-4.644C12.164,16.558,12.164,14.587,13.375,13.375z M11.831,19.025c0.047,0.051,0.08,0.11,0.13,0.159l1.959,1.959
				c-2.174,3.456-3.456,7.524-3.5,11.889c-1.081,1.931-2.06,3.926-2.92,5.984v-5.752C7.5,27.997,9.108,23.109,11.831,19.025z
				 M7.514,44.824l20.773,4.155C26.813,52.875,26,57.094,26,61.5c0,4.406,0.813,8.625,2.287,12.521L7.514,78.176
				C5.882,72.902,5,67.302,5,61.5S5.882,50.098,7.514,44.824z M7.5,89.737v-5.752c0.86,2.058,1.839,4.052,2.92,5.984
				c0.044,4.366,1.326,8.433,3.5,11.889l-1.959,1.959c-0.049,0.049-0.083,0.108-0.13,0.159C9.108,99.891,7.5,95.003,7.5,89.737z
				 M13.375,109.625c-1.211-1.211-1.211-3.183,0-4.394l4.644-4.644c1.387,1.541,2.853,3.007,4.394,4.394l-4.644,4.644
				C16.596,110.798,14.549,110.798,13.375,109.625z M19.025,111.169c0.051-0.047,0.109-0.081,0.159-0.13l1.959-1.959
				c3.456,2.175,7.524,3.457,11.891,3.501c1.931,1.08,3.925,2.06,5.983,2.92h-5.752C27.997,115.5,23.109,113.892,19.025,111.169z
				 M44.825,115.486l4.154-20.773C52.875,96.187,57.094,97,61.5,97s8.625-0.813,12.521-2.287l4.154,20.773
				C72.902,117.118,67.302,118,61.5,118S50.098,117.118,44.825,115.486z M89.736,115.5h-5.752c2.057-0.86,4.052-1.839,5.983-2.92
				c4.366-0.044,8.434-1.326,11.891-3.501l1.959,1.959c0.049,0.049,0.108,0.084,0.159,0.13
				C99.891,113.892,95.003,115.5,89.736,115.5z M109.625,109.625c-1.174,1.174-3.221,1.174-4.395,0l-4.644-4.644
				c1.541-1.387,3.008-2.853,4.394-4.394l4.644,4.644C110.836,106.442,110.836,108.413,109.625,109.625z M111.169,103.975
				c-0.047-0.051-0.08-0.109-0.13-0.159l-1.959-1.959c2.174-3.456,3.456-7.524,3.5-11.889c1.081-1.931,2.06-3.926,2.92-5.984v5.752
				C115.5,95.003,113.892,99.891,111.169,103.975z"/>
			<path fill="#3A2C60" d="M107.941,44.294l-6.313,1.263c-0.541,0.108-0.893,0.635-0.784,1.177c0.095,0.475,0.513,0.804,0.979,0.804
				c0.064,0,0.131-0.006,0.197-0.02l6.313-1.263c0.541-0.108,0.893-0.635,0.784-1.177C109.011,44.538,108.49,44.184,107.941,44.294z
				"/>
		</g>
	</g>
</g>
</svg>
