<?xml version="1.0" encoding="utf-8"?>
<!-- Generator: Adobe Illustrator 22.0.0, SVG Export Plug-In . SVG Version: 6.00 Build 0)  -->
<svg version="1.1" id="Layer_1" xmlns="http://www.w3.org/2000/svg" xmlns:xlink="http://www.w3.org/1999/xlink" x="0px" y="0px"
	 viewBox="0 0 128 128" style="enable-background:new 0 0 128 128;" xml:space="preserve">
<style type="text/css">
	.st0{fill:#E6E7E8;}
	.st1{fill:#0089EF;}
	.st2{fill:#D4FBFF;}
	.st3{fill:#6DC9F7;}
	.st4{fill:#FFD7E5;}
	.st5{fill:#FFFFFF;}
	.st6{fill:#3A2C60;}
	.st7{fill:#FA759E;}
	.st8{fill:none;stroke:#3A2C60;stroke-width:2;stroke-linecap:round;stroke-linejoin:round;stroke-miterlimit:10;}
</style>
<g>
	<path class="st0" d="M117.628,30.051c0-7.168-5.832-13-13-13H27.372c-7.168,0-13,5.832-13,13v55.097c0,7.168,5.832,13,13,13h42.415
		l17.087,15.985c0.573,0.536,1.295,0.815,2.035,0.815c0.404,0,0.814-0.083,1.208-0.254c1.114-0.483,1.806-1.538,1.806-2.752V98.148
		h12.706c7.168,0,13-5.832,13-13V30.051z"/>
	<g>
		<path class="st4" d="M23.372,14.051h77.256c6.627,0,12,5.373,12,12v55.097c0,6.627-5.373,12-12,12H86.923v14.794
			c0,1.75-2.088,2.656-3.366,1.461L66.181,93.148H23.372c-6.627,0-12-5.373-12-12V26.051C11.372,19.424,16.744,14.051,23.372,14.051
			z"/>
		<path class="st5" d="M100.628,14.051H23.372c-6.627,0-12,5.373-12,12v3c0-6.627,5.373-12,12-12h77.256c6.627,0,12,5.373,12,12v-3
			C112.628,19.424,107.256,14.051,100.628,14.051z"/>
		<g>
			<path class="st6" d="M100.628,13.052H23.372c-7.168,0-13,5.832-13,13v55.097c0,7.168,5.832,13,13,13h42.415l17.087,15.984
				c0.573,0.536,1.295,0.815,2.035,0.815c0.405,0,0.814-0.083,1.208-0.254c1.114-0.483,1.806-1.538,1.806-2.752V94.148h12.705
				c7.168,0,13-5.832,13-13V59.051c0-0.552-0.448-1-1-1s-1,0.448-1,1v22.097c0,6.065-4.935,11-11,11H86.923c-0.552,0-1,0.448-1,1
				v14.793c0,0.609-0.46,0.856-0.602,0.917c-0.14,0.061-0.636,0.229-1.081-0.188L66.864,92.418c-0.185-0.173-0.429-0.27-0.683-0.27
				h-42.81c-6.065,0-11-4.935-11-11V26.052c0-6.065,4.935-11,11-11h77.256c6.065,0,11,4.935,11,11v17c0,0.552,0.448,1,1,1
				s1-0.448,1-1v-17C113.628,18.883,107.796,13.052,100.628,13.052z"/>
			<path class="st6" d="M112.628,46.551c-0.552,0-1,0.448-1,1v7.5c0,0.552,0.448,1,1,1s1-0.448,1-1v-7.5
				C113.628,46.999,113.18,46.551,112.628,46.551z"/>
		</g>
		<path class="st7" d="M88.191,33.465L88.191,33.465c-6.418-6.418-16.824-6.418-23.242,0L62,36.413l-2.948-2.948
			c-6.418-6.418-16.824-6.418-23.242,0l0,0c-6.418,6.418-6.418,16.824,0,23.242l2.948,2.948l19.591,19.591
			c2.016,2.016,5.286,2.016,7.302,0l19.591-19.591l2.948-2.948C94.609,50.289,94.609,39.883,88.191,33.465z"/>
	</g>
</g>
</svg>
