<?xml version="1.0" encoding="UTF-8"?>
<!-- Generator: Adobe Illustrator 24.0.0, SVG Export Plug-In . SVG Version: 6.00 Build 0)  -->
<svg enable-background="new 0 0 128 128" version="1.1" viewBox="0 0 128 128" xml:space="preserve" xmlns="http://www.w3.org/2000/svg">
<g transform="matrix(.85711 0 0 .88869 -6.1569 .44322)">
	<path d="m100.83 20.462h-24.647v-5.783c0-4.51-3.669-8.179-8.179-8.179s-8.179 3.669-8.179 8.179v5.783h-24.647c-2.757 0-5 2.243-5 5v95.038c0 2.757 2.243 5 5 5h65.652c2.757 0 5-2.243 5-5v-95.038c0-2.757-2.243-5-5-5z" fill="#e6e7e8"/>
	<g>
		<path d="m96.826 120.5h-65.652c-2.209 0-4-1.791-4-4v-95.038c0-2.209 1.791-4 4-4h65.652c2.209 0 4 1.791 4 4v95.038c0 2.209-1.791 4-4 4z" fill="#ffd7e5"/>
		<path d="m64 3.5c-3.965 0-7.179 3.214-7.179 7.179v17.684h14.357v-17.684c1e-3 -3.965-3.213-7.179-7.178-7.179z" fill="#0089ef"/>
		<circle cx="64" cy="11.455" r="2.61" fill="#fff"/>
		<circle cx="64" cy="65.981" r="23" fill="#6dc9f7"/>
		<path d="m64 45.981c12.198 0 22.173 9.497 22.946 21.5 0.032-0.496 0.054-0.995 0.054-1.5 0-12.703-10.297-23-23-23s-23 10.297-23 23c0 0.505 0.022 1.004 0.054 1.5 0.773-12.003 10.748-21.5 22.946-21.5z" fill="#fff"/>
		<g>
			<path d="m73.017 70.663h-2.772c-1.758 1.264-3.911 2.017-6.245 2.017s-4.487-0.753-6.245-2.017h-2.773c-4.418 0-8 3.582-8 8v2.791c4.208 4.624 10.274 7.526 17.018 7.526s12.81-2.903 17.017-7.527v-2.791c0-4.417-3.581-7.999-8-7.999z" fill="#fa759e"/>
			<ellipse cx="64" cy="62.034" rx="10.691" ry="10.646" fill="#fff"/>
		</g>
		<path d="m51.75 28.375h24.5c1.335 0 2.417 1.082 2.417 2.417s-1.082 2.417-2.417 2.417h-24.5c-1.335 0-2.417-1.082-2.417-2.417s1.082-2.417 2.417-2.417z" fill="#fff"/>
		<g fill="#3a2c60">
			<path d="m96.826 16.462h-24.647v-5.783c0-4.51-3.669-8.179-8.179-8.179s-8.179 3.669-8.179 8.179v5.783h-24.647c-2.757 0-5 2.243-5 5v22.538c0 0.553 0.448 1 1 1s1-0.447 1-1v-22.538c0-1.654 1.346-3 3-3h24.647v8.913h-4.071c-1.884 0-3.417 1.533-3.417 3.417s1.533 3.416 3.417 3.416h24.5c1.884 0 3.417-1.532 3.417-3.416s-1.533-3.417-3.417-3.417h-4.071v-8.913h24.647c1.654 0 3 1.346 3 3v95.038c0 1.654-1.346 3-3 3h-65.652c-1.654 0-3-1.346-3-3v-55.5c0-0.553-0.448-1-1-1s-1 0.447-1 1v55.5c0 2.757 2.243 5 5 5h65.652c2.757 0 5-2.243 5-5v-95.038c0-2.757-2.243-5-5-5zm-19.159 14.33c0 0.781-0.636 1.416-1.417 1.416h-24.5c-0.781 0-1.417-0.635-1.417-1.416s0.635-1.417 1.417-1.417h24.5c0.781 0 1.417 0.636 1.417 1.417zm-19.846-20.113c0-3.408 2.772-6.179 6.179-6.179s6.179 2.771 6.179 6.179v16.684h-12.358z"/>
			<path d="m27.174 57.5c0.552 0 1-0.447 1-1v-8.333c0-0.553-0.448-1-1-1s-1 0.447-1 1v8.333c0 0.553 0.448 1 1 1z"/>
			<path d="m64 7.845c-1.991 0-3.61 1.619-3.61 3.61s1.62 3.61 3.61 3.61c1.991 0 3.61-1.619 3.61-3.61s-1.619-3.61-3.61-3.61zm0 5.22c-0.888 0-1.61-0.723-1.61-1.61s0.722-1.61 1.61-1.61 1.61 0.723 1.61 1.61-0.722 1.61-1.61 1.61z"/>
			<path d="m86.5 96.667h-45c-0.552 0-1 0.447-1 1s0.448 1 1 1h45c0.553 0 1-0.447 1-1s-0.447-1-1-1z"/>
			<path d="m86.5 106.67h-45c-0.552 0-1 0.447-1 1s0.448 1 1 1h45c0.553 0 1-0.447 1-1s-0.447-1-1-1z"/>
			<path d="m64 41.98c-13.233 0-24 10.767-24 24s10.767 24 24 24 24-10.767 24-24-10.767-24-24-24zm0 2c12.131 0 22 9.869 22 22 0 4.687-1.478 9.033-3.986 12.606-0.042-4.927-4.059-8.924-8.996-8.924h-0.205c1.788-2.046 2.879-4.71 2.879-7.629 0-6.421-5.245-11.646-11.691-11.646-6.447 0-11.691 5.225-11.691 11.646 0 2.919 1.091 5.583 2.879 7.629h-0.205c-4.937 0-8.955 3.997-8.996 8.925-2.51-3.573-3.988-7.919-3.988-12.607 0-12.13 9.869-22 22-22zm-9.691 18.054c0-5.318 4.348-9.646 9.691-9.646s9.691 4.327 9.691 9.646-4.347 9.646-9.691 9.646-9.691-4.327-9.691-9.646zm9.691 25.946c-6.309 0-12.002-2.673-16.017-6.942v-2.376c0-3.859 3.14-7 7-7h2.451c1.873 1.271 4.133 2.017 6.566 2.017 2.432 0 4.692-0.745 6.565-2.017h2.452c3.859 0 7 3.141 7 7v2.375c-4.015 4.27-9.708 6.943-16.017 6.943z"/>
		</g>
	</g>
</g>
<g transform="matrix(.45312 0 0 .4547 58.753 68.879)">
	<path class="st1" d="m113.69 28.693-43.182-20.186c-2.867-1.341-6.153-1.341-9.019 0l-43.182 20.186c-4.02 1.878-6.525 6.21-6.235 10.78 0.803 12.563 3.757 36.317 14.518 54.253 13.626 22.712 30.422 28.887 37.012 30.488 0.784 0.189 1.591 0.284 2.398 0.284s1.614-0.095 2.399-0.285c6.588-1.601 23.384-7.775 37.01-30.488 10.76-17.934 13.713-41.689 14.517-54.254 0.289-4.567-2.217-8.899-6.236-10.778z" fill="#e6e7e8"/>
	<g>
		<path class="st6" d="m57.915 5.412-43.184 20.187c-3.671 1.716-5.926 5.628-5.66 9.81 0.751 11.75 3.597 35.836 14.376 53.802 13.596 22.664 30.479 28.595 36.388 30.031 1.426 0.344 2.902 0.344 4.327 0 5.909-1.435 22.792-7.367 36.388-30.031 10.78-17.967 13.625-42.054 14.376-53.802 0.266-4.183-1.99-8.095-5.66-9.81l-43.18-20.187c-2.599-1.215-5.574-1.215-8.171 0z" fill="#6dc9f7"/>
		<path class="st7" d="m58.721 16.58-34.661 16.203c-2.947 1.377-4.756 4.517-4.543 7.874 0.603 9.431 2.887 28.763 11.539 43.185 10.913 18.191 24.464 22.952 29.207 24.104 1.145 0.276 2.33 0.276 3.473 0 4.743-1.152 18.294-5.913 29.207-24.104 8.652-14.421 10.936-33.755 11.539-43.185 0.213-3.357-1.597-6.497-4.543-7.874l-34.66-16.203c-2.085-0.976-4.473-0.976-6.558 0z" fill="#d4fbff"/>
		<path class="st4" d="m24.06 35.783 34.661-16.203c2.085-0.976 4.473-0.976 6.558 0l34.661 16.203c2.432 1.137 4.07 3.482 4.454 6.153 0.033-0.442 0.063-0.873 0.089-1.279 0.213-3.357-1.597-6.497-4.543-7.874l-34.661-16.203c-2.086-0.976-4.474-0.976-6.558 0l-34.661 16.203c-2.947 1.377-4.756 4.517-4.543 7.874 0.026 0.406 0.056 0.837 0.089 1.278 0.384-2.671 2.021-5.015 4.454-6.152z" fill="#fff"/>
		<g fill="#3a2c60">
			<path class="st0" d="m28.214 20.297c0.142 0 0.285-0.03 0.423-0.094l9.354-4.373c0.5-0.234 0.716-0.829 0.482-1.329s-0.825-0.716-1.33-0.482l-9.354 4.373c-0.5 0.234-0.716 0.829-0.482 1.329 0.17 0.362 0.53 0.576 0.907 0.576z"/>
			<path class="st0" d="m109.69 24.693-43.182-20.186c-2.867-1.341-6.153-1.341-9.019 0l-15.924 7.444c-0.5 0.234-0.716 0.829-0.482 1.329 0.233 0.5 0.826 0.717 1.33 0.482l15.924-7.444c2.326-1.089 4.995-1.089 7.323 0l43.183 20.187c3.28 1.533 5.324 5.086 5.086 8.84-0.791 12.383-3.693 35.781-14.235 53.352-13.238 22.065-29.423 28.032-35.766 29.573-1.28 0.309-2.578 0.31-3.856 0-6.345-1.542-22.529-7.508-35.768-29.574-10.543-17.572-13.446-40.969-14.237-53.35-0.238-3.755 1.805-7.308 5.086-8.841l9.069-4.24c0.5-0.234 0.716-0.829 0.482-1.329s-0.825-0.716-1.33-0.482l-9.068 4.239c-4.02 1.878-6.525 6.21-6.235 10.78 0.803 12.563 3.757 36.317 14.518 54.253 13.626 22.712 30.422 28.887 37.012 30.488 0.784 0.189 1.591 0.284 2.398 0.284s1.614-0.095 2.399-0.285c6.588-1.601 23.384-7.775 37.01-30.488 10.76-17.934 13.713-41.689 14.517-54.254 0.29-4.567-2.216-8.899-6.235-10.778z"/>
			<path class="st0" d="m18.519 40.721c0.646 10.103 3.023 29.207 11.681 43.635 10.975 18.294 24.516 23.271 29.83 24.562 0.645 0.156 1.308 0.233 1.971 0.233 0.664 0 1.328-0.078 1.974-0.234 5.313-1.291 18.854-6.269 29.828-24.562 8.655-14.426 11.033-33.531 11.68-43.636 0.237-3.748-1.819-7.302-5.117-8.844l-34.663-16.201c-2.354-1.101-5.053-1.1-7.406 0l-34.661 16.203c-3.298 1.541-5.355 5.096-5.117 8.844zm40.626-23.235c0.907-0.424 1.881-0.637 2.855-0.637s1.948 0.212 2.855 0.637l34.661 16.203c2.56 1.197 4.155 3.972 3.969 6.905-0.635 9.923-2.96 28.67-11.398 42.734-10.586 17.646-23.518 22.416-28.584 23.647-0.997 0.241-2.008 0.241-3.003 0-5.068-1.231-17.999-6-28.586-23.647-8.439-14.065-10.765-32.812-11.399-42.733-0.187-2.934 1.408-5.709 3.969-6.905z"/>
			<path class="st0" d="m62 96.848c12.591 0 22.834-10.243 22.834-22.834v-8.419c0-0.552-0.447-1-1-1s-1 0.448-1 1v8.419c0 11.488-9.346 20.834-20.834 20.834s-20.834-9.346-20.834-20.834v-24.026c0-11.488 9.346-20.834 20.834-20.834s20.834 9.346 20.834 20.834v10.811c0 0.552 0.447 1 1 1s1-0.448 1-1v-10.811c0-12.591-10.243-22.834-22.834-22.834s-22.834 10.243-22.834 22.834v24.026c0 12.591 10.243 22.834 22.834 22.834z"/>
			<path class="st0" d="m44.681 57.541c-0.553 0-1 0.448-1 1v15.473c0 2.22 0.395 4.39 1.172 6.451 0.151 0.4 0.531 0.647 0.936 0.647 0.117 0 0.236-0.021 0.353-0.065 0.518-0.195 0.778-0.772 0.583-1.289-0.692-1.834-1.043-3.768-1.043-5.745v-15.472c-1e-3 -0.552-0.449-1-1.001-1z"/>
			<path class="st0" d="m62.001 92.334c10.101 0 18.318-8.218 18.318-18.32v-24.026c0-1.854-0.277-3.685-0.825-5.442-0.165-0.527-0.722-0.821-1.253-0.657-0.527 0.164-0.821 0.725-0.657 1.252 0.488 1.565 0.735 3.196 0.735 4.848v24.025c0 8.999-7.32 16.32-16.318 16.32-5.157 0-9.905-2.369-13.027-6.5-0.333-0.441-0.963-0.528-1.4-0.195-0.441 0.333-0.528 0.96-0.195 1.401 3.503 4.635 8.832 7.294 14.622 7.294z"/>
			<path class="st0" d="m62.001 33.668c5.65 0 10.823 2.87 13.836 7.677 0.294 0.467 0.91 0.609 1.379 0.316 0.468-0.293 0.609-0.91 0.316-1.378-3.382-5.394-9.188-8.614-15.531-8.614-10.102 0-18.32 8.218-18.32 18.32v3.662c0 0.552 0.447 1 1 1s1-0.448 1-1v-3.662c0-9 7.321-16.321 16.32-16.321z"/>
			<path class="st0" d="m53.127 39.419c-3.134 2.635-4.932 6.487-4.932 10.569v24.025c0 7.613 6.193 13.806 13.806 13.806 7.611 0 13.804-6.193 13.804-13.806v-0.988c0-0.552-0.447-1-1-1s-1 0.448-1 1v0.988c0 6.51-5.295 11.806-11.804 11.806-6.51 0-11.806-5.296-11.806-11.806v-24.025c0-3.49 1.538-6.784 4.219-9.038 0.423-0.355 0.478-0.986 0.122-1.409-0.356-0.422-0.986-0.477-1.409-0.122z"/>
			<path class="st0" d="m75.805 60.046c0-0.552-0.447-1-1-1s-1 0.448-1 1v8.183c0 0.552 0.447 1 1 1s1-0.448 1-1z"/>
			<path class="st0" d="m75.805 49.988c0-7.612-6.192-13.806-13.804-13.806-1.388 0-2.758 0.206-4.072 0.612-0.528 0.163-0.823 0.723-0.66 1.251 0.163 0.527 0.726 0.823 1.25 0.66 1.124-0.347 2.295-0.523 3.482-0.523 6.509 0 11.804 5.296 11.804 11.806v5.543c0 0.552 0.447 1 1 1s1-0.448 1-1z"/>
			<path class="st0" d="m52.709 74.014c0 3.249 1.657 6.209 4.434 7.918h1e-3c0.479 0.294 0.985 0.546 1.506 0.748 0.118 0.046 0.241 0.068 0.361 0.068 0.4 0 0.778-0.243 0.933-0.639 0.199-0.515-0.057-1.094-0.571-1.293-0.407-0.158-0.804-0.356-1.181-0.587-2.181-1.342-3.482-3.666-3.482-6.215v-19.332-1e-3 -1e-3 -1.5c0-0.552-0.447-1-1-1s-1 0.448-1 1v1.5 1e-3 1e-3 19.332z"/>
			<path class="st0" d="m64.688 82.858c0.107 0 0.218-0.018 0.325-0.055 0.532-0.183 1.049-0.416 1.535-0.69l1e-3 -1e-3c2.925-1.648 4.741-4.752 4.741-8.099v-9.003c0-0.552-0.447-1-1-1s-1 0.448-1 1v9.003c0 2.628-1.428 5.064-3.726 6.358h-1e-3c-0.38 0.215-0.783 0.396-1.201 0.54-0.522 0.18-0.8 0.749-0.62 1.271 0.142 0.416 0.53 0.676 0.946 0.676z"/>
			<path class="st0" d="m71.29 49.988c0-5.124-4.167-9.292-9.289-9.292-4.069 0-7.63 2.608-8.86 6.49v1e-3c-0.17 0.536-0.291 1.089-0.359 1.644-0.068 0.548 0.321 1.047 0.869 1.115 0.042 5e-3 0.083 8e-3 0.124 8e-3 0.498 0 0.929-0.371 0.991-0.877 0.054-0.434 0.148-0.867 0.281-1.286 0.966-3.047 3.761-5.094 6.954-5.094 4.02 0 7.289 3.271 7.289 7.292v9.307 2e-3 2e-3 1.5c0 0.552 0.447 1 1 1s1-0.448 1-1v-1.5-2e-3 -2e-3z"/>
			<path class="st0" d="m66.776 74.014v-13.969c0-0.552-0.447-1-1-1s-1 0.448-1 1v13.968c0 1.531-1.245 2.777-2.775 2.777-1.531 0-2.777-1.246-2.777-2.777v-1.646c0-0.552-0.447-1-1-1s-1 0.448-1 1v1.646c0 2.634 2.144 4.777 4.777 4.777s4.775-2.143 4.775-4.776z"/>
			<path class="st0" d="m65.776 55.685c0.553 0 1-0.448 1-1v-4.697c0-2.634-2.143-4.777-4.775-4.777-2.634 0-4.777 2.143-4.777 4.777v15.607c0 0.552 0.447 1 1 1s1-0.448 1-1v-15.607c0-1.531 1.246-2.777 2.777-2.777 1.53 0 2.775 1.246 2.775 2.777v4.697c0 0.553 0.448 1 1 1z"/>
			<path class="st0" d="m62 62.502c-0.553 0-1 0.448-1 1v8.154c0 0.552 0.447 1 1 1s1-0.448 1-1v-8.154c0-0.552-0.447-1-1-1z"/>
			<path class="st0" d="m63 51.247c0-0.552-0.447-1-1-1s-1 0.448-1 1v5.725c0 0.552 0.447 1 1 1s1-0.448 1-1z"/>
		</g>
	</g>
</g></svg>
