<?xml version="1.0" encoding="utf-8"?>
<!-- Generator: Adobe Illustrator 24.0.0, SVG Export Plug-In . SVG Version: 6.00 Build 0)  -->
<svg version="1.1" id="Layer_1" xmlns="http://www.w3.org/2000/svg" xmlns:xlink="http://www.w3.org/1999/xlink" x="0px" y="0px"
	 viewBox="0 0 128 128" enable-background="new 0 0 128 128" xml:space="preserve">
<g>
	<path fill="#E6E7E8" d="M122.4,62.989l-14.254-6.226V31.571c0-2.836-2.307-5.143-5.143-5.143H84V24.7
		c0-0.421-0.264-0.796-0.659-0.94c-0.395-0.144-0.837-0.024-1.108,0.298l-1.981,2.37H59.07v-7.788
		c1.922-1.176,3.211-3.289,3.211-5.702c0-3.688-3-6.687-6.688-6.687s-6.688,3-6.688,6.687c0,2.364,1.237,4.441,3.094,5.631v7.86
		H32.996c-2.836,0-5.143,2.307-5.143,5.143v25.193L13.6,62.989c-0.364,0.159-0.6,0.519-0.6,0.917v60.757c0,0.552,0.447,1,1,1h108
		c0.553,0,1-0.448,1-1V63.906C123,63.508,122.765,63.148,122.4,62.989z"/>
	<g>
		<g>
			<g>
				<g>
					<g>
						<polygon fill="#6DC9F7" points="64,36.32 10,59.906 10,120.663 118,120.663 118,59.906 						"/>
						<path fill="#D4FBFF" d="M99.004,23.428H28.996c-2.288,0-4.143,1.855-4.143,4.143v42.674l28.789,20.04v0h20.716v0
							l28.789-20.039V27.571C103.147,25.283,101.292,23.428,99.004,23.428z"/>
						<path fill="#FFFFFF" d="M99.003,23.428H28.996c-2.288,0-4.143,1.855-4.143,4.143v3c0-2.288,1.855-4.143,4.143-4.143h70.007
							c2.288,0,4.143,1.855,4.143,4.143v-3C103.147,25.283,101.292,23.428,99.003,23.428z"/>
						<polygon fill="#0089EF" points="118,120.663 74.358,90.285 53.642,90.285 10,120.663 						"/>
						<polygon fill="#0089EF" points="10,59.906 10,120.663 53.642,90.284 						"/>
						<polygon fill="#0089EF" points="118,59.906 118,120.663 74.358,90.284 						"/>
					</g>
				</g>
			</g>
		</g>
		<g>
			<path fill="#FA759E" d="M93.864,71.5H34.136c-2.209,0-4-1.791-4-4V58c0-2.209,1.791-4,4-4h59.729c2.209,0,4,1.791,4,4v9.5
				C97.864,69.71,96.074,71.5,93.864,71.5z"/>
			<g>
				<path fill="#FFFFFF" d="M47.142,59.972c-0.277-0.479-0.89-0.643-1.366-0.366l-2.446,1.412v-2.825c0-0.552-0.447-1-1-1
					s-1,0.448-1,1v2.825l-2.446-1.412c-0.478-0.277-1.09-0.113-1.366,0.366c-0.276,0.478-0.112,1.09,0.366,1.366l2.446,1.412
					l-2.446,1.412c-0.479,0.276-0.643,0.888-0.366,1.366c0.186,0.321,0.521,0.5,0.867,0.5c0.17,0,0.342-0.043,0.499-0.134
					l2.446-1.412v2.825c0,0.552,0.447,1,1,1s1-0.448,1-1v-2.825l2.446,1.412c0.157,0.091,0.329,0.134,0.499,0.134
					c0.346,0,0.682-0.179,0.867-0.5c0.276-0.478,0.112-1.09-0.366-1.366l-2.446-1.412l2.446-1.412
					C47.254,61.062,47.418,60.45,47.142,59.972z"/>
				<path fill="#FFFFFF" d="M61.589,59.972c-0.277-0.479-0.89-0.643-1.366-0.366l-2.446,1.412v-2.825c0-0.552-0.447-1-1-1
					s-1,0.448-1,1v2.825l-2.446-1.412c-0.479-0.277-1.09-0.113-1.366,0.366c-0.276,0.478-0.112,1.09,0.366,1.366l2.446,1.412
					l-2.446,1.412c-0.479,0.276-0.643,0.888-0.366,1.366c0.186,0.321,0.521,0.5,0.867,0.5c0.17,0,0.342-0.043,0.499-0.134
					l2.446-1.412v2.825c0,0.552,0.447,1,1,1s1-0.448,1-1v-2.825l2.446,1.412c0.157,0.091,0.329,0.134,0.499,0.134
					c0.346,0,0.682-0.179,0.867-0.5c0.276-0.478,0.112-1.09-0.366-1.366l-2.446-1.412l2.446-1.412
					C61.701,61.062,61.865,60.45,61.589,59.972z"/>
				<path fill="#FFFFFF" d="M76.036,59.972c-0.277-0.479-0.89-0.643-1.366-0.366l-2.446,1.412v-2.825c0-0.552-0.447-1-1-1
					s-1,0.448-1,1v2.825l-2.446-1.412c-0.478-0.277-1.09-0.113-1.366,0.366c-0.276,0.478-0.112,1.09,0.366,1.366l2.446,1.412
					l-2.446,1.412c-0.479,0.276-0.643,0.888-0.366,1.366c0.186,0.321,0.521,0.5,0.867,0.5c0.17,0,0.342-0.043,0.499-0.134
					l2.446-1.412v2.825c0,0.552,0.447,1,1,1s1-0.448,1-1v-2.825l2.446,1.412c0.157,0.091,0.329,0.134,0.499,0.134
					c0.346,0,0.682-0.179,0.867-0.5c0.276-0.478,0.112-1.09-0.366-1.366l-2.446-1.412l2.446-1.412
					C76.148,61.062,76.312,60.45,76.036,59.972z"/>
				<path fill="#FFFFFF" d="M90.117,64.163l-2.446-1.412l2.446-1.412c0.479-0.276,0.643-0.888,0.366-1.366
					c-0.277-0.479-0.891-0.643-1.366-0.366l-2.446,1.412v-2.825c0-0.552-0.447-1-1-1s-1,0.448-1,1v2.825l-2.446-1.412
					c-0.479-0.277-1.09-0.113-1.366,0.366c-0.276,0.478-0.112,1.09,0.366,1.366l2.446,1.412l-2.446,1.412
					c-0.479,0.276-0.643,0.888-0.366,1.366c0.186,0.321,0.521,0.5,0.867,0.5c0.17,0,0.342-0.043,0.499-0.134l2.446-1.412v2.825
					c0,0.552,0.447,1,1,1s1-0.448,1-1v-2.825l2.446,1.412c0.157,0.091,0.329,0.134,0.499,0.134c0.346,0,0.682-0.179,0.867-0.5
					C90.76,65.051,90.596,64.439,90.117,64.163z"/>
			</g>
		</g>
		<path fill="#FA759E" d="M68.542,33.207h5.387v3.078c0,5.475-4.454,9.93-9.929,9.93s-9.929-4.455-9.929-9.93V14.051
			c-0.75,0.364-1.588,0.574-2.477,0.574c-0.935,0-1.815-0.23-2.594-0.63v22.289c0,8.271,6.729,15.001,15,15.001s15-6.729,15-15.001
			V20.7L68.542,33.207z"/>
		<g>
			<circle fill="#FA759E" cx="51.594" cy="8.938" r="5.688"/>
			<g>
				<path fill="#3A2C60" d="M118.4,58.989l-14.254-6.226V27.571c0-2.836-2.307-5.143-5.143-5.143H80V20.7
					c0-0.421-0.264-0.796-0.659-0.94c-0.395-0.144-0.837-0.024-1.108,0.298l-1.981,2.37H55.07v-7.788
					c1.922-1.176,3.211-3.289,3.211-5.702c0-3.688-3-6.688-6.688-6.688s-6.688,3-6.688,6.688c0,2.364,1.237,4.441,3.094,5.631v7.86
					H28.996c-2.836,0-5.143,2.307-5.143,5.143v4.554c0,0.552,0.447,1,1,1s1-0.448,1-1v-4.554c0-1.733,1.41-3.143,3.143-3.143H48
					v11.856c0,8.823,7.178,16,16,16s16-7.178,16-16V24.428h19.004c1.732,0,3.143,1.41,3.143,3.143v42.152L74.044,89.285H53.956
					L25.854,69.723V47.25c0-0.552-0.447-1-1-1s-1,0.448-1,1v5.513L9.6,58.989C9.235,59.148,9,59.508,9,59.906v60.757
					c0,0.552,0.447,1,1,1h108c0.553,0,1-0.448,1-1V59.906C119,59.508,118.765,59.148,118.4,58.989z M74.579,24.428l-6.804,8.137
					c-0.249,0.298-0.303,0.713-0.139,1.065c0.165,0.352,0.518,0.577,0.906,0.577h4.388v2.078c0,4.924-4.006,8.93-8.93,8.93
					s-8.93-4.006-8.93-8.93V24.428H74.579z M51.594,4.25c2.585,0,4.688,2.103,4.688,4.688s-2.103,4.688-4.688,4.688
					s-4.688-2.103-4.688-4.688S49.009,4.25,51.594,4.25z M78,36.284c0,7.72-6.28,14-14,14s-14-6.281-14-14V15.425
					c0.512,0.126,1.044,0.2,1.594,0.2c0.508,0,1.001-0.062,1.477-0.17v20.829c0,6.027,4.903,10.93,10.93,10.93
					s10.93-4.903,10.93-10.93v-3.078c0-0.552-0.447-1-1-1h-3.248L78,23.455V36.284z M51.892,90.284L11,118.749V61.82L51.892,90.284z
					 M53.956,91.285h20.087l40.769,28.378H13.187L53.956,91.285z M76.108,90.284L117,61.82v56.928L76.108,90.284z M104.146,54.946
					l11.815,5.16l-11.815,8.224V54.946z M23.854,68.33l-11.815-8.224l11.815-5.16V68.33z"/>
				<path fill="#3A2C60" d="M24.854,44.25c0.553,0,1-0.448,1-1v-6.93c0-0.552-0.447-1-1-1s-1,0.448-1,1v6.93
					C23.854,43.802,24.301,44.25,24.854,44.25z"/>
			</g>
		</g>
		<circle fill="#FFD7E5" cx="51.594" cy="8.938" r="2.5"/>
	</g>
</g>
</svg>
