<?xml version="1.0" encoding="utf-8"?>
<!-- Generator: Adobe Illustrator 24.0.0, SVG Export Plug-In . SVG Version: 6.00 Build 0)  -->
<svg version="1.1" id="Layer_1" xmlns="http://www.w3.org/2000/svg" xmlns:xlink="http://www.w3.org/1999/xlink" x="0px" y="0px"
	 viewBox="0 0 128 128" enable-background="new 0 0 128 128" xml:space="preserve">
<g>
	<g>
		<path fill="#E6E7E8" d="M95.482,71.326c8.154-13.591,10.393-31.582,11.001-41.096c0.225-3.551-1.725-6.918-4.851-8.38L69.01,6.6
			c-2.23-1.044-4.789-1.043-7.02,0L29.369,21.85c-3.127,1.461-5.076,4.829-4.852,8.381c0.608,9.513,2.846,27.502,11.001,41.095
			C45.859,88.563,58.622,93.253,63.631,94.47c0.612,0.147,1.24,0.221,1.869,0.221c0.63,0,1.259-0.074,1.871-0.222
			C72.378,93.253,85.141,88.563,95.482,71.326z"/>
		<path fill="#E6E7E8" d="M123.188,49.514c-1.067-1.188-2.597-1.879-4.198-1.896c-0.019,0-0.036,0-0.055,0
			c-2.813,0-5.249,2.181-5.679,5.096l-2.615,17.707c-1.588-0.202-3.186,0.305-4.37,1.425l-8.58,8.102
			c-2.117,2-4.506,3.684-7.1,5.007l-2.558,1.305c-2.516,1.278-4.657,2.902-6.365,4.826c-5.685,6.381-4.204,16.178-4.009,17.317
			v13.779c0,1.654,1.346,3,3,3h16.584c1.654,0,3-1.346,3-3v-10.85c0-1.564,0.745-3.058,1.993-3.995
			c3.628-2.721,10.281-7.821,14.082-11.41c3.413-3.223,4.543-7.569,4.891-10.651c0.286-2.584,3.411-31.379,3.412-31.39
			C124.777,52.297,124.254,50.704,123.188,49.514z"/>
		<path fill="#E6E7E8" d="M42.968,86.262l-2.559-1.306c-2.594-1.323-4.982-3.008-7.1-5.007l-8.58-8.102
			c-1.187-1.12-2.781-1.626-4.37-1.425l-2.615-17.707c-0.433-2.934-2.885-5.104-5.733-5.096c-1.602,0.016-3.131,0.707-4.198,1.896
			c-1.066,1.189-1.59,2.783-1.433,4.383c0,0,3.125,28.795,3.411,31.381c0.348,3.08,1.478,7.426,4.891,10.649
			c3.801,3.589,10.454,8.689,14.081,11.41c1.249,0.937,1.994,2.431,1.994,3.995v10.85c0,1.654,1.346,3,3,3h16.584
			c1.654,0,3-1.346,3-3v-13.779c0.195-1.139,1.676-10.936-4.008-17.315C47.624,89.162,45.483,87.538,42.968,86.262z"/>
	</g>
	<g>
		<g>
			<path fill="#0089EF" d="M58.414,3.506l-32.622,15.25c-2.774,1.296-4.476,4.251-4.276,7.411
				c0.567,8.876,2.718,27.072,10.86,40.644c10.271,17.121,23.025,21.602,27.489,22.687c1.077,0.26,2.193,0.26,3.269,0
				c4.464-1.084,17.218-5.565,27.489-22.687c8.143-13.573,10.293-31.769,10.86-40.644c0.201-3.16-1.503-6.115-4.276-7.411
				L64.586,3.506C62.623,2.588,60.376,2.588,58.414,3.506L58.414,3.506z"/>
			<g>
				<path fill="#D4FBFF" d="M61.5,10.372c-0.87,0-1.739,0.19-2.549,0.569L32.002,23.538c-2.291,1.071-3.698,3.512-3.532,6.122
					c0.253,3.96,0.89,10.166,2.479,16.803H61.5V10.372z"/>
				<path fill="#6DC9F7" d="M92.051,46.463c1.59-6.637,2.226-12.843,2.479-16.803c0.166-2.61-1.242-5.052-3.532-6.122L64.05,10.941
					c-0.811-0.379-1.68-0.569-2.55-0.569v36.091H92.051z"/>
				<path fill="#6DC9F7" d="M30.949,46.463c1.354,5.652,3.399,11.616,6.492,16.773C45.926,77.38,56.462,81.081,60.15,81.977
					c0.445,0.107,0.898,0.161,1.35,0.161V46.463H30.949z"/>
				<path fill="#D4FBFF" d="M61.5,46.463v35.675c0.453,0,0.906-0.054,1.35-0.161c3.688-0.896,14.223-4.598,22.708-18.741
					c3.094-5.157,5.139-11.121,6.493-16.773H61.5z"/>
			</g>
			<g>
				<circle fill="#0089EF" cx="61.5" cy="46.255" r="13.976"/>
				<path fill="#FFFFFF" d="M59.579,54.38c-0.545,0-1.071-0.216-1.459-0.604l-5.44-5.439c-0.806-0.806-0.806-2.112,0-2.918
					c0.805-0.806,2.112-0.806,2.918,0l3.75,3.749l6.779-9.126c0.68-0.915,1.971-1.105,2.887-0.426
					c0.915,0.679,1.106,1.972,0.426,2.887l-8.204,11.045c-0.357,0.481-0.907,0.784-1.505,0.827
					C59.679,54.378,59.629,54.38,59.579,54.38z"/>
			</g>
		</g>
		<g>
			<g>
				<g>
					<g>
						<path fill="#FFD7E5" d="M114.979,44.619c-2.395-0.024-4.384,1.872-4.734,4.242l-2.773,18.781
							c-1.515-0.539-3.266-0.248-4.515,0.932l-8.579,8.102c-2.185,2.064-4.654,3.805-7.332,5.171l-2.559,1.306
							c-2.284,1.16-4.372,2.686-6.071,4.599c-5.656,6.349-3.756,16.564-3.756,16.564v13.867c0,1.105,0.895,2,2,2h16.585
							c1.105,0,2-0.895,2-2v-10.85c0-1.887,0.884-3.663,2.394-4.795c3.556-2.667,10.22-7.772,13.995-11.337
							c3.228-3.048,4.267-7.226,4.583-10.034c0.286-2.585,3.411-31.377,3.411-31.377C119.895,47.05,117.763,44.647,114.979,44.619z"
							/>
						<g>
							<path fill="#FFFFFF" d="M93.244,117.182H76.659c-1.105,0-2-0.895-2-2v3c0,1.105,0.895,2,2,2h16.585c1.105,0,2-0.895,2-2v-3
								C95.244,116.287,94.348,117.182,93.244,117.182z"/>
						</g>
					</g>
				</g>
				<g>
					<g>
						<path fill="#FFD7E5" d="M8.021,44.619c2.395-0.024,4.384,1.872,4.734,4.242l2.773,18.781c1.515-0.539,3.266-0.248,4.515,0.932
							l8.579,8.102c2.185,2.064,4.654,3.805,7.332,5.171l2.559,1.306c2.284,1.16,4.372,2.686,6.071,4.599
							c5.656,6.349,3.756,16.564,3.756,16.564v13.867c0,1.105-0.895,2-2,2H29.757c-1.105,0-2-0.895-2-2v-10.85
							c0-1.887-0.884-3.663-2.393-4.795c-3.556-2.667-10.22-7.772-13.995-11.337c-3.228-3.048-4.267-7.226-4.583-10.034
							C6.499,78.582,3.375,49.79,3.375,49.79C3.106,47.05,5.237,44.647,8.021,44.619z"/>
						<g>
							<path fill="#FFFFFF" d="M46.341,117.182H29.757c-1.105,0-2-0.895-2-2v3c0,1.105,0.895,2,2,2h16.585c1.105,0,2-0.895,2-2v-3
								C48.341,116.287,47.446,117.182,46.341,117.182z"/>
						</g>
						<g>
							<path fill="#3A2C60" d="M91.481,67.326c8.154-13.591,10.393-31.581,11.001-41.096c0.225-3.551-1.724-6.918-4.85-8.38
								L65.011,2.601c-2.232-1.044-4.79-1.044-7.021,0L25.369,17.85c-3.127,1.46-5.076,4.829-4.852,8.381
								c0.608,9.513,2.846,27.501,11.002,41.095C41.86,84.563,54.623,89.253,59.632,90.47c0.611,0.147,1.24,0.222,1.869,0.222
								s1.258-0.074,1.87-0.222C68.378,89.253,81.141,84.563,91.481,67.326z M62.899,88.525c-0.929,0.226-1.87,0.224-2.797,0
								c-4.764-1.157-16.916-5.639-26.868-22.229c-7.938-13.23-10.124-30.861-10.721-40.192c-0.174-2.738,1.314-5.327,3.702-6.442
								l32.622-15.25c0.846-0.396,1.754-0.594,2.662-0.594s1.816,0.198,2.663,0.594l32.622,15.25
								c2.388,1.116,3.875,3.705,3.701,6.441c-0.597,9.333-2.782,26.965-10.72,40.193C79.813,82.886,67.661,87.369,62.899,88.525z"
								/>
							<path fill="#3A2C60" d="M95.528,29.724c0.191-3.004-1.459-5.854-4.106-7.092L64.474,10.035
								c-0.94-0.44-1.94-0.663-2.972-0.663c0,0,0,0,0,0c-0.002,0-0.003,0-0.005,0c-1.03,0-2.029,0.223-2.97,0.663L31.578,22.632
								c-2.647,1.237-4.298,4.087-4.106,7.092c0.259,4.053,0.903,10.287,2.505,16.972c1.598,6.671,3.821,12.41,6.607,17.055
								c8.577,14.297,19.173,18.188,23.331,19.198c0.519,0.125,1.052,0.189,1.584,0.189c0,0,0,0,0,0c0.002,0,0.005,0,0.007,0
								c0.53,0,1.062-0.063,1.581-0.189c4.157-1.01,14.753-4.901,23.329-19.198c2.785-4.641,5.008-10.378,6.608-17.055
								C94.625,40.01,95.27,33.776,95.528,29.724z M90.574,24.444c1.909,0.892,3.098,2.963,2.958,5.153
								c-0.244,3.818-0.837,9.61-2.273,15.867H76.435C76.037,37.908,70.028,31.831,62.5,31.33V11.473
								c0.386,0.079,0.762,0.204,1.126,0.374L90.574,24.444z M61.5,59.231c-7.154,0-12.976-5.821-12.976-12.976
								S54.346,33.28,61.5,33.28s12.976,5.821,12.976,12.976S68.654,59.231,61.5,59.231z M32.426,24.444l26.948-12.597
								c0.364-0.17,0.74-0.295,1.126-0.375V31.33c-7.528,0.501-13.537,6.577-13.935,14.133H31.742
								c-1.438-6.255-2.03-12.048-2.274-15.866C29.328,27.407,30.517,25.336,32.426,24.444z M38.299,62.722
								c-2.51-4.183-4.55-9.312-6.072-15.258h14.359C47.178,54.826,53.11,60.688,60.5,61.18v19.851
								c-0.038-0.008-0.076-0.017-0.113-0.026C56.474,80.055,46.488,76.372,38.299,62.722z M84.701,62.722
								c-8.188,13.649-18.174,17.333-22.086,18.284c-0.038,0.009-0.077,0.018-0.115,0.026V61.18
								c7.39-0.492,13.322-6.354,13.914-13.717h14.359C89.25,53.414,87.209,58.542,84.701,62.722z"/>
							<path fill="#3A2C60" d="M70.813,40.825c-0.119-0.81-0.547-1.524-1.204-2.013c-1.355-1.005-3.279-0.722-4.285,0.633
								l-6.089,8.196l-2.931-2.931c-1.158-1.157-3.178-1.156-4.332,0.001c-1.194,1.194-1.194,3.137,0,4.332l5.439,5.438
								c0.57,0.57,1.359,0.897,2.166,0.897c0.077,0,0.154-0.002,0.225-0.008c0.89-0.065,1.705-0.513,2.234-1.228l8.205-11.045
								C70.73,42.442,70.934,41.634,70.813,40.825z M68.637,41.906l-8.206,11.046c-0.184,0.248-0.466,0.402-0.779,0.425
								l-0.073,0.002c-0.279,0-0.554-0.113-0.751-0.311l-5.44-5.439c-0.414-0.415-0.414-1.089,0.001-1.504
								c0.2-0.201,0.467-0.311,0.751-0.311s0.551,0.11,0.752,0.311l3.75,3.749c0.206,0.206,0.491,0.317,0.78,0.29
								c0.29-0.021,0.557-0.167,0.729-0.401l6.779-9.126c0.349-0.471,1.017-0.568,1.488-0.219c0.228,0.169,0.376,0.417,0.417,0.698
								C68.877,41.397,68.807,41.678,68.637,41.906z"/>
							<path fill="#3A2C60" d="M119.187,45.515c-1.066-1.188-2.597-1.879-4.198-1.896c-0.019,0-0.036,0-0.055,0
								c-2.813,0-5.249,2.181-5.679,5.096l-2.615,17.707c-1.59-0.202-3.186,0.305-4.37,1.425l-8.58,8.102
								c-2.117,2-4.506,3.684-7.1,5.007l-2.558,1.305c-2.516,1.278-4.657,2.902-6.365,4.826c-5.914,6.639-4.073,16.975-3.992,17.412
								c0.102,0.543,0.622,0.896,1.165,0.8c0.543-0.101,0.901-0.622,0.802-1.165c-0.019-0.098-1.736-9.818,3.521-15.718
								c1.541-1.736,3.484-3.207,5.777-4.372l2.559-1.306c2.764-1.409,5.309-3.204,7.564-5.334l8.58-8.102
								c0.93-0.877,2.269-1.153,3.493-0.717c0,0,0.001,0,0.001,0c0.506,0.182,0.953,0.474,1.326,0.869
								c0.627,0.665,0.958,1.534,0.933,2.447c-0.026,0.913-0.407,1.762-1.071,2.389L93.023,88.74
								c-0.401,0.379-0.42,1.012-0.04,1.414c0.196,0.208,0.461,0.313,0.727,0.313c0.246,0,0.493-0.09,0.687-0.273l15.302-14.451
								c1.053-0.994,1.655-2.339,1.697-3.786c0.041-1.447-0.483-2.824-1.478-3.876c-0.39-0.414-0.85-0.758-1.348-1.03l2.665-18.044
								c0.286-1.938,1.873-3.388,3.699-3.388c0.012,0,0.023,0,0.035,0c1.058,0.011,2.027,0.448,2.73,1.232
								c0.703,0.784,1.034,1.793,0.933,2.831c0,0-3.125,28.791-3.411,31.374c-0.309,2.746-1.301,6.609-4.275,9.418
								c-3.731,3.523-10.315,8.57-13.908,11.265c-1.75,1.312-2.794,3.404-2.794,5.595v10.85c0,0.551-0.448,1-1,1H76.659
								c-0.552,0-1-0.449-1-1v-2.115c0-0.552-0.447-1-1-1s-1,0.448-1,1v2.115c0,1.654,1.346,3,3,3h16.584c1.654,0,3-1.346,3-3
								v-10.85c0-1.565,0.745-3.059,1.993-3.995c3.627-2.72,10.279-7.819,14.082-11.41c3.415-3.225,4.544-7.571,4.891-10.651
								c0.286-2.584,3.411-31.379,3.412-31.39C120.777,48.297,120.255,46.704,119.187,45.515z"/>
							<path fill="#3A2C60" d="M74.659,113.443c0.553,0,1-0.448,1-1v-4.375c0-0.552-0.447-1-1-1s-1,0.448-1,1v4.375
								C73.659,112.995,74.106,113.443,74.659,113.443z"/>
							<path fill="#3A2C60" d="M38.968,82.262l-2.559-1.306c-2.594-1.323-4.982-3.008-7.1-5.007l-8.579-8.102
								c-1.187-1.12-2.784-1.626-4.371-1.425l-2.615-17.707c-0.432-2.934-2.901-5.098-5.733-5.096H8.01
								c-1.601,0.017-3.131,0.708-4.197,1.897c-1.066,1.189-1.589,2.783-1.432,4.382c0,0,3.124,28.795,3.41,31.381
								c0.348,3.08,1.478,7.426,4.891,10.649c3.803,3.591,10.455,8.69,14.082,11.411c1.248,0.936,1.993,2.429,1.993,3.995v10.85
								c0,1.654,1.346,3,3,3h16.584c1.654,0,3-1.346,3-3v-13.779c0.195-1.139,1.676-10.936-4.008-17.315
								C43.624,85.163,41.482,83.539,38.968,82.262z M47.357,104.133c-0.011,0.06-0.017,0.122-0.017,0.182v13.867
								c0,0.551-0.448,1-1,1H29.757c-0.552,0-1-0.449-1-1v-10.85c0-2.192-1.044-4.284-2.794-5.595
								c-3.593-2.695-10.177-7.741-13.908-11.265c-2.973-2.807-3.966-6.671-4.275-9.417C7.493,78.473,4.37,49.692,4.37,49.691
								c-0.103-1.047,0.228-2.056,0.931-2.84c0.703-0.784,1.673-1.222,2.73-1.232c0.012,0,0.023,0,0.034,0
								c1.827,0,3.414,1.45,3.7,3.388l2.665,18.044c-0.498,0.272-0.958,0.616-1.347,1.03c-0.995,1.053-1.52,2.43-1.479,3.877
								c0.042,1.447,0.645,2.792,1.697,3.786l15.302,14.451c0.193,0.183,0.44,0.273,0.687,0.273c0.266,0,0.53-0.105,0.727-0.313
								c0.38-0.401,0.361-1.034-0.04-1.414L14.675,74.29c-0.664-0.627-1.045-1.476-1.071-2.389
								c-0.025-0.913,0.306-1.782,0.934-2.447c0.372-0.395,0.818-0.687,1.325-0.869c0,0,0.001,0,0.001,0
								c1.225-0.436,2.564-0.161,3.494,0.717l8.579,8.102c2.256,2.13,4.801,3.925,7.564,5.334l2.56,1.307
								c2.292,1.164,4.235,2.635,5.777,4.373C49.094,94.315,47.376,104.036,47.357,104.133z"/>
						</g>
					</g>
				</g>
			</g>
		</g>
	</g>
</g>
</svg>
