<?xml version="1.0" encoding="utf-8"?>
<!-- Generator: Adobe Illustrator 24.0.0, SVG Export Plug-In . SVG Version: 6.00 Build 0)  -->
<svg version="1.1" id="Layer_1" xmlns="http://www.w3.org/2000/svg" xmlns:xlink="http://www.w3.org/1999/xlink" x="0px" y="0px"
	 viewBox="0 0 128 128" enable-background="new 0 0 128 128" xml:space="preserve">
<g>
	<path fill="#E6E7E8" d="M113.077,9.625H22.923c-4.962,0-9,4.038-9,9v90.154c0,4.962,4.038,9,9,9h4.143v5.846c0,1.654,1.346,3,3,3
		h19.252c1.654,0,3-1.346,3-3v-5.846h31.363v5.846c0,1.654,1.346,3,3,3h19.252c1.654,0,3-1.346,3-3v-5.846h4.144
		c4.963,0,9-4.038,9-9V18.625C122.077,13.663,118.04,9.625,113.077,9.625z"/>
	<g>
		<path fill="#0089EF" d="M109.077,112.779H18.923c-4.418,0-8-3.582-8-8V14.625c0-4.418,3.582-8,8-8h90.154c4.418,0,8,3.582,8,8
			v90.154C117.077,109.197,113.495,112.779,109.077,112.779z"/>
		<path fill="#6DC9F7" d="M98.967,102.669H29.033c-4.418,0-8-3.582-8-8V24.735c0-4.418,3.582-8,8-8h69.934c4.418,0,8,3.582,8,8
			v69.934C106.967,99.087,103.385,102.669,98.967,102.669z"/>
		<path fill="#FFFFFF" d="M98.967,16.735H29.033c-4.418,0-8,3.582-8,8v3c0-4.418,3.582-8,8-8h69.934c4.418,0,8,3.582,8,8v-3
			C106.967,20.317,103.385,16.735,98.967,16.735z"/>
		<g>
			<path fill="#6DC9F7" d="M22.571,47.822h-3.076c-1.105,0-2-0.895-2-2V29.603c0-1.105,0.895-2,2-2h3.076c1.105,0,2,0.895,2,2
				v16.219C24.571,46.927,23.676,47.822,22.571,47.822z"/>
			<path fill="#6DC9F7" d="M22.571,92.306h-3.076c-1.105,0-2-0.895-2-2V74.087c0-1.105,0.895-2,2-2h3.076c1.105,0,2,0.895,2,2
				v16.219C24.571,91.411,23.676,92.306,22.571,92.306z"/>
		</g>
		<g>
			<path fill="#0089EF" d="M47.318,112.779H24.066v6.846c0,1.105,0.895,2,2,2h19.252c1.105,0,2-0.895,2-2V112.779z"/>
			<path fill="#0089EF" d="M103.934,112.779H80.682v6.846c0,1.105,0.895,2,2,2h19.252c1.105,0,2-0.895,2-2V112.779z"/>
		</g>
		<g>
			<circle fill="#D4FBFF" cx="64" cy="59.955" r="18.703"/>
			<circle fill="#D4FBFF" cx="64" cy="59.955" r="10.615"/>
			<circle fill="#6DC9F7" cx="64" cy="59.955" r="5.055"/>
		</g>
		<g>
			<path fill="#D4FBFF" d="M95.377,83.376h-0.073c-1.841,0-3.333-1.492-3.333-3.333V39.867c0-1.841,1.492-3.333,3.333-3.333h0.073
				c1.841,0,3.333,1.492,3.333,3.333v40.176C98.711,81.884,97.218,83.376,95.377,83.376z"/>
			<g>
				<path fill="#3A2C60" d="M109.077,5.625H18.923c-4.962,0-9,4.038-9,9v90.154c0,4.962,4.038,9,9,9h4.143v5.846
					c0,1.654,1.346,3,3,3h19.252c1.654,0,3-1.346,3-3v-5.846h31.363v5.846c0,1.654,1.346,3,3,3h19.252c1.654,0,3-1.346,3-3v-5.846
					h4.144c4.963,0,9-4.038,9-9V14.625C118.077,9.663,114.04,5.625,109.077,5.625z M46.318,119.625c0,0.551-0.449,1-1,1H26.066
					c-0.551,0-1-0.449-1-1v-5.846h21.252V119.625z M102.934,119.625c0,0.551-0.448,1-1,1H82.682c-0.552,0-1-0.449-1-1v-5.846h21.252
					V119.625z M116.077,104.779c0,3.86-3.141,7-7,7H18.923c-3.86,0-7-3.14-7-7V14.625c0-3.86,3.14-7,7-7h90.154c3.859,0,7,3.14,7,7
					V104.779z"/>
				<path fill="#3A2C60" d="M66.625,101.669h-7.68c-0.552,0-1,0.448-1,1s0.448,1,1,1h7.68c0.553,0,1-0.448,1-1
					S67.178,101.669,66.625,101.669z"/>
				<path fill="#3A2C60" d="M98.967,15.735H29.033c-4.962,0-9,4.038-9,9v1.868h-0.539c-1.654,0-3,1.346-3,3v16.219
					c0,1.654,1.346,3,3,3h0.539v22.265h-0.539c-1.654,0-3,1.346-3,3v16.219c0,1.654,1.346,3,3,3h0.539v1.363c0,4.962,4.038,9,9,9
					H54.5c0.552,0,1-0.448,1-1s-0.448-1-1-1H29.033c-3.86,0-7-3.14-7-7v-1.363h0.538c1.654,0,3-1.346,3-3V74.087
					c0-1.654-1.346-3-3-3h-0.538V48.822h0.538c1.654,0,3-1.346,3-3V29.603c0-1.654-1.346-3-3-3h-0.538v-1.868c0-3.86,3.14-7,7-7
					h69.934c3.859,0,7,3.14,7,7v69.934c0,3.86-3.141,7-7,7H70.875c-0.553,0-1,0.448-1,1s0.447,1,1,1h28.092c4.963,0,9-4.038,9-9
					V24.735C107.967,19.772,103.93,15.735,98.967,15.735z M22.571,91.306h-3.076c-0.551,0-1-0.449-1-1v-7.109h5.076v7.109
					C23.571,90.857,23.122,91.306,22.571,91.306z M23.571,74.087v7.11h-5.076v-7.11c0-0.551,0.449-1,1-1h3.076
					C23.122,73.087,23.571,73.536,23.571,74.087z M22.571,46.822h-3.076c-0.551,0-1-0.449-1-1v-7.109h5.076v7.109
					C23.571,46.374,23.122,46.822,22.571,46.822z M23.571,29.603v7.11h-5.076v-7.11c0-0.551,0.449-1,1-1h3.076
					C23.122,28.603,23.571,29.052,23.571,29.603z"/>
				<path fill="#3A2C60" d="M83.703,59.955c0-10.864-8.839-19.703-19.703-19.703S44.297,49.09,44.297,59.955
					S53.136,79.658,64,79.658S83.703,70.819,83.703,59.955z M46.352,61.039h6.088c0.227,2.44,1.213,4.66,2.718,6.428l-4.303,4.303
					C48.259,68.886,46.603,65.154,46.352,61.039z M50.774,48.227l4.303,4.303c-1.495,1.794-2.452,4.045-2.646,6.509h-6.088
					C46.557,54.9,48.189,51.139,50.774,48.227z M81.657,59.039h-6.088c-0.194-2.464-1.151-4.715-2.646-6.509l4.303-4.303
					C79.811,51.139,81.443,54.9,81.657,59.039z M77.146,71.77l-4.303-4.303c1.505-1.768,2.49-3.988,2.718-6.428h6.088
					C81.397,65.154,79.741,68.885,77.146,71.77z M54.385,59.955c0-5.302,4.313-9.615,9.615-9.615s9.615,4.313,9.615,9.615
					S69.302,69.57,64,69.57S54.385,65.256,54.385,59.955z M65,71.519c2.431-0.209,4.651-1.163,6.425-2.642l4.303,4.303
					c-2.892,2.568-6.622,4.196-10.727,4.427V71.519z M71.513,51.112c-1.789-1.522-4.04-2.51-6.513-2.722v-6.088
					c4.148,0.234,7.911,1.894,10.816,4.507L71.513,51.112z M63,48.39c-2.473,0.212-4.724,1.2-6.513,2.722l-4.303-4.303
					c2.904-2.613,6.668-4.273,10.815-4.507V48.39z M56.576,68.878c1.774,1.478,3.993,2.433,6.424,2.642v6.088
					c-4.106-0.231-7.835-1.859-10.727-4.427L56.576,68.878z"/>
				<path fill="#3A2C60" d="M70.055,59.955c0-3.338-2.716-6.055-6.055-6.055s-6.055,2.716-6.055,6.055
					c0,3.339,2.716,6.055,6.055,6.055S70.055,63.293,70.055,59.955z M59.945,59.955c0-2.236,1.819-4.055,4.055-4.055
					c2.235,0,4.055,1.819,4.055,4.055S66.235,64.01,64,64.01C61.764,64.01,59.945,62.19,59.945,59.955z"/>
				<path fill="#3A2C60" d="M95.377,84.376c2.39,0,4.334-1.944,4.334-4.333V39.867c0-2.39-1.944-4.333-4.407-4.333
					c-2.39,0-4.333,1.944-4.333,4.333v40.176c0,2.39,1.943,4.333,4.333,4.333H95.377z M92.971,80.042V39.867
					c0-1.287,1.047-2.333,2.406-2.333c1.287,0,2.334,1.047,2.334,2.333v40.176c0,1.287-1.047,2.333-2.334,2.333h-0.073
					C94.018,82.376,92.971,81.329,92.971,80.042z"/>
			</g>
		</g>
	</g>
</g>
</svg>
