<?xml version="1.0" encoding="utf-8"?>
<!-- Generator: Adobe Illustrator 22.0.1, SVG Export Plug-In . SVG Version: 6.00 Build 0)  -->
<svg version="1.1" id="Layer_1" xmlns="http://www.w3.org/2000/svg" xmlns:xlink="http://www.w3.org/1999/xlink" x="0px" y="0px"
	 viewBox="0 0 128 128" style="enable-background:new 0 0 128 128;" xml:space="preserve">
<style type="text/css">
	.st0{fill:#3A2C60;}
	.st1{fill:#E6E7E8;}
	.st2{fill:#FA759E;}
	.st3{fill:#FFD7E5;}
	.st4{fill:#FFFFFF;}
	.st5{fill:#6DC9F7;}
	.st6{fill:#D4FBFF;}
	.st7{fill:#0089EF;}
</style>
<g>
	<g>
		<path class="st1" d="M117.359,110.133h-3.148c-0.493-0.979-1.516-3.301-1.516-5.746c0-3.133,1.811-7.192,1.829-7.232
			c0.215-0.477,0.026-1.039-0.433-1.289c-9.309-5.075-19.37-4.398-27.92-1.905c-0.152-0.418-0.373-0.798-0.649-1.137
			c2.864-2.51,5.679-5.258,8.136-8.159c0.797-0.313,3.102-1.27,4.23-2.328c15.423-14.452,1.514-31.918-1.598-35.444
			c-1.835-2.91-4.06-5.498-6.613-7.695c-0.174-0.149-0.449-0.359-0.68-0.532c0.003-0.683,0.001-1.791-0.024-2.042
			c-0.033-0.325-0.094-0.636-0.144-0.952h1.183c0.552,0,1-0.447,1-1V17.562h7.319c1.59,0,2.884-1.294,2.884-2.884
			s-1.293-2.884-2.884-2.884H33.669c-1.59,0-2.884,1.294-2.884,2.884s1.293,2.884,2.884,2.884h1.633l0.008,19.55
			c-0.823,0.379-1.395,1.21-1.394,2.175c0,0.844,0.444,1.575,1.106,1.998l-0.059,0.53l-0.729,6.435
			c-2.96,3.798-8.023,11.703-7.118,20.431c0.666,6.425,4.456,12.016,11.263,16.616c0.045,0.031,0.092,0.055,0.139,0.077
			c0.009,0.004,0.016,0.013,0.025,0.017c2.368,2.704,5.05,5.267,7.781,7.617c-0.208,0.29-0.372,0.611-0.496,0.952
			c-8.548-2.492-18.605-3.169-27.914,1.906c-0.459,0.25-0.648,0.812-0.433,1.289c0.018,0.04,1.829,4.1,1.829,7.232
			c0,2.432-1.023,4.763-1.517,5.746h-3.154c-2.777,0-5.036,2.259-5.036,5.036s2.259,5.036,5.036,5.036h45.124
			c1.418,0,2.675-0.849,3.128-2.112c0.469-1.308,1.717-2.187,3.107-2.187s2.638,0.879,3.107,2.188
			c0.453,1.263,1.71,2.111,3.128,2.111h45.124c2.777,0,5.036-2.259,5.036-5.036S120.136,110.133,117.359,110.133z M40.988,17.562
			v17.107c0,0.553,0.448,1,1,1h1.336c-0.302,1.114-0.521,2.207-0.641,3.228c-1.747,1.459-3.35,3.091-4.799,4.863l-0.222-1.947
			l-0.057-0.535c0.822-0.53,1.305-1.534,1.017-2.637c-0.177-0.677-0.679-1.232-1.312-1.52l-0.008-19.56H40.988z"/>
	</g>
	<g>
		<g>
			<g>
				<path class="st6" d="M109.612,92.743C87.838,80.872,62,101.147,62,101.147s-25.832-20.275-47.606-8.404
					c0,0,1.917,4.251,1.917,7.644c0,3.516-1.917,6.747-1.917,6.747h47.612h0.289h47.318c0,0-1.917-3.231-1.917-6.747
					C107.695,96.994,109.612,92.743,109.612,92.743z"/>
			</g>
			<g>
				<path class="st2" d="M68.319,107.133c-0.511,0-0.98-0.287-1.205-0.746c-0.929-1.897-2.859-3.209-5.114-3.209
					c-2.255,0-4.185,1.312-5.114,3.209c-0.225,0.459-0.694,0.746-1.205,0.746h-45.04c-2.229,0-4.036,1.807-4.036,4.036v0
					c0,2.229,1.807,4.036,4.036,4.036h45.124c0.954,0,1.865-0.552,2.187-1.45c0.595-1.661,2.183-2.849,4.048-2.849
					s3.453,1.188,4.048,2.849c0.322,0.898,1.233,1.45,2.187,1.45h45.124c2.229,0,4.036-1.807,4.036-4.036v0
					c0-2.229-1.807-4.036-4.036-4.036H68.319z"/>
			</g>
		</g>
		<g>
			<g>
				<path class="st5" d="M91.488,43.493c-1.768-2.816-3.931-5.361-6.463-7.538c-0.326-0.281-1.032-0.788-1.032-0.788
					c0.008-0.391,0.01-2.2-0.015-2.443c-0.073-0.708-0.204-1.387-0.362-2.053h-42.96c-0.532,1.628-0.883,3.259-1.022,4.738
					c-2.545,2.077-4.787,4.509-6.665,7.213l-0.005-0.04c0,0-21.406,22.085,1.975,37.888v-0.149C45.303,92.387,62,101.652,62,101.652
					s16.728-9.521,27.059-21.83c0,0,2.954-1.1,4.145-2.216C108.097,63.652,94.234,46.586,91.488,43.493z"/>
				<g>
					<path class="st3" d="M62,74.166c-9.707,0-17.907,5.263-20.799,12.543C50.857,95.507,62,101.652,62,101.652
						s10.955-6.276,20.685-15.225C79.694,79.293,71.581,74.166,62,74.166z"/>
				</g>
				<g>
					<g>
						<circle class="st6" cx="48.586" cy="51.688" r="11.459"/>
					</g>
					<g>
						<g>
							<circle class="st6" cx="75.414" cy="51.688" r="11.459"/>
						</g>
					</g>
				</g>
				<g>
					<path class="st2" d="M67.614,62.548c0,4.136-5.614,7.489-5.614,7.489s-5.614-3.353-5.614-7.489S58.9,59.84,62,59.84
						C65.1,59.84,67.614,58.412,67.614,62.548z"/>
				</g>
			</g>
			<g>
				<g>
					<g>
						<path class="st7" d="M51.461,100.36L51.461,100.36c-1.635,0-2.961-1.326-2.961-2.961v-3.279c0-1.635,1.326-2.961,2.961-2.961
							h0c1.635,0,2.961,1.326,2.961,2.961V97.4C54.422,99.035,53.096,100.36,51.461,100.36z"/>
					</g>
					<g>
						<path class="st7" d="M45.539,97.545L45.539,97.545c-1.635,0-2.961-1.326-2.961-2.961v-3.279c0-1.635,1.326-2.961,2.961-2.961
							h0c1.635,0,2.961,1.326,2.961,2.961v3.279C48.5,96.219,47.174,97.545,45.539,97.545z"/>
					</g>
				</g>
				<g>
					<g>
						<path class="st7" d="M72.539,100.36L72.539,100.36c1.635,0,2.961-1.326,2.961-2.961v-3.279c0-1.635-1.326-2.961-2.961-2.961h0
							c-1.635,0-2.961,1.326-2.961,2.961V97.4C69.578,99.035,70.904,100.36,72.539,100.36z"/>
					</g>
					<g>
						<path class="st7" d="M78.461,97.545L78.461,97.545c1.635,0,2.961-1.326,2.961-2.961v-3.279c0-1.635-1.326-2.961-2.961-2.961h0
							c-1.635,0-2.961,1.326-2.961,2.961v3.279C75.5,96.219,76.826,97.545,78.461,97.545z"/>
					</g>
				</g>
			</g>
		</g>
		<g>
			<g>
				<g>
					<rect x="37.988" y="12.562" class="st7" width="48.024" height="18.108"/>
				</g>
				<g>
					<rect x="37.988" y="12.562" class="st4" width="3" height="18.108"/>
				</g>
				<g>
					<g>
						<path class="st7" d="M94.331,12.562H29.669c-1.04,0-1.884-0.843-1.884-1.884v0c0-1.04,0.843-1.884,1.884-1.884h64.662
							c1.04,0,1.884,0.843,1.884,1.884v0C96.215,11.719,95.371,12.562,94.331,12.562z"/>
					</g>
					<g>
						<path class="st0" d="M113.359,106.133h-3.148c-0.493-0.979-1.516-3.301-1.516-5.746c0-3.133,1.811-7.192,1.829-7.232
							c0.215-0.477,0.026-1.039-0.433-1.289c-9.313-5.077-19.367-4.391-27.917-1.895c-0.153-0.426-0.377-0.812-0.658-1.156
							c2.866-2.51,5.684-5.249,8.142-8.152c0.797-0.313,3.102-1.27,4.23-2.328c15.423-14.452,1.514-31.918-1.598-35.444
							c-1.835-2.91-4.06-5.498-6.613-7.695c-0.174-0.149-0.449-0.359-0.68-0.532c0.003-0.683,0.001-1.791-0.024-2.042
							c-0.033-0.323-0.078-0.639-0.13-0.952h1.169c0.552,0,1-0.447,1-1V13.562h7.319c1.59,0,2.884-1.294,2.884-2.884
							s-1.293-2.884-2.884-2.884H29.669c-1.59,0-2.884,1.294-2.884,2.884s1.293,2.884,2.884,2.884h1.633l0.008,19.55
							c-0.823,0.379-1.395,1.21-1.394,2.175c0,0.844,0.444,1.575,1.106,1.998l-0.059,0.53l-0.729,6.435
							c-2.96,3.798-8.023,11.703-7.118,20.431c0.666,6.425,4.456,12.016,11.263,16.616c0.045,0.031,0.092,0.055,0.139,0.077
							c0.009,0.004,0.016,0.013,0.026,0.017c2.369,2.706,5.055,5.26,7.787,7.61c-0.213,0.296-0.38,0.622-0.505,0.97
							c-8.548-2.495-18.599-3.181-27.91,1.895c-0.459,0.25-0.648,0.812-0.433,1.289c0.018,0.04,1.829,4.1,1.829,7.232
							c0,2.432-1.023,4.763-1.517,5.746h-3.154c-2.777,0-5.036,2.259-5.036,5.036s2.259,5.036,5.036,5.036h45.124
							c1.418,0,2.675-0.849,3.128-2.112c0.469-1.308,1.717-2.187,3.107-2.187s2.638,0.879,3.107,2.188
							c0.453,1.263,1.71,2.111,3.128,2.111h45.124c2.777,0,5.036-2.259,5.036-5.036S116.136,106.133,113.359,106.133z
							 M108.338,93.204c-0.352,0.894-0.881,2.378-1.244,3.999H89.253c-0.552,0-1,0.447-1,1s0.448,1,1,1h17.51
							c-0.041,0.399-0.069,0.796-0.069,1.185c0,0.5,0.04,0.992,0.101,1.472H95.602c-0.552,0-1,0.447-1,1s0.448,1,1,1h11.6
							c0.242,0.875,0.534,1.656,0.801,2.274H68.319c-0.131,0-0.251-0.073-0.307-0.186c-0.994-2.031-2.877-3.388-5.05-3.7
							c0.895-0.53,3.02-1.816,5.809-3.691c0.499,1.617,1.99,2.804,3.768,2.804c1.988,0,3.623-1.477,3.903-3.388
							c0.593,0.355,1.279,0.572,2.019,0.572c2.184,0,3.961-1.777,3.961-3.961v-2.625C90.376,89.583,99.687,88.829,108.338,93.204z
							 M80.422,91.305v3.278c0,1.081-0.88,1.961-1.961,1.961s-1.961-0.88-1.961-1.961v-0.463v-2.815c0-1.081,0.88-1.961,1.961-1.961
							S80.422,90.224,80.422,91.305z M74.5,94.583V97.4c0,1.081-0.88,1.961-1.961,1.961s-1.961-0.88-1.961-1.961v-3.279
							c0-1.081,0.88-1.961,1.961-1.961s1.961,0.88,1.961,1.961V94.583z M28.785,10.678c0-0.487,0.396-0.884,0.884-0.884h64.662
							c0.487,0,0.884,0.396,0.884,0.884s-0.396,0.884-0.884,0.884H29.669C29.182,11.562,28.785,11.166,28.785,10.678z
							 M36.988,13.562v17.107c0,0.553,0.448,1,1,1h1.337c-0.303,1.114-0.522,2.207-0.642,3.228c-1.747,1.459-3.35,3.091-4.799,4.863
							l-0.222-1.947l-0.057-0.535c0.822-0.53,1.305-1.534,1.017-2.637c-0.177-0.677-0.679-1.232-1.312-1.52l-0.008-19.56H36.988z
							 M35.933,79.928V64.82c0-0.553-0.448-1-1-1s-1,0.447-1,1v13.7c-5.306-4.018-8.273-8.732-8.826-14.035
							c-0.644-6.176,2.101-12.051,4.654-16.049l-0.339,2.995c-0.134,1.187,0.794,2.226,1.988,2.225l1.819-0.001
							c1.194,0,2.122-1.04,1.986-2.227l-1.004-8.801c1.747-2.409,3.772-4.582,6.056-6.446c0.208-0.169,0.338-0.414,0.363-0.681
							c0.112-1.192,0.375-2.503,0.764-3.832h11.981c0.552,0,1-0.447,1-1s-0.448-1-1-1H38.988V13.562h46.024v16.107H70.75
							c-0.552,0-1,0.447-1,1s0.448,1,1,1h12.061c0.072,0.375,0.132,0.757,0.172,1.148c0.018,0.224,0.021,1.859,0.011,2.329
							c-0.006,0.328,0.149,0.64,0.416,0.831c0.005,0.004,0.661,0.475,0.964,0.734c2.421,2.084,4.53,4.544,6.268,7.312
							c0.029,0.047,0.063,0.091,0.099,0.133c2.783,3.135,15.945,19.447,1.781,32.72c-0.526,0.494-1.558,1.031-2.453,1.439V64.82
							c0-0.553-0.448-1-1-1s-1,0.447-1,1v14.614c-2.479,2.917-5.324,5.665-8.218,8.175c-0.434-0.164-0.898-0.265-1.389-0.265
							c-1.988,0-3.622,1.477-3.903,3.387c-0.593-0.355-1.279-0.572-2.019-0.572c-2.184,0-3.961,1.777-3.961,3.961v2.15
							c-3.139,2.146-5.588,3.635-6.584,4.226c-0.998-0.576-3.44-2.025-6.572-4.115v-2.26c0-2.184-1.777-3.961-3.961-3.961
							c-0.74,0-1.426,0.217-2.019,0.572c-0.281-1.911-1.915-3.387-3.903-3.387c-0.585,0-1.136,0.135-1.637,0.364
							C41.097,85.314,38.344,82.701,35.933,79.928z M47.5,94.583c0,1.081-0.88,1.961-1.961,1.961s-1.961-0.88-1.961-1.961v-3.278
							c0-1.081,0.88-1.961,1.961-1.961s1.961,0.88,1.961,1.961v2.815V94.583z M49.5,94.583v-0.463c0-1.081,0.88-1.961,1.961-1.961
							s1.961,0.88,1.961,1.961V97.4c0,1.081-0.88,1.961-1.961,1.961S49.5,98.481,49.5,97.4V94.583z M16.804,103.859h11.594
							c0.552,0,1-0.447,1-1s-0.448-1-1-1H17.21c0.061-0.48,0.101-0.971,0.101-1.472c0-0.388-0.028-0.785-0.069-1.185h17.504
							c0.552,0,1-0.447,1-1s-0.448-1-1-1H16.912c-0.362-1.621-0.891-3.105-1.243-3.999c8.645-4.371,17.955-3.615,25.91-1.24v2.62
							c0,2.184,1.777,3.961,3.961,3.961c0.74,0,1.426-0.217,2.019-0.572c0.28,1.911,1.915,3.388,3.903,3.388
							c1.75,0,3.222-1.149,3.744-2.726c2.787,1.83,4.916,3.089,5.825,3.614c-2.169,0.314-4.049,1.67-5.043,3.698
							c-0.055,0.112-0.175,0.186-0.307,0.186H16.003C16.271,105.515,16.563,104.734,16.804,103.859z M113.359,114.206H68.235
							c-0.567,0-1.08-0.323-1.246-0.786c-0.753-2.102-2.758-3.513-4.99-3.513s-4.237,1.411-4.99,3.512
							c-0.166,0.464-0.678,0.787-1.246,0.787H10.641c-1.674,0-3.036-1.362-3.036-3.036s1.362-3.036,3.036-3.036h45.04
							c0.889,0,1.715-0.513,2.103-1.307c0.8-1.634,2.416-2.648,4.216-2.648s3.416,1.015,4.216,2.648
							c0.389,0.794,1.214,1.307,2.104,1.307h45.04c1.674,0,3.036,1.362,3.036,3.036S115.034,114.206,113.359,114.206z"/>
						<circle class="st0" cx="48.586" cy="51.688" r="6.578"/>
						<circle class="st0" cx="75.414" cy="51.688" r="6.578"/>
						<path class="st0" d="M61.487,70.896c0.158,0.095,0.335,0.142,0.513,0.142s0.355-0.047,0.513-0.142
							c0.249-0.148,6.101-3.698,6.101-8.348c0-1.567-0.333-2.598-1.049-3.242c-0.981-0.883-2.317-0.742-3.733-0.593
							c-1.184,0.125-2.479,0.125-3.663,0c-1.416-0.148-2.751-0.29-3.733,0.593c-0.715,0.645-1.049,1.675-1.049,3.242
							C55.386,67.198,61.238,70.748,61.487,70.896z M57.773,60.792c0.159-0.143,0.462-0.19,0.845-0.19
							c0.388,0,0.857,0.049,1.34,0.101c1.227,0.129,2.856,0.129,4.083,0c0.959-0.103,1.866-0.197,2.186,0.09
							c0.145,0.131,0.387,0.531,0.387,1.756c0,2.844-3.323,5.407-4.619,6.298c-1.645-1.119-4.608-3.679-4.608-6.298
							C57.386,61.324,57.628,60.923,57.773,60.792z"/>
						<path class="st0" d="M57.687,31.669h8.625c0.552,0,1-0.447,1-1s-0.448-1-1-1h-8.625c-0.552,0-1,0.447-1,1
							S57.135,31.669,57.687,31.669z"/>
					</g>
				</g>
			</g>
		</g>
	</g>
</g>
</svg>
