<svg xmlns="http://www.w3.org/2000/svg" viewBox="0 0 128 128"><title>icon</title><path d="M118.728,55.853h-7.1a46.294,46.294,0,0,0-6.2-14.936l5.025-5.026a4.271,4.271,0,0,0,0-6.042l-8.309-8.308a4.27,4.27,0,0,0-6.041,0l-5.026,5.026a46.232,46.232,0,0,0-14.936-6.2v-7.1A4.277,4.277,0,0,0,71.875,9H60.125a4.276,4.276,0,0,0-4.272,4.272v7.1a46.232,46.232,0,0,0-14.936,6.2l-5.026-5.026a4.276,4.276,0,0,0-6.042,0l-8.308,8.308a4.277,4.277,0,0,0,0,6.042l5.026,5.026a46.228,46.228,0,0,0-6.2,14.936h-7.1A4.277,4.277,0,0,0,9,60.124V71.875a4.277,4.277,0,0,0,4.272,4.272h7.1a46.259,46.259,0,0,0,6.2,14.936l-5.026,5.026a4.27,4.27,0,0,0,0,6.041l8.309,8.309a4.27,4.27,0,0,0,6.041,0l5.026-5.026a46.241,46.241,0,0,0,14.936,6.2v7.1A4.277,4.277,0,0,0,60.125,123h11.75a4.278,4.278,0,0,0,4.272-4.272v-7.1a46.25,46.25,0,0,0,14.936-6.2l5.026,5.026a4.27,4.27,0,0,0,6.041,0l8.309-8.309a4.27,4.27,0,0,0,0-6.041l-5.025-5.026a46.27,46.27,0,0,0,6.2-14.936h7.1A4.277,4.277,0,0,0,123,71.875V60.124A4.277,4.277,0,0,0,118.728,55.853Z" fill="#e6e7e8"/><circle cx="62" cy="62" r="32.5" fill="#0089ef"/><path d="M62,32.5a32.5,32.5,0,0,1,32.462,31c.023-.5.038-1,.038-1.5a32.5,32.5,0,0,0-65,0c0,.5.015,1,.038,1.5A32.5,32.5,0,0,1,62,32.5Z" fill="#fff"/><path d="M118,67.875V56.125a3.272,3.272,0,0,0-3.272-3.273H106.82a45.465,45.465,0,0,0-6.667-16.069l5.6-5.6a3.272,3.272,0,0,0,0-4.628l-8.308-8.309a3.273,3.273,0,0,0-4.628,0l-5.6,5.6a45.462,45.462,0,0,0-16.07-6.667V9.272A3.272,3.272,0,0,0,67.875,6H56.125a3.272,3.272,0,0,0-3.272,3.272V17.18a45.462,45.462,0,0,0-16.07,6.667l-5.6-5.6a3.273,3.273,0,0,0-4.628,0l-8.308,8.309a3.272,3.272,0,0,0,0,4.628l5.6,5.6A45.465,45.465,0,0,0,17.18,52.852H9.272A3.272,3.272,0,0,0,6,56.125v11.75a3.272,3.272,0,0,0,3.272,3.272H17.18a45.47,45.47,0,0,0,6.667,16.07l-5.6,5.6a3.271,3.271,0,0,0,0,4.627l8.308,8.309a3.272,3.272,0,0,0,4.628,0l5.6-5.6a45.462,45.462,0,0,0,16.07,6.667v7.908A3.272,3.272,0,0,0,56.125,118h11.75a3.272,3.272,0,0,0,3.272-3.272V106.82a45.462,45.462,0,0,0,16.07-6.667l5.6,5.6a3.272,3.272,0,0,0,4.628,0l8.308-8.309a3.271,3.271,0,0,0,0-4.627l-5.6-5.6a45.47,45.47,0,0,0,6.667-16.07h7.908A3.272,3.272,0,0,0,118,67.875ZM62,94.5A32.5,32.5,0,1,1,94.5,62,32.5,32.5,0,0,1,62,94.5Z" fill="#fa759e"/><path d="M86.3,82.047a31.724,31.724,0,0,1-4.483,4.44,1,1,0,0,0,1.26,1.554,33.787,33.787,0,0,0,4.764-4.72A1,1,0,1,0,86.3,82.047Z" fill="#3a2c60"/><path d="M114.728,51.853h-7.1a46.294,46.294,0,0,0-6.2-14.936l5.025-5.026a4.271,4.271,0,0,0,0-6.042L98.15,17.541a4.27,4.27,0,0,0-6.041,0l-5.026,5.026a46.232,46.232,0,0,0-14.936-6.2v-7.1A4.278,4.278,0,0,0,67.875,5H56.125a4.277,4.277,0,0,0-4.272,4.272v7.1a46.232,46.232,0,0,0-14.936,6.2l-5.026-5.026a4.276,4.276,0,0,0-6.042,0l-8.308,8.308a4.277,4.277,0,0,0,0,6.042l5.026,5.026a46.228,46.228,0,0,0-6.2,14.936h-7.1A4.276,4.276,0,0,0,5,56.125v11.75a4.277,4.277,0,0,0,4.272,4.272h7.1a46.259,46.259,0,0,0,6.2,14.936l-5.026,5.026a4.27,4.27,0,0,0,0,6.041l8.309,8.309a4.27,4.27,0,0,0,6.041,0l5.026-5.026a46.241,46.241,0,0,0,14.936,6.2v7.1A4.276,4.276,0,0,0,56.125,119h11.75a4.277,4.277,0,0,0,4.272-4.272v-7.1a46.25,46.25,0,0,0,14.936-6.2l5.026,5.026a4.27,4.27,0,0,0,6.041,0l8.309-8.309a4.27,4.27,0,0,0,0-6.041l-5.025-5.026a46.3,46.3,0,0,0,6.2-14.936h7.1A4.278,4.278,0,0,0,119,67.875V56.125A4.277,4.277,0,0,0,114.728,51.853ZM117,67.875a2.275,2.275,0,0,1-2.272,2.272H106.82a1,1,0,0,0-.98.8,44.3,44.3,0,0,1-6.521,15.717,1,1,0,0,0,.127,1.259l5.6,5.6a2.271,2.271,0,0,1,0,3.213l-8.309,8.309a2.327,2.327,0,0,1-3.213,0l-5.6-5.6a1,1,0,0,0-1.259-.126,44.307,44.307,0,0,1-15.717,6.52,1,1,0,0,0-.8.98v7.908A2.275,2.275,0,0,1,67.875,117H56.125a2.275,2.275,0,0,1-2.272-2.272V106.82a1,1,0,0,0-.8-.98,44.3,44.3,0,0,1-15.717-6.52,1,1,0,0,0-1.259.126l-5.6,5.6a2.326,2.326,0,0,1-3.213,0l-8.309-8.309a2.271,2.271,0,0,1,0-3.213l5.6-5.6a1,1,0,0,0,.127-1.259A44.3,44.3,0,0,1,18.16,70.948a1,1,0,0,0-.98-.8H9.272A2.275,2.275,0,0,1,7,67.875V56.125a2.275,2.275,0,0,1,2.272-2.272H17.18a1,1,0,0,0,.98-.8,44.3,44.3,0,0,1,6.521-15.716,1,1,0,0,0-.127-1.259l-5.6-5.6a2.275,2.275,0,0,1,0-3.214l8.308-8.308a2.275,2.275,0,0,1,3.214,0l5.6,5.6a1,1,0,0,0,1.259.126,44.329,44.329,0,0,1,15.717-6.52,1,1,0,0,0,.8-.98V9.272A2.275,2.275,0,0,1,56.125,7h11.75a2.275,2.275,0,0,1,2.272,2.272V17.18a1,1,0,0,0,.8.98,44.3,44.3,0,0,1,15.717,6.52,1,1,0,0,0,1.259-.126l5.6-5.6a2.325,2.325,0,0,1,3.213,0l8.309,8.308a2.272,2.272,0,0,1,0,3.214l-5.6,5.6a1,1,0,0,0-.127,1.259,44.291,44.291,0,0,1,6.521,15.717,1,1,0,0,0,.98.8h7.908A2.275,2.275,0,0,1,117,56.125Z" fill="#3a2c60"/><path d="M62,28.5A33.5,33.5,0,1,0,80.269,90.085a1,1,0,1,0-1.092-1.676,31.5,31.5,0,1,1,9.1-9.028,1,1,0,0,0,1.668,1.106A33.506,33.506,0,0,0,62,28.5Z" fill="#3a2c60"/><path d="M59.012,71.636a1.589,1.589,0,0,1-.591,1.247,2.015,2.015,0,0,1-1.358.511,1.817,1.817,0,0,1-.959-.272,1.8,1.8,0,0,1-.7-.847l-1.918-4.282H42.233l-1.918,4.282a1.81,1.81,0,0,1-.7.847,1.877,1.877,0,0,1-.991.272,2.037,2.037,0,0,1-1.343-.511,1.575,1.575,0,0,1-.607-1.247,1.97,1.97,0,0,1,.192-.831l8.821-18.953a2.065,2.065,0,0,1,.879-.974,2.54,2.54,0,0,1,2.525,0,2.05,2.05,0,0,1,.879.974l8.854,18.953A1.983,1.983,0,0,1,59.012,71.636ZM43.639,64.8h8.438L47.858,55.3Z" fill="#fff"/><path d="M62.671,72.9a2.051,2.051,0,0,1-.559-1.518v-18.7a1.914,1.914,0,0,1,.527-1.438,2.006,2.006,0,0,1,1.454-.511h7.863a8.139,8.139,0,0,1,5.626,1.8A6.457,6.457,0,0,1,79.6,57.605a6.5,6.5,0,0,1-2.013,5.082,8.087,8.087,0,0,1-5.626,1.822H66.235v6.872a1.93,1.93,0,0,1-2.078,2.077A2.013,2.013,0,0,1,62.671,72.9Zm8.774-11.554q4.25,0,4.251-3.708T71.445,53.93h-5.21v7.415Z" fill="#fff"/><path d="M83.765,72.883a2.063,2.063,0,0,1-.559-1.5V52.619a1.923,1.923,0,0,1,2.045-2.045,2.056,2.056,0,0,1,1.519.559,2.012,2.012,0,0,1,.559,1.486V71.381a2.067,2.067,0,0,1-.559,1.5,2.022,2.022,0,0,1-1.519.575A1.98,1.98,0,0,1,83.765,72.883Z" fill="#fff"/></svg>