<svg xmlns="http://www.w3.org/2000/svg" viewBox="0 0 128 128"><title>icon</title><path d="M110.738,26.087a3,3,0,0,0-2.239-1H96.167V12.377a3,3,0,0,0-3-3H38.833a3,3,0,0,0-3,3V25.084H23.5a3,3,0,0,0-2.98,3.341h0l9.339,81.263a3,3,0,0,0,2.093,2.523l33.16,10.276a2.985,2.985,0,0,0,1.775,0l33.159-10.276a3,3,0,0,0,2.093-2.523l9.34-81.264A3,3,0,0,0,110.738,26.087Z" fill="#e6e7e8"/><path d="M17.514,24.312l9.34,81.263a2,2,0,0,0,1.395,1.682l33.159,10.276a2.008,2.008,0,0,0,1.184,0l33.159-10.276a2,2,0,0,0,1.395-1.682l9.34-81.263a2,2,0,0,0-1.987-2.228h-85A2,2,0,0,0,17.514,24.312Z" fill="#fa759e"/><path d="M96.889,103.518,62.612,114.14a2.06,2.06,0,0,1-1.224,0L27.111,103.518a2.044,2.044,0,0,1-.522-.25l.265,2.307a2,2,0,0,0,1.395,1.682l33.159,10.276a2.008,2.008,0,0,0,1.184,0l33.159-10.276a2,2,0,0,0,1.395-1.682l.265-2.307A2.028,2.028,0,0,1,96.889,103.518Z" fill="#fff"/><path d="M97.12,29.616H62V110.09l27.905-8.647A2,2,0,0,0,91.3,99.761l7.807-67.916A2,2,0,0,0,97.12,29.616Z" fill="#ffd7e5"/><polygon points="88.734 41.256 35.266 41.256 38.71 71.215 75.909 71.215 74.502 83.444 62 87.318 49.498 83.444 48.763 77.053 39.381 77.053 41.1 92.017 62 98.493 82.9 92.017 86.588 59.929 46.795 59.929 45.923 52.345 87.46 52.342 88.734 41.256" fill="#fff"/><rect x="32.833" y="6.377" width="58.333" height="19.667" rx="2" ry="2" fill="#6dc9f7"/><path d="M106.739,22.087a3.005,3.005,0,0,0-2.24-1H92.167V8.377a3,3,0,0,0-3-3H34.833a3,3,0,0,0-3,3V21.083H19.5a3,3,0,0,0-2.981,3.343l2.058,17.9a1,1,0,0,0,1.986-.228L18.507,24.2a1,1,0,0,1,.994-1.115H31.833v.961a3,3,0,0,0,3,3H89.167a3,3,0,0,0,3-3v-.961H104.5a1,1,0,0,1,.994,1.114l-9.34,81.263a1,1,0,0,1-.7.842L62.3,116.578a1.015,1.015,0,0,1-.593,0L28.546,106.3a1,1,0,0,1-.7-.842l-5.3-46.081a1,1,0,1,0-1.987.229l5.3,46.08a3,3,0,0,0,2.092,2.524l33.16,10.276a2.985,2.985,0,0,0,1.775,0l33.16-10.276a3,3,0,0,0,2.092-2.523l9.339-81.263A3,3,0,0,0,106.739,22.087ZM90.167,24.044a1,1,0,0,1-1,1H34.833a1,1,0,0,1-1-1V8.377a1,1,0,0,1,1-1H89.167a1,1,0,0,1,1,1Z" fill="#3a2c60"/><path d="M21.235,56.684a1,1,0,0,0,.879-1.108l-1.022-8.894a1,1,0,0,0-1.987.228l1.023,8.9a1,1,0,0,0,.992.886A.9.9,0,0,0,21.235,56.684Z" fill="#3a2c60"/><path d="M88.453,52.456,89.727,41.37a.988.988,0,0,0-.247-.779,1,1,0,0,0-.746-.335H35.267a1,1,0,0,0-.994,1.114l3.444,29.959a1,1,0,0,0,.993.886H74.787l-1.2,10.467L62,86.271,50.417,82.682l-.661-5.743a1,1,0,0,0-.993-.886H39.381a1,1,0,0,0-.746.335.988.988,0,0,0-.247.779l1.719,14.964a1,1,0,0,0,.7.841l20.9,6.476a1,1,0,0,0,.592,0l20.9-6.476a1,1,0,0,0,.7-.841l3.689-32.088a1,1,0,0,0-.993-1.114h-38.9l-.642-5.584,40.416,0A1,1,0,0,0,88.453,52.456Zm-42.53-1.111a1,1,0,0,0-.746.335.988.988,0,0,0-.247.779l.872,7.584a1,1,0,0,0,.993.886H85.467L81.98,91.255,62,97.446,42.019,91.255,40.5,78.053h7.369l.634,5.505a1,1,0,0,0,.7.841l12.5,3.874a1,1,0,0,0,.592,0L74.8,84.4a1,1,0,0,0,.7-.841L76.9,71.329a1,1,0,0,0-.993-1.114H39.6L36.388,42.256H87.613l-1.045,9.086Z" fill="#3a2c60"/><path d="M50.707,11.487a.858.858,0,0,0-.644.245.9.9,0,0,0-.237.652v3.3H44.771v-3.3a.843.843,0,0,0-.9-.9.858.858,0,0,0-.644.245.9.9,0,0,0-.237.652V20.6a.907.907,0,0,0,.244.659.85.85,0,0,0,.637.252.865.865,0,0,0,.651-.252.907.907,0,0,0,.245-.659V17.143h5.055V20.6a.923.923,0,0,0,.237.659.94.94,0,0,0,1.281,0,.907.907,0,0,0,.245-.659V12.384a.894.894,0,0,0-.238-.652A.856.856,0,0,0,50.707,11.487Z" fill="#3a2c60"/><path d="M60.4,11.557h-6.9q-.84,0-.84.743t.84.741H56.04V20.6a.881.881,0,0,0,.246.652.9.9,0,0,0,.665.244.841.841,0,0,0,.9-.9v-7.56H60.4q.84,0,.84-.741T60.4,11.557Z" fill="#3a2c60"/><path d="M71.063,11.487a.925.925,0,0,0-.826.6l-3.094,5.922L64.035,12.09a.943.943,0,0,0-.854-.6.814.814,0,0,0-.623.245.912.912,0,0,0-.231.652v8.288a.862.862,0,0,0,.21.615.75.75,0,0,0,.574.225.761.761,0,0,0,.581-.232.852.852,0,0,0,.217-.608v-5.7L66.3,19.411a1.277,1.277,0,0,0,.363.462.774.774,0,0,0,.462.141.745.745,0,0,0,.463-.148,1.392,1.392,0,0,0,.364-.455L70.334,14.9v5.769a.867.867,0,0,0,.21.615.754.754,0,0,0,.575.225.794.794,0,0,0,.587-.225.828.828,0,0,0,.225-.615V12.384a.9.9,0,0,0-.238-.652A.841.841,0,0,0,71.063,11.487Z" fill="#3a2c60"/><path d="M79.813,19.943H75.879V12.384a.883.883,0,0,0-.245-.652.9.9,0,0,0-.665-.245.841.841,0,0,0-.895.9v8.2a.831.831,0,0,0,.223.615.856.856,0,0,0,.63.225h4.886q.84,0,.84-.743T79.813,19.943Z" fill="#3a2c60"/></svg>