<?xml version="1.0" encoding="utf-8"?>
<!-- Generator: Adobe Illustrator 22.0.0, SVG Export Plug-In . SVG Version: 6.00 Build 0)  -->
<svg version="1.1" id="Layer_1" xmlns="http://www.w3.org/2000/svg" xmlns:xlink="http://www.w3.org/1999/xlink" x="0px" y="0px"
	 viewBox="0 0 128 128" style="enable-background:new 0 0 128 128;" xml:space="preserve">
<style type="text/css">
	.st0{fill:#E6E7E8;}
	.st1{fill:#0089EF;}
	.st2{fill:#D4FBFF;}
	.st3{fill:#6DC9F7;}
	.st4{fill:#FFD7E5;}
	.st5{fill:#FFFFFF;}
	.st6{fill:#3A2C60;}
	.st7{fill:#FA759E;}
	.st8{fill:none;stroke:#3A2C60;stroke-width:2;stroke-linecap:round;stroke-linejoin:round;stroke-miterlimit:10;}
</style>
<g>
	<path class="st0" d="M125.481,33.568c-0.143-0.224-0.368-0.382-0.627-0.439L78.836,22.915l0.001-0.006
		c0.445-2.011-0.827-4.01-2.838-4.457c-2.012-0.448-4.01,0.828-4.458,2.837l-5.542,24.971L60.457,21.29
		c-0.445-2.01-2.439-3.286-4.457-2.838c-0.975,0.216-1.807,0.799-2.342,1.641c-0.536,0.842-0.712,1.842-0.496,2.816l0.001,0.006
		L7.145,33.129c-0.259,0.057-0.484,0.215-0.627,0.439s-0.19,0.495-0.133,0.754l7.905,35.615c0.104,0.466,0.517,0.783,0.976,0.783
		c0.072,0,0.145-0.007,0.218-0.024l46.017-10.214l0.671,3.021l-10.119,45.589c-0.216,0.974-0.039,1.974,0.497,2.816
		s1.368,1.424,2.342,1.64c0.272,0.061,0.545,0.09,0.817,0.09c0.702,0,1.392-0.199,1.999-0.586c0.842-0.536,1.424-1.368,1.641-2.342
		L66,80.748l6.65,29.962c0.217,0.975,0.799,1.806,1.641,2.342c0.607,0.387,1.297,0.586,1.999,0.586c0.271,0,0.546-0.03,0.817-0.09
		c0.974-0.216,1.806-0.798,2.342-1.641c0.536-0.841,0.712-1.841,0.496-2.816L69.827,63.506l0.671-3.023l46.017,10.214
		c0.073,0.017,0.146,0.024,0.218,0.024c0.458,0,0.872-0.317,0.976-0.783l7.905-35.615C125.672,34.063,125.624,33.791,125.481,33.568
		z"/>
	<g>
		<g>
			<g>
				<path class="st7" d="M59.197,59.505l-10.166,45.803c-0.327,1.475,0.603,2.937,2.078,3.264c1.475,0.327,2.937-0.603,3.264-2.078
					L62,72.132L59.197,59.505z"/>
				<path class="st7" d="M64.802,59.505l9.059-40.813c0.327-1.475-0.603-2.937-2.078-3.264c-1.475-0.327-2.937,0.603-3.264,2.078
					L62,46.877L64.802,59.505z"/>
			</g>
			<g>
				<path class="st5" d="M63.401,53.191l7.789-35.092c0.219-0.986,0.948-1.718,1.846-2.004c-0.343-0.317-0.764-0.558-1.253-0.667
					c-1.475-0.327-2.937,0.603-3.264,2.078L62,46.877L63.401,53.191z"/>
				<path class="st5" d="M51.702,105.901l8.896-40.083l-1.401-6.314l-10.166,45.803c-0.327,1.475,0.603,2.937,2.078,3.264
					c0.489,0.109,0.973,0.068,1.418-0.074C51.834,107.859,51.483,106.887,51.702,105.901z"/>
			</g>
			<g>
				<g>
					
						<rect x="86.109" y="22.508" transform="matrix(0.2167 -0.9762 0.9762 0.2167 42.7826 110.3712)" class="st4" width="8.121" height="12.034"/>
					
						<rect x="109.118" y="28.116" transform="matrix(0.2167 -0.9762 0.9762 0.2167 55.8196 136.8334)" class="st4" width="8.12" height="11.034"/>
				</g>
				<g>
					
						<rect x="72.481" y="28.925" transform="matrix(0.2167 -0.9762 0.9762 0.2167 26.7243 102.1903)" class="st4" width="9.121" height="11.034"/>
					
						<rect x="95.49" y="33.532" transform="matrix(0.2167 -0.9762 0.9762 0.2167 39.761 128.6521)" class="st4" width="9.121" height="12.034"/>
				</g>
				<g>
					
						<rect x="81.765" y="39.828" transform="matrix(0.2167 -0.9762 0.9762 0.2167 22.8637 120.1854)" class="st4" width="9.121" height="12.034"/>
					
						<rect x="104.774" y="45.435" transform="matrix(0.2167 -0.9762 0.9762 0.2167 35.9019 146.6485)" class="st4" width="9.121" height="11.034"/>
				</g>
				<g>
					<polygon class="st4" points="68.479,47.557 66.932,54.53 77.703,56.921 79.463,48.993 68.691,46.602 					"/>
					
						<rect x="92.146" y="50.851" transform="matrix(0.2167 -0.9762 0.9762 0.2167 19.8411 138.4653)" class="st4" width="8.12" height="12.034"/>
				</g>
			</g>
		</g>
		<g>
			<path class="st7" d="M72.89,108.572L72.89,108.572c1.475-0.327,2.406-1.789,2.078-3.264L55.481,17.506
				c-0.327-1.475-1.789-2.406-3.264-2.078l0,0c-1.475,0.327-2.406,1.789-2.078,3.264l19.488,87.802
				C69.954,107.969,71.415,108.9,72.89,108.572z"/>
			<g>
				<g>
					
						<rect x="27.813" y="24.465" transform="matrix(0.9762 -0.2167 0.2167 0.9762 -5.3774 8.0083)" class="st4" width="12.034" height="8.121"/>
					
						<rect x="5.304" y="29.572" transform="matrix(0.9762 -0.2167 0.2167 0.9762 -7.0304 3.1438)" class="st4" width="11.034" height="8.12"/>
				</g>
				<g>
					
						<rect x="41.441" y="29.882" transform="matrix(0.9762 -0.2166 0.2166 0.9762 -6.3465 10.9914)" class="st4" width="11.034" height="9.121"/>
					
						<rect x="17.932" y="34.989" transform="matrix(0.9762 -0.2167 0.2167 0.9762 -8.0006 6.129)" class="st4" width="12.034" height="9.121"/>
				</g>
				<g>
					
						<rect x="31.657" y="41.285" transform="matrix(0.9762 -0.2167 0.2167 0.9762 -9.0388 9.2526)" class="st4" width="12.034" height="9.121"/>
					
						<rect x="9.149" y="46.392" transform="matrix(0.9762 -0.2167 0.2167 0.9762 -10.6916 4.3881)" class="st4" width="11.034" height="9.121"/>
				</g>
				<g>
					
						<rect x="45.285" y="47.701" transform="matrix(0.9762 -0.2167 0.2167 0.9762 -10.0078 12.236)" class="st4" width="11.034" height="8.12"/>
					
						<rect x="21.776" y="52.808" transform="matrix(0.9762 -0.2167 0.2167 0.9762 -11.6625 7.3738)" class="st4" width="12.034" height="8.121"/>
				</g>
				<g>
					
						<rect x="83.741" y="30.924" transform="matrix(0.2167 -0.9762 0.9762 0.2167 33.1043 115.1404)" class="st6" width="9.121" height="12.034"/>
					
						<rect x="93.513" y="42.436" transform="matrix(0.2167 -0.9762 0.9762 0.2167 29.521 133.6976)" class="st6" width="9.121" height="12.034"/>
					<path class="st6" d="M120.854,29.128L74.837,18.915l0.001-0.006c0.216-0.974,0.039-1.974-0.497-2.816
						c-0.536-0.842-1.368-1.424-2.342-1.64c-0.972-0.217-1.974-0.041-2.816,0.496c-0.842,0.536-1.424,1.368-1.641,2.342L62,42.261
						L56.457,17.29c-0.217-0.975-0.799-1.806-1.641-2.342c-0.843-0.537-1.844-0.713-2.816-0.496
						c-0.975,0.216-1.806,0.798-2.342,1.64c-0.536,0.842-0.713,1.842-0.496,2.816l0.001,0.006L3.146,29.128
						c-0.259,0.057-0.484,0.215-0.627,0.439s-0.19,0.495-0.133,0.754l7.905,35.616c0.058,0.259,0.216,0.484,0.439,0.627
						c0.162,0.103,0.349,0.156,0.537,0.156c0.072,0,0.145-0.008,0.217-0.024l46.017-10.214l0.671,3.022l-10.118,45.587
						c-0.445,2.011,0.827,4.01,2.838,4.457c0.271,0.061,0.543,0.089,0.811,0.089c1.712,0,3.26-1.187,3.647-2.927L62,76.75
						l6.65,29.962c0.388,1.739,1.936,2.926,3.647,2.926c0.268,0,0.539-0.029,0.811-0.089c2.011-0.447,3.283-2.446,2.838-4.457
						L73.42,93.716c-0.119-0.54-0.656-0.88-1.193-0.759c-0.539,0.12-0.879,0.654-0.76,1.193l2.525,11.375
						c0.207,0.935-0.384,1.864-1.318,2.072c-0.936,0.203-1.863-0.385-2.071-1.319L51.115,18.475
						c-0.101-0.452-0.02-0.917,0.229-1.308s0.636-0.662,1.089-0.762c0.449-0.1,0.916-0.02,1.309,0.23
						c0.391,0.249,0.662,0.636,0.762,1.088l13.807,62.204c0.119,0.54,0.655,0.881,1.193,0.759c0.539-0.12,0.879-0.654,0.76-1.193
						l-4.437-19.988l0.671-3.023l46.018,10.214c0.072,0.016,0.145,0.024,0.217,0.024c0.188,0,0.375-0.054,0.537-0.156
						c0.224-0.143,0.382-0.368,0.439-0.627l7.904-35.616C121.733,29.782,121.393,29.248,120.854,29.128z M46.296,56.921l-1.76-7.927
						l-11.749,2.608l1.76,7.928l-11.748,2.608l-1.76-7.928L10.268,56.6l-1.976-8.904l10.772-2.391l-1.976-8.904L6.315,38.792
						l-1.76-7.927l10.772-2.391l1.76,7.928l11.749-2.608l-1.76-7.928l11.749-2.608l1.76,7.928l10.772-2.391l1.976,8.904
						L42.56,40.089l1.976,8.904l10.772-2.391l1.759,7.927L46.296,56.921z M53.397,106.277c-0.208,0.934-1.14,1.522-2.071,1.319
						c-0.935-0.208-1.525-1.137-1.318-2.071l9.19-41.404l1.778,8.012L53.397,106.277z M69.495,17.723
						c0.1-0.452,0.371-0.839,0.762-1.088c0.392-0.25,0.859-0.33,1.309-0.23c0.453,0.101,0.84,0.371,1.089,0.763
						c0.249,0.391,0.331,0.855,0.23,1.308l-0.217,0.978c0,0.001-0.001,0.002-0.002,0.004l-6.649,29.958l-1.215,5.474l-1.778-8.012
						L69.495,17.723z M117.684,38.792l-10.772-2.391l-1.976,8.904l10.772,2.391l-1.976,8.904l-10.772-2.391l-1.76,7.928
						l-11.749-2.608l1.76-7.927l-11.749-2.608l-1.76,7.927L66.932,54.53l1.548-6.973l0.212-0.954l10.772,2.391l1.976-8.904
						l-10.772-2.391l1.976-8.904l10.772,2.391l1.76-7.928l11.749,2.608l-1.76,7.928l11.749,2.608l1.76-7.928l10.771,2.391
						L117.684,38.792z"/>
					<path class="st6" d="M69.913,82.533c-0.539,0.12-0.879,0.654-0.76,1.193l1.404,6.327c0.104,0.466,0.517,0.783,0.976,0.783
						c0.072,0,0.145-0.008,0.218-0.024c0.539-0.12,0.879-0.654,0.76-1.193l-1.404-6.327C70.987,82.752,70.452,82.413,69.913,82.533z
						"/>
					
						<rect x="29.681" y="32.381" transform="matrix(0.9762 -0.2167 0.2167 0.9762 -7.1562 8.6124)" class="st6" width="12.034" height="9.121"/>
					
						<rect x="19.908" y="43.893" transform="matrix(0.9762 -0.2167 0.2167 0.9762 -9.8826 6.7685)" class="st6" width="12.034" height="9.121"/>
				</g>
			</g>
		</g>
	</g>
</g>
</svg>
