<?xml version="1.0" encoding="utf-8"?>
<!-- Generator: Adobe Illustrator 24.0.0, SVG Export Plug-In . SVG Version: 6.00 Build 0)  -->
<svg version="1.1" id="Layer_1" xmlns="http://www.w3.org/2000/svg" xmlns:xlink="http://www.w3.org/1999/xlink" x="0px" y="0px"
	 viewBox="0 0 128 128" enable-background="new 0 0 128 128" xml:space="preserve">
<g>
	<g>
		<path fill="#E6E7E8" d="M108.563,51.676c0-9.535-7.758-17.293-17.293-17.293c-6.419,0-12.369,3.627-15.333,9.294H34.633
			c-0.286,0-0.559,0.123-0.749,0.337l-6.196,6.999c-0.335,0.378-0.335,0.947,0,1.326l6.196,6.999
			c0.189,0.214,0.462,0.337,0.749,0.337h3.193c0.235,0,0.462-0.083,0.643-0.234l4.018-3.371l4.018,3.371
			c0.371,0.312,0.914,0.312,1.285,0l4.018-3.371l4.018,3.371c0.371,0.312,0.914,0.312,1.285,0l4.018-3.371l4.018,3.371
			c0.18,0.151,0.408,0.234,0.643,0.234h10.147c2.964,5.667,8.914,9.294,15.333,9.294C100.805,68.969,108.563,61.211,108.563,51.676z
			 M90.549,51.676c0-2.296,1.868-4.164,4.163-4.164s4.163,1.868,4.163,4.164c0,2.295-1.868,4.163-4.163,4.163
			S90.549,53.972,90.549,51.676z"/>
		<path fill="#E6E7E8" d="M125.688,49.515c-1.066-1.188-2.597-1.88-4.198-1.896c-0.019,0-0.037,0-0.056,0
			c-2.813,0-5.248,2.181-5.678,5.096l-2.615,17.707c-1.587-0.203-3.185,0.305-4.371,1.425l-8.579,8.102
			c-2.118,2-4.506,3.684-7.1,5.007l-2.558,1.305c-2.515,1.277-4.657,2.901-6.365,4.826c-5.685,6.381-4.206,16.178-4.01,17.317
			v13.779c0,1.654,1.346,3,3,3h16.585c1.654,0,3-1.346,3-3v-10.85c0-1.566,0.745-3.059,1.994-3.995
			c3.63-2.724,10.288-7.828,14.082-11.41c3.414-3.224,4.543-7.571,4.89-10.651c0.286-2.584,3.411-31.379,3.412-31.39
			C127.277,52.298,126.754,50.704,125.688,49.515z"/>
		<path fill="#E6E7E8" d="M45.469,86.262l-2.56-1.306c-2.595-1.324-4.983-3.008-7.1-5.007l-8.58-8.102
			c-1.186-1.12-2.785-1.628-4.371-1.425l-2.615-17.707c-0.43-2.915-2.866-5.096-5.678-5.096c-0.019,0-0.037,0-0.056,0
			c-1.601,0.017-3.131,0.708-4.198,1.896c-1.067,1.189-1.589,2.783-1.432,4.382c0,0,3.125,28.795,3.411,31.381
			c0.346,3.078,1.476,7.425,4.89,10.649c3.794,3.583,10.451,8.687,14.082,11.411c1.248,0.936,1.993,2.429,1.993,3.995v10.85
			c0,1.654,1.346,3,3,3h16.585c1.654,0,3-1.346,3-3v-13.779c0.196-1.139,1.675-10.936-4.008-17.316
			C50.124,89.162,47.981,87.538,45.469,86.262z"/>
		<path fill="#E6E7E8" d="M60.316,29.136l2.544,0.685c3.23,0.87,5.778,3.417,6.648,6.648l0.685,2.545
			c0.118,0.437,0.514,0.74,0.966,0.74s0.848-0.303,0.966-0.74l0.686-2.545c0.87-3.23,3.417-5.778,6.647-6.648l2.545-0.685
			c0.437-0.118,0.74-0.514,0.74-0.966s-0.303-0.848-0.74-0.966l-2.545-0.685h0c-3.231-0.87-5.779-3.417-6.648-6.648l-0.686-2.545
			c-0.118-0.437-0.514-0.74-0.966-0.74s-0.848,0.303-0.966,0.74l-0.685,2.545c-0.87,3.23-3.417,5.778-6.648,6.648l-2.544,0.685
			c-0.437,0.118-0.74,0.514-0.74,0.966S59.879,29.018,60.316,29.136z"/>
		<path fill="#E6E7E8" d="M39.25,72.236c1.897,0.511,3.393,2.006,3.904,3.903l0.429,1.595c0.118,0.437,0.514,0.74,0.966,0.74
			s0.848-0.303,0.966-0.74l0.43-1.596c0.51-1.896,2.006-3.392,3.903-3.903l1.595-0.429c0.437-0.118,0.74-0.514,0.74-0.966
			s-0.303-0.848-0.74-0.965l-1.595-0.43c0,0,0,0,0,0c-1.897-0.51-3.393-2.006-3.903-3.903l-0.43-1.595
			c-0.118-0.437-0.514-0.74-0.966-0.74s-0.848,0.304-0.966,0.74l-0.429,1.595c-0.511,1.897-2.006,3.393-3.904,3.904l-1.595,0.43
			c-0.437,0.117-0.74,0.513-0.74,0.965s0.304,0.848,0.74,0.966L39.25,72.236z"/>
		<path fill="#E6E7E8" d="M87.981,23.052l1.595,0.43c1.896,0.51,3.393,2.006,3.903,3.903l0.429,1.595
			c0.118,0.437,0.514,0.74,0.966,0.74s0.848-0.303,0.966-0.74l0.43-1.596c0.51-1.897,2.006-3.393,3.903-3.903l1.595-0.43
			c0.437-0.117,0.74-0.513,0.74-0.965s-0.304-0.848-0.74-0.966l-1.595-0.429c-1.897-0.511-3.393-2.006-3.903-3.903l-0.43-1.595
			c-0.118-0.437-0.514-0.74-0.966-0.74s-0.848,0.304-0.966,0.74l-0.429,1.595c-0.511,1.897-2.007,3.393-3.903,3.903l-1.595,0.429
			c-0.437,0.118-0.74,0.514-0.74,0.966S87.545,22.935,87.981,23.052z"/>
	</g>
	<g>
		<path fill="#6DC9F7" d="M87.27,31.383c-6.493,0-12.097,3.799-14.715,9.294H30.633l-6.196,6.999l6.196,6.999h3.193l4.66-3.91
			l4.66,3.91h0.001l4.66-3.91l4.66,3.91h0.001l4.66-3.91l4.66,3.91h10.766c2.618,5.495,8.223,9.294,14.715,9.294
			c8.998,0,16.293-7.294,16.293-16.293S96.268,31.383,87.27,31.383z M90.712,52.839c-2.852,0-5.163-2.312-5.163-5.163
			s2.312-5.163,5.163-5.163s5.163,2.312,5.163,5.163S93.563,52.839,90.712,52.839z"/>
		<g>
			<g>
				<g>
					<g>
						<path fill="#FFD7E5" d="M117.479,44.619c-2.395-0.024-4.384,1.872-4.734,4.242l-2.773,18.781
							c-1.515-0.539-3.266-0.248-4.515,0.932l-8.579,8.102c-2.185,2.064-4.654,3.805-7.332,5.171l-2.559,1.306
							c-2.284,1.16-4.372,2.686-6.071,4.599c-5.656,6.349-3.756,16.564-3.756,16.564v13.867c0,1.105,0.895,2,2,2h16.585
							c1.105,0,2-0.895,2-2v-10.85c0-1.887,0.884-3.663,2.394-4.795c3.556-2.667,10.22-7.772,13.995-11.337
							c3.228-3.048,4.267-7.226,4.583-10.034c0.286-2.585,3.411-31.377,3.411-31.377C122.395,47.05,120.263,44.647,117.479,44.619z"
							/>
						<g>
							<path fill="#FFFFFF" d="M95.744,117.182H79.159c-1.105,0-2-0.895-2-2v3c0,1.105,0.895,2,2,2h16.585c1.105,0,2-0.895,2-2v-3
								C97.744,116.287,96.848,117.182,95.744,117.182z"/>
						</g>
					</g>
				</g>
				<g>
					<g>
						<path fill="#FFD7E5" d="M10.521,44.619c2.395-0.024,4.384,1.872,4.734,4.242l2.773,18.781
							c1.515-0.539,3.266-0.248,4.515,0.932l8.579,8.102c2.185,2.064,4.654,3.805,7.332,5.171l2.559,1.306
							c2.284,1.16,4.372,2.686,6.071,4.599c5.656,6.349,3.756,16.564,3.756,16.564v13.867c0,1.105-0.895,2-2,2H32.257
							c-1.105,0-2-0.895-2-2v-10.85c0-1.887-0.884-3.663-2.394-4.795c-3.556-2.667-10.22-7.772-13.995-11.337
							c-3.228-3.048-4.267-7.226-4.583-10.034C8.999,78.582,5.875,49.79,5.875,49.79C5.606,47.05,7.737,44.647,10.521,44.619z"/>
						<g>
							<path fill="#FFFFFF" d="M48.841,117.182H32.257c-1.105,0-2-0.895-2-2v3c0,1.105,0.895,2,2,2h16.585c1.105,0,2-0.895,2-2v-3
								C50.841,116.287,49.946,117.182,48.841,117.182z"/>
						</g>
					</g>
				</g>
			</g>
		</g>
		<path fill="#FA759E" d="M75.199,23.485l2.545,0.685l-2.545,0.685c-3.587,0.966-6.388,3.767-7.354,7.354l-0.685,2.545l-0.685-2.545
			c-0.966-3.587-3.767-6.388-7.354-7.354l-2.545-0.685l2.545-0.685c3.587-0.966,6.388-3.767,7.354-7.354l0.685-2.545l0.685,2.545
			C68.811,19.718,71.612,22.519,75.199,23.485z"/>
		<path fill="#FA759E" d="M45.587,66.412l1.595,0.429l-1.595,0.429c-2.248,0.605-4.004,2.361-4.609,4.609l-0.429,1.595l-0.429-1.595
			c-0.605-2.248-2.361-4.004-4.609-4.609l-1.595-0.429l1.595-0.429c2.248-0.605,4.004-2.361,4.609-4.609l0.429-1.595l0.429,1.595
			C41.584,64.051,43.339,65.806,45.587,66.412z"/>
		<g>
			<path fill="#FA759E" d="M95.913,17.657l1.595,0.429l-1.595,0.429c-2.248,0.605-4.004,2.361-4.609,4.609l-0.429,1.595
				l-0.429-1.595c-0.605-2.248-2.361-4.004-4.609-4.609l-1.595-0.429l1.595-0.429c2.248-0.605,4.004-2.361,4.609-4.609l0.429-1.595
				l0.429,1.595C91.91,15.296,93.666,17.052,95.913,17.657z"/>
			<g>
				<path fill="#3A2C60" d="M96.875,47.676c0-3.398-2.765-6.164-6.163-6.164s-6.163,2.765-6.163,6.164s2.765,6.163,6.163,6.163
					S96.875,51.075,96.875,47.676z M86.549,47.676c0-2.296,1.868-4.164,4.163-4.164s4.163,1.868,4.163,4.164
					c0,2.295-1.868,4.163-4.163,4.163S86.549,49.972,86.549,47.676z"/>
				<path fill="#3A2C60" d="M104.562,47.676c0-9.535-7.758-17.293-17.293-17.293c-6.419,0-12.369,3.627-15.333,9.294H30.633
					c-0.286,0-0.559,0.123-0.749,0.337l-6.196,6.999c-0.335,0.378-0.335,0.947,0,1.326l6.196,6.999
					c0.189,0.214,0.462,0.337,0.749,0.337h3.193c0.235,0,0.462-0.083,0.643-0.234l4.018-3.371l4.018,3.371
					c0.371,0.312,0.914,0.312,1.285,0l4.018-3.371l4.018,3.371c0.371,0.312,0.914,0.312,1.285,0l4.018-3.371l4.018,3.371
					c0.18,0.151,0.408,0.234,0.643,0.234h10.147c2.964,5.667,8.914,9.294,15.333,9.294C96.805,64.969,104.562,57.211,104.562,47.676
					z M73.457,54.245c-0.166-0.348-0.517-0.57-0.903-0.57H62.152l-4.381-3.676c-0.371-0.312-0.914-0.312-1.285,0l-4.018,3.371
					l-4.018-3.371c-0.371-0.312-0.914-0.312-1.285,0l-4.018,3.371l-4.018-3.371c-0.371-0.312-0.914-0.312-1.285,0l-4.381,3.676
					h-2.379l-5.311-5.999l5.311-5.999h41.471c0.386,0,0.737-0.222,0.903-0.57c2.525-5.3,7.947-8.724,13.813-8.724
					c8.433,0,15.293,6.86,15.293,15.293c0,8.432-6.86,15.292-15.293,15.292C81.404,62.969,75.982,59.544,73.457,54.245z"/>
				<path fill="#3A2C60" d="M121.687,45.515c-1.066-1.188-2.597-1.88-4.198-1.896c-0.019,0-0.037,0-0.056,0
					c-2.813,0-5.248,2.181-5.678,5.096l-2.615,17.707c-1.587-0.203-3.185,0.305-4.371,1.425l-8.579,8.102
					c-2.118,2-4.506,3.684-7.1,5.007l-2.558,1.305c-2.515,1.277-4.657,2.901-6.365,4.826c-5.915,6.639-4.074,16.975-3.993,17.412
					c0.101,0.543,0.621,0.896,1.165,0.8c0.542-0.101,0.901-0.622,0.801-1.165c-0.018-0.097-1.735-9.818,3.521-15.718
					c1.542-1.738,3.485-3.208,5.777-4.373L90,82.737c2.764-1.409,5.309-3.204,7.564-5.334l8.579-8.102
					c0.93-0.877,2.27-1.153,3.494-0.717c0,0,0.001,0,0.001,0c0.506,0.182,0.952,0.474,1.326,0.869
					c1.295,1.372,1.233,3.541-0.138,4.836L95.523,88.74c-0.401,0.379-0.42,1.012-0.041,1.414c0.197,0.208,0.461,0.313,0.727,0.313
					c0.247,0,0.493-0.09,0.687-0.273l15.302-14.451c2.173-2.052,2.271-5.49,0.219-7.664c-0.397-0.42-0.852-0.761-1.348-1.031
					l2.664-18.042c0.288-1.951,1.885-3.436,3.735-3.388c1.057,0.011,2.026,0.448,2.729,1.232c0.704,0.784,1.035,1.793,0.933,2.831
					c0,0-3.125,28.791-3.41,31.374c-0.309,2.747-1.302,6.61-4.275,9.418c-3.723,3.515-10.312,8.566-13.908,11.264
					c-1.75,1.312-2.794,3.403-2.794,5.595v10.85c0,0.551-0.449,1-1,1H79.159c-0.551,0-1-0.449-1-1v-2.115c0-0.552-0.448-1-1-1
					s-1,0.448-1,1v2.115c0,1.654,1.346,3,3,3h16.585c1.654,0,3-1.346,3-3v-10.85c0-1.566,0.745-3.059,1.994-3.995
					c3.63-2.724,10.288-7.828,14.082-11.41c3.414-3.224,4.543-7.571,4.89-10.651c0.286-2.584,3.411-31.379,3.412-31.39
					C123.277,48.298,122.754,46.704,121.687,45.515z"/>
				<path fill="#3A2C60" d="M77.159,113.443c0.552,0,1-0.448,1-1v-4.375c0-0.552-0.448-1-1-1s-1,0.448-1,1v4.375
					C76.159,112.995,76.606,113.443,77.159,113.443z"/>
				<path fill="#3A2C60" d="M41.469,82.262l-2.56-1.306c-2.595-1.324-4.983-3.008-7.1-5.007l-8.58-8.102
					c-1.186-1.12-2.785-1.628-4.371-1.425l-2.615-17.707c-0.43-2.915-2.866-5.096-5.678-5.096c-0.019,0-0.037,0-0.056,0
					c-1.601,0.017-3.131,0.708-4.198,1.896c-1.067,1.189-1.589,2.783-1.432,4.382c0,0,3.125,28.795,3.411,31.381
					c0.346,3.078,1.476,7.425,4.89,10.649c3.794,3.583,10.451,8.687,14.082,11.411c1.248,0.936,1.993,2.429,1.993,3.995v10.85
					c0,1.654,1.346,3,3,3h16.585c1.654,0,3-1.346,3-3v-13.779c0.196-1.139,1.675-10.936-4.008-17.316
					C46.124,85.162,43.981,83.538,41.469,82.262z M49.858,104.133c-0.011,0.06-0.017,0.122-0.017,0.182v13.867c0,0.551-0.449,1-1,1
					H32.256c-0.551,0-1-0.449-1-1v-10.85c0-2.192-1.044-4.284-2.793-5.595c-3.597-2.698-10.186-7.75-13.909-11.265
					c-2.974-2.809-3.966-6.672-4.275-9.417c-0.286-2.584-3.41-31.365-3.41-31.365c-0.103-1.048,0.228-2.057,0.932-2.841
					c0.703-0.784,1.672-1.221,2.729-1.232c1.835-0.046,3.447,1.438,3.735,3.388l2.664,18.042c-0.496,0.27-0.951,0.611-1.348,1.032
					c-2.052,2.173-1.954,5.611,0.219,7.663l15.302,14.451c0.193,0.183,0.44,0.273,0.687,0.273c0.265,0,0.53-0.105,0.727-0.313
					c0.379-0.401,0.361-1.034-0.041-1.414L17.174,74.29c-1.371-1.295-1.433-3.464-0.138-4.835c0.374-0.396,0.82-0.688,1.326-0.87
					c0,0,0.001,0,0.001,0c1.224-0.437,2.563-0.162,3.494,0.717l8.58,8.102c2.254,2.13,4.799,3.924,7.563,5.334l2.562,1.307
					c2.29,1.163,4.233,2.634,5.777,4.373C51.593,94.315,49.876,104.036,49.858,104.133z"/>
				<path fill="#3A2C60" d="M56.316,25.136l2.544,0.685c3.23,0.87,5.778,3.417,6.648,6.648l0.685,2.545
					c0.118,0.437,0.514,0.74,0.966,0.74s0.848-0.303,0.966-0.74l0.686-2.545c0.87-3.23,3.417-5.778,6.647-6.648l2.545-0.685
					c0.437-0.118,0.74-0.514,0.74-0.966s-0.303-0.848-0.74-0.966l-2.545-0.685h0c-3.231-0.87-5.779-3.417-6.648-6.648l-0.686-2.545
					c-0.118-0.437-0.514-0.74-0.966-0.74s-0.848,0.303-0.966,0.74l-0.685,2.545c-0.87,3.23-3.417,5.778-6.648,6.648l-2.544,0.685
					c-0.437,0.118-0.74,0.514-0.74,0.966S55.879,25.018,56.316,25.136z M67.16,17.283c1.151,3.197,3.689,5.735,6.886,6.887
					c-3.197,1.151-5.735,3.69-6.886,6.887c-1.151-3.197-3.689-5.735-6.886-6.887C63.471,23.019,66.009,20.48,67.16,17.283z"/>
				<path fill="#3A2C60" d="M35.25,68.236c1.897,0.511,3.393,2.006,3.904,3.903l0.429,1.595c0.118,0.437,0.514,0.74,0.966,0.74
					s0.848-0.303,0.966-0.74l0.43-1.596c0.51-1.896,2.006-3.392,3.903-3.903l1.595-0.429c0.437-0.118,0.74-0.514,0.74-0.966
					s-0.303-0.848-0.74-0.965l-1.595-0.43c0,0,0,0,0,0c-1.897-0.51-3.393-2.006-3.903-3.903l-0.43-1.595
					c-0.118-0.437-0.514-0.74-0.966-0.74s-0.848,0.304-0.966,0.74l-0.429,1.595c-0.511,1.897-2.006,3.393-3.904,3.904l-1.595,0.43
					c-0.437,0.117-0.74,0.513-0.74,0.965s0.304,0.848,0.74,0.966L35.25,68.236z M40.549,63.47c0.729,1.455,1.916,2.642,3.371,3.371
					c-1.455,0.729-2.642,1.916-3.371,3.371c-0.729-1.455-1.916-2.641-3.371-3.371C38.633,66.112,39.819,64.925,40.549,63.47z"/>
				<path fill="#3A2C60" d="M83.981,19.052l1.595,0.43c1.896,0.51,3.393,2.006,3.903,3.903l0.429,1.595
					c0.118,0.437,0.514,0.74,0.966,0.74s0.848-0.303,0.966-0.74l0.43-1.596c0.51-1.897,2.006-3.393,3.903-3.903l1.595-0.43
					c0.437-0.117,0.74-0.513,0.74-0.965s-0.304-0.848-0.74-0.966l-1.595-0.429c-1.897-0.511-3.393-2.006-3.903-3.903l-0.43-1.595
					c-0.118-0.437-0.514-0.74-0.966-0.74s-0.848,0.304-0.966,0.74l-0.429,1.595c-0.511,1.897-2.007,3.393-3.903,3.903l-1.595,0.429
					c-0.437,0.118-0.74,0.514-0.74,0.966S83.545,18.935,83.981,19.052z M90.875,14.716c0.729,1.455,1.916,2.641,3.371,3.371
					c-1.455,0.729-2.642,1.916-3.371,3.371c-0.729-1.455-1.916-2.642-3.371-3.371C88.959,17.357,90.146,16.17,90.875,14.716z"/>
			</g>
		</g>
	</g>
</g>
</svg>
