<?xml version="1.0" encoding="utf-8"?>
<!-- Generator: Adobe Illustrator 24.0.0, SVG Export Plug-In . SVG Version: 6.00 Build 0)  -->
<svg version="1.1" id="Layer_1" xmlns="http://www.w3.org/2000/svg" xmlns:xlink="http://www.w3.org/1999/xlink" x="0px" y="0px"
	 viewBox="0 0 128 128" enable-background="new 0 0 128 128" xml:space="preserve">
<g>
	<path fill="#E6E7E8" d="M120.464,81.508l-3.811-1.781c1.813-5.503,2.807-11.374,2.807-17.476c0-30.878-25.121-56-56-56
		c-30.878,0-56,25.122-56,56s25.122,56,56,56c7.159,0,14.002-1.365,20.301-3.825c5.577,7.35,11.686,9.552,14.284,10.183
		c0.388,0.094,0.787,0.14,1.187,0.14s0.8-0.047,1.189-0.141c2.969-0.721,10.533-3.498,16.64-13.677
		c4.799-7.998,6.112-18.554,6.469-24.135C123.672,84.557,122.439,82.432,120.464,81.508z"/>
	<g>
		<g>
			<circle fill="#6DC9F7" cx="59.46" cy="58.251" r="55"/>
			<path fill="#FFFFFF" d="M7.46,58.251c0-29.873,23.82-54.165,53.5-54.962c-0.5-0.013-0.997-0.038-1.5-0.038
				c-30.376,0-55,24.624-55,55s24.624,55,55,55c0.503,0,1-0.025,1.5-0.038C31.28,112.416,7.46,88.123,7.46,58.251z"/>
		</g>
		<circle fill="#FA759E" cx="59.46" cy="58.251" r="4.95"/>
		<circle fill="#FA759E" cx="35.076" cy="31.851" r="4.95"/>
		<circle fill="#FA759E" cx="86.776" cy="58.251" r="4.95"/>
		<circle fill="#FA759E" cx="35.526" cy="85.251" r="4.95"/>
		<g>
			<g>
				<path fill="#0089EF" d="M93.433,69.527l-19.01,8.886c-1.616,0.755-2.608,2.477-2.491,4.319
					c0.331,5.172,1.584,15.775,6.329,23.684c5.985,9.977,13.417,12.588,16.019,13.22c0.628,0.152,1.278,0.152,1.905,0
					c2.601-0.632,10.033-3.243,16.019-13.22c4.745-7.909,5.998-18.513,6.328-23.684c0.117-1.841-0.876-3.563-2.491-4.319
					l-19.01-8.886C95.886,68.992,94.576,68.992,93.433,69.527L93.433,69.527z"/>
				<path fill="#6DC9F7" d="M93.813,74.788l-14.995,7.01c-1.275,0.596-2.058,1.954-1.965,3.407
					c0.261,4.08,1.249,12.444,4.992,18.683c4.721,7.87,10.584,9.93,12.636,10.428c0.495,0.12,1.008,0.12,1.503,0
					c2.052-0.498,7.914-2.558,12.636-10.428c3.743-6.239,4.731-14.603,4.992-18.683c0.092-1.452-0.691-2.811-1.965-3.407
					l-14.995-7.01C95.748,74.366,94.715,74.366,93.813,74.788L93.813,74.788z"/>
			</g>
			<g>
				<path fill="#FFFFFF" d="M93.401,104.506c-0.722,0-1.417-0.286-1.931-0.8l-7.201-7.2c-1.067-1.067-1.067-2.796,0-3.863
					c1.065-1.067,2.795-1.066,3.862,0l4.964,4.963l8.974-12.081c0.9-1.211,2.61-1.462,3.821-0.564
					c1.211,0.899,1.463,2.61,0.564,3.821l-10.86,14.621c-0.473,0.637-1.2,1.037-1.993,1.095
					C93.535,104.504,93.468,104.506,93.401,104.506z"/>
				<g>
					<path fill="#3A2C60" d="M110.871,41.684c0.709,2.203,1.28,4.471,1.697,6.742c0.089,0.482,0.509,0.819,0.982,0.819
						c0.06,0,0.12-0.005,0.182-0.017c0.543-0.1,0.902-0.621,0.803-1.164c-0.433-2.355-1.024-4.708-1.76-6.993
						c-0.169-0.526-0.729-0.814-1.259-0.646C110.991,40.595,110.702,41.159,110.871,41.684z"/>
					<path fill="#3A2C60" d="M116.464,77.508l-3.821-1.786c1.814-5.502,2.817-11.369,2.817-17.471c0-2.21-0.13-4.436-0.387-6.615
						c-0.064-0.549-0.563-0.943-1.11-0.876c-0.548,0.064-0.94,0.562-0.876,1.11c0.208,1.773,0.311,3.579,0.344,5.381H92.636
						c-0.422-2.478-2.377-4.434-4.854-4.858c-0.377-7.086-1.415-13.79-3.014-19.845c6.682-1.714,12.68-4.114,17.623-7.11
						c2.961,3.894,5.434,8.236,7.304,12.965c0.203,0.515,0.785,0.764,1.298,0.563c0.513-0.203,0.765-0.784,0.562-1.298
						C103.048,16.152,82.6,2.25,59.46,2.25c-17.74,0-33.569,8.302-43.837,21.214c-0.049,0.05-0.106,0.09-0.145,0.152
						c-0.013,0.02-0.013,0.043-0.024,0.064C7.952,33.208,3.46,45.211,3.46,58.25c0,13.039,4.492,25.042,11.994,34.57
						c0.011,0.021,0.012,0.044,0.025,0.065c0.057,0.09,0.128,0.163,0.205,0.228c10.269,12.869,26.071,21.138,43.777,21.138
						c7.159,0,13.997-1.372,20.295-3.832c5.579,7.356,11.691,9.56,14.289,10.191c0.389,0.094,0.788,0.141,1.188,0.141
						s0.8-0.047,1.188-0.141c2.969-0.721,10.532-3.497,16.64-13.677c4.797-7.993,6.112-18.552,6.47-24.136
						C119.672,80.557,118.439,78.432,116.464,77.508z M92.636,59.25h20.803c-0.101,5.441-1.019,10.681-2.622,15.618l-13.363-6.247
						c-1.415-0.662-3.034-0.661-4.445,0l-5.879,2.748c0.291-2.367,0.509-4.787,0.642-7.259C90.253,63.69,92.213,61.732,92.636,59.25
						z M29.576,85.25c0,0.012,0.002,0.024,0.002,0.036c-4.831,1.543-9.223,3.464-12.994,5.74C9.804,82.178,5.704,71.182,5.485,59.25
						h25.488c0.065,7.269,0.849,14.192,2.201,20.537C31.06,80.701,29.576,82.805,29.576,85.25z M16.584,25.476
						c3.667,2.213,7.923,4.09,12.597,5.611c-0.032,0.251-0.055,0.504-0.055,0.763c0,2.561,1.63,4.743,3.904,5.58
						c-1.261,6.15-1.994,12.822-2.057,19.82H5.485C5.704,45.319,9.804,34.324,16.584,25.476z M60.46,4.302
						c9.335,0.71,17.446,11.301,21.888,26.783c-6.765,1.568-14.189,2.432-21.888,2.501V4.302z M35.526,79.301
						c-0.15,0-0.298,0.012-0.445,0.023c-1.294-6.191-2.045-12.96-2.109-20.073h20.628c0.422,2.479,2.38,4.437,4.859,4.859v16.805
						c-6.112,0.054-12.042,0.627-17.643,1.626C39.829,80.62,37.831,79.301,35.526,79.301z M35.076,37.801
						c2.548,0,4.721-1.614,5.568-3.87c5.651,1.018,11.642,1.601,17.816,1.656v16.805c-2.479,0.422-4.437,2.38-4.859,4.859H32.972
						c0.062-6.879,0.771-13.432,1.987-19.456C34.998,37.796,35.037,37.801,35.076,37.801z M59.46,62.201
						c-2.178,0-3.95-1.772-3.95-3.95c0-2.178,1.772-3.95,3.95-3.95c2.178,0,3.95,1.772,3.95,3.95
						C63.41,60.429,61.638,62.201,59.46,62.201z M58.46,33.587c-6.051-0.054-11.915-0.623-17.44-1.616
						c0.001-0.04,0.006-0.079,0.006-0.12c0-2.218-1.223-4.153-3.027-5.176C42.634,13.629,50.045,4.943,58.46,4.302V33.587z
						 M39.026,31.851c0,2.178-1.772,3.95-3.95,3.95c-2.178,0-3.95-1.772-3.95-3.95c0-2.178,1.772-3.95,3.95-3.95
						C37.254,27.901,39.026,29.673,39.026,31.851z M35.526,81.301c2.178,0,3.95,1.772,3.95,3.95c0,2.178-1.772,3.95-3.95,3.95
						s-3.95-1.772-3.95-3.95C31.576,83.073,33.348,81.301,35.526,81.301z M41.477,85.25c0-0.268-0.024-0.53-0.059-0.789
						c5.409-0.949,11.136-1.493,17.042-1.546v29.284c-8.263-0.629-15.559-9.013-20.209-21.665
						C40.164,89.543,41.477,87.549,41.477,85.25z M60.46,82.915c3.583,0.032,7.101,0.247,10.526,0.615
						c0.336,4.56,1.292,11.816,3.981,18.455c-4.11,6.069-9.102,9.802-14.507,10.213V82.915z M71.015,81.521
						c-3.439-0.364-6.967-0.574-10.555-0.606V64.11c2.479-0.422,4.437-2.38,4.859-4.859h15.598c0.423,2.481,2.383,4.44,4.865,4.86
						c-0.15,2.819-0.406,5.571-0.76,8.245l-11.023,5.153C72.406,78.253,71.31,79.783,71.015,81.521z M90.727,58.25
						c0,2.178-1.772,3.95-3.95,3.95s-3.95-1.772-3.95-3.95c0-2.178,1.772-3.95,3.95-3.95S90.727,56.073,90.727,58.25z
						 M85.782,52.391c-2.482,0.42-4.443,2.378-4.865,4.86H65.319c-0.422-2.479-2.38-4.437-4.859-4.859V35.586
						c7.875-0.07,15.479-0.96,22.418-2.575C84.414,38.908,85.414,45.458,85.782,52.391z M101.139,23.854
						c-4.75,2.845-10.498,5.13-16.904,6.77C80.732,18.543,75.006,9.275,68.161,4.948C81.222,7.042,92.881,13.798,101.139,23.854z
						 M50.689,4.974C44.776,8.746,39.712,16.229,36.192,26.01c-0.362-0.069-0.734-0.109-1.116-0.109
						c-2.32,0-4.328,1.337-5.309,3.279c-4.422-1.442-8.452-3.21-11.936-5.287C25.975,14.043,37.542,7.131,50.689,4.974z
						 M17.832,92.609c3.528-2.104,7.616-3.89,12.104-5.342c0.829,2.29,3.019,3.933,5.591,3.933c0.305,0,0.603-0.03,0.896-0.075
						c3.518,9.494,8.512,16.734,14.317,20.411C37.572,109.389,25.985,102.471,17.832,92.609z M68.203,111.523
						c2.755-1.751,5.326-4.303,7.645-7.522c0.474,1.004,0.988,1.986,1.555,2.931c0.377,0.629,0.761,1.229,1.148,1.803
						C75.242,109.991,71.783,110.933,68.203,111.523z M111.345,105.902c-5.719,9.533-12.673,12.101-15.396,12.763
						c-0.475,0.114-0.958,0.115-1.433,0c-2.725-0.662-9.679-3.23-15.397-12.763c-4.579-7.633-5.843-17.833-6.188-23.233
						c-0.091-1.425,0.68-2.771,1.917-3.35l19.01-8.886c0.437-0.205,0.905-0.307,1.375-0.307c0.469,0,0.938,0.103,1.375,0.307
						l19.01,8.886c1.237,0.579,2.008,1.925,1.917,3.349C117.187,88.07,115.924,98.272,111.345,105.902z"/>
					<path fill="#3A2C60" d="M106.486,84.158c-1.655-1.227-3.995-0.879-5.22,0.771l-8.283,11.15l-4.145-4.144
						c-1.411-1.41-3.871-1.407-5.276,0c-0.705,0.705-1.094,1.642-1.094,2.639c0,0.997,0.389,1.934,1.094,2.639l7.201,7.199
						c0.704,0.705,1.641,1.093,2.638,1.093c0.093,0,0.188-0.003,0.273-0.01c1.083-0.08,2.075-0.625,2.722-1.497l10.86-14.62
						c0.595-0.8,0.842-1.784,0.696-2.77S107.287,84.753,106.486,84.158z M105.651,88.187l-10.86,14.621
						c-0.3,0.404-0.76,0.657-1.271,0.694l-0.119,0.004c-0.463,0-0.896-0.18-1.224-0.507l-7.201-7.2
						c-0.327-0.328-0.508-0.762-0.508-1.225s0.181-0.897,0.509-1.225c0.326-0.327,0.76-0.507,1.223-0.507s0.897,0.18,1.225,0.507
						l4.964,4.963c0.206,0.206,0.49,0.313,0.78,0.29c0.29-0.021,0.557-0.167,0.729-0.401l8.974-12.081
						c0.568-0.767,1.656-0.926,2.422-0.357c0.372,0.276,0.613,0.68,0.681,1.137S105.928,87.815,105.651,88.187z"/>
				</g>
			</g>
		</g>
	</g>
</g>
</svg>
