<?xml version="1.0" encoding="utf-8"?>
<!-- Generator: Adobe Illustrator 24.0.0, SVG Export Plug-In . SVG Version: 6.00 Build 0)  -->
<svg version="1.1" id="Layer_1" xmlns="http://www.w3.org/2000/svg" xmlns:xlink="http://www.w3.org/1999/xlink" x="0px" y="0px"
	 viewBox="0 0 128 128" enable-background="new 0 0 128 128" xml:space="preserve">
<g>
	<path fill="#E6E7E8" d="M111,7H20C12.832,7,7,12.832,7,20v91c0,7.168,5.832,13,13,13h91c7.168,0,13-5.832,13-13V20
		C124,12.832,118.168,7,111,7z"/>
	<g>
		<path fill="#D4FBFF" d="M107,119H16c-6.627,0-12-5.373-12-12V16C4,9.373,9.373,4,16,4h91c6.627,0,12,5.373,12,12v91
			C119,113.627,113.627,119,107,119z"/>
		<path fill="#FFFFFF" d="M107,4H16C9.373,4,4,9.373,4,16v3C4,12.373,9.373,7,16,7h91c6.627,0,12,5.373,12,12v-3
			C119,9.373,113.627,4,107,4z"/>
		<g>
			<g>
				<g>
					<circle fill="#FA759E" cx="23.5" cy="23.5" r="10"/>
					<circle fill="#FFD7E5" cx="23.5" cy="23.5" r="5"/>
				</g>
				<g>
					<circle fill="#FA759E" cx="61.5" cy="23.5" r="10"/>
					<circle fill="#FFD7E5" cx="61.5" cy="23.5" r="5"/>
				</g>
				<g>
					<circle fill="#FA759E" cx="99.5" cy="23.5" r="10"/>
					<circle fill="#FFD7E5" cx="99.5" cy="23.5" r="5"/>
				</g>
			</g>
			<g>
				<g>
					<circle fill="#6DC9F7" cx="23.5" cy="61.5" r="10"/>
					<circle fill="#0089EF" cx="23.5" cy="61.5" r="2.5"/>
				</g>
				<g>
					<circle fill="#6DC9F7" cx="61.5" cy="61.5" r="10"/>
					<circle fill="#0089EF" cx="61.5" cy="61.5" r="2.5"/>
				</g>
				<g>
					<circle fill="#FA759E" cx="99.5" cy="61.5" r="10"/>
					<circle fill="#FFD7E5" cx="99.5" cy="61.5" r="5"/>
				</g>
			</g>
			<g>
				<g>
					<circle fill="#6DC9F7" cx="23.5" cy="99.5" r="10"/>
					<circle fill="#0089EF" cx="23.5" cy="99.5" r="2.5"/>
				</g>
				<g>
					<circle fill="#6DC9F7" cx="61.5" cy="99.5" r="10"/>
					<circle fill="#0089EF" cx="61.5" cy="99.5" r="2.5"/>
				</g>
				<g>
					<circle fill="#FA759E" cx="99.5" cy="99.5" r="10"/>
					<circle fill="#FFD7E5" cx="99.5" cy="99.5" r="5"/>
				</g>
			</g>
		</g>
		<g>
			<path fill="#3A2C60" d="M107,3H16C8.832,3,3,8.832,3,16v91c0,7.168,5.832,13,13,13h91c7.168,0,13-5.832,13-13V55.375
				c0-0.552-0.448-1-1-1s-1,0.448-1,1V107c0,6.065-4.935,11-11,11H16c-6.065,0-11-4.935-11-11V16C5,9.935,9.935,5,16,5h91
				c6.065,0,11,4.935,11,11v25c0,0.552,0.448,1,1,1s1-0.448,1-1V16C120,8.832,114.168,3,107,3z"/>
			<path fill="#3A2C60" d="M119,44c-0.552,0-1,0.448-1,1v6.25c0,0.552,0.448,1,1,1s1-0.448,1-1V45C120,44.448,119.552,44,119,44z"/>
			<path fill="#3A2C60" d="M110.5,23.5c0-6.065-4.935-11-11-11c-5.728,0-10.442,4.402-10.949,10H72.449
				c-0.508-5.598-5.221-10-10.949-10s-10.442,4.402-10.949,10H34.449c-0.508-5.598-5.221-10-10.949-10c-6.065,0-11,4.935-11,11
				s4.935,11,11,11c5.728,0,10.442-4.402,10.949-10h16.102c0.508,5.598,5.221,10,10.949,10s10.442-4.402,10.949-10h16.101
				c0.478,5.268,4.681,9.472,9.949,9.949v16.102c-5.598,0.508-10,5.221-10,10.949s4.402,10.442,10,10.949v16.101
				c-5.598,0.508-10,5.221-10,10.949c0,6.065,4.935,11,11,11s11-4.935,11-11c0-5.728-4.402-10.442-10-10.949V72.449
				c5.598-0.508,10-5.221,10-10.949s-4.402-10.442-10-10.949V34.449C106.098,33.941,110.5,29.227,110.5,23.5z M99.5,14.5
				c4.962,0,9,4.038,9,9c0,4.624-3.507,8.441-8,8.941V23.5c0-0.552-0.448-1-1-1h-8.941C91.059,18.007,94.876,14.5,99.5,14.5z
				 M61.5,14.5c4.624,0,8.441,3.507,8.941,8H52.559C53.059,18.007,56.876,14.5,61.5,14.5z M23.5,32.5c-4.962,0-9-4.038-9-9
				s4.038-9,9-9c4.624,0,8.441,3.507,8.941,8H23.5c-0.552,0-1,0.448-1,1s0.448,1,1,1h8.941C31.941,28.992,28.124,32.5,23.5,32.5z
				 M61.5,32.5c-4.624,0-8.441-3.507-8.941-8h17.882C69.941,28.992,66.124,32.5,61.5,32.5z M90.559,24.5H98.5v7.941
				C94.336,31.978,91.022,28.664,90.559,24.5z M90.5,61.5c0-4.624,3.507-8.441,8-8.941v17.882C94.007,69.941,90.5,66.124,90.5,61.5z
				 M108.5,99.5c0,4.962-4.038,9-9,9s-9-4.038-9-9c0-4.624,3.507-8.441,8-8.941V99.5c0,0.552,0.448,1,1,1s1-0.448,1-1v-8.941
				C104.993,91.059,108.5,94.876,108.5,99.5z M108.5,61.5c0,4.624-3.507,8.441-8,8.941V52.559
				C104.993,53.059,108.5,56.876,108.5,61.5z"/>
			<path fill="#3A2C60" d="M23.5,50.5c-6.065,0-11,4.935-11,11s4.935,11,11,11s11-4.935,11-11S29.565,50.5,23.5,50.5z M23.5,70.5
				c-4.962,0-9-4.038-9-9s4.038-9,9-9s9,4.038,9,9S28.462,70.5,23.5,70.5z"/>
			<path fill="#3A2C60" d="M61.5,50.5c-6.065,0-11,4.935-11,11s4.935,11,11,11s11-4.935,11-11S67.565,50.5,61.5,50.5z M61.5,70.5
				c-4.962,0-9-4.038-9-9s4.038-9,9-9s9,4.038,9,9S66.462,70.5,61.5,70.5z"/>
			<path fill="#3A2C60" d="M23.5,88.5c-6.065,0-11,4.935-11,11s4.935,11,11,11s11-4.935,11-11S29.565,88.5,23.5,88.5z M23.5,108.5
				c-4.962,0-9-4.038-9-9s4.038-9,9-9s9,4.038,9,9S28.462,108.5,23.5,108.5z"/>
			<path fill="#3A2C60" d="M61.5,88.5c-6.065,0-11,4.935-11,11s4.935,11,11,11s11-4.935,11-11S67.565,88.5,61.5,88.5z M61.5,108.5
				c-4.962,0-9-4.038-9-9s4.038-9,9-9s9,4.038,9,9S66.462,108.5,61.5,108.5z"/>
		</g>
	</g>
</g>
</svg>
