<?xml version="1.0" encoding="utf-8"?>
<!-- Generator: Adobe Illustrator 24.0.0, SVG Export Plug-In . SVG Version: 6.00 Build 0)  -->
<svg version="1.1" id="Layer_1" xmlns="http://www.w3.org/2000/svg" xmlns:xlink="http://www.w3.org/1999/xlink" x="0px" y="0px"
	 viewBox="0 0 128 128" enable-background="new 0 0 128 128" xml:space="preserve">
<g>
	<path fill="#E6E7E8" d="M95.052,83.464v-9.885c9.01-3.81,14.793-12.5,14.793-22.329c0-9.114-5.056-17.065-12.508-21.208
		c0.096-0.754,0.163-1.516,0.163-2.292c0-10.201-8.299-18.5-18.5-18.5s-18.5,8.299-18.5,18.5c0,0.909,0.095,1.851,0.243,2.802
		c-3.282,1.93-6.089,4.614-8.183,7.924c-5.254,8.306-5.013,18.743,0.564,26.778l-25.411,40.171
		c-0.153,0.242-0.195,0.538-0.115,0.813l3.145,10.849c0.125,0.433,0.521,0.722,0.959,0.722c0.053,0,0.107-0.004,0.161-0.013
		l11.15-1.806c0.283-0.046,0.532-0.211,0.686-0.453l2.063-3.261c0.125-0.199,0.177-0.436,0.146-0.668l-0.871-6.453l6.204-1.979
		c0.462-0.147,0.752-0.605,0.688-1.086l-0.871-6.453l6.205-1.979c0.462-0.147,0.752-0.605,0.688-1.086l-0.871-6.454l6.204-1.979
		c0.224-0.071,0.416-0.219,0.542-0.418l5.284-8.354c2.37,0.392,4.732,0.428,7.026,0.141v45.606c0,0.286,0.123,0.559,0.337,0.749
		l8.458,7.487c0.189,0.168,0.426,0.251,0.663,0.251s0.474-0.084,0.663-0.251l8.457-7.487c0.214-0.189,0.337-0.462,0.337-0.749
		v-3.859c0-0.235-0.083-0.462-0.234-0.643l-4.185-4.989l4.186-4.99c0.312-0.372,0.312-0.914-0.001-1.285l-4.185-4.989l4.186-4.989
		c0.312-0.372,0.312-0.914-0.001-1.285l-4.185-4.989l4.185-4.989C94.969,83.927,95.052,83.699,95.052,83.464z M66.5,27.75
		c0-6.893,5.607-12.5,12.5-12.5c6.886,0,12.488,5.597,12.499,12.48C89.608,27.255,87.631,27,85.595,27
		c-2.289,0-4.503,0.326-6.604,0.921c-3.646-0.924-7.484-0.991-11.261-0.14c-0.414,0.093-0.812,0.224-1.217,0.337
		C66.509,27.996,66.5,27.867,66.5,27.75z"/>
	<g>
		<g>
			<path fill="#0089EF" d="M81.484,27.791c-10.852-6.864-25.214-3.632-32.078,7.22c-5.269,8.329-4.583,18.722,0.924,26.21
				l-25.77,40.74l3.145,10.849l11.15-1.806l2.063-3.261l-0.982-7.285l7.003-2.233l0-0.001l-0.982-7.285l7.003-2.233l0-0.001
				l-0.982-7.285l7.003-2.233l5.644-8.923c9.125,1.768,18.81-2.065,24.078-10.394C95.568,49.017,92.335,34.655,81.484,27.791z"/>
		</g>
		<g>
			<path fill="#6DC9F7" d="M81.594,24c-12.841,0-23.25,10.409-23.25,23.25c0,9.855,6.135,18.273,14.792,21.656v48.206l8.458,7.487
				l8.458-7.487v-3.859l-4.725-5.631l4.725-5.631v-0.001l-4.725-5.631l4.725-5.631v-0.001l-4.725-5.631l4.725-5.631V68.906
				c8.657-3.384,14.792-11.801,14.792-21.656C104.844,34.409,94.435,24,81.594,24z M81.594,43.752c-3.446,0-6.239-2.793-6.239-6.239
				c0-3.446,2.794-6.239,6.239-6.239s6.239,2.793,6.239,6.239C87.834,40.958,85.04,43.752,81.594,43.752z"/>
			<g>
				<path fill="#FFFFFF" d="M61.344,48.094c0-12.788,9.616-23.244,21.762-24.039C82.606,24.022,82.103,24,81.594,24
					c-12.841,0-23.25,10.409-23.25,23.25c0,9.574,5.797,17.776,14.063,21.339C65.775,64.347,61.344,56.764,61.344,48.094z"/>
			</g>
		</g>
		<g>
			<path fill="#D4FBFF" d="M92.5,23.75c0-9.649-7.851-17.5-17.5-17.5s-17.5,7.851-17.5,17.5c0,1.125,0.119,2.235,0.33,3.327
				c1.213-0.667,2.48-1.222,3.783-1.661C61.545,24.865,61.5,24.31,61.5,23.75c0-7.444,6.056-13.5,13.5-13.5s13.5,6.056,13.5,13.5
				c0,7.318-5.856,13.281-13.126,13.481c-0.004,0.094-0.018,0.186-0.018,0.281c0,1.369,0.446,2.63,1.193,3.659
				C85.474,40.384,92.5,32.877,92.5,23.75z"/>
		</g>
		<g>
			<path fill="#3A2C60" d="M73.137,99.5c0.553,0,1-0.448,1-1v-6.625c0-0.552-0.447-1-1-1s-1,0.448-1,1V98.5
				C72.137,99.052,72.584,99.5,73.137,99.5z"/>
			<path fill="#3A2C60" d="M91.052,79.464v-9.885c9.01-3.81,14.793-12.5,14.793-22.329c0-9.111-5.061-17.049-12.51-21.192
				c0.097-0.759,0.165-1.526,0.165-2.308c0-10.201-8.299-18.5-18.5-18.5s-18.5,8.299-18.5,18.5c0,0.909,0.095,1.851,0.243,2.802
				c-3.282,1.93-6.089,4.614-8.183,7.924c-5.254,8.306-5.013,18.743,0.564,26.778l-25.411,40.171
				c-0.153,0.242-0.195,0.538-0.115,0.813l3.145,10.849c0.125,0.433,0.521,0.722,0.959,0.722c0.053,0,0.107-0.004,0.161-0.013
				l11.15-1.806c0.283-0.046,0.532-0.211,0.686-0.453l2.063-3.261c0.125-0.199,0.177-0.436,0.146-0.668l-0.871-6.453l6.204-1.979
				c0.462-0.147,0.752-0.605,0.688-1.086l-0.871-6.453l6.205-1.979c0.462-0.147,0.752-0.605,0.688-1.086l-0.871-6.454l6.204-1.979
				c0.224-0.071,0.416-0.219,0.542-0.418l5.284-8.354c2.372,0.393,4.731,0.4,7.026,0.109v16.899c0,0.552,0.447,1,1,1s1-0.448,1-1
				V68.906c0-0.412-0.252-0.781-0.636-0.931c-8.6-3.361-14.157-11.497-14.157-20.725c0-12.269,9.982-22.25,22.25-22.25
				c1.981,0,3.896,0.276,5.725,0.764c-0.331,1.985-1.139,3.819-2.304,5.384c-1.02-0.553-2.181-0.875-3.42-0.875
				c-3.992,0-7.239,3.248-7.239,7.239s3.247,7.239,7.239,7.239s7.239-3.248,7.239-7.239c0-0.479-0.053-0.945-0.144-1.397
				c2.031-2.246,3.506-4.983,4.253-7.982c6.519,3.884,10.902,10.993,10.902,19.117c0,9.229-5.557,17.363-14.157,20.725
				c-0.384,0.15-0.636,0.52-0.636,0.931v10.194l-4.49,5.353c-0.313,0.372-0.313,0.914-0.001,1.285l4.186,4.989l-4.185,4.989
				c-0.313,0.372-0.313,0.914-0.001,1.285l4.186,4.99l-4.185,4.989c-0.313,0.372-0.313,0.914,0,1.285l4.49,5.353v3.045l-7.457,6.602
				l-1.262-1.117V70.333c0-0.552-0.447-1-1-1s-1,0.448-1,1v50.044l-4.196-3.715V102c0-0.552-0.447-1-1-1s-1,0.448-1,1v15.113
				c0,0.286,0.123,0.559,0.337,0.749l8.458,7.487c0.189,0.168,0.426,0.251,0.663,0.251s0.474-0.084,0.663-0.251l8.457-7.487
				c0.214-0.189,0.337-0.462,0.337-0.749v-3.859c0-0.235-0.083-0.462-0.234-0.643l-4.185-4.989l4.186-4.99
				c0.312-0.372,0.312-0.914-0.001-1.285l-4.185-4.989l4.186-4.989c0.312-0.372,0.312-0.914-0.001-1.285l-4.185-4.989l4.185-4.989
				C90.969,79.927,91.052,79.699,91.052,79.464z M57.344,47.25c0,9.76,5.706,18.391,14.607,22.243
				c-2.328,0.299-4.729,0.256-7.136-0.211c-0.406-0.079-0.815,0.1-1.036,0.447l-5.449,8.615l-6.657,2.123
				c-0.462,0.147-0.752,0.605-0.688,1.086l0.87,6.454l-6.204,1.979c-0.462,0.147-0.752,0.605-0.688,1.086l0.87,6.454l-6.204,1.979
				c-0.462,0.147-0.752,0.605-0.688,1.086l0.934,6.924l-1.628,2.573l-9.832,1.592l-0.469-1.617l27.699-43.789
				c0.295-0.467,0.156-1.084-0.311-1.38c-0.468-0.295-1.084-0.155-1.38,0.311l-26.753,42.293l-1.56-5.383l25.529-40.359
				c0.22-0.348,0.204-0.795-0.04-1.127c-5.471-7.438-5.818-17.283-0.884-25.083c3.177-5.023,8.12-8.508,13.918-9.813
				c2.37-0.534,4.765-0.662,7.113-0.424C63.054,29.191,57.344,37.565,57.344,47.25z M74.978,23.925
				c-3.642-0.923-7.475-0.993-11.248-0.144c-0.414,0.093-0.812,0.224-1.217,0.337c-0.004-0.123-0.013-0.251-0.013-0.368
				c0-6.893,5.607-12.5,12.5-12.5c6.892,0,12.499,5.606,12.5,12.498C85.607,23.271,83.633,23,81.595,23
				C79.301,23,77.083,23.327,74.978,23.925z M81.595,32.273c0.729,0,1.416,0.165,2.045,0.437c-1.896,1.827-4.352,3.079-7.078,3.426
				C77.171,33.917,79.185,32.273,81.595,32.273z M81.595,42.751c-1.081,0-2.086-0.33-2.921-0.893
				c3.048-0.623,5.815-2.01,8.119-3.937C86.579,40.617,84.343,42.751,81.595,42.751z M77.063,40.093
				c-0.336-0.588-0.556-1.241-0.643-1.942c7.299-0.727,13.08-6.974,13.08-14.401c0-7.995-6.505-14.5-14.5-14.5
				s-14.5,6.505-14.5,14.5c0,0.318,0.018,0.656,0.045,1.007c-0.656,0.245-1.299,0.511-1.927,0.809
				C58.547,24.95,58.5,24.341,58.5,23.75c0-9.098,7.402-16.5,16.5-16.5s16.5,7.402,16.5,16.5
				C91.5,32.012,85.204,39.065,77.063,40.093z"/>
		</g>
	</g>
</g>
</svg>
