<?xml version="1.0" encoding="utf-8"?>
<!-- Generator: Adobe Illustrator 24.0.0, SVG Export Plug-In . SVG Version: 6.00 Build 0)  -->
<svg version="1.1" id="Layer_1" xmlns="http://www.w3.org/2000/svg" xmlns:xlink="http://www.w3.org/1999/xlink" x="0px" y="0px"
	 viewBox="0 0 128 128" enable-background="new 0 0 128 128" xml:space="preserve">
<g>
	<g>
		<path fill="#E6E7E8" d="M97.186,50.117h8.31c0.553,0,1-0.447,1-1s-0.447-1-1-1h-8.31c-0.553,0-1,0.447-1,1
			S96.633,50.117,97.186,50.117z"/>
		<path fill="#E6E7E8" d="M15.434,48.117H7.123c-0.553,0-1,0.447-1,1s0.447,1,1,1h8.311c0.553,0,1-0.447,1-1
			S15.987,48.117,15.434,48.117z"/>
		<path fill="#E6E7E8" d="M85.216,27.211c0.256,0,0.512-0.098,0.707-0.293l5.876-5.876c0.391-0.391,0.391-1.023,0-1.414
			s-1.023-0.391-1.414,0l-5.876,5.876c-0.391,0.391-0.391,1.023,0,1.414C84.704,27.113,84.96,27.211,85.216,27.211z"/>
		<path fill="#E6E7E8" d="M26.697,26.918c0.195,0.195,0.451,0.293,0.707,0.293s0.512-0.098,0.707-0.293
			c0.391-0.391,0.391-1.023,0-1.414l-5.876-5.876c-0.391-0.391-1.023-0.391-1.414,0s-0.391,1.023,0,1.414L26.697,26.918z"/>
		<path fill="#E6E7E8" d="M56.31,16.31c0.553,0,1-0.447,1-1V7c0-0.553-0.447-1-1-1s-1,0.447-1,1v8.31
			C55.31,15.862,55.757,16.31,56.31,16.31z"/>
		<path fill="#E6E7E8" d="M119.93,95.88c0-2.88-2.343-5.223-5.222-5.223H99.975c-0.273,0-0.63-0.043-0.777-0.247
			c-0.178-0.249-0.238-0.9,0.129-1.983c0.142-0.419,0.285-0.792,0.423-1.15c0.524-1.367,1.021-2.658,1.021-5.284
			c0-4.146-2.474-9.89-7.117-9.89c-2.09,0-2.571,2.175-3.181,4.929c-0.469,2.122-1.111,5.027-2.597,8.283
			c-1.188,2.608-3.698,6.493-5.808,9.312c-0.622-1.045-1.751-1.755-3.053-1.755h-4.741l0.153-0.33
			c2.134-4.591,4.945-8.748,8.355-12.355c6.415-6.784,9.947-15.648,9.947-24.958c0-10.666-4.654-20.761-12.77-27.697
			c-8.109-6.931-18.887-9.94-29.573-8.254C34.261,21.819,22.115,34.464,20.16,50.74c-1.309,10.909,2.269,21.694,9.814,29.59
			c3.285,3.437,6.156,7.773,8.534,12.891l4.994,10.746v9.83c0,2.206,1.794,4,4,4h0.67c0.496,4.052,3.953,7.204,8.137,7.204
			s7.641-3.152,8.137-7.204h0.669c0.419,0,0.815-0.083,1.194-0.202v3.843c0,1.965,1.599,3.563,3.563,3.563h9.141
			c1.929,0,3.496-1.543,3.553-3.459c0.215,0.269,0.442,0.531,0.689,0.779c1.727,1.727,4.022,2.678,6.464,2.678
			c0.002,0,0.003,0,0.004,0l22.752-0.009c2.557-0.001,4.636-2.083,4.636-4.646c0-1.165-0.432-2.231-1.143-3.048
			c0.566-0.246,1.088-0.6,1.538-1.049c0.944-0.943,1.465-2.197,1.465-3.532c0-1.579-0.737-2.989-1.886-3.905
			c1.412-0.955,2.342-2.571,2.342-4.398c0-1.653-0.76-3.132-1.948-4.106C118.95,99.379,119.93,97.741,119.93,95.88z"/>
		<path fill="#E6E7E8" d="M124.112,77.91l-3.37-0.815c-1.871-0.453-3.314-1.896-3.768-3.768l-0.816-3.37
			c-0.108-0.449-0.51-0.765-0.972-0.765s-0.863,0.316-0.972,0.765l-0.815,3.37c-0.453,1.871-1.896,3.314-3.768,3.768l-3.371,0.815
			c-0.448,0.108-0.765,0.51-0.765,0.972s0.316,0.863,0.765,0.972l3.371,0.816c1.871,0.453,3.314,1.896,3.768,3.768l0.815,3.371
			c0.108,0.448,0.51,0.765,0.972,0.765s0.863-0.316,0.972-0.765l0.816-3.371c0.453-1.871,1.896-3.314,3.768-3.768l3.37-0.816
			c0.449-0.108,0.765-0.51,0.765-0.972S124.56,78.019,124.112,77.91z"/>
		<path fill="#E6E7E8" d="M95.825,68.563l2.515,0.608c1.303,0.315,2.307,1.319,2.622,2.622l0.608,2.514
			c0.108,0.448,0.51,0.765,0.972,0.765s0.863-0.316,0.972-0.765l0.608-2.514c0.315-1.303,1.32-2.308,2.623-2.622l2.514-0.608
			c0.448-0.108,0.765-0.51,0.765-0.972s-0.316-0.863-0.765-0.972l-2.514-0.608c-1.302-0.315-2.308-1.32-2.623-2.623l-0.608-2.514
			c-0.108-0.448-0.51-0.765-0.972-0.765s-0.863,0.316-0.972,0.765l-0.608,2.514c-0.315,1.303-1.319,2.308-2.622,2.623l-2.515,0.608
			c-0.448,0.108-0.765,0.51-0.765,0.972S95.376,68.455,95.825,68.563z"/>
	</g>
	<g>
		<g>
			<path fill="#D4FBFF" d="M87.729,51.227c0-21.453-19.073-38.451-41.187-34.963c-15.669,2.471-27.498,14.845-29.389,30.595
				c-1.343,11.189,2.556,21.468,9.544,28.779c3.656,3.826,6.489,8.361,8.719,13.16l5.087,10.945h23.613l5.403-11.624
				c2.155-4.636,5.025-8.907,8.536-12.621C84.045,69.164,87.729,60.635,87.729,51.227z"/>
			<path fill="#FFFFFF" d="M17.153,49.859c1.891-15.75,13.719-28.124,29.389-30.595C68.17,15.853,86.877,32.039,87.69,52.821
				c0.024-0.529,0.039-1.06,0.039-1.594c0-21.453-19.073-38.451-41.187-34.963c-15.669,2.471-27.498,14.845-29.389,30.595
				c-0.243,2.025-0.309,4.019-0.221,5.972C16.97,51.848,17.033,50.859,17.153,49.859z"/>
			<path fill="#6DC9F7" d="M52.31,120c3.979,0,7.204-3.226,7.204-7.204H45.105C45.105,116.774,48.331,120,52.31,120z"/>
			<path fill="#0089EF" d="M61.116,112.796H43.503c-1.657,0-3-1.343-3-3V99.744h23.613v10.052
				C64.116,111.452,62.773,112.796,61.116,112.796z"/>
		</g>
		<g>
			<path fill="#FFD7E5" d="M108.552,96.102h1.568c2.379,0,4.308,1.929,4.308,4.308v0c0,2.376-1.924,4.303-4.3,4.308l-1.956,0.004
				h1.807c2.205,0,3.992,1.787,3.992,3.992v0c0,2.207-1.791,3.996-3.999,3.992l-4.864-0.009h3.357c2.013,0,3.646,1.632,3.646,3.646
				v0.006c0,2.01-1.626,3.639-3.635,3.64c-4.725,0.002-14.803,0.006-22.752,0.009c-4.5,0.002-8.146-3.646-8.146-8.145V92.884
				c2.324-2.82,5.722-7.893,7.208-11.154c3.329-7.302,2.487-12.628,4.867-12.628c3.838,0,6.117,4.99,6.117,8.89
				c0,3.114-0.714,4.114-1.391,6.114c-0.687,2.028-0.327,3.551,1.596,3.551h14.733c2.332,0,4.222,1.891,4.222,4.223v0
				c0,2.332-1.89,4.222-4.222,4.222H108.552z"/>
			<path fill="#FA759E" d="M77.577,117.436V92.434c0-1.416-1.15-2.563-2.564-2.563h-9.14c-1.417,0-2.563,1.147-2.563,2.563v25.002
				c0,1.413,1.147,2.564,2.563,2.564h9.14C76.427,120,77.577,118.85,77.577,117.436z"/>
			<path fill="#FFFFFF" d="M72.057,115.818c-1.085,0-1.962-0.877-1.962-1.962s0.877-1.962,1.962-1.962s1.962,0.877,1.962,1.962
				S73.142,115.818,72.057,115.818z"/>
		</g>
		<path fill="#6DC9F7" d="M111.186,66.192l0.816,3.371c0.539,2.226,2.277,3.965,4.504,4.504l3.371,0.816l-3.371,0.816
			c-2.227,0.539-3.965,2.277-4.504,4.504l-0.816,3.371l-0.816-3.371c-0.539-2.226-2.277-3.965-4.504-4.504l-3.371-0.816l3.371-0.816
			c2.227-0.539,3.965-2.277,4.504-4.504L111.186,66.192z"/>
		<g>
			<path fill="#6DC9F7" d="M98.541,57.11l0.608,2.514c0.402,1.661,1.698,2.957,3.359,3.359l2.514,0.608l-2.514,0.608
				c-1.661,0.402-2.957,1.698-3.359,3.359l-0.608,2.514l-0.608-2.514c-0.402-1.661-1.698-2.957-3.359-3.359l-2.514-0.608
				l2.514-0.608c1.661-0.402,2.957-1.698,3.359-3.359L98.541,57.11z"/>
			<g>
				<path fill="#3A2C60" d="M19.661,62.126c-0.176-0.523-0.743-0.805-1.267-0.63c-0.523,0.176-0.806,0.743-0.63,1.267
					c0.853,2.537,1.989,4.983,3.38,7.272c0.188,0.31,0.518,0.48,0.855,0.48c0.177,0,0.356-0.047,0.519-0.146
					c0.472-0.287,0.622-0.901,0.335-1.374C21.54,66.834,20.466,64.522,19.661,62.126z"/>
				<path fill="#3A2C60" d="M93.187,46.117h8.31c0.553,0,1-0.447,1-1s-0.447-1-1-1h-8.31c-0.553,0-1,0.447-1,1
					S92.634,46.117,93.187,46.117z"/>
				<path fill="#3A2C60" d="M11.434,44.117h-8.31c-0.553,0-1,0.447-1,1s0.447,1,1,1h8.31c0.553,0,1-0.447,1-1
					S11.986,44.117,11.434,44.117z"/>
				<path fill="#3A2C60" d="M81.216,23.211c0.256,0,0.512-0.098,0.707-0.293l5.876-5.876c0.391-0.391,0.391-1.023,0-1.414
					s-1.023-0.391-1.414,0l-5.876,5.876c-0.391,0.391-0.391,1.023,0,1.414C80.704,23.113,80.96,23.211,81.216,23.211z"/>
				<path fill="#3A2C60" d="M22.696,22.918c0.195,0.195,0.451,0.293,0.707,0.293s0.512-0.098,0.707-0.293
					c0.391-0.391,0.391-1.023,0-1.414l-5.875-5.876c-0.391-0.391-1.023-0.391-1.414,0s-0.391,1.023,0,1.414L22.696,22.918z"/>
				<path fill="#3A2C60" d="M52.31,12.31c0.553,0,1-0.447,1-1V3c0-0.553-0.447-1-1-1s-1,0.447-1,1v8.31
					C51.31,11.862,51.757,12.31,52.31,12.31z"/>
				<path fill="#3A2C60" d="M115.93,91.88c0.001-1.395-0.542-2.706-1.528-3.693c-0.986-0.986-2.298-1.529-3.693-1.529H95.975
					c-0.273,0-0.63-0.043-0.776-0.247c-0.179-0.249-0.238-0.9,0.128-1.982c0.142-0.418,0.284-0.79,0.422-1.148
					c0.525-1.367,1.021-2.659,1.021-5.287c0-4.146-2.473-9.89-7.116-9.89c-2.091,0-2.572,2.176-3.181,4.93
					c-0.47,2.122-1.112,5.027-2.597,8.282c-1.19,2.609-3.7,6.494-5.809,9.312c-0.622-1.045-1.751-1.755-3.053-1.755h-4.741
					l0.153-0.33c2.134-4.591,4.945-8.748,8.355-12.354c6.415-6.784,9.947-15.647,9.947-24.959c0-10.666-4.654-20.761-12.77-27.697
					c-8.109-6.931-18.887-9.94-29.573-8.254C30.261,17.819,18.114,30.464,16.16,46.74c-0.49,4.09-0.311,8.162,0.533,12.104
					c0.115,0.54,0.645,0.885,1.187,0.769c0.54-0.115,0.885-0.646,0.769-1.187c-0.797-3.727-0.966-7.578-0.502-11.448
					c1.846-15.378,13.319-27.324,28.552-29.728c10.104-1.59,20.296,1.249,27.961,7.8c7.67,6.556,12.069,16.097,12.069,26.177
					c0,8.798-3.339,17.174-9.4,23.584c-3.559,3.765-6.491,8.1-8.717,12.886l-0.545,1.174h-2.193c-1.965,0-3.563,1.599-3.563,3.563
					v6.31h-4.604V61.48h5.704c4.036,0,7.32-3.284,7.32-7.32s-3.284-7.32-7.32-7.32h-0.384c-4.036,0-7.32,3.284-7.32,7.32v5.32
					h-6.793v-5.32c0-4.036-3.284-7.32-7.32-7.32H41.21c-4.036,0-7.32,3.284-7.32,7.32s3.284,7.32,7.32,7.32h5.703v37.264h-5.772
					l-4.816-10.367c-2.471-5.314-5.466-9.832-8.903-13.429c-0.864-0.905-1.687-1.863-2.443-2.85
					c-0.334-0.436-0.962-0.521-1.402-0.184c-0.438,0.336-0.521,0.964-0.184,1.402c0.8,1.042,1.669,2.056,2.583,3.013
					c3.286,3.438,6.158,7.774,8.535,12.891l4.993,10.746v9.83c0,2.206,1.794,4,4,4h0.67c0.496,4.052,3.953,7.204,8.137,7.204
					s7.641-3.152,8.137-7.204h0.67c0.416,0,0.816-0.067,1.193-0.186v3.827c0,1.965,1.599,3.563,3.563,3.563h9.141
					c1.929,0,3.496-1.543,3.553-3.459c0.215,0.269,0.442,0.531,0.689,0.779c1.727,1.727,4.022,2.678,6.464,2.678
					c0.002,0,0.003,0,0.004,0l22.753-0.009c2.556-0.001,4.635-2.083,4.635-4.646c0-1.165-0.432-2.231-1.143-3.048
					c0.566-0.246,1.088-0.6,1.538-1.049c0.944-0.943,1.465-2.197,1.465-3.532c0-1.579-0.737-2.989-1.886-3.905
					c1.412-0.955,2.343-2.571,2.343-4.398c0-1.653-0.76-3.133-1.948-4.106C114.95,95.379,115.93,93.741,115.93,91.88z M57.706,54.16
					c0-2.934,2.387-5.32,5.32-5.32h0.384c2.934,0,5.32,2.387,5.32,5.32s-2.387,5.32-5.32,5.32h-5.704V54.16z M41.21,59.48
					c-2.934,0-5.32-2.387-5.32-5.32s2.387-5.32,5.32-5.32h0.383c2.934,0,5.32,2.387,5.32,5.32v5.32H41.21z M48.913,61.48h6.793
					v37.264h-6.793V61.48z M62.31,100.744v4.525H41.503v-4.525H62.31z M52.31,119c-3.081,0-5.644-2.257-6.124-5.204h12.248
					C57.953,116.743,55.391,119,52.31,119z M61.116,111.796H43.503c-1.103,0-2-0.897-2-2v-2.526H62.31v4.122
					C61.975,111.642,61.565,111.796,61.116,111.796z M76.577,117.437c0,0.862-0.701,1.563-1.563,1.563h-9.141
					c-0.862,0-1.563-0.701-1.563-1.563V92.435c0-0.862,0.701-1.563,1.563-1.563h9.141c0.862,0,1.563,0.701,1.563,1.563V117.437z
					 M110.708,95.102h-9.957c-0.553,0-1,0.447-1,1s0.447,1,1,1h9.369c1.824,0,3.309,1.484,3.309,3.309
					c0,1.82-1.481,3.304-3.302,3.308l-9.376,0.004c-0.553,0-1,0.447-1,1s0.447,1,1,1h9.229c1.649,0,2.992,1.343,2.992,2.992
					c0,0.8-0.312,1.552-0.878,2.117c-0.565,0.564-1.293,0.872-2.119,0.874l-9.224-0.008c-0.553,0-1,0.447-1,1s0.447,1,1,1
					l7.89,0.006c1.377,0.09,2.471,1.239,2.471,2.645c0,1.455-1.183,2.64-2.636,2.641l-22.752,0.009c-0.002,0-0.003,0-0.004,0
					c-1.907,0-3.701-0.743-5.05-2.092c-1.35-1.35-2.093-3.145-2.093-5.054v-18.62c2.318-2.867,5.614-7.788,7.119-11.087
					c1.571-3.447,2.24-6.472,2.729-8.68c0.383-1.729,0.744-3.362,1.229-3.362c3.17,0,5.116,4.595,5.116,7.89
					c0,2.257-0.392,3.278-0.889,4.57c-0.146,0.381-0.298,0.778-0.449,1.224c-0.54,1.597-0.491,2.907,0.142,3.79
					c0.354,0.493,1.058,1.081,2.401,1.081h14.733c0.86,0,1.67,0.335,2.278,0.944c0.608,0.608,0.943,1.417,0.943,2.278
					C113.93,93.656,112.484,95.102,110.708,95.102z"/>
				<path fill="#3A2C60" d="M120.112,73.91l-3.371-0.815c-1.871-0.453-3.314-1.896-3.768-3.768l-0.815-3.37
					c-0.108-0.448-0.51-0.765-0.972-0.765s-0.863,0.316-0.972,0.765l-0.816,3.37c-0.452,1.871-1.896,3.314-3.768,3.768l-3.37,0.815
					c-0.448,0.108-0.765,0.51-0.765,0.972s0.315,0.863,0.765,0.972l3.37,0.816c1.872,0.453,3.315,1.896,3.768,3.768l0.816,3.37
					c0.108,0.449,0.51,0.765,0.972,0.765s0.863-0.316,0.972-0.765l0.815-3.37c0.453-1.871,1.896-3.314,3.768-3.768l3.371-0.816
					c0.448-0.108,0.765-0.51,0.765-0.972S120.561,74.019,120.112,73.91z M111.187,79.418c-0.705-2.154-2.382-3.83-4.536-4.536
					c2.155-0.705,3.831-2.381,4.536-4.535c0.705,2.154,2.381,3.83,4.535,4.535C113.567,75.588,111.892,77.264,111.187,79.418z"/>
				<path fill="#3A2C60" d="M91.825,64.563l2.514,0.608c1.303,0.315,2.307,1.319,2.622,2.622l0.608,2.514
					c0.108,0.448,0.51,0.765,0.972,0.765s0.863-0.315,0.972-0.765l0.609-2.514c0.315-1.303,1.319-2.307,2.622-2.622l2.514-0.608
					c0.448-0.108,0.765-0.51,0.765-0.972s-0.316-0.863-0.765-0.972l-2.514-0.608c-1.303-0.315-2.307-1.32-2.622-2.623l-0.609-2.514
					c-0.108-0.449-0.511-0.765-0.972-0.765c-0.462,0-0.863,0.316-0.972,0.765l-0.608,2.514c-0.315,1.303-1.319,2.308-2.622,2.623
					l-2.514,0.608c-0.448,0.108-0.765,0.51-0.765,0.972S91.377,64.455,91.825,64.563z M98.542,60.901
					c0.551,1.188,1.501,2.139,2.689,2.69c-1.188,0.551-2.14,1.502-2.69,2.689c-0.551-1.188-1.501-2.139-2.689-2.689
					C97.04,63.04,97.99,62.089,98.542,60.901z"/>
			</g>
		</g>
	</g>
</g>
</svg>
