<?xml version="1.0" encoding="utf-8"?>
<!-- Generator: Adobe Illustrator 24.0.0, SVG Export Plug-In . SVG Version: 6.00 Build 0)  -->
<svg version="1.1" id="Layer_1" xmlns="http://www.w3.org/2000/svg" xmlns:xlink="http://www.w3.org/1999/xlink" x="0px" y="0px"
	 viewBox="0 0 128 128" enable-background="new 0 0 128 128" xml:space="preserve">
<g>
	<path fill="#E6E7E8" d="M89.002,75.352c-1.422,0-2.814,0.126-4.171,0.355V23.128c0-2.757-2.243-5-5-5h-21.5v-5.063
		c0-4.089-3.327-7.417-7.417-7.417s-7.417,3.327-7.417,7.417v5.063h-21.5c-2.757,0-5,2.243-5,5v82.313c0,2.757,2.243,5,5,5h44.138
		c3.886,8.773,12.67,14.912,22.867,14.912c13.785,0,25-11.215,25-25S102.788,75.352,89.002,75.352z"/>
	<g>
		<path fill="#6DC9F7" d="M61.002,96.352c0-11.479,8.061-21.07,18.829-23.435V19.128c0-2.209-1.791-4-4-4H17.998
			c-2.209,0-4,1.791-4,4v82.312c0,2.209,1.791,4,4,4h44.791C61.64,102.636,61.002,99.569,61.002,96.352z"/>
		<path fill="#FFFFFF" d="M75.831,102.44H17.998c-2.209,0-4-1.791-4-4v3c0,2.209,1.791,4,4,4h57.833c2.209,0,4-1.791,4-4v-3
			C79.831,100.649,78.04,102.44,75.831,102.44z"/>
		<path fill="#D4FBFF" d="M46.914,2.648L46.914,2.648c-3.544,0-6.417,2.873-6.417,6.417v15.806h12.833V9.064
			C53.331,5.52,50.458,2.648,46.914,2.648z"/>
		<g>
			<path fill="#FA759E" d="M68.157,79.262v-7.2c0-5.523-4.477-10-10-10H54.71c-2.195,1.578-4.882,2.518-7.795,2.518
				s-5.601-0.94-7.795-2.518h-3.448c-5.523,0-10,4.477-10,10v14.44c0,1.105,0.895,2,2,2h34.651
				C63.542,84.978,65.557,81.825,68.157,79.262z"/>
			<ellipse fill="#FFFFFF" cx="46.915" cy="51.29" rx="13.346" ry="13.289"/>
		</g>
		<g>
			<circle fill="#0089EF" cx="85.002" cy="96.352" r="24"/>
			<g>
				<path fill="#FFFFFF" d="M81.581,110.819c-0.971,0-1.906-0.384-2.598-1.076l-9.686-9.685c-1.435-1.435-1.435-3.761,0-5.196
					c1.433-1.435,3.76-1.435,5.195-0.001l6.677,6.676l12.071-16.25c1.21-1.629,3.51-1.967,5.14-0.758
					c1.629,1.21,1.968,3.511,0.758,5.14L84.53,109.336c-0.636,0.857-1.615,1.395-2.68,1.473
					C81.76,110.816,81.671,110.819,81.581,110.819z"/>
				<g>
					<path fill="#3A2C60" d="M79.831,35.75c-0.552,0-1,0.448-1,1v8.125c0,0.552,0.448,1,1,1s1-0.448,1-1V36.75
						C80.831,36.198,80.383,35.75,79.831,35.75z"/>
					<circle fill="#3A2C60" cx="46.914" cy="9.758" r="2.333"/>
					<path fill="#3A2C60" d="M85.002,71.352c-1.422,0-2.814,0.126-4.171,0.355V49.625c0-0.552-0.448-1-1-1s-1,0.448-1,1v22.5
						c-3.598,0.917-6.887,2.616-9.674,4.906v-4.968c0-6.065-4.935-11-11-11h-0.804c2.415-2.558,3.908-5.991,3.908-9.771
						c0-7.879-6.436-14.289-14.346-14.289s-14.346,6.41-14.346,14.289c0,3.781,1.492,7.213,3.908,9.771h-0.804
						c-6.065,0-11,4.935-11,11v14.44c0,1.654,1.346,3,3,3h33.292c-0.622,2.178-0.962,4.474-0.962,6.85c0,2.83,0.48,5.549,1.35,8.088
						H17.998c-1.654,0-3-1.346-3-3V19.128c0-1.654,1.346-3,3-3h21.5v7.743h-4.294c-0.552,0-1,0.448-1,1s0.448,1,1,1h5.294h12.833
						h5.294c0.552,0,1-0.448,1-1s-0.448-1-1-1h-4.294v-7.743h21.5c1.654,0,3,1.346,3,3V32.25c0,0.552,0.448,1,1,1s1-0.448,1-1
						V19.128c0-2.757-2.243-5-5-5h-21.5V9.064c0-4.09-3.327-7.417-7.417-7.417c-4.09,0-7.417,3.327-7.417,7.417v5.063h-21.5
						c-2.757,0-5,2.243-5,5v82.313c0,2.757,2.243,5,5,5h44.139c3.886,8.773,12.67,14.912,22.866,14.912c13.785,0,25-11.215,25-25
						S98.788,71.352,85.002,71.352z M41.498,9.064c0-2.987,2.43-5.417,5.417-5.417s5.417,2.43,5.417,5.417v14.806H41.498V9.064z
						 M46.915,39.001c6.808,0,12.346,5.513,12.346,12.289S53.722,63.58,46.915,63.58s-12.346-5.513-12.346-12.289
						S40.107,39.001,46.915,39.001z M27.672,87.502c-0.551,0-1-0.449-1-1v-14.44c0-4.962,4.038-9,9-9H38.8
						c2.31,1.585,5.104,2.518,8.115,2.518s5.805-0.933,8.115-2.518h3.128c4.962,0,9,4.038,9,9v6.805
						c-2.396,2.445-4.294,5.378-5.532,8.635H27.672z M85.002,119.352c-12.682,0-23-10.318-23-23s10.318-23,23-23s23,10.318,23,23
						S97.685,119.352,85.002,119.352z"/>
					<path fill="#3A2C60" d="M98.975,83.727c-2.07-1.535-5.003-1.102-6.538,0.965l-11.38,15.32L75.2,94.155
						c-0.883-0.882-2.057-1.368-3.306-1.368c-1.249,0-2.423,0.486-3.304,1.369c-0.883,0.882-1.369,2.056-1.369,3.305
						s0.486,2.422,1.369,3.305l9.686,9.685c0.882,0.882,2.056,1.369,3.305,1.369c0.116,0,0.233-0.004,0.342-0.013
						c1.356-0.099,2.599-0.782,3.41-1.874l14.608-19.666c0.745-1.002,1.055-2.234,0.872-3.47
						C100.631,85.562,99.979,84.472,98.975,83.727z M98.335,89.074L83.727,108.74c-0.464,0.625-1.174,1.015-1.958,1.072
						c-0.782,0.06-1.53-0.227-2.079-0.776l-9.686-9.685c-0.505-0.505-0.783-1.177-0.783-1.891c0-0.714,0.278-1.385,0.784-1.891
						c0.504-0.505,1.175-0.783,1.889-0.783c0.715,0,1.387,0.278,1.892,0.783l6.677,6.676c0.205,0.206,0.492,0.309,0.78,0.291
						c0.29-0.021,0.556-0.168,0.729-0.401l12.07-16.25c0.878-1.182,2.557-1.429,3.741-0.552c0.573,0.426,0.947,1.05,1.051,1.756
						C98.939,87.795,98.762,88.5,98.335,89.074z"/>
				</g>
			</g>
		</g>
	</g>
</g>
</svg>
