<?xml version="1.0" encoding="utf-8"?>
<!-- Generator: Adobe Illustrator 22.0.0, SVG Export Plug-In . SVG Version: 6.00 Build 0)  -->
<svg version="1.1" id="Layer_1" xmlns="http://www.w3.org/2000/svg" xmlns:xlink="http://www.w3.org/1999/xlink" x="0px" y="0px"
	 viewBox="0 0 128 128" style="enable-background:new 0 0 128 128;" xml:space="preserve">
<style type="text/css">
	.st0{fill:#E6E7E8;}
	.st1{fill:#0089EF;}
	.st2{fill:#D4FBFF;}
	.st3{fill:#6DC9F7;}
	.st4{fill:#FFD7E5;}
	.st5{fill:#FFFFFF;}
	.st6{fill:#3A2C60;}
	.st7{fill:#FA759E;}
	.st8{fill:none;stroke:#3A2C60;stroke-width:2;stroke-linecap:round;stroke-linejoin:round;stroke-miterlimit:10;}
</style>
<g>
	<path class="st0" d="M117.914,118.368L67,35.574v-9.389h21.134c0.391,0,0.746-0.228,0.909-0.583s0.104-0.772-0.15-1.069
		l-6.176-7.192l6.176-7.192c0.255-0.296,0.313-0.714,0.15-1.069s-0.519-0.583-0.909-0.583H66c-0.553,0-1,0.448-1,1v1.974v13.713
		v10.389l-50.915,82.795c-0.648,1.054-0.675,2.328-0.07,3.408c0.604,1.08,1.702,1.724,2.939,1.724h98.092
		c1.237,0,2.336-0.645,2.939-1.725C118.589,120.696,118.563,119.422,117.914,118.368z"/>
	<g>
		<g>
			<path class="st1" d="M10.937,114.892L62,31.857l51.063,83.036c0.97,1.578-0.165,3.609-2.017,3.609H12.954
				C11.102,118.501,9.967,116.47,10.937,114.892z"/>
			<g>
				<path class="st3" d="M80.844,62.499L62,31.857L43.157,62.499l8.99-6.278c1.36-0.95,3.232-0.613,4.176,0.751l3.413,4.934
					c0.867,1.254,2.72,1.254,3.587,0l3.474-5.023c0.919-1.329,2.727-1.688,4.085-0.812L80.844,62.499z"/>
			</g>
			<path class="st5" d="M112.686,114.278c-0.415,0.405-0.978,0.67-1.64,0.67H12.954c-0.661,0-1.224-0.266-1.64-0.67l-0.378,0.614
				c-0.97,1.578,0.165,3.609,2.017,3.609h98.091c1.852,0,2.987-2.031,2.017-3.609L112.686,114.278z"/>
		</g>
		<g>
			<polygon class="st7" points="84.135,5.499 62,5.499 62,21.185 84.135,21.185 77.398,13.342 			"/>
			<g>
				<path class="st6" d="M113.915,114.369L102.94,96.522c-0.289-0.471-0.905-0.616-1.375-0.328c-0.471,0.29-0.618,0.905-0.328,1.376
					l10.975,17.847c0.263,0.428,0.273,0.945,0.029,1.383c-0.246,0.439-0.692,0.701-1.195,0.701H12.955
					c-0.503,0-0.949-0.262-1.194-0.7c-0.245-0.439-0.234-0.957,0.028-1.384L62,33.766l29.088,47.301
					c0.289,0.471,0.905,0.617,1.375,0.328c0.471-0.29,0.618-0.905,0.328-1.376L63,31.574v-9.389h21.134
					c0.391,0,0.746-0.228,0.909-0.583s0.104-0.772-0.15-1.069l-6.177-7.191l6.177-7.192c0.254-0.296,0.313-0.714,0.15-1.069
					s-0.519-0.583-0.909-0.583H62c-0.553,0-1,0.448-1,1v1.973v13.713v10.389l-50.915,82.795c-0.648,1.054-0.675,2.328-0.07,3.408
					c0.604,1.08,1.702,1.724,2.939,1.724h98.091c1.237,0,2.337-0.645,2.94-1.725S114.563,115.422,113.915,114.369z M63,6.499h18.957
					l-5.318,6.192c-0.321,0.375-0.321,0.928,0,1.303l5.318,6.191H63V7.472V6.499z"/>
				<path class="st6" d="M98.795,93.6c0.188,0.307,0.517,0.476,0.853,0.476c0.179,0,0.359-0.048,0.522-0.148
					c0.471-0.29,0.618-0.905,0.328-1.376l-5.194-8.447c-0.289-0.471-0.906-0.617-1.375-0.328c-0.471,0.29-0.618,0.905-0.328,1.376
					L98.795,93.6z"/>
			</g>
		</g>
	</g>
</g>
</svg>
