<?xml version="1.0" encoding="utf-8"?>
<!-- Generator: Adobe Illustrator 24.0.0, SVG Export Plug-In . SVG Version: 6.00 Build 0)  -->
<svg version="1.1" id="Layer_1" xmlns="http://www.w3.org/2000/svg" xmlns:xlink="http://www.w3.org/1999/xlink" x="0px" y="0px"
	 viewBox="0 0 128 128" enable-background="new 0 0 128 128" xml:space="preserve">
<g>
	<path fill="#E6E7E8" d="M125.288,43.938l-20.447-20.446c-0.188-0.188-0.441-0.293-0.707-0.293h-9.629v-1.246
		c0-3.413-1.449-6.696-3.976-9.006c-2.561-2.341-5.879-3.46-9.347-3.147C74.968,10.358,70.1,15.817,70.1,22.228v0.971h-6.131
		c-2.757,0-5,2.243-5,5v24.004c-0.855-0.342-1.786-0.536-2.762-0.536H17.45c-4.113,0-7.459,3.346-7.459,7.459V81.61
		c0,4.113,3.346,7.459,7.459,7.459h11.158v8.746c0,0.393,0.23,0.75,0.589,0.912c0.132,0.06,0.271,0.088,0.411,0.088
		c0.239,0,0.476-0.086,0.662-0.25l7.702-6.805v17.044c0,4.551,3.703,8.253,8.254,8.253h17.103l12.104,10.692
		c0.187,0.165,0.423,0.25,0.662,0.25c0.14,0,0.279-0.029,0.411-0.088c0.358-0.162,0.589-0.519,0.589-0.912v-9.943h12.652
		c3.209,0,5.989-1.845,7.353-4.525h23.535c2.757,0,5-2.243,5-5V44.696C125.636,44.4,125.505,44.125,125.288,43.938z M88.47,23.199
		H76.134v-1.036c0-3.113,2.208-5.819,5.136-6.293c1.837-0.299,3.623,0.193,5.023,1.385c1.384,1.177,2.177,2.89,2.177,4.699V23.199z"
		/>
	<g>
		<g>
			<g>
				<path fill="#D4FBFF" d="M120.633,40.698l-20.499-20.499H59.969c-2.209,0-4,1.791-4,4v79.333c0,2.209,1.791,4,4,4h56.667
					c2.209,0,4-1.791,4-4V40.696L120.633,40.698z"/>
				<path fill="#FFFFFF" d="M116.635,104.532H59.969c-2.209,0-4-1.791-4-4v3c0,2.209,1.791,4,4,4h56.667c2.209,0,4-1.791,4-4v-3
					C120.635,102.741,118.845,104.532,116.635,104.532z"/>
				<path fill="#6DC9F7" d="M100.136,20.199l-0.002,0.002v16.498c0,2.209,1.791,4,4,4h16.501L100.136,20.199z"/>
			</g>
			<path fill="#FFD7E5" d="M77.273,6.796c-5.816,0.522-10.173,5.592-10.173,11.431l0,7.506h4.035v-7.571
				c0-3.542,2.479-6.714,5.975-7.281c4.478-0.726,8.361,2.727,8.361,7.071v7.78h4.035v-7.78
				C89.505,11.435,83.911,6.201,77.273,6.796z"/>
			<path fill="#FA759E" d="M92.912,49H63.692c-1.105,0-2-0.895-2-2V27.734c0-1.105,0.895-2,2-2h29.221c1.105,0,2,0.895,2,2V47
				C94.912,48.105,94.017,49,92.912,49z"/>
			<g>
				<path fill="#FFFFFF" d="M79.764,34.305c0-0.808-0.655-1.462-1.462-1.462c-0.808,0-1.462,0.655-1.462,1.462
					c0,0.42,0.179,0.795,0.462,1.062V49h2V35.368C79.585,35.101,79.764,34.725,79.764,34.305z"/>
				<path fill="#FFFFFF" d="M84.909,37.117c0-0.808-0.655-1.462-1.462-1.462s-1.462,0.655-1.462,1.462
					c0,0.42,0.179,0.796,0.463,1.062V49h2V38.179C84.73,37.912,84.909,37.536,84.909,37.117z"/>
				<path fill="#FFFFFF" d="M90.832,38.032c0.271-0.187,0.432-0.494,0.432-0.823v-2.864c0.283-0.267,0.462-0.642,0.462-1.062
					c0-0.808-0.655-1.462-1.462-1.462s-1.462,0.655-1.462,1.462c0,0.42,0.179,0.795,0.462,1.062v2.339l-1.953,1.349
					c-0.271,0.187-0.432,0.494-0.432,0.823V49h2v-9.619L90.832,38.032z"/>
				<path fill="#FFFFFF" d="M74.619,37.117c0-0.808-0.655-1.462-1.462-1.462s-1.462,0.655-1.462,1.462
					c0,0.42,0.179,0.795,0.462,1.062V49h2V38.179C74.44,37.912,74.619,37.536,74.619,37.117z"/>
				<path fill="#FFFFFF" d="M69.294,38.034l-1.954-1.349v-2.339c0.283-0.267,0.463-0.643,0.463-1.062
					c0-0.808-0.655-1.462-1.462-1.462c-0.808,0-1.462,0.655-1.462,1.462c0,0.419,0.179,0.795,0.462,1.062v2.865
					c0,0.329,0.161,0.636,0.432,0.823l1.954,1.349V49h2V38.856C69.726,38.528,69.564,38.22,69.294,38.034z"/>
			</g>
		</g>
		<g>
			<path fill="#0089EF" d="M85.747,72.303h-27.08v5.307c0,3.568-2.892,6.459-6.459,6.459H36.639l-1.666,1.472v19.262
				c0,4.006,3.247,7.253,7.253,7.253h17.482L72.095,123v-10.943h13.652c4.006,0,7.253-3.247,7.253-7.253V79.556
				C93,75.55,89.753,72.303,85.747,72.303z"/>
			<g>
				<circle fill="#FFFFFF" cx="47.324" cy="92.892" r="4.76"/>
				<circle fill="#FFFFFF" cx="63.986" cy="92.892" r="4.76"/>
				<circle fill="#FFFFFF" cx="80.649" cy="92.892" r="4.76"/>
			</g>
		</g>
		<g>
			<g>
				<g>
					<path fill="#0089EF" d="M52.207,48.667H13.451c-3.567,0-6.459,2.892-6.459,6.459V77.61c0,3.567,2.892,6.459,6.459,6.459h12.158
						v9.745l11.031-9.745h15.568c3.567,0,6.459-2.892,6.459-6.459V55.126C58.667,51.559,55.775,48.667,52.207,48.667z"/>
					<g>
						<path fill="#3A2C60" d="M120.636,58.25c-0.553,0-1,0.448-1,1V68c0,0.552,0.447,1,1,1s1-0.448,1-1v-8.75
							C121.636,58.698,121.188,58.25,120.636,58.25z"/>
						<path fill="#3A2C60" d="M121.3,39.95l-20.459-20.458c-0.188-0.188-0.441-0.293-0.707-0.293h-9.629v-1.246
							c0-3.413-1.449-6.696-3.976-9.006c-2.561-2.341-5.879-3.46-9.347-3.147C70.968,6.358,66.1,11.817,66.1,18.228v0.971h-6.131
							c-2.757,0-5,2.243-5,5v24.004c-0.855-0.342-1.786-0.536-2.762-0.536H13.45c-4.113,0-7.459,3.346-7.459,7.459V77.61
							c0,4.113,3.346,7.459,7.459,7.459h11.158v8.746c0,0.393,0.23,0.75,0.589,0.912c0.132,0.06,0.271,0.088,0.411,0.088
							c0.239,0,0.476-0.086,0.662-0.25l7.702-6.805v17.044c0,4.551,3.703,8.253,8.254,8.253h17.103l12.104,10.692
							c0.187,0.165,0.423,0.25,0.662,0.25c0.14,0,0.279-0.029,0.411-0.088c0.358-0.162,0.589-0.519,0.589-0.912v-9.943h12.652
							c3.209,0,5.989-1.845,7.353-4.525h23.535c2.757,0,5-2.243,5-5V73c0-0.552-0.447-1-1-1s-1,0.448-1,1v30.532
							c0,1.654-1.346,3-3,3H93.815c0.119-0.558,0.185-1.135,0.185-1.728V79.556c0-4.551-3.702-8.253-8.253-8.253h-26.08V55.126
							c0-2.304-1.051-4.367-2.698-5.737V24.199c0-1.654,1.346-3,3-3H66.1v3.535h-2.408c-1.654,0-3,1.346-3,3V47c0,1.654,1.346,3,3,3
							h29.221c1.654,0,3-1.346,3-3V27.734c0-1.654-1.346-3-3-3h-2.407v-3.535h8.629v15.5c0,2.757,2.243,5,5,5h15.502V54.75
							c0,0.552,0.447,1,1,1s1-0.448,1-1V40.696C121.636,40.406,121.51,40.136,121.3,39.95z M85.747,73.303
							c3.448,0,6.253,2.805,6.253,6.253v25.248c0,3.448-2.805,6.253-6.253,6.253H72.095c-0.553,0-1,0.448-1,1v8.725l-10.725-9.475
							c-0.183-0.162-0.418-0.25-0.662-0.25H42.227c-3.448,0-6.254-2.805-6.254-6.253V85.993l1.045-0.923h15.189
							c4.113,0,7.46-3.346,7.46-7.459v-4.307H85.747z M57.667,55.126V77.61c0,3.01-2.449,5.459-5.46,5.459H36.639
							c-0.244,0-0.479,0.089-0.662,0.25l-9.368,8.277v-7.528c0-0.552-0.447-1-1-1H13.45c-3.01,0-5.459-2.449-5.459-5.459V55.126
							c0-3.01,2.449-5.459,5.459-5.459h38.757C55.218,49.667,57.667,52.116,57.667,55.126z M68.1,18.228
							c0-5.385,4.068-9.969,9.263-10.435c2.894-0.262,5.677,0.674,7.817,2.631c2.113,1.932,3.325,4.677,3.325,7.53v6.78H86.47v-6.78
							c0-2.396-1.05-4.664-2.881-6.222c-1.826-1.554-4.249-2.225-6.64-1.836c-3.886,0.63-6.815,4.185-6.815,8.268v6.57H68.1V18.228z
							 M84.47,19.199H72.134v-1.036c0-3.113,2.208-5.819,5.136-6.293c1.837-0.299,3.623,0.193,5.023,1.385
							c1.384,1.177,2.177,2.89,2.177,4.699V19.199z M93.912,27.734V47c0,0.551-0.448,1-1,1H63.691c-0.552,0-1-0.449-1-1V27.734
							c0-0.551,0.448-1,1-1h29.221C93.464,26.734,93.912,27.183,93.912,27.734z M72.134,24.734v-3.535H84.47v3.535H72.134z
							 M101.134,36.698V22.613l17.086,17.086h-14.086C102.479,39.698,101.134,38.353,101.134,36.698z"/>
						<path fill="#3A2C60" d="M60.875,61.603c0,3.45,1.812,5.953,4.31,5.953c2.497,0,4.31-2.503,4.31-5.953s-1.813-5.953-4.31-5.953
							C62.687,55.65,60.875,58.153,60.875,61.603z M67.494,61.603c0,2.217-1.015,3.953-2.31,3.953s-2.31-1.736-2.31-3.953
							s1.015-3.953,2.31-3.953S67.494,59.386,67.494,61.603z"/>
						<path fill="#3A2C60" d="M83.271,61.603c0,3.45,1.813,5.953,4.31,5.953s4.31-2.503,4.31-5.953s-1.813-5.953-4.31-5.953
							S83.271,58.153,83.271,61.603z M89.891,61.603c0,2.217-1.015,3.953-2.31,3.953s-2.31-1.736-2.31-3.953s1.015-3.953,2.31-3.953
							S89.891,59.386,89.891,61.603z"/>
						<path fill="#3A2C60" d="M99.462,55.65c-2.497,0-4.31,2.503-4.31,5.953s1.813,5.953,4.31,5.953s4.31-2.503,4.31-5.953
							S101.959,55.65,99.462,55.65z M99.462,65.556c-1.295,0-2.31-1.736-2.31-3.953s1.015-3.953,2.31-3.953s2.31,1.736,2.31,3.953
							S100.757,65.556,99.462,65.556z"/>
						<path fill="#3A2C60" d="M73.779,65.556c-0.553,0-1,0.448-1,1s0.447,1,1,1h5.408c0.553,0,1-0.448,1-1s-0.447-1-1-1h-1.704
							V56.65c0-0.361-0.194-0.694-0.509-0.871c-0.313-0.177-0.699-0.17-1.009,0.015l-2.905,1.757
							c-0.473,0.286-0.624,0.9-0.338,1.373c0.284,0.471,0.898,0.625,1.373,0.338l1.388-0.839v7.133H73.779z"/>
						<path fill="#3A2C60" d="M112.168,55.779c-0.314-0.177-0.7-0.17-1.009,0.015l-2.905,1.757c-0.473,0.286-0.624,0.9-0.338,1.373
							c0.284,0.471,0.898,0.625,1.373,0.338l1.388-0.839v7.133h-1.703c-0.553,0-1,0.448-1,1s0.447,1,1,1h5.407c0.553,0,1-0.448,1-1
							s-0.447-1-1-1h-1.704V56.65C112.677,56.289,112.482,55.956,112.168,55.779z"/>
						<path fill="#3A2C60" d="M111.576,72.007c-2.497,0-4.31,2.503-4.31,5.953s1.813,5.953,4.31,5.953s4.31-2.503,4.31-5.953
							S114.073,72.007,111.576,72.007z M111.576,81.913c-1.295,0-2.31-1.736-2.31-3.953s1.015-3.953,2.31-3.953
							s2.31,1.736,2.31,3.953S112.871,81.913,111.576,81.913z"/>
						<path fill="#3A2C60" d="M102.267,81.913h-1.704v-8.906c0-0.361-0.194-0.694-0.509-0.871c-0.313-0.177-0.699-0.17-1.009,0.015
							l-2.905,1.757c-0.473,0.286-0.624,0.9-0.338,1.373c0.284,0.471,0.898,0.625,1.373,0.338l1.388-0.839v7.133h-1.703
							c-0.553,0-1,0.448-1,1s0.447,1,1,1h5.407c0.553,0,1-0.448,1-1S102.819,81.913,102.267,81.913z"/>
						<path fill="#3A2C60" d="M96.859,98.27c-0.553,0-1,0.448-1,1s0.447,1,1,1h5.407c0.553,0,1-0.448,1-1s-0.447-1-1-1h-1.704
							v-8.906c0-0.361-0.194-0.694-0.509-0.871c-0.313-0.177-0.699-0.17-1.009,0.015l-2.905,1.757
							c-0.473,0.286-0.624,0.9-0.338,1.373c0.284,0.472,0.898,0.625,1.373,0.338l1.388-0.839v7.133H96.859z"/>
						<path fill="#3A2C60" d="M108.974,98.27c-0.553,0-1,0.448-1,1s0.447,1,1,1h5.407c0.553,0,1-0.448,1-1s-0.447-1-1-1h-1.704
							v-8.906c0-0.361-0.194-0.694-0.509-0.871c-0.314-0.177-0.7-0.17-1.009,0.015l-2.905,1.757c-0.473,0.286-0.624,0.9-0.338,1.373
							c0.284,0.472,0.898,0.625,1.373,0.338l1.388-0.839v7.133H108.974z"/>
					</g>
				</g>
			</g>
			<g>
				<circle fill="#FFFFFF" cx="47.667" cy="67.002" r="4.239"/>
				<circle fill="#FFFFFF" cx="32.829" cy="67.002" r="4.239"/>
				<circle fill="#FFFFFF" cx="17.991" cy="67.002" r="4.239"/>
			</g>
		</g>
	</g>
</g>
</svg>
