<?xml version="1.0" encoding="utf-8"?>
<!-- Generator: Adobe Illustrator 24.0.0, SVG Export Plug-In . SVG Version: 6.00 Build 0)  -->
<svg version="1.1" id="Layer_1" xmlns="http://www.w3.org/2000/svg" xmlns:xlink="http://www.w3.org/1999/xlink" x="0px" y="0px"
	 viewBox="0 0 128 128" enable-background="new 0 0 128 128" xml:space="preserve">
<g>
	<path fill="#E6E7E8" d="M103.432,6.5H27.568c-6.065,0-11,4.935-11,11v75.863c0,6.065,4.935,11,11,11h16.109
		C44.579,115.617,54.018,124.5,65.5,124.5s20.921-8.883,21.823-20.137h16.109c6.065,0,11-4.935,11-11V17.5
		C114.432,11.435,109.497,6.5,103.432,6.5z"/>
	<g>
		<g>
			<path fill="#D4FBFF" d="M99.431,99.363H23.568c-5.523,0-10-4.477-10-10V13.5c0-5.523,4.477-10,10-10h75.863
				c5.523,0,10,4.477,10,10v75.863C109.431,94.886,104.954,99.363,99.431,99.363z"/>
			<path fill="#FFFFFF" d="M99.431,3.5H23.568c-5.523,0-10,4.477-10,10v3c0-5.523,4.477-10,10-10h75.863c5.523,0,10,4.477,10,10v-3
				C109.431,7.977,104.954,3.5,99.431,3.5z"/>
			<g>
				<g>
					<path fill="#0089EF" d="M98.491,23.402c-1.151,0-2.084-0.933-2.084-2.084v-5.21h-5.21c-1.151,0-2.084-0.933-2.084-2.084
						s0.933-2.084,2.084-2.084h7.294c1.151,0,2.084,0.933,2.084,2.084v7.294C100.575,22.469,99.642,23.402,98.491,23.402z"/>
					<path fill="#0089EF" d="M24.509,23.402c1.151,0,2.084-0.933,2.084-2.084v-5.21h5.21c1.151,0,2.084-0.933,2.084-2.084
						s-0.933-2.084-2.084-2.084h-7.294c-1.151,0-2.084,0.933-2.084,2.084v7.294C22.425,22.469,23.358,23.402,24.509,23.402z"/>
				</g>
				<g>
					<path fill="#0089EF" d="M98.491,79.461c-1.151,0-2.084,0.933-2.084,2.084v5.21h-5.21c-1.151,0-2.084,0.933-2.084,2.084
						c0,1.151,0.933,2.084,2.084,2.084h7.294c1.151,0,2.084-0.933,2.084-2.084v-7.294C100.575,80.394,99.642,79.461,98.491,79.461z"
						/>
					<path fill="#0089EF" d="M24.509,79.461c1.151,0,2.084,0.933,2.084,2.084v5.21h5.21c1.151,0,2.084,0.933,2.084,2.084
						c0,1.151-0.933,2.084-2.084,2.084h-7.294c-1.151,0-2.084-0.933-2.084-2.084v-7.294C22.425,80.394,23.358,79.461,24.509,79.461z
						"/>
				</g>
			</g>
		</g>
		<g>
			<path fill="#FFD7E5" d="M78.483,81.229c-1.549-0.12-2.927,0.599-3.761,1.741h-0.027v-1.421c0-2.242-1.637-4.262-3.871-4.456
				c-2.52-0.219-4.632,1.761-4.632,4.235c0-2.348-1.904-4.252-4.252-4.252h0c-1.934,0-3.547,1.299-4.063,3.065l0-18.365
				c0-2.4-1.946-4.346-4.346-4.346h0c-2.4,0-4.346,1.946-4.346,4.346v22.569c-0.402-1.939-1.983-3.521-4.006-3.627
				c-2.506-0.131-4.58,1.862-4.58,4.34v13.54c0,11.543,9.358,20.901,20.901,20.901h0c11.543,0,20.901-9.358,20.901-20.901V85.66
				C82.401,83.406,80.731,81.403,78.483,81.229z"/>
			<g>
				<path fill="#3A2C60" d="M99.432,2.5H23.568c-6.065,0-11,4.935-11,11v75.863c0,6.065,4.935,11,11,11h16.109
					C40.579,111.617,50.018,120.5,61.5,120.5s20.921-8.883,21.823-20.137h16.109c6.065,0,11-4.935,11-11V59.5c0-0.552-0.447-1-1-1
					s-1,0.448-1,1v29.863c0,4.962-4.037,9-9,9H83.4V85.66c0-2.425-1.563-4.51-3.714-5.196c5.354-4.98,8.446-11.935,8.446-19.447
					V41.845c0-6.428-2.321-12.635-6.536-17.477c-0.361-0.417-0.994-0.459-1.41-0.098c-0.417,0.363-0.461,0.994-0.098,1.411
					c3.897,4.478,6.044,10.218,6.044,16.164v19.172c0,7.72-3.531,14.802-9.544,19.45c-0.323,0.101-0.639,0.222-0.935,0.384
					c-0.086-0.691-0.307-1.338-0.619-1.928c5.418-4.105,8.931-10.599,8.931-17.906c0-0.552-0.447-1-1-1s-1,0.448-1,1
					c0,6.673-3.215,12.604-8.172,16.343c-0.616-0.539-1.345-0.935-2.152-1.131c4.911-3.285,8.157-8.873,8.157-15.212v-6.668
					c0-0.552-0.447-1-1-1s-1,0.448-1,1v6.668c0,7.841-5.571,14.39-12.959,15.936c-0.831-0.552-1.827-0.877-2.898-0.877
					c-1.123,0-2.189,0.369-3.063,1.005v-2.196c0.85,0.165,1.724,0.261,2.622,0.261c7.791,0,14.129-6.338,14.129-14.129V41.845
					c0-5.339-2.957-10.165-7.717-12.593c-0.494-0.252-1.095-0.056-1.345,0.436c-0.251,0.492-0.056,1.094,0.437,1.345
					c4.086,2.085,6.625,6.228,6.625,10.812v19.172c0,6.688-5.441,12.129-12.129,12.129c-0.901,0-1.777-0.103-2.622-0.291v-2.241
					c0.836,0.232,1.713,0.364,2.622,0.364c5.492,0,9.961-4.468,9.961-9.961V46.221c0-0.552-0.447-1-1-1s-1,0.448-1,1v14.796
					c0,4.39-3.571,7.961-7.961,7.961c-0.92,0-1.8-0.167-2.622-0.458v-2.357c0.789,0.405,1.675,0.647,2.622,0.647
					c3.194,0,5.793-2.599,5.793-5.793v-8.544c0-0.552-0.447-1-1-1s-1,0.448-1,1v8.544c0,2.091-1.701,3.793-3.793,3.793
					c-1.025,0-1.944-0.417-2.622-1.081v-1.953c0-1.25-0.449-2.386-1.171-3.298V45.388c0-0.552-0.447-1-1-1s-1,0.448-1,1v11.516
					c-0.664-0.298-1.395-0.471-2.168-0.472V41.845c0-4.39,3.571-7.961,7.961-7.961s7.961,3.571,7.961,7.961c0,0.552,0.447,1,1,1
					s1-0.448,1-1c0-5.493-4.469-9.961-9.961-9.961s-9.961,4.468-9.961,9.961v14.979c-0.861,0.348-1.597,0.922-2.168,1.636v-8.28
					c0-0.552-0.447-1-1-1s-1,0.448-1,1v10.836c0,1.648,0.291,3.227,0.814,4.697v4.646c-1.879-2.671-2.982-5.903-2.982-9.343
					c0-0.552-0.447-1-1-1s-1,0.448-1,1c0,4.771,1.887,9.183,4.982,12.489v3.006c-4.367-3.754-7.15-9.298-7.15-15.495V41.845
					c0-0.552-0.447-1-1-1s-1,0.448-1,1v19.172c0,7.405,3.607,13.978,9.15,18.073v1.775c-0.736-0.594-1.624-0.97-2.576-1.094
					c-5.358-4.563-8.742-11.34-8.742-18.754v-7.085c0-0.552-0.447-1-1-1s-1,0.448-1,1v7.085c0,7.382,3.097,14.192,8.11,19.079
					c-0.625,0.248-1.207,0.606-1.712,1.084c-1.074,1.02-1.666,2.397-1.666,3.878v13.304H23.568c-4.963,0-9-4.038-9-9V13.5
					c0-4.962,4.037-9,9-9h75.863c4.963,0,9,4.038,9,9v29.97c0,0.552,0.447,1,1,1s1-0.448,1-1V13.5
					C110.432,7.435,105.497,2.5,99.432,2.5z M41.6,85.059c0-0.927,0.37-1.79,1.043-2.428c0.628-0.596,1.439-0.919,2.302-0.919
					c0.061,0,0.121,0.002,0.182,0.005c1.461,0.076,2.707,1.208,3.06,2.76v13.345c0,0.552,0.447,1,1,1s1-0.448,1-1V61.776
					c0-1.845,1.501-3.346,3.346-3.346c1.846,0,3.347,1.501,3.347,3.346l0.003,26.343c0,0.552,0.447,1,1,1s1-0.448,1-1v-7.81
					c0.443-1.338,1.654-2.232,3.06-2.232c1.793,0,3.252,1.458,3.252,3.251v6.791c0,0.552,0.447,1,1,1s1-0.448,1-1v-6.791
					c0-0.909,0.385-1.783,1.055-2.398c0.681-0.624,1.576-0.919,2.49-0.841c1.659,0.144,2.959,1.664,2.959,3.459v6.57
					c0,0.552,0.447,1,1,1s1-0.448,1-1v-4.735c0.677-0.798,1.66-1.237,2.71-1.158c1.679,0.13,2.994,1.638,2.994,3.434v12.939
					c0,10.973-8.928,19.901-19.9,19.901s-19.9-8.928-19.9-19.901V85.059z"/>
				<path fill="#3A2C60" d="M109.432,46.75c-0.553,0-1,0.448-1,1v7.849c0,0.552,0.447,1,1,1s1-0.448,1-1V47.75
					C110.432,47.198,109.984,46.75,109.432,46.75z"/>
				<path fill="#3A2C60" d="M101.574,14.024c0-1.701-1.384-3.084-3.084-3.084h-7.294c-1.7,0-3.083,1.383-3.083,3.084
					s1.383,3.084,3.083,3.084h4.21v4.21c0,1.701,1.384,3.084,3.084,3.084s3.084-1.383,3.084-3.084V14.024z M99.574,21.318
					c0,0.598-0.486,1.084-1.084,1.084s-1.084-0.486-1.084-1.084v-5.21c0-0.552-0.447-1-1-1h-5.21c-0.598,0-1.083-0.486-1.083-1.084
					s0.485-1.084,1.083-1.084h7.294c0.598,0,1.084,0.486,1.084,1.084V21.318z"/>
				<path fill="#3A2C60" d="M31.803,10.94h-7.294c-1.7,0-3.084,1.383-3.084,3.084v7.294c0,1.701,1.384,3.084,3.084,3.084
					s3.084-1.383,3.084-3.084v-4.21h4.21c1.7,0,3.084-1.383,3.084-3.084S33.503,10.94,31.803,10.94z M31.803,15.108h-5.21
					c-0.553,0-1,0.448-1,1v5.21c0,0.598-0.486,1.084-1.084,1.084s-1.084-0.486-1.084-1.084v-7.294c0-0.598,0.486-1.084,1.084-1.084
					h7.294c0.598,0,1.084,0.486,1.084,1.084S32.4,15.108,31.803,15.108z"/>
				<path fill="#3A2C60" d="M98.49,78.461c-1.7,0-3.084,1.383-3.084,3.084v4.21h-4.21c-1.7,0-3.083,1.383-3.083,3.084
					s1.383,3.084,3.083,3.084h7.294c1.7,0,3.084-1.383,3.084-3.084v-7.294C101.574,79.844,100.19,78.461,98.49,78.461z
					 M99.574,88.839c0,0.598-0.486,1.084-1.084,1.084h-7.294c-0.598,0-1.083-0.486-1.083-1.084s0.485-1.084,1.083-1.084h5.21
					c0.553,0,1-0.448,1-1v-5.21c0-0.598,0.486-1.084,1.084-1.084s1.084,0.486,1.084,1.084V88.839z"/>
				<path fill="#3A2C60" d="M24.509,78.461c-1.7,0-3.084,1.383-3.084,3.084v7.294c0,1.701,1.384,3.084,3.084,3.084h7.294
					c1.7,0,3.084-1.383,3.084-3.084s-1.384-3.084-3.084-3.084h-4.21v-4.21C27.593,79.844,26.209,78.461,24.509,78.461z
					 M31.803,87.755c0.598,0,1.084,0.486,1.084,1.084s-0.486,1.084-1.084,1.084h-7.294c-0.598,0-1.084-0.486-1.084-1.084v-7.294
					c0-0.598,0.486-1.084,1.084-1.084s1.084,0.486,1.084,1.084v5.21c0,0.552,0.447,1,1,1H31.803z"/>
				<path fill="#3A2C60" d="M61.5,15.212c-14.686,0-26.633,11.948-26.633,26.633v8.544c0,0.552,0.447,1,1,1s1-0.448,1-1v-8.544
					c0-13.583,11.05-24.633,24.633-24.633c5.952,0,11.697,2.151,16.178,6.058c0.416,0.362,1.047,0.32,1.411-0.097
					c0.362-0.417,0.319-1.048-0.097-1.411C74.147,17.538,67.936,15.212,61.5,15.212z"/>
				<path fill="#3A2C60" d="M78.797,50.764c0.553,0,1-0.448,1-1v-7.919c0-10.089-8.208-18.297-18.297-18.297
					s-18.297,8.208-18.297,18.297v15.421c0,0.552,0.447,1,1,1s1-0.448,1-1V41.845c0-8.986,7.311-16.297,16.297-16.297
					s16.297,7.311,16.297,16.297v7.919C77.797,50.316,78.244,50.764,78.797,50.764z"/>
				<path fill="#3A2C60" d="M47.371,41.845v4.376c0,0.552,0.447,1,1,1s1-0.448,1-1v-4.376c0-6.688,5.441-12.129,12.129-12.129
					c0.553,0,1-0.448,1-1s-0.447-1-1-1C53.709,27.716,47.371,34.055,47.371,41.845z"/>
				<path fill="#3A2C60" d="M61.5,19.38c-5.21,0-10.288,1.824-14.297,5.136c-0.426,0.352-0.486,0.982-0.134,1.408
					c0.351,0.426,0.981,0.487,1.407,0.134c3.651-3.017,8.277-4.678,13.023-4.678c11.284,0,20.465,9.181,20.465,20.465
					c0,0.552,0.447,1,1,1s1-0.448,1-1C83.965,29.458,73.887,19.38,61.5,19.38z"/>
				<path fill="#3A2C60" d="M46.389,26.568c-0.406-0.374-1.038-0.348-1.413,0.058c-3.14,3.408-5.123,7.625-5.738,12.195
					c-0.073,0.547,0.311,1.051,0.858,1.125c0.045,0.006,0.09,0.009,0.134,0.009c0.493,0,0.923-0.365,0.99-0.867
					c0.56-4.162,2.367-8.002,5.227-11.106C46.82,27.575,46.795,26.942,46.389,26.568z"/>
				<path fill="#3A2C60" d="M82.965,44.805c-0.553,0-1,0.448-1,1v12.087c0,0.552,0.447,1,1,1s1-0.448,1-1V45.805
					C83.965,45.252,83.518,44.805,82.965,44.805z"/>
				<path fill="#3A2C60" d="M66.293,49.931c0.553,0,1-0.448,1-1v-7.085c0-3.194-2.599-5.793-5.793-5.793s-5.793,2.599-5.793,5.793
					c0,0.552,0.447,1,1,1s1-0.448,1-1c0-2.091,1.701-3.793,3.793-3.793s3.793,1.702,3.793,3.793v7.085
					C65.293,49.483,65.74,49.931,66.293,49.931z"/>
				<path fill="#3A2C60" d="M60.708,42.47v18.964c0,0.552,0.447,1,1,1s1-0.448,1-1V42.47c0-0.552-0.447-1-1-1
					S60.708,41.918,60.708,42.47z"/>
			</g>
		</g>
	</g>
</g>
</svg>
