<svg xmlns="http://www.w3.org/2000/svg" viewBox="0 0 128 128"><title>icon</title><path d="M121,62.341h-1.461a53.741,53.741,0,0,0-49.58-49.857V11a3.5,3.5,0,0,0-3.5-3.5h-.618a3.5,3.5,0,0,0-3.5,3.5v1.461a53.741,53.741,0,0,0-49.857,49.58H11a3.5,3.5,0,0,0-3.5,3.5v.618a3.5,3.5,0,0,0,3.5,3.5h1.461a53.741,53.741,0,0,0,49.58,49.857V121a3.5,3.5,0,0,0,3.5,3.5h.618a3.5,3.5,0,0,0,3.5-3.5v-1.461a53.741,53.741,0,0,0,49.857-49.58H121a3.5,3.5,0,0,0,3.5-3.5v-.618A3.5,3.5,0,0,0,121,62.341Z" fill="#e6e7e8"/><circle cx="62" cy="62" r="52.678" fill="#d4fbff"/><polygon points="62 41.593 67.336 58.016 84.604 58.016 70.634 68.166 75.97 84.588 62 74.439 48.03 84.588 53.366 68.166 39.396 58.016 56.664 58.016 62 41.593" fill="#fa759e"/><path d="M62,9.322A52.678,52.678,0,1,0,114.678,62,52.739,52.739,0,0,0,62,9.322Zm0,99.737A47.059,47.059,0,1,1,109.059,62,47.059,47.059,0,0,1,62,109.059Z" fill="#6dc9f7"/><path d="M62,22.434A39.566,39.566,0,1,0,101.566,62,39.566,39.566,0,0,0,62,22.434Zm0,73.513A33.947,33.947,0,1,1,95.948,62,33.985,33.985,0,0,1,62,95.947Z" fill="#6dc9f7"/><path d="M62,31.053A33.985,33.985,0,0,1,95.909,63.5c.022-.5.038-1,.038-1.5a33.947,33.947,0,0,0-67.894,0c0,.5.016,1,.038,1.5A33.986,33.986,0,0,1,62,31.053Z" fill="#fff"/><rect x="59.341" y="4.5" width="5.619" height="31.138" rx="2.5" ry="2.5" fill="#0089ef"/><rect x="4.5" y="59.041" width="31.138" height="5.619" rx="2.5" ry="2.5" fill="#0089ef"/><rect x="59.041" y="88.362" width="5.619" height="31.138" rx="2.5" ry="2.5" fill="#0089ef"/><rect x="88.362" y="59.341" width="31.138" height="5.619" rx="2.5" ry="2.5" fill="#0089ef"/><path d="M75.97,85.588a1,1,0,0,0,.951-1.309L71.81,68.548l13.381-9.724a1,1,0,0,0-.587-1.808H68.062L62.951,41.285a1,1,0,0,0-1.9,0L55.937,57.016H39.4a1,1,0,0,0-.587,1.808L52.19,68.548,47.079,84.279A1,1,0,0,0,48.618,85.4L62,75.675,75.382,85.4A1,1,0,0,0,75.97,85.588ZM62.588,73.63a1,1,0,0,0-1.176,0L49.933,81.97l4.384-13.5a1,1,0,0,0-.363-1.118l-11.48-8.341h14.19a1,1,0,0,0,.951-.692L62,44.83l4.385,13.494a1,1,0,0,0,.951.692h14.19l-11.48,8.341a1,1,0,0,0-.363,1.118l4.384,13.5Z" fill="#3a2c60"/><path d="M82.94,87.418a1,1,0,0,0,1.274,1.543,35.288,35.288,0,0,0,6.317-6.8A1,1,0,0,0,88.9,81.005,33.242,33.242,0,0,1,82.94,87.418Z" fill="#3a2c60"/><path d="M117,58.341h-1.46A53.741,53.741,0,0,0,65.959,8.486V7a3.5,3.5,0,0,0-3.5-3.5h-.618a3.5,3.5,0,0,0-3.5,3.5V8.462A53.737,53.737,0,0,0,8.488,58.041H7a3.5,3.5,0,0,0-3.5,3.5v.618a3.5,3.5,0,0,0,3.5,3.5H8.461a53.741,53.741,0,0,0,49.58,49.857V117a3.5,3.5,0,0,0,3.5,3.5h.618a3.5,3.5,0,0,0,3.5-3.5v-1.461a53.739,53.739,0,0,0,49.855-49.58H117a3.5,3.5,0,0,0,3.5-3.5v-.618A3.5,3.5,0,0,0,117,58.341Zm-3.467,0H109.9A48.109,48.109,0,0,0,65.959,14.126V10.493A51.735,51.735,0,0,1,113.533,58.341Zm-16.8,0A34.989,34.989,0,0,0,65.959,27.294V23.658a38.607,38.607,0,0,1,34.414,34.683Zm5.643,0A40.609,40.609,0,0,0,65.959,21.649V16.134A46.106,46.106,0,0,1,107.9,58.341ZM60.341,7a1.5,1.5,0,0,1,1.5-1.5h.618a1.5,1.5,0,0,1,1.5,1.5V33.138a1.5,1.5,0,0,1-1.5,1.5h-.618a1.5,1.5,0,0,1-1.5-1.5Zm-2,20.263A34.99,34.99,0,0,0,27.292,58.041H23.657A38.608,38.608,0,0,1,58.341,23.627Zm0-5.644A40.609,40.609,0,0,0,21.648,58.041H16.134A46.107,46.107,0,0,1,58.341,16.105Zm0-11.154V14.1A48.109,48.109,0,0,0,14.127,58.041H10.5A51.734,51.734,0,0,1,58.341,10.465ZM5.5,62.159v-.618a1.5,1.5,0,0,1,1.5-1.5H33.138a1.5,1.5,0,0,1,1.5,1.5v.618a1.5,1.5,0,0,1-1.5,1.5H7A1.5,1.5,0,0,1,5.5,62.159Zm52.541,51.352A51.74,51.74,0,0,1,10.467,65.659H14.1a48.115,48.115,0,0,0,43.942,44.224Zm0-5.633A46.114,46.114,0,0,1,16.106,65.659h5.513a40.622,40.622,0,0,0,36.422,36.712Zm0-7.514a38.622,38.622,0,0,1-34.415-34.7h3.635a35,35,0,0,0,30.78,31.058ZM63.659,117a1.5,1.5,0,0,1-1.5,1.5h-.618a1.5,1.5,0,0,1-1.5-1.5V90.862a1.5,1.5,0,0,1,1.5-1.5h.618a1.5,1.5,0,0,1,1.5,1.5Zm-1.5-29.638h-.618a3.5,3.5,0,0,0-3.5,3.5V94.7A33,33,0,0,1,29.269,65.659h3.869a3.5,3.5,0,0,0,3.5-3.5v-.618a3.5,3.5,0,0,0-3.5-3.5H29.3A33,33,0,0,1,58.341,29.272v3.866a3.5,3.5,0,0,0,3.5,3.5h.618a3.5,3.5,0,0,0,3.5-3.5V29.305a32.991,32.991,0,0,1,28.77,29.036H90.862a3.5,3.5,0,0,0-3.5,3.5v.618a3.5,3.5,0,0,0,3.5,3.5h3.82A32.818,32.818,0,0,1,91.067,77.5a1,1,0,0,0,1.764.943A34.837,34.837,0,0,0,96.7,65.959h3.647a38.62,38.62,0,0,1-34.683,34.433V96.735A34.785,34.785,0,0,0,80.3,91.761a1,1,0,0,0-1.051-1.7,32.781,32.781,0,0,1-13.594,4.665V90.862A3.5,3.5,0,0,0,62.159,87.362Zm45.708-21.4A46.113,46.113,0,0,1,65.659,107.9V102.4a40.617,40.617,0,0,0,36.692-36.437ZM65.659,113.534v-3.627a48.113,48.113,0,0,0,44.216-43.948h3.632A51.737,51.737,0,0,1,65.659,113.534ZM118.5,62.459a1.5,1.5,0,0,1-1.5,1.5H90.862a1.5,1.5,0,0,1-1.5-1.5v-.618a1.5,1.5,0,0,1,1.5-1.5H117a1.5,1.5,0,0,1,1.5,1.5Z" fill="#3a2c60"/></svg>