<?xml version="1.0" encoding="utf-8"?>
<!-- Generator: Adobe Illustrator 22.0.1, SVG Export Plug-In . SVG Version: 6.00 Build 0)  -->
<svg version="1.1" id="Layer_1" xmlns="http://www.w3.org/2000/svg" xmlns:xlink="http://www.w3.org/1999/xlink" x="0px" y="0px"
	 viewBox="0 0 128 128" style="enable-background:new 0 0 128 128;" xml:space="preserve">
<style type="text/css">
	.st0{fill:#3A2C60;}
	.st1{fill:#E6E7E8;}
	.st2{fill:#FA759E;}
	.st3{fill:#FFD7E5;}
	.st4{fill:#FFFFFF;}
	.st5{fill:#6DC9F7;}
	.st6{fill:#D4FBFF;}
	.st7{fill:#0089EF;}
</style>
<g>
	<g>
		<path class="st1" d="M110.286,51.768h-5.817h-29.15c0.689-2.569,1.062-5.266,1.062-8.049c0-17.156-13.958-31.114-31.114-31.114
			S14.151,26.563,14.151,43.719c0,10.406,5.135,20.018,13.765,25.822v14.803c0,0.39,0.227,0.744,0.581,0.908
			c0.134,0.062,0.276,0.092,0.419,0.092c0.233,0,0.464-0.082,0.648-0.239l12.276-10.467c1.168,0.13,2.318,0.195,3.425,0.195
			c6.168,0,11.917-1.811,16.758-4.919v28.147c0,4.171,3.394,7.564,7.564,7.564h12.237l14.489,13.502
			c0.188,0.176,0.434,0.269,0.682,0.269c0.135,0,0.271-0.027,0.398-0.083c0.365-0.159,0.602-0.519,0.602-0.917v-12.771h12.29
			c4.171,0,7.563-3.394,7.563-7.564V59.332C117.849,55.161,114.457,51.768,110.286,51.768z"/>
	</g>
	<g>
		<path class="st2" d="M59.024,55.332c0-3.625,2.939-6.564,6.564-6.564h4.406c0.899-2.856,1.385-5.896,1.385-9.049
			c0-16.632-13.483-30.114-30.115-30.114c-16.632,0-30.115,13.483-30.115,30.114c0,10.603,5.484,19.919,13.766,25.284v15.34
			l12.608-10.75c1.227,0.152,2.473,0.24,3.741,0.24c6.642,0,12.779-2.155,17.758-5.798V55.332z"/>
		<g>
			<path class="st4" d="M41.265,12.604c16.129,0,29.295,12.68,30.077,28.614c0.024-0.497,0.038-0.997,0.038-1.5
				c0-16.632-13.483-30.114-30.115-30.114S11.151,23.087,11.151,39.719c0,0.464,0.024,0.922,0.045,1.38
				C12.037,25.221,25.177,12.604,41.265,12.604z"/>
		</g>
		<g>
			<g>
				<g>
					<path class="st5" d="M106.286,48.768H65.588c-3.625,0-6.564,2.939-6.564,6.564V94.06c0,3.625,2.939,6.564,6.564,6.564h12.631
						l14.777,13.771v-13.771h13.289c3.625,0,6.564-2.939,6.564-6.564V55.332C112.85,51.707,109.911,48.768,106.286,48.768z"/>
				</g>
			</g>
			<g>
				<path class="st0" d="M106.285,47.768h-5.816c-0.553,0-1,0.448-1,1s0.447,1,1,1h5.816c3.068,0,5.564,2.496,5.564,5.564v38.729
					c0,3.068-2.496,5.564-5.564,5.564H92.996c-0.553,0-1,0.447-1,1v11.473L78.901,99.894c-0.185-0.173-0.429-0.269-0.682-0.269
					H65.588c-3.068,0-5.564-2.496-5.564-5.564V55.332c0-3.068,2.496-5.564,5.564-5.564h17.881c0.553,0,1-0.448,1-1s-0.447-1-1-1
					h-12.17c0.691-2.571,1.081-5.263,1.081-8.049c0-17.156-13.958-31.114-31.114-31.114c-17.157,0-31.115,13.958-31.115,31.114
					c0,10.405,5.136,20.017,13.766,25.822v14.803c0,0.39,0.227,0.744,0.581,0.908c0.134,0.062,0.276,0.092,0.419,0.092
					c0.233,0,0.464-0.082,0.648-0.239l12.276-10.467c1.168,0.13,2.318,0.195,3.425,0.195c6.173,0,11.915-1.83,16.758-4.943v28.17
					c0,4.171,3.394,7.564,7.564,7.564h12.237l14.489,13.503c0.188,0.176,0.434,0.269,0.682,0.269c0.135,0,0.271-0.027,0.398-0.083
					c0.365-0.159,0.602-0.519,0.602-0.917v-12.771h12.289c4.171,0,7.564-3.394,7.564-7.564V55.332
					C113.85,51.161,110.456,47.768,106.285,47.768z M41.266,68.833c-1.18,0-2.363-0.076-3.618-0.231
					c-0.277-0.035-0.559,0.049-0.771,0.231l-10.96,9.344V65.003c0-0.339-0.172-0.655-0.456-0.839
					c-8.334-5.4-13.31-14.539-13.31-24.445c0-16.054,13.061-29.114,29.115-29.114c16.054,0,29.114,13.061,29.114,29.114
					c0,2.795-0.422,5.489-1.161,8.049h-3.631c-4.171,0-7.564,3.394-7.564,7.564v8.146C53.279,66.835,47.508,68.833,41.266,68.833z"
					/>
				<path class="st0" d="M87.719,49.768h8.625c0.553,0,1-0.448,1-1s-0.447-1-1-1h-8.625c-0.553,0-1,0.448-1,1
					S87.166,49.768,87.719,49.768z"/>
			</g>
			<g>
				<g>
					<path class="st4" d="M51.343,49.165c0.838,0.568,1.753,1.119,2.747,1.655c0.993,0.535,1.651,0.961,1.974,1.277
						c0.323,0.316,0.483,0.764,0.483,1.345c0,0.413-0.191,0.825-0.571,1.238c-0.38,0.413-0.842,0.619-1.383,0.619
						c-0.439,0-0.971-0.142-1.597-0.426c-0.626-0.284-1.361-0.697-2.205-1.239c-0.845-0.541-1.771-1.173-2.777-1.896
						c-1.87,0.954-4.167,1.432-6.888,1.432c-2.206,0-4.183-0.352-5.931-1.055c-1.748-0.703-3.216-1.715-4.402-3.038
						c-1.187-1.322-2.08-2.893-2.68-4.711c-0.6-1.819-0.899-3.799-0.899-5.94c0-2.18,0.312-4.179,0.938-5.998
						c0.626-1.818,1.531-3.366,2.718-4.643c1.187-1.277,2.632-2.254,4.334-2.931c1.703-0.677,3.638-1.016,5.805-1.016
						c2.941,0,5.466,0.597,7.575,1.79c2.109,1.194,3.705,2.89,4.789,5.089c1.084,2.2,1.625,4.782,1.625,7.749
						C54.999,42.968,53.781,46.534,51.343,49.165z M46.835,46.031c0.8-0.916,1.39-1.999,1.77-3.251
						c0.38-1.251,0.571-2.702,0.571-4.353c0-2.077-0.336-3.876-1.006-5.398c-0.67-1.522-1.628-2.673-2.873-3.454
						c-1.245-0.78-2.674-1.17-4.286-1.17c-1.149,0-2.21,0.216-3.183,0.648c-0.974,0.432-1.812,1.061-2.515,1.886
						c-0.704,0.826-1.258,1.88-1.664,3.164c-0.406,1.284-0.609,2.725-0.609,4.324c0,3.264,0.76,5.775,2.283,7.536
						c1.522,1.761,3.444,2.641,5.765,2.641c0.954,0,1.935-0.2,2.941-0.6c-0.607-0.451-1.364-0.903-2.273-1.354
						c-0.909-0.451-1.532-0.8-1.867-1.045c-0.336-0.245-0.503-0.593-0.503-1.045c0-0.387,0.162-0.729,0.484-1.025
						c0.322-0.297,0.677-0.445,1.064-0.445C42.107,43.09,44.074,44.07,46.835,46.031z"/>
				</g>
			</g>
			<g>
				<g>
					<path class="st4" d="M92.931,85.706l-1.355-3.56H80.044l-1.355,3.638c-0.529,1.419-0.98,2.377-1.354,2.873
						s-0.987,0.745-1.838,0.745c-0.723,0-1.361-0.264-1.916-0.793c-0.554-0.529-0.831-1.129-0.831-1.8
						c0-0.387,0.064-0.787,0.193-1.2c0.128-0.413,0.342-0.987,0.638-1.722l7.256-18.42c0.205-0.529,0.455-1.163,0.745-1.905
						c0.29-0.741,0.6-1.357,0.928-1.848c0.33-0.49,0.761-0.886,1.296-1.19c0.536-0.303,1.197-0.455,1.983-0.455
						c0.8,0,1.468,0.152,2.003,0.455c0.535,0.303,0.967,0.693,1.296,1.17c0.329,0.477,0.606,0.99,0.832,1.538
						c0.226,0.548,0.512,1.28,0.861,2.196l7.41,18.304c0.58,1.393,0.871,2.406,0.871,3.038c0,0.657-0.274,1.26-0.822,1.808
						c-0.548,0.548-1.209,0.822-1.983,0.822c-0.452,0-0.838-0.08-1.161-0.242c-0.323-0.161-0.593-0.38-0.813-0.657
						s-0.455-0.703-0.706-1.277C93.328,86.65,93.111,86.144,92.931,85.706z M81.554,77.831h8.474l-4.276-11.706L81.554,77.831z"/>
				</g>
			</g>
		</g>
	</g>
</g>
</svg>
