<svg xmlns="http://www.w3.org/2000/svg" viewBox="0 0 128 128"><title>icon</title><path d="M106.986,40.073,79.539,12.627a1,1,0,0,0-.707-.293H27.666a3,3,0,0,0-3,3V116.667a3,3,0,0,0,3,3h76.667a3,3,0,0,0,3-3V40.831A1,1,0,0,0,106.986,40.073Z" fill="#e6e7e8"/><path d="M102.331,36.833l-27.5-27.5H23.667a2,2,0,0,0-2,2V112.667a2,2,0,0,0,2,2h76.666a2,2,0,0,0,2-2V36.831Z" fill="#d4fbff"/><path d="M52.265,79.191a2.262,2.262,0,0,1,0,3.12,2.315,2.315,0,0,1-1.56.534H47.363a5.345,5.345,0,0,1-3.989-1.426,5.41,5.41,0,0,1-1.4-3.966V68.808a4.245,4.245,0,0,0-.623-2.585,3.011,3.011,0,0,0-2.229-.936A2.061,2.061,0,0,1,36.979,63.1a2.094,2.094,0,0,1,.557-1.515,2.235,2.235,0,0,1,1.582-.624,3.011,3.011,0,0,0,2.229-.936,4.243,4.243,0,0,0,.623-2.585V48.8a5.41,5.41,0,0,1,1.4-3.966,5.345,5.345,0,0,1,3.989-1.426h3.342a2.315,2.315,0,0,1,1.56.534,2.262,2.262,0,0,1,0,3.12,2.311,2.311,0,0,1-1.56.535H49.279a1.907,1.907,0,0,0-1.4.468,2.044,2.044,0,0,0-.468,1.493v8.556a5.35,5.35,0,0,1-1.047,3.365,4.254,4.254,0,0,1-2.473,1.671A4.28,4.28,0,0,1,46.36,64.8a5.254,5.254,0,0,1,1.047,3.342v8.556a2.044,2.044,0,0,0,.468,1.493,1.907,1.907,0,0,0,1.4.468h1.426A2.311,2.311,0,0,1,52.265,79.191Z" fill="#fa759e"/><path d="M60.052,58.268a3.276,3.276,0,0,1-.936-2.384,3.3,3.3,0,1,1,6.6,0,3.276,3.276,0,0,1-.936,2.384,3.391,3.391,0,0,1-4.724,0Zm4.724,11.253a4.939,4.939,0,0,1,.936,3.253,10.216,10.216,0,0,1-2.942,7.309,1.748,1.748,0,0,1-1.247.579,1.667,1.667,0,0,1-1.159-.446,1.4,1.4,0,0,1-.49-1.07,1.506,1.506,0,0,1,.446-1.024,6.846,6.846,0,0,0,1.738-3.209,3.278,3.278,0,0,1-2.117-1,3.015,3.015,0,0,1-.825-2.161,3.32,3.32,0,0,1,.914-2.384,3.239,3.239,0,0,1,4.746.156Z" fill="#fa759e"/><path d="M87.292,61.588A2.1,2.1,0,0,1,87.85,63.1a2.227,2.227,0,0,1-.536,1.538,2.16,2.16,0,0,1-1.6.646,3.011,3.011,0,0,0-2.229.936,4.238,4.238,0,0,0-.623,2.585v8.645a5.41,5.41,0,0,1-1.4,3.966,5.344,5.344,0,0,1-3.988,1.426H74.123a2.315,2.315,0,0,1-1.56-.534,2.262,2.262,0,0,1,0-3.12,2.311,2.311,0,0,1,1.56-.535H75.55a1.9,1.9,0,0,0,1.4-.468,2.04,2.04,0,0,0,.468-1.493V68.139A5.243,5.243,0,0,1,78.469,64.8a4.272,4.272,0,0,1,2.472-1.649,4.246,4.246,0,0,1-2.472-1.671,5.339,5.339,0,0,1-1.048-3.365V49.556a2.04,2.04,0,0,0-.468-1.493,1.9,1.9,0,0,0-1.4-.468H74.123a2.311,2.311,0,0,1-1.56-.535,2.262,2.262,0,0,1,0-3.12,2.315,2.315,0,0,1,1.56-.534h3.343a5.344,5.344,0,0,1,3.988,1.426,5.41,5.41,0,0,1,1.4,3.966v8.645a4.236,4.236,0,0,0,.623,2.585,3.011,3.011,0,0,0,2.229.936A2.237,2.237,0,0,1,87.292,61.588Z" fill="#fa759e"/><path d="M21.667,91v21.667a2,2,0,0,0,2,2h76.666a2,2,0,0,0,2-2V91Z" fill="#6dc9f7"/><path d="M23.667,12.333H77.832l-3-3H23.667a2,2,0,0,0-2,2v3A2,2,0,0,1,23.667,12.333Z" fill="#fff"/><path d="M74.834,9.333l0,0v25.5a2,2,0,0,0,2,2h25.5Z" fill="#6dc9f7"/><path d="M47.152,62.087a6.347,6.347,0,0,0,1.255-3.975V49.556c0-.567.134-.745.175-.786a1.041,1.041,0,0,1,.7-.175h1.426a3.3,3.3,0,0,0,2.211-.776,3.25,3.25,0,0,0,0-4.638,3.3,3.3,0,0,0-2.211-.775H47.363a6.324,6.324,0,0,0-4.7,1.725A6.393,6.393,0,0,0,40.97,48.8v8.645a3.272,3.272,0,0,1-.412,1.971,2.134,2.134,0,0,1-1.483.551,3.206,3.206,0,0,0-2.26.93,3.069,3.069,0,0,0-.836,2.208,3.053,3.053,0,0,0,3.056,3.181,2.175,2.175,0,0,1,1.522.552,3.268,3.268,0,0,1,.413,1.972v8.645a6.392,6.392,0,0,0,1.692,4.668,6.325,6.325,0,0,0,4.7,1.724h3.342a3.3,3.3,0,0,0,2.211-.775,3.25,3.25,0,0,0,0-4.638,3.3,3.3,0,0,0-2.211-.776H49.279a1.041,1.041,0,0,1-.7-.175c-.041-.041-.175-.219-.175-.786V68.139a6.254,6.254,0,0,0-1.26-3.959,6.178,6.178,0,0,0-1.018-1.036A6.2,6.2,0,0,0,47.152,62.087Zm-.745-3.975a4.335,4.335,0,0,1-.84,2.754,3.251,3.251,0,0,1-1.894,1.3,1,1,0,0,0,0,1.954,3.287,3.287,0,0,1,1.9,1.289,4.252,4.252,0,0,1,.834,2.725v8.556a2.99,2.99,0,0,0,.761,2.2,2.865,2.865,0,0,0,2.111.761h1.426a1.318,1.318,0,0,1,.909.294,1.3,1.3,0,0,1,0,1.6,1.318,1.318,0,0,1-.909.294H47.363a4.362,4.362,0,0,1-3.276-1.127,4.423,4.423,0,0,1-1.117-3.265V68.808a5.115,5.115,0,0,0-.834-3.2,3.986,3.986,0,0,0-2.975-1.32A1.075,1.075,0,0,1,37.979,63.1a1.085,1.085,0,0,1,.278-.822,1.328,1.328,0,0,1,.944-.32,3.953,3.953,0,0,0,2.935-1.319,5.112,5.112,0,0,0,.834-3.2V48.8a4.422,4.422,0,0,1,1.116-3.264,4.365,4.365,0,0,1,3.277-1.128h3.342a1.318,1.318,0,0,1,.909.294,1.3,1.3,0,0,1,0,1.6,1.323,1.323,0,0,1-.909.294H49.279a2.872,2.872,0,0,0-2.111.76,2.994,2.994,0,0,0-.761,2.2Z" fill="#3a2c60"/><path d="M62.414,51.586a4.2,4.2,0,0,0-4.3,4.3,4.258,4.258,0,0,0,1.221,3.083,4.391,4.391,0,0,0,6.155,0,4.257,4.257,0,0,0,1.22-3.083,4.2,4.2,0,0,0-4.3-4.3Zm1.647,5.983a2.392,2.392,0,0,1-3.293,0,2.29,2.29,0,0,1-.652-1.685,2.224,2.224,0,0,1,.643-1.655,2.3,2.3,0,0,1,3.953,1.655A2.292,2.292,0,0,1,64.061,57.569Z" fill="#3a2c60"/><path d="M65.542,68.877a4.073,4.073,0,0,0-3.217-1.471,4.015,4.015,0,0,0-3.019,1.269,4.306,4.306,0,0,0-1.19,3.073,4,4,0,0,0,1.1,2.85,4.13,4.13,0,0,0,1.566,1.04,6.121,6.121,0,0,1-1.2,1.81,2.485,2.485,0,0,0-.707,1.7,2.392,2.392,0,0,0,.818,1.81,2.683,2.683,0,0,0,1.831.706,2.735,2.735,0,0,0,1.97-.888,11.228,11.228,0,0,0,3.219-8,5.916,5.916,0,0,0-1.17-3.9Zm-3.478,10.5a.753.753,0,0,1-.541.287.669.669,0,0,1-.487-.187.4.4,0,0,1-.162-.329.563.563,0,0,1,.176-.341,7.849,7.849,0,0,0,1.983-3.672,1,1,0,0,0-.872-1.215,2.289,2.289,0,0,1-1.5-.7,2.007,2.007,0,0,1-.55-1.473,2.339,2.339,0,0,1,.637-1.693,2.242,2.242,0,0,1,3.258.109,4.032,4.032,0,0,1,.7,2.61A9.156,9.156,0,0,1,62.064,79.375Z" fill="#3a2c60"/><path d="M83.858,77.453V68.808a3.259,3.259,0,0,1,.413-1.971,2.126,2.126,0,0,1,1.48-.551,3.123,3.123,0,0,0,2.311-.981,3.206,3.206,0,0,0,.788-2.2,3.078,3.078,0,0,0-.836-2.208h0a3.173,3.173,0,0,0-2.219-.926,2.175,2.175,0,0,1-1.522-.554,3.259,3.259,0,0,1-.413-1.971V48.8a6.4,6.4,0,0,0-1.691-4.667,6.321,6.321,0,0,0-4.7-1.725H74.123a3.293,3.293,0,0,0-2.21.775,3.248,3.248,0,0,0,0,4.638,3.293,3.293,0,0,0,2.21.776H75.55a1.039,1.039,0,0,1,.7.175c.041.041.175.218.175.786v8.556a6.34,6.34,0,0,0,1.255,3.974A6.173,6.173,0,0,0,78.7,63.144a6.136,6.136,0,0,0-1.017,1.036,6.241,6.241,0,0,0-1.261,3.959v8.556c0,.568-.134.745-.176.787a1.041,1.041,0,0,1-.7.174H74.123a3.293,3.293,0,0,0-2.21.776,3.248,3.248,0,0,0,0,4.638,3.3,3.3,0,0,0,2.21.775h3.343a6.325,6.325,0,0,0,4.7-1.724A6.4,6.4,0,0,0,83.858,77.453Zm-2,0a4.423,4.423,0,0,1-1.117,3.265,4.36,4.36,0,0,1-3.275,1.127H74.123a1.318,1.318,0,0,1-.909-.294,1.3,1.3,0,0,1,0-1.6,1.318,1.318,0,0,1,.909-.294H75.55a2.865,2.865,0,0,0,2.11-.76,2.991,2.991,0,0,0,.761-2.2V68.139a4.242,4.242,0,0,1,.836-2.726,3.283,3.283,0,0,1,1.9-1.288,1,1,0,0,0,0-1.954,3.252,3.252,0,0,1-1.893-1.3,4.331,4.331,0,0,1-.84-2.754V49.556a2.991,2.991,0,0,0-.761-2.2,2.868,2.868,0,0,0-2.11-.76H74.123a1.323,1.323,0,0,1-.909-.294,1.3,1.3,0,0,1,0-1.6,1.318,1.318,0,0,1,.909-.294h3.343a4.36,4.36,0,0,1,3.275,1.127A4.423,4.423,0,0,1,81.858,48.8v8.645a5.111,5.111,0,0,0,.834,3.2,3.985,3.985,0,0,0,2.974,1.32,1.2,1.2,0,0,1,.906.319,1.091,1.091,0,0,1,.278.821,1.2,1.2,0,0,1-.284.874,1.292,1.292,0,0,1-.939.313,3.954,3.954,0,0,0-2.935,1.318,5.111,5.111,0,0,0-.834,3.2Z" fill="#3a2c60"/><path d="M90,90H80.25a1,1,0,0,0,0,2H90a1,1,0,0,0,0-2Z" fill="#3a2c60"/><path d="M58.213,97.273a.9.9,0,0,0-.96.96v6.706a1.625,1.625,0,0,1-.315,1.094,1.256,1.256,0,0,1-.93.39l-.48.03a.917.917,0,0,0-.593.218.742.742,0,0,0-.187.547q0,.84,1.155.8l.48-.03a2.711,2.711,0,0,0,2.805-3.044V98.233a.942.942,0,0,0-.263-.7A.962.962,0,0,0,58.213,97.273Z" fill="#3a2c60"/><path d="M67.534,102.546a12.055,12.055,0,0,0-2.167-.668,6.134,6.134,0,0,1-1.785-.615,1.052,1.052,0,0,1-.525-.945,1.319,1.319,0,0,1,.593-1.147,2.776,2.776,0,0,1,1.612-.413,4.049,4.049,0,0,1,1.418.218,5.033,5.033,0,0,1,1.192.668,2.2,2.2,0,0,0,.337.164.833.833,0,0,0,.279.046.556.556,0,0,0,.442-.233.932.932,0,0,0,.1-.945,1.094,1.094,0,0,0-.277-.322,5.8,5.8,0,0,0-5.6-.728,3.458,3.458,0,0,0-1.462,1.147,2.789,2.789,0,0,0-.526,1.666,2.48,2.48,0,0,0,.42,1.484,3.02,3.02,0,0,0,1.245.96,10.73,10.73,0,0,0,2.145.66,7.251,7.251,0,0,1,1.823.593.962.962,0,0,1,.547.877,1.251,1.251,0,0,1-.585,1.118,3.072,3.072,0,0,1-1.68.382,5.451,5.451,0,0,1-1.56-.21,4.452,4.452,0,0,1-1.35-.675,1.216,1.216,0,0,0-.615-.21.555.555,0,0,0-.442.233.91.91,0,0,0,.157,1.267,4.79,4.79,0,0,0,1.673.833,7.566,7.566,0,0,0,2.182.307,5.475,5.475,0,0,0,2.153-.4,3.373,3.373,0,0,0,1.455-1.11,2.73,2.73,0,0,0,.517-1.643,2.254,2.254,0,0,0-.442-1.425A3.22,3.22,0,0,0,67.534,102.546Z" fill="#3a2c60"/><path d="M102.985,36.073,75.539,8.626a1,1,0,0,0-.707-.293H23.667a3,3,0,0,0-3,3V112.666a3,3,0,0,0,3,3h76.666a3,3,0,0,0,3-3V36.831A1,1,0,0,0,102.985,36.073ZM75.832,11.748,99.917,35.833H76.832a1,1,0,0,1-1-1Zm24.5,101.918H23.667a1,1,0,0,1-1-1V92H76a1,1,0,0,0,0-2H22.667V11.333a1,1,0,0,1,1-1H73.832v24.5a3,3,0,0,0,3,3h24.5V90H94.375a1,1,0,0,0,0,2h6.958v20.666A1,1,0,0,1,100.333,113.666Z" fill="#3a2c60"/></svg>