<?xml version="1.0" encoding="utf-8"?>
<!-- Generator: Adobe Illustrator 22.0.0, SVG Export Plug-In . SVG Version: 6.00 Build 0)  -->
<svg version="1.1" id="Layer_1" xmlns="http://www.w3.org/2000/svg" xmlns:xlink="http://www.w3.org/1999/xlink" x="0px" y="0px"
	 viewBox="0 0 128 128" style="enable-background:new 0 0 128 128;" xml:space="preserve">
<style type="text/css">
	.st0{fill:#3A2C60;}
	.st1{fill:#E6E7E8;}
	.st2{fill:#0089EF;}
	.st3{fill:#6DC9F7;}
	.st4{fill:#D4FBFF;}
	.st5{fill:#FA759E;}
	.st6{fill:#FFD7E5;}
	.st7{fill:#FFFFFF;}
</style>
<g>
	<path class="st1" d="M124.539,54.935l-8.353-13.603V29.37c0-0.802-0.313-1.555-0.878-2.12c-0.565-0.567-1.319-0.88-2.122-0.88
		H29.131v-8.859c0-0.224-0.075-0.441-0.214-0.618c-1.111-1.415-2.544-2.584-4.145-3.383c-1.683-0.84-3.496-1.266-5.389-1.266
		c-3.032,0-5.935,1.125-8.173,3.169c-2.222,2.03-3.604,4.791-3.897,7.872v4.084v66.623v0.083c0,4.008,1.561,7.774,4.394,10.606
		c2.833,2.833,6.6,4.394,10.606,4.394h83.372v6.553c0,1.103,0.43,2.139,1.209,2.918c0.778,0.779,1.814,1.208,2.917,1.208h10.748
		c1.103,0,2.139-0.429,2.917-1.208c0.779-0.779,1.209-1.815,1.209-2.918v-60.17C124.686,55.274,124.635,55.093,124.539,54.935z"/>
	<g>
		<path class="st4" d="M102.686,51.459l8.498-13.847l0.002,0.004V25.37c0-1.105-0.895-2-2-2H4.314v66.706c0,7.732,6.268,14,14,14
			h84.372V51.459z"/>
		<path class="st6" d="M76.403,55.403v3.009c0,0.759-0.615,1.374-1.374,1.374h-3.009l-0.418,0.418
			c-0.52,2.291-1.436,4.432-2.693,6.331l2.351,2.351c0.537,0.537,0.537,1.407,0,1.943L67.77,74.32c-0.537,0.537-1.407,0.537-1.943,0
			l-2.351-2.351c-1.899,1.258-4.04,2.174-6.331,2.693l-0.418,0.418v3.009c0,0.759-0.615,1.374-1.374,1.374h-3.009L36.436,95.37
			h57.359V38.01L76.403,55.403z M83.603,85.203h-22l22-22V85.203z"/>
		<path class="st5" d="M76.403,58.412v-4.935c0-0.759-0.615-1.374-1.374-1.374h-3.321c-0.498-2.452-1.465-4.733-2.8-6.749
			l2.351-2.351c0.537-0.537,0.537-1.407,0-1.943L67.77,37.57c-0.537-0.537-1.407-0.537-1.943,0l-2.351,2.352
			c-2.016-1.335-4.297-2.302-6.749-2.8v-3.321c0-0.759-0.615-1.374-1.374-1.374h-4.935c-0.759,0-1.374,0.615-1.374,1.374v3.321
			c-2.452,0.498-4.733,1.465-6.749,2.8l-2.351-2.352c-0.537-0.537-1.407-0.537-1.943,0L34.51,41.06
			c-0.537,0.537-0.537,1.407,0,1.943l2.351,2.351c-1.335,2.016-2.302,4.297-2.8,6.749H30.74c-0.759,0-1.374,0.615-1.374,1.374v4.935
			c0,0.759,0.615,1.374,1.374,1.374h3.321c0.498,2.452,1.465,4.733,2.8,6.749l-2.351,2.351c-0.537,0.537-0.537,1.407,0,1.943
			l3.489,3.489c0.537,0.537,1.407,0.537,1.943,0l2.351-2.351c2.016,1.335,4.297,2.302,6.749,2.8v3.321
			c0,0.759,0.615,1.374,1.374,1.374h4.935c0.759,0,1.374-0.615,1.374-1.374v-3.321c2.452-0.498,4.733-1.465,6.749-2.8l2.351,2.351
			c0.537,0.537,1.407,0.537,1.943,0l3.489-3.489c0.537-0.537,0.537-1.407,0-1.943l-2.351-2.351c1.335-2.016,2.302-4.297,2.8-6.749
			h3.321C75.788,59.787,76.403,59.171,76.403,58.412z M52.884,67.189c-6.21,0-11.244-5.034-11.244-11.244
			c0-6.21,5.034-11.244,11.244-11.244c6.21,0,11.244,5.034,11.244,11.244C64.128,62.155,59.094,67.189,52.884,67.189z"/>
		<path class="st7" d="M109.186,23.37H24.131v3h85.055c1.105,0,2,0.895,2,2v-3C111.186,24.265,110.291,23.37,109.186,23.37z"/>
		<path class="st3" d="M15.384,9.245c-5.778,0-10.525,4.406-11.07,10.041v70.707c0.488-5.694,5.25-10.166,11.07-10.166
			c3.554,0,6.711,1.672,8.747,4.266V78.87V13.511C22.095,10.917,18.938,9.245,15.384,9.245z"/>
		<g>
			<g>
				<path class="st6" d="M102.686,51.459l8.498-13.847l8.502,13.847l0,60.17c0,1.727-1.4,3.126-3.126,3.126l-10.747,0
					c-1.727,0-3.126-1.4-3.126-3.126L102.686,51.459z"/>
			</g>
			<g>
				<path class="st2" d="M102.686,51.459l17,0l0,60.17c0,1.727-1.4,3.126-3.126,3.126l-10.747,0c-1.727,0-3.126-1.4-3.126-3.126
					L102.686,51.459z"/>
			</g>
			<path class="st5" d="M102.686,107.492v4.137c0,1.727,1.4,3.126,3.126,3.126h10.747c1.727,0,3.126-1.4,3.126-3.126l0-4.137
				L102.686,107.492z"/>
			<g>
				<path class="st0" d="M83.985,62.279c-0.374-0.154-0.803-0.069-1.09,0.217l-22,22c-0.286,0.286-0.372,0.716-0.217,1.09
					c0.155,0.374,0.52,0.617,0.924,0.617h22c0.553,0,1-0.448,1-1v-22C84.602,62.799,84.359,62.434,83.985,62.279z M82.602,84.203
					H64.017l18.585-18.586V84.203z"/>
				<path class="st0" d="M35.512,95.752c0.155,0.374,0.52,0.617,0.924,0.617h57.36c0.553,0,1-0.448,1-1V38.01
					c0-0.404-0.243-0.769-0.617-0.924c-0.373-0.154-0.803-0.069-1.09,0.217l-15.73,15.73c-0.209-1.097-1.173-1.93-2.33-1.93h-2.52
					c-0.486-1.978-1.267-3.858-2.327-5.608l1.784-1.785c0.448-0.449,0.696-1.045,0.696-1.679s-0.248-1.23-0.696-1.679l-3.489-3.489
					c-0.896-0.897-2.459-0.899-3.357,0l-1.785,1.785c-1.75-1.061-3.631-1.841-5.608-2.327v-2.521c0-1.309-1.065-2.375-2.374-2.375
					h-4.935c-1.309,0-2.374,1.065-2.374,2.375v2.521c-1.977,0.485-3.857,1.266-5.607,2.327l-1.786-1.785
					c-0.926-0.926-2.432-0.926-3.357,0l-3.49,3.489c-0.925,0.926-0.925,2.433,0,3.358l1.785,1.785
					c-1.061,1.75-1.841,3.631-2.327,5.608h-2.521c-1.309,0-2.375,1.065-2.375,2.374v4.935c0,1.309,1.065,2.374,2.375,2.374h2.521
					c0.485,1.977,1.266,3.857,2.327,5.607l-1.785,1.786c-0.926,0.926-0.926,2.432,0,3.357l3.49,3.49
					c0.926,0.926,2.432,0.926,3.357,0l1.786-1.785c1.75,1.061,3.63,1.841,5.607,2.327v2.521c0,1.157,0.833,2.12,1.93,2.329
					L35.729,94.663C35.443,94.949,35.357,95.378,35.512,95.752z M49.242,73.788c-2.285-0.464-4.437-1.356-6.395-2.653
					c-0.169-0.112-0.361-0.167-0.552-0.167c-0.258,0-0.514,0.1-0.708,0.293l-2.352,2.352c-0.146,0.146-0.383,0.146-0.529,0
					l-3.49-3.49c-0.146-0.146-0.146-0.383,0-0.529l2.352-2.352c0.336-0.336,0.389-0.863,0.126-1.259
					c-1.297-1.958-2.189-4.11-2.653-6.395c-0.095-0.466-0.504-0.801-0.98-0.801h-3.321c-0.207,0-0.375-0.168-0.375-0.374v-4.935
					c0-0.206,0.168-0.374,0.375-0.374h3.321c0.476,0,0.885-0.335,0.98-0.801c0.464-2.285,1.356-4.437,2.654-6.396
					c0.262-0.396,0.209-0.923-0.127-1.259l-2.352-2.351c-0.146-0.146-0.146-0.384,0-0.53l3.49-3.489
					c0.146-0.146,0.383-0.146,0.529,0l2.352,2.352c0.337,0.336,0.863,0.389,1.259,0.126c1.958-1.297,4.11-2.189,6.395-2.653
					c0.466-0.095,0.801-0.504,0.801-0.98v-3.321c0-0.207,0.168-0.375,0.374-0.375h4.935c0.206,0,0.374,0.168,0.374,0.375v3.321
					c0,0.476,0.335,0.885,0.801,0.98c2.285,0.464,4.437,1.356,6.396,2.654c0.397,0.262,0.924,0.209,1.259-0.127l2.351-2.351
					c0.193-0.193,0.34-0.189,0.529,0l3.489,3.489c0.096,0.096,0.11,0.207,0.11,0.265c0,0.058-0.015,0.169-0.11,0.265l-2.351,2.351
					c-0.336,0.336-0.39,0.863-0.127,1.259c1.297,1.958,2.189,4.11,2.653,6.396c0.095,0.466,0.505,0.801,0.98,0.801h3.32
					c0.207,0,0.375,0.168,0.375,0.374v4.935c0,0.206-0.168,0.374-0.375,0.374h-3.32c-0.476,0-0.886,0.335-0.98,0.801
					c-0.464,2.287-1.356,4.438-2.653,6.396c-0.263,0.396-0.209,0.923,0.127,1.259l2.351,2.352c0.096,0.095,0.11,0.207,0.11,0.264
					s-0.015,0.169-0.11,0.265l-3.489,3.49c-0.189,0.188-0.336,0.192-0.529,0l-2.351-2.352c-0.335-0.336-0.862-0.389-1.259-0.127
					c-1.959,1.297-4.111,2.19-6.396,2.654c-0.466,0.095-0.801,0.504-0.801,0.98v3.321c0,0.206-0.168,0.374-0.374,0.374h-4.935
					c-0.206,0-0.374-0.168-0.374-0.374v-3.321C50.043,74.292,49.708,73.883,49.242,73.788z M52.756,80.463h2.596
					c1.309,0,2.374-1.065,2.374-2.374v-2.521c1.977-0.485,3.857-1.266,5.608-2.327l1.786,1.786c0.898,0.897,2.46,0.895,3.357,0
					l3.489-3.489c0.448-0.449,0.696-1.045,0.696-1.679s-0.248-1.23-0.696-1.679l-1.784-1.786c1.061-1.75,1.841-3.629,2.327-5.607
					h2.52c1.31,0,2.375-1.065,2.375-2.374v-2.596l15.393-15.392V94.37H38.85L52.756,80.463z"/>
				<path class="st0" d="M65.128,55.945c0-6.751-5.493-12.244-12.244-12.244c-6.751,0-12.244,5.493-12.244,12.244
					c0,6.751,5.493,12.244,12.244,12.244C59.636,68.189,65.128,62.696,65.128,55.945z M42.641,55.945
					c0-5.648,4.596-10.244,10.244-10.244s10.244,4.596,10.244,10.244s-4.595,10.244-10.244,10.244S42.641,61.594,42.641,55.945z"/>
				<path class="st0" d="M50.936,103.076h-8.875c-0.552,0-1,0.448-1,1s0.448,1,1,1h8.875c0.552,0,1-0.448,1-1
					S51.488,103.076,50.936,103.076z"/>
				<path class="st0" d="M120.539,50.935l-8.353-13.602V25.37c0-1.654-1.346-3-3-3H25.131v-8.859c0-0.224-0.075-0.441-0.213-0.618
					c-2.32-2.954-5.794-4.648-9.534-4.648c-6.274,0-11.462,4.705-12.07,11.041v70.707v0.083c0,8.271,6.729,15,15,15h19.622
					c0.552,0,1-0.448,1-1s-0.448-1-1-1H18.314c-7.168,0-13-5.832-13-13v-0.023c0.457-5.176,4.874-9.227,10.07-9.227
					c3.121,0,6.022,1.416,7.96,3.884c0.263,0.335,0.712,0.464,1.113,0.328c0.403-0.14,0.673-0.519,0.673-0.945V24.37h84.055
					c0.552,0,1,0.449,1,1v11.955l-8.353,13.611c-0.097,0.157-0.147,0.338-0.147,0.523v51.617h-47c-0.552,0-1,0.448-1,1s0.448,1,1,1
					h47v6.553c0,2.275,1.851,4.126,4.126,4.126h10.747c2.275,0,4.127-1.851,4.127-4.126v-60.17
					C120.686,51.274,120.636,51.093,120.539,50.935z M23.131,81.63c-2.157-1.804-4.874-2.804-7.747-2.804
					c-4.146,0-7.878,2.152-10.071,5.422L5.309,19.381c0.504-5.208,4.836-9.137,10.075-9.137c3.008,0,5.813,1.315,7.747,3.621V81.63z
					 M103.686,52.458h15v54.034h-15V52.458z M112.729,42.041l5.169,8.418h-13.425l5.166-8.418H112.729z M116.559,113.755h-10.747
					c-1.172,0-2.126-0.954-2.126-2.126v-3.137h15v3.137C118.686,112.801,117.732,113.755,116.559,113.755z"/>
			</g>
		</g>
	</g>
</g>
</svg>
